<?xml version="1.0" encoding="utf-8"?>
<!-- Generator: Adobe Illustrator 24.0.1, SVG Export Plug-In . SVG Version: 6.00 Build 0)  -->
<svg version="1.1" id="Layer_1" xmlns="http://www.w3.org/2000/svg" xmlns:xlink="http://www.w3.org/1999/xlink" x="0px" y="0px"
	 viewBox="0 0 500 500" style="enable-background:new 0 0 500 500;" xml:space="preserve">
<style type="text/css">
	.st0{fill:#E5E5E5;}
	.st1{fill:#C1C1C1;}
	.st2{fill:#EBEBEB;}
	.st3{fill:#8948D7;}
	.st4{opacity:0.2;enable-background:new    ;}
	.st5{fill:#FFFFFF;}
	.st6{fill:#455A64;}
	.st7{fill:#37474F;}
	.st8{fill:#6D1E84;}
	.st9{opacity:5.000000e-02;enable-background:new    ;}
	.st10{opacity:0.15;enable-background:new    ;}
	.st11{fill:#FFA8A7;}
	.st12{fill:#F28F8F;}
	.st13{opacity:0.15;}
	.st14{fill:#F0F0F0;}
	.st15{fill:#3B4C55;}
	.st16{opacity:0.1;enable-background:new    ;}
	.st17{fill:#263238;}
	.st18{opacity:5.000000e-02;fill:#FFFFFF;enable-background:new    ;}
	.st19{opacity:0.2;fill:#FFFFFF;enable-background:new    ;}
	.st20{fill:none;}
</style>
<path class="st0" d="M410.2,259c-89.6-51.5-234.9-51.5-324.6,0s-89.6,135.1,0,186.6s234.9,51.5,324.6,0S499.9,310.5,410.2,259z"/>
<path class="st1" d="M351.6,377.6c22.6,0,41-10.6,41-23.6c0-13.1-18.3-23.7-41-23.7c-22.6,0-41,10.6-41,23.7
	C310.6,367,329,377.6,351.6,377.6z"/>
<path class="st1" d="M302.7,395.4c-16.4-1.5-30.3-0.5-41.3,1.8c-1.5-10.4-10-20.7-25.7-28.6c-34.5-17.6-90.6-17.6-125.1,0
	c-34.5,17.6-34.5,46.2,0,63.8c34.5,17.6,90.5,17.6,125.1,0c3.6-1.8,7.1-3.9,10.4-6.3c11.3,2.6,22.9,3.8,34.5,3.5l1.2,0.4
	c9.4,3,19.2,4.6,29.1,4.8c7.6,0,14-1.2,17.6-3.7c0.4-0.3,0.7-0.5,1.1-0.8c4.7,0.1,9.9,0.3,15.2-0.8c7.8-1.6,11.7-5,11.5-9.1
	C355.6,410,325.6,397.5,302.7,395.4z M281,426.2c-6.7-2.5-10.3-5.8-9.9-9.4c0.5-4.7,7.4-8.9,15.7-9.5c1.1-0.1,2.3-0.1,3.5-0.1
	c6.4,0,12.9,1.4,17,3.3c-1.8,0-3.7,0.3-5.4,0.9c-2.5,0.9-3.6,2.8-3,5.2c0.5,1.8,2,3.7,4.3,5.5C297.4,424.7,289.6,425.9,281,426.2z
	 M307.9,413.7c1.2,0,2.4,0.1,3.6,0.3c0,0.1,0.1,0.2,0.1,0.3c0.5,1.7-1.3,3.9-5.1,6.1c-2.6-1.7-4.1-3.5-4.5-4.7
	c-0.1-0.4-0.2-0.8,0.9-1.2C304.5,414,306.2,413.7,307.9,413.7L307.9,413.7z M290,428.8c5.5-0.6,10.8-2,15.8-4.3l0.5-0.3
	c5.4,3,11.3,4.8,17.4,5.5C316.5,432.3,303.1,431.9,290,428.8z M328.1,426.8c-6.4-0.3-12.6-1.8-18.4-4.6c3.6-2.4,5.3-4.9,5.2-7.5
	c3.5,0.9,6.8,2.5,9.7,4.7c2.6,2,4.1,4.2,4,5.9C328.6,425.9,328.4,426.4,328.1,426.8L328.1,426.8z M344.1,426.2
	c-4.4,0.9-8.6,0.7-12.5,0.7c0.1-0.4,0.2-0.9,0.2-1.3c0.2-2.9-1.7-6-5.2-8.7c-3.9-2.9-8.4-4.8-13.1-5.8c-4.4-5.5-17.8-7.8-27-7.1
	c-9.9,0.8-17.9,6.2-18.6,12.4c-0.3,2.4,0.4,6.2,5.7,9.7c-8.1-0.3-16.2-1.2-24.1-2.9c8.1-7,12.2-15,12.2-22.9
	c10.8-2.3,24.5-3.3,40.8-1.8c23.9,2.2,50.1,14.7,50.5,21.8C353,422.6,349.8,425.1,344.1,426.2L344.1,426.2z"/>
<path class="st2" d="M137.2,59.2l-11.5,6.6c0.1-0.5,0.1-1,0.1-1.5V61c0-5.9-4.1-8.3-9.3-5.4c-2.2,1.4-4.1,3.2-5.5,5.4
	c-0.8-7.4-6.7-10.2-13.7-6.1c-7.7,4.4-13.9,15.2-13.9,24v5c0,2,0.4,3.9,1.2,5.8l-9.5,5.5c-1.5,1-2.7,2.3-3.6,3.8
	c-0.9,1.5-1.4,3.3-1.5,5.1c0,3.3,2.3,4.6,5.1,3l62.1-35.9c1.5-1,2.7-2.3,3.6-3.8c0.9-1.5,1.4-3.3,1.5-5.1
	C142.3,58.9,140,57.6,137.2,59.2z"/>
<path class="st2" d="M183.7,79l-7.3,4.2c0-0.3,0.1-0.7,0.1-1v-2.1c0-3.8-2.6-5.3-5.9-3.4c-1.4,0.9-2.6,2-3.5,3.4
	c-0.5-4.7-4.2-6.5-8.8-3.9c-4.9,2.8-8.8,9.7-8.8,15.3v3.2c0,1.3,0.2,2.5,0.8,3.7l-6.1,3.5c-1,0.6-1.7,1.5-2.3,2.4
	c-0.6,1-0.9,2.1-1,3.2c0,2.1,1.5,2.9,3.3,1.9l39.6-22.9c1-0.6,1.7-1.5,2.3-2.4c0.6-1,0.9-2.1,1-3.2C187,78.8,185.5,78,183.7,79z"/>
<path class="st3" d="M345.2,350.3c-0.9-11.7-0.3-23.5,2.1-35c2.7-13.8,10.6-25,20.1-30.3c3.3-1.8,10.2-3.8,14.7,0.3
	c4.3,3.9,2,10.1-3.2,16.5c-10.3,12.6-20.5,23.2-23.3,39.7l-1.2,12.3L345.2,350.3z"/>
<path class="st4" d="M345.2,350.3c-0.9-11.7-0.3-23.5,2.1-35c2.7-13.8,10.6-25,20.1-30.3c3.3-1.8,10.2-3.8,14.7,0.3
	c4.3,3.9,2,10.1-3.2,16.5c-10.3,12.6-20.5,23.2-23.3,39.7l-1.2,12.3L345.2,350.3z"/>
<path class="st5" d="M348.4,348.8c-0.1,0-0.3-0.1-0.4-0.2c-0.1-0.1-0.2-0.2-0.2-0.4c0-16,3.4-29.9,10.4-42.4
	c4.6-8.3,10.2-14.3,17.2-18.3c0.1-0.1,0.3-0.1,0.4-0.1c0.1,0,0.2,0.1,0.3,0.2c0,0.1,0.1,0.1,0.1,0.2c0,0.1,0,0.1,0,0.2
	c0,0.1,0,0.1-0.1,0.2c0,0.1-0.1,0.1-0.2,0.1c-6.8,4-12.3,9.9-16.9,18c-6.9,12.4-10.2,26-10.2,41.9c0,0.1-0.1,0.2-0.2,0.3
	C348.6,348.7,348.5,348.8,348.4,348.8L348.4,348.8z"/>
<path class="st3" d="M359.6,356.1c0-3.9,2.6-11.2,8.3-18.2c6.3-7.8,15.6-13.3,16.6-18.2c1.3-5.9-4.2-8.8-12.2-6
	c-9.7,3.4-19.2,16.7-18.1,40.2L359.6,356.1z"/>
<path class="st5" d="M357.3,352.6c0.1,0,0.2-0.1,0.2-0.2c0.1-0.1,0.1-0.2,0.1-0.3c1.2-20.8,13.2-31.5,19.6-34.3
	c0.1-0.1,0.2-0.2,0.3-0.3c0-0.1,0-0.3,0-0.4c0-0.1-0.1-0.1-0.1-0.2c0,0-0.1-0.1-0.2-0.1c-0.1,0-0.1,0-0.2,0c-0.1,0-0.1,0-0.2,0
	c-7.1,3.1-19,13.9-20.2,35.2c0,0.1,0,0.3,0.1,0.4c0.1,0.1,0.2,0.2,0.3,0.2C357.2,352.6,357.2,352.6,357.3,352.6L357.3,352.6z"/>
<path class="st6" d="M309.7,429.8c-9.9-0.1-19.7-1.7-29.1-4.8l-1.2-0.4c-16.5,0.5-35.4-2.7-49.2-7.8l1.1-3.1
	c11.4,4.2,26.8,7.1,41,7.5c-5.3-3.5-6-7.4-5.7-9.7c0.7-6.3,8.7-11.6,18.6-12.4c9.2-0.8,22.6,1.6,27,7.1c4.7,1,9.2,2.9,13.1,5.8
	c3.6,2.8,5.4,5.9,5.2,8.7c0,0.5-0.1,0.9-0.2,1.3c3.9,0,8,0.2,12.5-0.7c5.7-1.1,9-3.6,8.8-5.7c-0.4-7.1-26.6-19.6-50.5-21.8
	c-31.9-2.9-54,3.9-63.3,10.6l-1.9-2.6c9.7-7.1,32.7-14.3,65.5-11.2c22.9,2.1,52.9,14.6,53.5,24.9c0.2,4.1-3.6,7.5-11.5,9.1
	c-5.4,1.1-10.5,0.9-15.3,0.8c-0.3,0.3-0.7,0.6-1.1,0.8C323.7,428.5,317.3,429.8,309.7,429.8z M288.9,423.9
	c13.2,3.1,26.5,3.5,33.7,0.9c-6.1-0.7-12-2.5-17.4-5.5l-0.5,0.3C299.7,421.9,294.4,423.3,288.9,423.9L288.9,423.9z M308.6,417.4
	c5.8,2.8,12,4.3,18.4,4.6c0.3-0.4,0.5-0.9,0.5-1.5c0.1-1.7-1.3-3.9-4-5.9c-2.9-2.1-6.2-3.7-9.7-4.7
	C313.9,412.5,312.1,415,308.6,417.4L308.6,417.4z M289.1,402.2c-1.2,0-2.3,0-3.5,0.1c-8.3,0.7-15.1,4.9-15.7,9.6
	c-0.4,3.5,3.2,6.9,9.9,9.4c8.6-0.3,16.4-1.5,22.2-4.1c-2.3-1.9-3.8-3.8-4.3-5.5c-0.6-2.3,0.5-4.3,3-5.2c1.7-0.6,3.6-0.9,5.4-0.9
	C302,403.6,295.5,402.2,289.1,402.2L289.1,402.2z M306.8,408.8c-1.7,0-3.4,0.2-5,0.8c-1.1,0.4-1,0.8-0.9,1.2c0.3,1.3,1.9,3,4.5,4.7
	c3.7-2.2,5.6-4.4,5.1-6.1c0-0.1-0.1-0.2-0.1-0.3C309.2,408.9,308,408.8,306.8,408.8L306.8,408.8z"/>
<path class="st7" d="M319.1,425.7c2.2,0.5,4.5,0.9,6.8,1.2c0.5-0.2,1-0.5,1.4-0.8c0.4-0.3,0.7-0.5,1.1-0.8c0,0-3.2-0.2-5.8-0.5
	C321.5,425.2,320.3,425.5,319.1,425.7L319.1,425.7z"/>
<path class="st7" d="M302.8,420.4c0.6-0.3,1.3-0.6,1.9-0.9l0.5-0.3c-1.1-0.6-2.2-1.3-3.2-2.1c-0.8,0.3-1.6,0.6-2.4,0.9
	C300.6,419.1,301.7,419.8,302.8,420.4L302.8,420.4z"/>
<path class="st7" d="M310.5,409.4c0.1,0.6,0.1,1.3-0.2,1.8c1.1,0.1,2.2,0.4,3.2,0.8c0.3-0.7,0.4-1.4,0.4-2.1
	c-1.1-0.4-2.3-0.6-3.5-0.8C310.4,409.2,310.4,409.3,310.5,409.4L310.5,409.4z"/>
<path class="st7" d="M268.5,421.1c1.5,1.4,3.2,2.6,5,3.5c2,0,4,0,6,0c-2.4-0.9-4.8-2-7-3.3C271.1,421.2,269.8,421.2,268.5,421.1z"/>
<path class="st7" d="M236.1,401.7l1.9,2.6c3.7-2.7,9.3-5.3,16.8-7.4c0.4-1.2,0.6-2.4,0.8-3.6C246.9,395.6,240.2,398.7,236.1,401.7z"
	/>
<path class="st7" d="M241.2,416.8c-3.5-0.9-6.8-1.9-9.9-3.1l-1.1,3.1c2.5,0.9,5.1,1.8,7.8,2.5C239.2,418.5,240.2,417.7,241.2,416.8z
	"/>
<path class="st6" d="M178,278.4L178,278.4c-12.5-0.5-24.2-9.7-35.6-18.6c-9.7-7.6-18.9-14.8-26.8-14.8c-0.4,0-0.8-0.2-1.2-0.5
	c-0.3-0.3-0.5-0.7-0.5-1.2c0-0.4,0.2-0.8,0.5-1.2c0.3-0.3,0.7-0.5,1.2-0.5c9,0,18.6,7.5,28.8,15.5c11,8.6,22.3,17.5,33.7,17.9
	c0.4,0,0.8,0.2,1.1,0.5c0.3,0.3,0.4,0.7,0.4,1.1c0,0.4-0.2,0.8-0.5,1.1C178.8,278.2,178.4,278.3,178,278.4L178,278.4z"/>
<path class="st8" d="M97.3,350c-8.8-3.3-16.4-15.4-13.1-28.8c4-16.2,21.8-27.7,31.5-37.1c18.2-17.5,29.3-31.5,23.5-56.6
	c-5.1-22-25.5-29.4-37.6-28.9c-15,0.6-24.5,6.8-23.7,11.7c0.4,2.2,4.5,3.1,7.7,4.3c10,3.7,13.1,5.9,16.3,10.2
	c4.9,6.6,5.7,15.1,4.6,15.7s-2.4-4.3-9.1-7.2c-6.6-2.8-9.9-0.8-9.8,0.7c0.1,1.5,6.2,2.9,8,11.7c1.5,7.3,1.2,16.8-9.8,31.8
	c-6.8,9.3-22.2,26.6-18.8,48.8c3.4,22.2,20.2,30.3,27.2,30.7L97.3,350z"/>
<path class="st9" d="M97.3,350c-8.8-3.3-16.4-15.4-13.1-28.8c4-16.2,21.8-27.7,31.5-37.1c18.2-17.5,29.3-31.5,23.5-56.6
	c-5.1-22-25.5-29.4-37.6-28.9c-15,0.6-24.5,6.8-23.7,11.7c0.4,2.2,4.5,3.1,7.7,4.3c10,3.7,13.1,5.9,16.3,10.2
	c4.9,6.6,5.7,15.1,4.6,15.7s-2.4-4.3-9.1-7.2c-6.6-2.8-9.9-0.8-9.8,0.7c0.1,1.5,6.2,2.9,8,11.7c1.5,7.3,1.2,16.8-9.8,31.8
	c-6.8,9.3-22.2,26.6-18.8,48.8c3.4,22.2,20.2,30.3,27.2,30.7L97.3,350z"/>
<path class="st10" d="M94.2,357l3.1-6.9c-2.6-1-4.9-2.5-6.8-4.5c-1.4,3.1-2.4,6.3-3.1,9.6C89.6,356.1,91.8,356.8,94.2,357L94.2,357z
	"/>
<path class="st11" d="M123,224.4c1.3-0.9,0.9-3,0.2-4.4c-1.7-3.8-4.2-7.3-7.2-10.1c2.2,0.5,4.4,1.1,6.5,1.8c3.1,1,5.1,2.3,5.5,1.2
	c0.2-0.9,0.1-1.8-0.1-2.6c-0.5-2.1-1.1-2.9-1.8-3.5c-7-5.4-15.7-8.3-24.6-8.2c-15,0.6-24.5,6.8-23.7,11.7c0.4,2.2,4.5,3.1,7.7,4.3
	c10,3.7,13.1,5.9,16.3,10.2c0,0.1,3.6,1.8,5.2,2.8c0.7,0.5,1.5,0.9,2.4,1c0.4,0,0.8-0.1,1.1-0.3c1.1-0.7,0.9-2.4,0.5-3.7
	c-0.8-2.5-1.8-4.9-3-7.2c3.9,0.9,7.5,2.8,10.4,5.5C119.9,224,121.6,225.3,123,224.4z"/>
<path class="st8" d="M171.7,344.2c1.3,17.4,7,28.2,18.8,38.2c11.8,10,28.7,16,36.1,19.3c7.4,3.3,13,7.2,18.4,2.6s4.9-14.4,14.5-22.3
	c9.6-7.8,12.9-10,13.1-15.7c0.3-7.5-6.9-7.3-9.1-6.2c0,0-1.9-3.2-7.2-2c-2.7,0.7-5.1,2.4-6.6,4.8c0,0-3.3-0.2-6.8,3.1
	c-3.1,2.9-9.2,10.7-9.2,10.7s6.5-10.1,3.6-21c-2.6-9.8-8.8-12.5-8.8-12.5s2.7-1.4,9.9-0.1c0,0-3-8.4-16.2-11.6
	c-13.2-3.2-21.9,6.2-21.9,6.2L171.7,344.2z"/>
<path class="st10" d="M252,360.3c-0.9,0.8-1.7,1.7-2.4,2.7c2,0,6.2,0.2,7.7,5.3C257.3,368.3,259,362.5,252,360.3z"/>
<path class="st10" d="M264.7,366.2c0,0,2.7-1.5,1.1-6.5c-0.8,0-1.6,0.2-2.4,0.6c0.7,0.8,1.1,1.8,1.3,2.8
	C265.1,364.1,265,365.2,264.7,366.2z"/>
<path class="st12" d="M256.3,375.9c-3.3,0.8-6.5,2.4-9,4.7c-2.6,2.3-4.6,5.1-5.8,8.3c-3,7.1-1.9,11.9,1,12.6
	c2.9,0.7,4.3,0.3,6.8-3.5c2.1-4.8,4.1-10.7,10.3-15.8l4.8-4C264,376.1,261.3,374.6,256.3,375.9z"/>
<path class="st11" d="M254.7,369.1c-2-0.8-4,3.8-1.7,4.7C254.9,374.5,257.4,370.1,254.7,369.1z"/>
<path class="st12" d="M262.4,367.5c-1.9-0.8-4,3.8-1.7,4.7C262.5,373,265,368.6,262.4,367.5z"/>
<path class="st12" d="M268.7,367.3c-2-0.8-4,3.8-1.7,4.7C268.8,372.8,271.3,368.4,268.7,367.3z"/>
<path class="st8" d="M151.1,299.6c-1,5.6-21.9,10.8-36.2,21.6s-27,25.5-24.8,51.1c2.5,28,27.7,38.3,41,38.3
	c13.3,0,58.7-3.5,81.9-36.6S204.9,297.5,151.1,299.6z"/>
<path class="st10" d="M118.4,364.3c0,0,7.2-12.8,27.1-9.2c19.9,3.5,18.1,34.3,18.1,34.3s0.2,17.2-12.5,15.4
	C138.4,402.9,118.4,364.3,118.4,364.3z"/>
<path class="st10" d="M151.1,299.6c-0.2,0.6-0.5,1.2-0.9,1.7c-0.8,10.2,2.3,23.4,14,27.1c12.7,4,27.1,1.7,36.7-1.7
	c3.2-1.1,6.3-2.5,9.2-4.1C198.2,308.4,177.4,298.6,151.1,299.6z"/>
<path class="st6" d="M159.1,372.2h-0.4c-44-9.5-60.2-37.2-66-52.9c-7.5-20.4-8.1-42.8-1.6-55.7c0.2-0.4,0.5-0.7,0.9-0.8
	c0.4-0.1,0.9-0.1,1.3,0.1c0.4,0.2,0.7,0.5,0.8,0.9c0.1,0.4,0.1,0.9-0.1,1.3c-6.1,12.1-5.4,33.5,1.8,53.1
	c5.5,15.1,21.2,41.7,63.6,50.9c0.4,0.1,0.8,0.3,1,0.6s0.4,0.7,0.3,1.1c0,0.4-0.2,0.8-0.5,1.1C159.9,372.1,159.5,372.2,159.1,372.2
	L159.1,372.2z"/>
<path class="st6" d="M256.5,361.2c5.1,29.3-14,57.1-42.6,62s-55.9-14.8-60.9-44.1c-4.3-24.7,9.1-45.2,30.5-54
	c6.3-2.6,13-4.1,19.7-4.5C229.1,319.1,251.9,334.3,256.5,361.2z"/>
<path class="st10" d="M290.4,369.6c-12.3,4.2-25.3,6.3-38.3,6.1c2.6-1,5.2-2.3,7.6-3.6c5.6-3,12.6-6.4,14.1-13
	c0.3-1.2-1.2-1-1.8-0.5c-4.4,3.6-9.6,8.2-15.4,11.7c-6.4,3.9-14.1,5.1-21.4,3.4c-1.5-0.3-3-0.7-4.5-1.1c5.2-1,10.2-2.9,14.8-5.5
	c10.7-6.1,16.1-14.6,18-26.5c0.2-1.3-1.1-1.8-2-0.9c-1.6,1.6-1.9,3.4-2.7,5.6c-2.4,7-5.8,11.1-11.7,15.4c-4.2,3.1-9,5.3-14,6.6
	c-2.6,0.6-5.2,0.8-7.8,1.2c-2.7,0.5-5.4,0.2-7.9-0.8c-2-0.9-3.9-2-5.7-3.1c11.2-0.7,23.7-10.6,30.9-17.3c7.6-7.1,13.1-16,11.9-26.6
	c-0.2-1.9-2.4-0.8-2.7,0.5c-1,4.9-1.4,8.2-3.8,12.9c-2.3,4.6-5.6,8.6-9.5,11.8c-8.3,7.2-19.7,14.9-30.9,15.9
	c-1.6-1.2-3.1-2.4-4.6-3.7c8.4-3.1,15.6-9.4,21.5-16.2c3.5-3.9,6.3-8.5,8.1-13.5c1.1-3.2,3.6-8.4,2.3-11.8c-0.6-1.6-2.6-0.1-2.7,1
	c-0.8,8.1-5.4,16-10.6,22.2c-2.5-6.8-4.2-12.9-3.7-20.4c0.3-3.6,0.8-7.1,1.5-10.6c0.2-1.1,0.6-2.2,0-3.3c-0.8-1.5-2.7,0.8-2.4,1.9
	c-0.1-0.3-1,1.2-1.1,1.3c-0.9,1.5-0.8,3.7-1,5.4c-0.5,2.8-0.8,5.6-0.9,8.4c-0.2,7.4,1.9,13.8,4.8,20.6c-2.7,2.6-5.6,4.9-8.7,7
	c-1.9-1.4-3.2-5-4.3-6.9c-1.7-2.8-3.2-5.7-4.5-8.7c-2.8-7.2-2.1-15.7-5.1-22.6c-0.4-0.8-1.8,0.1-1.9,0.8c-0.3,9.4,1.3,19.1,5.4,27.6
	c1.6,3.3,3.9,9.1,6.9,12.4c-0.8,0.6-1.6,1-2.5,1.4c-0.9,0.4-1.9,0.7-2.9,0.8c-2.4,0.2-3.7-2-5.1-3.6c-1.7-1.9-3.2-3.8-4.6-5.8
	c-3.5-4.9-6.3-10.3-8.2-16.1c-1.5-4.8-1.1-10.3-3.4-14.8c-1.1-2.2-3.8,0.1-3.2,1.9c1.6,5,0.7,10.5,2.3,15.6
	c2.2,6.8,5.5,13.2,9.8,18.9c6.8,9.1,15.6,16.6,25.8,21.7c14,6.9,31.9,10.8,48.6,9.2c-18.1,3.4-36.9,1.6-54-5.3
	c-19.5-7.9-39-25.5-44.1-46.6c-0.2-0.8-1.6-0.4-1.7,0.3c-1,10.4,7,21.4,13.8,28.5c7.8,8.1,16.1,15.8,26.6,20.3
	c11.4,5,22.9,8.3,35.4,8.6c5.1,0.1,10.1,0,15.2-0.3c-6.3,2.1-12.8,3.3-19.4,3.6c-8.6,0.1-17.1-1.4-25.4-3.3
	c-13.5-3.1-24.8-8.7-35.1-18.1c-4.1-4-7.8-8.3-10.9-13.1c-3.1-4.4-7.7-9.5-8.8-14.9c-0.3-1.2-2.3,0.1-2.2,1
	c0.3,4.4,2.4,8.6,4.7,12.3c1.3,2.1,2.7,4,4.2,6c1.5,1.8,2.4,3.9,2.6,6.2c0.1,1.9-0.6,3.5-0.9,5.4c-0.3,1.8-0.6,3.4-0.9,5.1
	c-0.6,3.5-0.9,7-0.9,10.6c-0.1,11.4,5.4,21.3,11.5,30.5c0.6,1,2.3-0.6,2-1.4c-3.4-10.6-9.9-19.1-9.3-30.8c0.3-5.8,2-11.2,3.3-16.7
	c0.1,0.1,0.2,0.3,0.3,0.4c1.9,2,4,4,6.1,5.8c1.7,1.5,3.6,3.1,3.4,5.6c-0.3,1.7-0.8,3.3-1.4,4.9c-0.5,1.8-0.8,3.7-1,5.5
	c-0.4,3.2-0.5,6.5-0.8,9.7c-0.8,10.5,2,23.9,9.6,31.7c0.2,0.2,0.4,0.2,0.7,0.2s0.5-0.1,0.7-0.2c1.1,2.4,2.5,4.6,4.3,6.5
	c0.2,0.1,0.3,0.2,0.6,0.3c0.2,0,0.4,0,0.6-0.1c0.2-0.1,0.3-0.3,0.4-0.5c0.1-0.2,0.1-0.4,0-0.6c-3-7.7-4.2-15.9-3.7-24.1
	c7.2,3.3,17.6,2.7,24.5,0.6c5.3-1.5,10.4-3.9,15-7c5.1-3.3,9.5-7.7,12.9-12.7c8.8-0.7,16.2-3.5,23.9-8.1c0.3-0.2,0.6-0.6,0.7-0.9
	s0.2-0.8,0.2-1.2c1.9-0.6,3.8-1.3,5.6-2.1c0.5-0.3,0.8-0.8,0.9-1.3s0.1-1.1-0.1-1.6c6.6-1.5,12.9-4.2,18.4-8.1
	C291.9,371.6,292.3,369,290.4,369.6z M193,397.5c0.4-0.9,0.9-1.8,1.3-2.7c0.9-1.8,2-3.6,3.1-5.3c0.1-0.1,0.1-0.2,0.2-0.3
	c1.9,0.7,3.8,1.3,5.7,1.9c4,1.1,8.2,2.1,12.4,2.8c-0.4,0-1.6,1.2-1.9,1.4c-0.7,0.5-1.3,0.9-2,1.4c-1.3,0.9-2.7,1.6-4.2,2.2
	c-2.8,1.3-5.7,1.9-8.8,2c-1.5-0.1-3-0.4-4.4-0.8C193.4,399.7,192.4,398.8,193,397.5z M184.2,412c-0.5,4.2-0.5,8.4,0,12.6
	c-2.7-7.4-4.6-14.9-4.1-22.9c0.4-6.6,1.6-13.2,3.4-19.6c0,0.3,4.1,2.5,4.5,2.7c1.1,0.6,3.9,1.4,4.4,2.7c0.1,0.2,0.1,0.5,0,0.8
	c-0.2,0.6-0.5,1.1-0.8,1.6C187.2,396.6,185.1,404,184.2,412z M227.8,403.4c-4,2.9-8.4,5.1-13.1,6.7c-7.2,2.4-17.9,3.5-25.4,0
	c0.3-2.2,0.8-4.3,1.4-6.4c3.7,1.8,9.2,1.6,12.5,1c6-1.1,14.1-4.5,17.4-10c5.4,0.7,10.8,1,16.2,0.9
	C234.1,398.5,231.1,401.1,227.8,403.4L227.8,403.4z"/>
<g class="st13">
	<path class="st10" d="M163.3,381.8c-4.4-12.5-10.8-11.6-10.8-11.6s2.6-1.5,9.9-0.6c0,0-2-5.5-9.3-8.7c-1.1,6-1.2,12.2-0.1,18.3
		c1.3,7.5,4.1,14.6,8.3,20.9C163.3,396,165.8,388.8,163.3,381.8z"/>
	<path class="st10" d="M178.7,416.7c1.6-3.6,3.9-6.7,6.7-9.4c9.1-8.3,12.3-10.7,12.3-16.4c-0.1-7.5-7.3-7-9.4-5.7c0,0-2-3.1-7.3-1.6
		c-2.7,0.8-5,2.6-6.4,5.1c0,0-3.6-0.4-7.3,3.6c-2.2,2.5-4.2,5.2-6,7.9C165.9,407,171.8,412.6,178.7,416.7L178.7,416.7z"/>
</g>
<path class="st8" d="M254.6,339.1c-0.2-4.4-2.9-10.4-6.3-15.3c-5.8-8.2-14.2-13.3-22.6-16L204,321.3c23.1-0.8,31.1,11.4,33.2,18.2
	c1.5,4.7,2.7,8.3,5.5,8.3c0.7,0.1,1.4-0.1,2-0.6c0.6-0.4,0.9-1.1,1-1.8c1.9,1.8,4.7,0.7,4.8-1.6c0.5,0.2,1,0.3,1.5,0.2
	c0.5-0.1,1-0.4,1.4-0.8c0.5-0.6,0.8-1.3,1-2C254.7,340.6,254.7,339.8,254.6,339.1L254.6,339.1z"/>
<path class="st10" d="M225.7,307.7L204,321.3c2.7-0.1,5.5,0,8.2,0.3c6.2-3.3,11.8-7.6,16.6-12.7
	C227.8,308.5,226.8,308.1,225.7,307.7z"/>
<path class="st10" d="M253.5,343.4C253.5,343.3,253.5,343.3,253.5,343.4c-0.2,0-0.5,0.1-0.7,0c-0.2,0-0.5-0.1-0.7-0.2
	c-0.2-0.1-0.4-0.3-0.5-0.5s-0.2-0.4-0.3-0.6c-0.7-1.8-1-2.6-1.4-3c0.5,1.5,0.7,3.2,0.6,4.8c0.5,0.3,1,0.3,1.6,0.2
	C252.6,344,253.1,343.8,253.5,343.4L253.5,343.4z"/>
<path class="st10" d="M248.9,346.2c-0.6-0.1-1.1-0.3-1.5-0.7c-0.4-0.4-0.7-0.9-0.8-1.5c-0.6-1.9-0.9-2.4-1.3-2.8
	c0.4,1.4,0.6,2.9,0.5,4.3c0.4,0.4,0.9,0.7,1.5,0.8C247.8,346.4,248.4,346.4,248.9,346.2L248.9,346.2z"/>
<path class="st8" d="M90.1,372.3c2.2,17.3,8.4,27.8,20.8,37.2s29.5,14.5,37.1,17.4s13.4,6.5,18.5,1.7c5.1-4.8,4.2-14.7,13.3-23
	c9.1-8.3,12.4-10.7,12.3-16.4c-0.1-7.5-7.3-6.9-9.4-5.7c0,0-2-3.1-7.3-1.6c-2.7,0.8-5,2.7-6.4,5.1c0,0-3.6-0.4-7.3,3.6
	c-2.9,3.1-8,11-8,11s7.6-11,3.9-21.5c-4.4-12.5-10.8-11.6-10.8-11.6s2.6-1.5,9.9-0.6c0,0-3.4-9-16.8-10.8c-3.9-0.5-7.9-0.1-11.6,1.2
	c-3.7,1.3-7.1,3.4-9.9,6.1L90.1,372.3z"/>
<path class="st10" d="M171.2,384.1c-0.9,0.8-1.6,1.7-2.2,2.8c2.9,0,6.4,0.2,8.1,5.4C177.1,392.3,179.4,386.5,171.2,384.1z"/>
<path class="st10" d="M184.2,389.4c0,0,2.6-1.7,0.8-6.6c-0.8,0.1-1.6,0.3-2.4,0.7c0.7,0.8,1.2,1.7,1.5,2.8
	C184.4,387.2,184.4,388.3,184.2,389.4z"/>
<path class="st12" d="M176.2,399.5c-3.3,1-6.3,2.7-8.8,5.1c-2.5,2.4-4.3,5.3-5.4,8.6c-2.6,7.3-1.3,12,1.6,12.6
	c2.9,0.6,4.3,0.1,6.6-3.9c1.8-4.9,3.5-10.9,9.4-16.4c1.8-1.6,3.3-3,4.6-4.2C184,399.3,181.2,398,176.2,399.5z"/>
<path class="st12" d="M173.9,393.3c-2-0.7-3.8,4-1.5,4.8C174.3,398.7,176.5,394.2,173.9,393.3z"/>
<path class="st12" d="M181.9,390.8c-2-0.7-3.8,4-1.5,4.8C182.3,396.2,184.6,391.7,181.9,390.8z"/>
<path class="st12" d="M188.2,390.3c-2-0.7-3.8,4-1.5,4.8C188.6,395.7,190.9,391.2,188.2,390.3z"/>
<path class="st9" d="M160.6,428.5c-11.9-2.6-10.3-9-15.6-12.8s-17.1-2.4-36.1-17.9c-19-15.5-19.8-49.2-7.7-63.9
	c-7.7,9.4-12.6,21.5-11.1,38.3c0.2,2.7,0.7,5.3,1.4,7.9c3,12.8,9,21.4,19.4,29.3c12.4,9.4,29.5,14.5,37.1,17.4s13.4,6.5,18.5,1.7
	c0.4-0.4,0.8-0.8,1.1-1.3c-1,0.7-2.1,1.1-3.3,1.4C163.1,428.8,161.8,428.8,160.6,428.5z"/>
<path class="st10" d="M205.4,345.4c-6.2-8.5-11.1-12.5-18.6-16.7v-4.9c-1.1,0.4-2.2,0.8-3.3,1.3c-10.4,4.1-19.1,11.6-24.9,21.2
	c22.9-1.7,33.1,9.9,35.7,16.7c1.8,4.7,3.3,8.3,6.1,8.2c0.7,0,1.4-0.2,1.9-0.7c0.5-0.5,0.9-1.1,0.9-1.9c2,1.7,4.9,0.5,4.9-1.9
	c0.5,0.2,1.1,0.3,1.6,0.1c0.5-0.1,1-0.4,1.4-0.8c0.4-0.6,0.8-1.4,0.9-2.1c0.2-0.8,0.2-1.5,0-2.3C211.5,357,209,350.4,205.4,345.4z"
	/>
<path class="st8" d="M212.9,358.2c-0.4-4.5-2.9-11.1-6.5-16.1c-6.2-8.5-11.1-12.5-18.6-16.7v-5.9c0,0-27.1,5.5-27.6,23.5
	c23.6-2.2,32.4,9.8,35,16.6c1.8,4.7,3.3,8.3,6.1,8.2c0.7,0,1.4-0.2,1.9-0.7c0.5-0.5,0.9-1.1,0.9-1.9c2,1.7,4.9,0.5,4.8-1.9
	c0.5,0.2,1.1,0.3,1.6,0.1c0.5-0.1,1-0.4,1.4-0.9C213,361.4,213.1,359.8,212.9,358.2z"/>
<path class="st10" d="M212,362.6L212,362.6c-0.2,0-0.5,0.1-0.7,0.1c-0.2,0-0.5-0.1-0.7-0.2c-0.2-0.1-0.4-0.3-0.6-0.4
	c-0.2-0.2-0.3-0.4-0.3-0.6c-0.9-1.8-1.1-2.6-1.6-3c0.6,1.6,0.9,3.2,0.9,4.8c0.5,0.2,1.1,0.3,1.6,0.2
	C211.2,363.3,211.6,363,212,362.6L212,362.6z"/>
<path class="st10" d="M207.5,365.7c-0.6,0-1.2-0.2-1.6-0.6c-0.5-0.4-0.8-0.9-0.9-1.5c-0.7-1.9-1.1-2.4-1.5-2.8
	c0.5,1.4,0.7,2.9,0.7,4.4c0.4,0.4,1,0.7,1.6,0.8C206.3,366,206.9,365.9,207.5,365.7L207.5,365.7z"/>
<path class="st10" d="M167.2,329.2c8.9,2,18.2,1.4,26.1-0.4c-1.7-1.2-3.5-2.3-5.6-3.4v-5.9C187.8,319.5,175.4,322,167.2,329.2z"/>
<path class="st8" d="M193.6,260.2c2.7-8.7,14.7-19.6,24.7-16.4c5.7,1.8,3.4,22.7,3.4,22.7S203.4,267.9,193.6,260.2z"/>
<path class="st10" d="M193.6,260.2c2.7-8.7,14.7-19.6,24.7-16.4c5.7,1.8,3.4,22.7,3.4,22.7S203.4,267.9,193.6,260.2z"/>
<path class="st11" d="M202.2,264.5c9.3,2.8,19.6,2,19.6,2s2.3-20.9-3.4-22.7C214.7,243.3,205.8,248.9,202.2,264.5z"/>
<path class="st12" d="M214.1,256.8c-0.9-2.3,0.8-5.3,0.8-5.3c-3.4,0-7.8,3.5-8.2,9.1c0,0,6.9,8.3,14,3.9c0.3-1.2,0.8-2.3,1.5-3.3
	c0.1-1.4,0.1-3.1,0.1-4.7C219.5,256,216.7,256.1,214.1,256.8z"/>
<path class="st8" d="M170.2,268.5c-7.5-5-23.7-6.1-29.6,2.6c-3.3,4.9,11.5,19.8,11.5,19.8S167.4,280.5,170.2,268.5z"/>
<path class="st10" d="M170.2,268.5c-7.5-5-23.7-6.1-29.6,2.6c-3.3,4.9,11.5,19.8,11.5,19.8S167.4,280.5,170.2,268.5z"/>
<path class="st11" d="M166.1,277.1c-5.5,8-14,13.8-14,13.8s-14.9-14.9-11.5-19.8C143.1,268.4,153.6,267.2,166.1,277.1z"/>
<path class="st12" d="M148.5,274.6c0,0,3.2,1.3,3.9,3.6c0,0-4.6,2-6.9,5.2c0.8,1.1,1.7,2.1,2.5,3.1c1.5,0.3,2.8,0.9,4,1.8
	c8.3-1,8-11.2,8-11.2C157.2,273,151.2,272.5,148.5,274.6z"/>
<path class="st8" d="M201.8,322.3c-9.6,3.4-24,5.7-36.7,1.7c-15.2-4.7-16-25.5-12.3-35.1c3.7-9.6,11.2-19.3,28.6-25.4
	c17.3-6.1,29.3-3.2,38.2,1.9c8.9,5.2,21.3,21.9,12.4,35.1C224.6,311.5,211.5,318.9,201.8,322.3z"/>
<path class="st14" d="M201.8,319.9c19.2-6.8,18.2-18,13.3-22.5c-4.8-4.5-12.9-5.5-22.1-2.3c-9.2,3.2-14.8,9.1-15.8,15.6
	C176.3,317.2,182.6,326.7,201.8,319.9z"/>
<path class="st12" d="M196.6,311.9c0,0,0.8,3.2,3.2,2.4s1-3.9,1-3.9l-3-2.2L196.6,311.9z"/>
<path class="st6" d="M196.4,304.7l-4.5-0.5c-0.2,0-0.3-0.1-0.4-0.2c-0.1-0.1-0.2-0.3-0.1-0.5c0-0.2,0.1-0.3,0.2-0.4
	c0.1-0.1,0.3-0.2,0.5-0.1l3.9,0.4l2.9-2.8c0.1-0.1,0.1-0.1,0.2-0.1c0.1,0,0.2,0,0.2,0s0.2,0,0.2,0c0.1,0,0.1,0.1,0.2,0.1
	c0.1,0.1,0.2,0.3,0.2,0.4c0,0.2-0.1,0.3-0.2,0.4L196.4,304.7z"/>
<path class="st6" d="M193.2,314c-1.1,0-2.1-0.3-3-0.9c-0.9-0.6-1.5-1.5-1.9-2.5c-0.1-0.2,0-0.3,0-0.5s0.2-0.3,0.4-0.3
	c0.2-0.1,0.3,0,0.5,0c0.1,0.1,0.3,0.2,0.3,0.4c0.3,1,1.1,1.8,2,2.2c0.9,0.4,2,0.5,3,0.2c1-0.3,1.8-1.1,2.2-2c0.4-0.9,0.5-2,0.2-3
	l-1.2-3.4c0-0.1,0-0.2,0-0.2c0-0.1,0-0.2,0.1-0.2c0-0.1,0.1-0.1,0.1-0.2c0.1-0.1,0.1-0.1,0.2-0.1c0.1,0,0.2,0,0.2,0
	c0.1,0,0.2,0,0.2,0.1c0.1,0,0.1,0.1,0.2,0.1c0.1,0.1,0.1,0.1,0.1,0.2l1.2,3.4c0.2,0.6,0.3,1.3,0.3,2c0,0.7-0.2,1.3-0.5,1.9
	c-0.3,0.6-0.7,1.1-1.2,1.6c-0.5,0.4-1.1,0.8-1.7,1C194.3,313.9,193.8,314,193.2,314L193.2,314z"/>
<path class="st6" d="M201.6,311c-0.8,0-1.5-0.2-2.2-0.5c-0.6-0.3-1.1-0.7-1.6-1.2c-0.4-0.5-0.8-1.1-1-1.7l-1.2-3.4
	c0-0.1,0-0.2,0-0.2c0-0.1,0-0.2,0.1-0.2c0-0.1,0.1-0.1,0.1-0.2c0.1-0.1,0.1-0.1,0.2-0.1c0.1,0,0.2,0,0.2,0c0.1,0,0.2,0,0.2,0.1
	c0.1,0,0.1,0.1,0.2,0.1c0.1,0.1,0.1,0.1,0.1,0.2l1.2,3.4c0.2,0.5,0.4,0.9,0.8,1.3c0.3,0.4,0.8,0.7,1.2,0.9c0.7,0.3,1.5,0.4,2.2,0.3
	c0.8-0.1,1.5-0.4,2-0.9c0.6-0.5,1-1.2,1.2-1.9c0.2-0.7,0.2-1.5-0.1-2.2c-0.1-0.2,0-0.3,0-0.5c0.1-0.1,0.2-0.3,0.4-0.3
	c0.1,0,0.2,0,0.2,0c0.1,0,0.2,0,0.2,0.1c0.1,0,0.1,0.1,0.2,0.1c0.1,0.1,0.1,0.1,0.1,0.2c0.4,1.3,0.4,2.7-0.2,3.9
	c-0.6,1.2-1.6,2.2-2.9,2.6C202.8,310.9,202.2,311,201.6,311L201.6,311z"/>
<path class="st6" d="M156.6,301.8c-0.1,0-0.2,0-0.4-0.1c-0.1,0-0.2-0.1-0.3-0.2c-3.4-3.5-9.2-7.1-17.2-4.3c-0.2,0.1-0.5,0.1-0.7,0
	c-0.2-0.1-0.4-0.3-0.5-0.5c-0.1-0.2-0.1-0.5,0-0.7c0.1-0.2,0.3-0.4,0.5-0.5c9-3.1,15.4,0.8,19.2,4.7c0.1,0.1,0.2,0.2,0.2,0.3
	c0,0.1,0.1,0.2,0.1,0.4c0,0.1,0,0.2-0.1,0.4s-0.1,0.2-0.2,0.3c-0.1,0.1-0.2,0.2-0.3,0.2C156.9,301.8,156.7,301.8,156.6,301.8
	L156.6,301.8z"/>
<path class="st6" d="M154.5,304.1c-0.2,0-0.3,0-0.5-0.1c-3.1-1.9-8.7-1.9-11.7-0.6c-0.1,0.1-0.2,0.1-0.4,0.1c-0.1,0-0.2,0-0.4-0.1
	c-0.1,0-0.2-0.1-0.3-0.2c-0.1-0.1-0.2-0.2-0.2-0.3c-0.1-0.2-0.1-0.5,0-0.7c0.1-0.2,0.3-0.4,0.5-0.5c3.4-1.5,9.7-1.5,13.4,0.8
	c0.2,0.1,0.4,0.3,0.4,0.6s0,0.5-0.1,0.7c-0.1,0.1-0.2,0.2-0.3,0.3C154.9,304.1,154.7,304.2,154.5,304.1z"/>
<path class="st6" d="M140.1,312c-0.2,0-0.4-0.1-0.5-0.2c-0.2-0.1-0.3-0.3-0.3-0.4c-0.1-0.2-0.1-0.4,0-0.6s0.2-0.4,0.3-0.5
	c5.5-4.7,12.7-5.5,17-4.4c0.2,0.1,0.4,0.2,0.5,0.4c0.1,0.2,0.1,0.5,0.1,0.7c-0.1,0.2-0.2,0.4-0.4,0.5c-0.2,0.1-0.4,0.2-0.7,0.1
	c-3.9-1-10.3-0.2-15.3,4C140.6,311.9,140.3,312,140.1,312L140.1,312z"/>
<path class="st6" d="M224.5,277.9L224.5,277.9c-0.3,0-0.6-0.1-0.7-0.3c-0.2-0.2-0.2-0.4-0.2-0.7c0.5-5.4,3-12.5,12-15.7
	c0.2-0.1,0.5-0.1,0.7,0c0.2,0.1,0.4,0.3,0.5,0.5c0.1,0.2,0.1,0.5,0,0.7c-0.1,0.2-0.3,0.4-0.5,0.5c-8,2.9-10.3,9.3-10.8,14.1
	c0,0.2-0.1,0.4-0.3,0.6C224.9,277.9,224.7,277.9,224.5,277.9L224.5,277.9z"/>
<path class="st6" d="M227.5,278.4c-0.1,0-0.2,0-0.3,0c-0.1,0-0.2-0.1-0.3-0.2s-0.2-0.2-0.2-0.3c-0.1-0.1-0.1-0.2-0.1-0.4
	c0-0.1,0-0.2,0.1-0.4c1.4-4.1,6.4-8,9.9-9c0.1,0,0.2,0,0.4,0c0.1,0,0.2,0.1,0.3,0.1c0.1,0.1,0.2,0.1,0.3,0.2
	c0.1,0.1,0.1,0.2,0.2,0.3c0,0.1,0,0.2,0,0.4s-0.1,0.2-0.1,0.3c-0.1,0.1-0.1,0.2-0.2,0.3c-0.1,0.1-0.2,0.1-0.3,0.2
	c-3.1,0.9-7.5,4.4-8.7,7.8c-0.1,0.2-0.2,0.3-0.3,0.5C227.9,278.4,227.7,278.4,227.5,278.4L227.5,278.4z"/>
<path class="st6" d="M228.5,282.4c-0.2,0-0.4-0.1-0.5-0.2c-0.1-0.1-0.2-0.2-0.2-0.3c-0.1-0.1-0.1-0.2-0.1-0.3c0-0.1,0-0.2,0-0.4
	c0-0.1,0.1-0.2,0.2-0.3c2.6-3.6,8.7-7.4,16-7.2c0.2,0,0.5,0.1,0.7,0.3c0.2,0.2,0.3,0.4,0.3,0.7c0,0.2-0.1,0.5-0.3,0.7
	c-0.2,0.2-0.4,0.3-0.7,0.3l0,0c-6.6-0.1-12.1,3.3-14.4,6.5c-0.1,0.1-0.2,0.2-0.4,0.3C228.8,282.4,228.6,282.4,228.5,282.4
	L228.5,282.4z"/>
<path class="st8" d="M208.3,260.7c0.8-3.7,4.3-7.2,7.6-7.2c0,0-1.7,3-0.8,5.3c0,0,8.6-2.3,11.8,1.7c0,0-3.9,0.7-5.2,6
	C214.6,270.9,208.3,260.7,208.3,260.7z"/>
<path class="st8" d="M159,278c-2.9-2.4-7.8-3-10.5-0.8c0,0,3.2,1.3,4,3.6c0,0-8.2,3.6-8.1,8.7c0,0,3.5-1.9,7.8,1.4
	C160.4,290,159,278,159,278z"/>
<path class="st8" d="M189.3,261c-1.2,0.3-1.3-1.9-0.7-4.6c0.5-2.5,2.5-7.4-1-7.3s-7.2,3.2-8.7,9.1c-1-1.3-1.7-2.7-2.1-4.3
	c-0.6-2.2-3.3-2.4-4.6,2c-0.9,3.4,0.7,6.8,1.6,8.2c0.5,0.8,0.3,2.1-1.4,3c0,0,7.2,2.5,12.1,0S189.3,261,189.3,261z"/>
<path class="st15" d="M180.8,280c0.3,0,0.6-0.1,0.8-0.2c0.3-0.1,0.5-0.3,0.7-0.5c0.2-0.2,0.3-0.5,0.4-0.8c0.1-0.3,0.1-0.6,0.1-0.9
	c-0.5-4.7-2.5-9.1-5.5-12.7c-1.4,0.6-2.8,1.2-4.1,1.9c3.1,3.7,4.9,7.4,5.2,11.2c0,0.5,0.3,1.1,0.7,1.4c0.4,0.4,0.9,0.6,1.5,0.6
	L180.8,280z"/>
<path class="st15" d="M194,272.5c0.1,0.5,0.4,0.9,0.8,1.3c0.4,0.3,0.9,0.5,1.4,0.5c0.1,0,0.3,0,0.4,0c0.3-0.1,0.5-0.2,0.8-0.3
	c0.2-0.2,0.4-0.4,0.6-0.6c0.2-0.2,0.3-0.5,0.3-0.8c0.1-0.3,0.1-0.6,0-0.9c-0.9-4.2-3-8.1-6-11.3c-1.6,0.3-3.3,0.6-5.1,1.1
	C190.9,265,193.2,268.7,194,272.5z"/>
<path class="st15" d="M180.1,263.8c2.3,2.5,6,7.4,6.8,13.3c0.1,0.5,0.3,1,0.7,1.3c0.4,0.3,0.9,0.5,1.4,0.5h0.3
	c0.6-0.1,1.1-0.4,1.4-0.9c0.3-0.5,0.5-1,0.4-1.6c-0.9-5.2-3.2-10.1-6.7-14.1c-1,0.3-2,0.6-3.1,1L180.1,263.8z"/>
<path class="st6" d="M101.3,404.6h-0.2c-0.2,0-0.4-0.1-0.6-0.2c-0.2-0.1-0.4-0.2-0.5-0.4c-0.1-0.2-0.2-0.4-0.3-0.6
	c-0.1-0.2-0.1-0.4-0.1-0.6c0.7-6.9,7.4-18.9,23.4-23.6c15.5-4.6,31.6,0.6,38.4,8.3c0.2,0.2,0.3,0.4,0.4,0.6c0.1,0.2,0.1,0.4,0.1,0.7
	c0,0.2-0.1,0.4-0.2,0.6c-0.1,0.2-0.2,0.4-0.4,0.5c-0.2,0.1-0.4,0.3-0.6,0.3c-0.2,0.1-0.4,0.1-0.7,0.1c-0.2,0-0.4-0.1-0.6-0.2
	c-0.2-0.1-0.4-0.3-0.5-0.4c-4.9-5.7-19.5-12-35-7.3c-14.4,4.3-20.5,14.8-21.1,20.8c0,0.4-0.2,0.8-0.5,1
	C102.1,404.5,101.7,404.6,101.3,404.6L101.3,404.6z"/>
<path class="st6" d="M117.3,417.1c-0.4,0-0.8-0.2-1.2-0.5c-0.3-0.3-0.5-0.7-0.5-1.1c0-3.4,2.5-14.8,10.8-21.9
	c4.4-3.8,9.8-6.2,15.6-7s11.6,0.2,16.9,2.7c0.4,0.2,0.6,0.6,0.7,1c0.1,0.4,0.1,0.8-0.1,1.2c-0.2,0.4-0.5,0.6-0.9,0.8
	c-0.4,0.1-0.8,0.1-1.2-0.1c-4.6-2.2-9.9-3.1-15-2.4c-5.1,0.7-9.9,2.9-13.8,6.2c-7.4,6.3-9.7,16.6-9.7,19.4c0,0.4-0.2,0.9-0.5,1.2
	C118.2,416.9,117.8,417.1,117.3,417.1L117.3,417.1z"/>
<path class="st6" d="M96.4,251.9c-4.8,11.4-0.4,35.6,9.5,50.5c10.7,16.1,32.4,36.4,56.7,45.4c0.4,0.1,0.7,0.4,0.8,0.7
	s0.3,0.7,0.2,1.1c-0.1,0.4-0.3,0.7-0.6,1c-0.3,0.2-0.7,0.4-1,0.4c-0.2,0-0.4,0-0.6-0.1c-25-9.3-47.3-30.1-58.3-46.6
	c-11.2-16.7-15.5-43.6-8.9-55.4c0.5-0.9,1-1.7,1.6-2.4C96.2,248.3,96.4,250.1,96.4,251.9L96.4,251.9z"/>
<path class="st7" d="M350,73.2l10-5.8v289.1l-10,5.8L350,73.2z"/>
<path class="st6" d="M335,353.6l15,8.7l0-289.1l-3.6-2.1l-1.2,12.6l-1.2-14l-8.9-5.2V353.6z"/>
<path class="st16" d="M350,269.1v-35.6c-0.6-13.9-1.2-32-1.1-39.9l-3.5-2c0,12.1-1.4,34.4-2.1,49.4c-1,21.3,2.8,48.8,2.9,59.9
	s0,59.2,0,59.2l1.7,1c0,0-0.5-60.5,0.9-76.6C349.4,278.9,349.7,273.7,350,269.1z M346.6,276.7c-2.3-1-1.7-54.8,0.6-54
	C349.1,223.4,348.9,277.7,346.6,276.7L346.6,276.7z"/>
<path class="st17" d="M346.4,71.1l-2.5-1.4l1.2,14L346.4,71.1z"/>
<path class="st18" d="M339.9,67.3c-0.2,15.5,2.8,25.9,2.8,47.4c0,0-0.3-15.2-2.4-26.5c-1.4-7.3-2.1-14.6-2.3-22L339.9,67.3z"/>
<path class="st18" d="M350,73.2c0,5.1-0.2,16.7-0.9,23.9c-0.6,10-0.7,19.9-0.2,29.9c0,0-1.8-16.9-1.2-26.9c0.6-10,0.6-27.9,0.6-27.9
	L350,73.2z"/>
<path class="st16" d="M335,122v18.5c1.6-9.8,4.1-20.1,4.5-24.5c0.7-6.6-0.4-18.6-1.6-25.5s-3-18.3-2.7-25.9l-0.3-0.2v18.4l0.1,1.2
	c1.2,9.1,1.9,22.6,1.4,28.6C336.3,115.9,335.7,119,335,122L335,122z"/>
<path class="st18" d="M340.9,254c-0.3,6.8,2.6,32.2,3.2,40.1c1.1,15.6,0.6,65,0.6,65l-2-1.2c0,0,0.2-55.8,0-62.3
	C342.3,286.7,340,261.9,340.9,254z"/>
<path class="st16" d="M342.6,190.5c0,12.4-0.4,35.8-2,45.7c-2.2,14.6-2.5,29.5-1,44.2c1.1,11,1.3,22,0.6,33c0,0-0.6-19.1-2.3-34.7
	c-1.5-15.5-1.5-31.2,0.1-46.7c1.4-15.1,1.8-43.8,1.8-43.8L342.6,190.5z"/>
<path class="st18" d="M337.4,187.4c0,0-0.2,19.6-0.6,26.2s-1.3,19.2-1.3,19.2s-0.3-20.9,0-27.6c0.3-6.7-0.1-19.3-0.1-19.3
	L337.4,187.4z"/>
<path class="st18" d="M337.4,295.8c1.1,10.5,1.3,22.8,1.6,27.4c0.3,4.6,0.8,33.1,0.8,33.1l-2.3-1.3c0,0-0.2-29.5-0.3-36.1
	C337,310.3,337.8,301.4,337.4,295.8z"/>
<path class="st16" d="M342.6,71.8c0.5,8.2,2.4,16,3,21.7c0.6,5.7,1,23.4,1,23.4l-2-1.1c0,0,0.4-16.2-0.6-24.1S342.3,77,342.6,71.8z"
	/>
<path class="st17" d="M360,67.4l-15-8.7l-10,5.8l15,8.7L360,67.4z"/>
<path class="st10" d="M360,232.2l-10,5.8v14l10-5.8V232.2z"/>
<path class="st10" d="M350,238l-15-8.7v14l15,8.7V238z"/>
<path class="st17" d="M252.8,138.8L438,245.7l10.7-6.2l-185.2-107L252.8,138.8z"/>
<path class="st6" d="M244.1,131.5l186.4,107.6V196l-16.5-9.5l-1.8,12.6l-1.1-14.2l-167-96.4l0,27.9l5.4,5.3l-5.4-1.6V131.5z"/>
<path class="st18" d="M430.5,232c-9.7-5.6-50.5-28.6-55.2-30.9c-13.7-6.5-25.4-11.7-43.7-22.1c0,0,8.5,6,26.8,15.5
	c8.6,4.4,16.4,8.2,20.6,10.2c4.1,2.1,51.6,29.4,51.6,29.4V232z"/>
<path class="st16" d="M244.1,97.7l15.9,9.2c14.2,8.2,23.8,14.2,30,19.9c6.2,5.7,18.2,12.9,23.5,15.8c0,0-6.3-2.3-18.2-9.6
	c-11.8-7.3-14-11.2-30.8-20.9l-20.5-11.8V97.7z"/>
<path class="st16" d="M430.5,226.8l-49.6-28.6c-5.4-3.1-18.1-5.6-25.1-9.6c3.8,2.6,7.9,4.8,12.2,6.5c7.1,2.7,55.8,30.2,62.5,34.1
	L430.5,226.8z"/>
<path class="st18" d="M249.4,121.7l47.5,27.5c10.8,6.2,28.7,18.7,43.8,26.9c15.1,8.2,26.2,12.9,26.2,12.9s-14.4-4.1-26.4-11
	s-33.6-20.5-46.8-28.1l-49.7-28.7v-1L249.4,121.7z"/>
<path class="st18" d="M430.5,211.4c-10-5.8-43.1-24.9-51-29.5s-20-13-33.4-20.8c-10.5-6.1-21.5-11.4-32.9-15.9
	c-6.1-2.5-12-5.4-17.7-8.6c7,4.7,14.4,8.8,22.1,12.3c13.3,6.1,29.2,14.4,43.4,24.4c14.1,10.1,69.5,40.8,69.5,40.8V211.4z"/>
<path class="st18" d="M244.1,91.9c0,0,59.9,34,74.9,42.6c15,8.6,34.6,20.7,34.6,20.7s-31.6-16.9-63.4-35.2l-46.2-26.7V91.9z"/>
<path class="st16" d="M430.5,203.3c0,0-69.2-40-88.8-51.3c-19.5-11.3-41.2-21.7-41.2-21.7s16.2,10.7,40.2,24.6
	c7.1,4.1,89.8,51.9,89.8,51.9V203.3"/>
<path class="st16" d="M244.1,124.8l53.6,31c11,6.4,39.5,23.8,46.3,28.1c0,0-28.1-14.8-65.5-36.4l-34.5-20V124.8z"/>
<path class="st16" d="M244.1,115l45.2,26.1c10.5,6.1,35,22.6,45.8,28.8c10.8,6.2,81.9,44.9,95.4,52.8v-3
	c-8.4-4.9-76.5-49.1-92.8-58.5s-32.9-14.1-43.1-20L244.1,112V115z M314.4,153.5c0-1.5,13.9,4.8,23.4,10.3
	c8.4,4.9,25.1,16.1,25.1,17.5c0,1.4-16.3-7.4-25.1-12.4C329,163.8,314.4,155,314.4,153.5L314.4,153.5z"/>
<path class="st18" d="M244.1,103.4c6.6,3.8,27,15.4,32.7,19.8c5.7,4.4,11.6,11.4,22.6,17.8c0,0-11.4-4.7-17.9-10.9
	c-6.5-6.2-37.5-23.5-37.5-23.5L244.1,103.4z"/>
<path class="st19" d="M263.6,99.7l147.6,86.9l1,4l1.5-2.5l14.9,9.3l1.9,41.7V196l-16.5-9.5l-1.4-0.9l-1.4-0.8L263.6,99.7z"/>
<path class="st7" d="M441.2,232.9l-10.7,6.2V196l10.7-6.3V232.9z"/>
<path class="st17" d="M414,186.5l-1.8,12.6l-1.1-14.2l1.4,0.8L414,186.5z"/>
<path class="st7" d="M411.1,184.9l1.4,0.8l-0.4,13.4L411.1,184.9z"/>
<path class="st7" d="M244.1,116.3l1.6,3l-1.6,0.8l5.4,1.6L244.1,116.3z"/>
<path class="st17" d="M244.1,116.3l1.6,3l3.8,2.4L244.1,116.3z"/>
<path class="st17" d="M435,232.8l-4.6,0.2l-8.3-3.5l8.3,8L435,232.8z"/>
<path class="st7" d="M435,232.8l-4.6,2.3l-8.3-5.7l8.3,3.5L435,232.8z"/>
<path class="st17" d="M244.1,88.5L430.5,196l10.7-6.3L254.9,82.2L244.1,88.5z"/>
<path class="st6" d="M249.1,89L434.3,196v-43.1L267.5,56.6l-1.8,12.6l-1.1-14.2l-15.5-9V89z"/>
<path class="st18" d="M434.3,188.8c-9.7-5.6-50.5-28.6-55.2-30.9c-13.7-6.5-25.4-11.7-43.7-22.1c0,0,8.5,6,26.8,15.5
	c8.6,4.4,16.4,8.2,20.6,10.2c4.1,2.1,51.6,29.4,51.6,29.4V188.8z"/>
<path class="st16" d="M249.1,55.2l14.7,8.5c14.3,8.2,23.8,14.2,30,19.9c6.2,5.7,18.2,12.9,23.6,15.8c0,0-6.3-2.3-18.2-9.6
	c-11.8-7.3-14-11.2-30.8-20.9l-19.3-11.2L249.1,55.2z"/>
<path class="st16" d="M434.3,183.7c-10.2-5.9-44.3-25.5-49.6-28.6c-5.4-3.1-18.1-5.6-25.1-9.6c3.8,2.6,7.9,4.8,12.2,6.5
	c7.1,2.7,55.9,30.2,62.5,34.1V183.7z"/>
<path class="st18" d="M249.1,76.1l51.7,29.9c10.8,6.2,28.7,18.7,43.8,26.9s26.2,12.9,26.2,12.9s-14.4-4.1-26.4-11
	c-11.9-6.9-33.6-20.5-46.7-28.1l-48.5-28.1L249.1,76.1z"/>
<path class="st18" d="M434.3,168.3c-10-5.8-43.1-24.9-51-29.5s-20-13-33.4-20.8c-10.5-6.1-21.5-11.4-32.9-15.9
	c-6.1-2.5-12-5.4-17.7-8.6c7,4.7,14.5,8.8,22.2,12.3c13.3,6,29.2,14.4,43.4,24.4c14.2,10.1,69.5,40.8,69.5,40.8L434.3,168.3z"/>
<path class="st18" d="M249.1,49.4c57.9,32.8,57.6,32.6,73.7,42c15,8.7,34.6,20.7,34.6,20.7s-31.7-16.8-63.4-35.2l-45-26L249.1,49.4z
	"/>
<path class="st16" d="M434.3,160.2c0,0-69.2-40-88.8-51.3c-19.5-11.3-41.2-21.7-41.2-21.7s16.2,10.7,40.2,24.6
	c7.1,4.1,89.8,51.9,89.8,51.9V160.2z"/>
<path class="st16" d="M249.1,82.3l52.5,30.4c11,6.4,39.5,23.7,46.3,28.1c0,0-28.1-14.8-65.4-36.4L249.1,85L249.1,82.3z"/>
<path class="st16" d="M249.1,72.5l44,25.5c10.5,6.1,35,22.6,45.8,28.8c10.8,6.2,81.9,44.9,95.4,52.8v-3
	c-8.4-4.9-76.5-49.1-92.8-58.5s-32.9-14.1-43.1-20l-49.4-28.6L249.1,72.5z M318.2,110.3c0-1.5,13.9,4.8,23.4,10.3
	c8.4,4.9,25.1,16.1,25.1,17.5c0,1.4-16.3-7.4-25.1-12.5C332.9,120.6,318.2,111.8,318.2,110.3z"/>
<path class="st18" d="M249.1,60.9c6.6,3.8,25.9,14.7,31.6,19.1c5.7,4.4,11.6,11.4,22.6,17.8c0,0-11.4-4.7-17.9-10.9
	S249.1,64,249.1,64L249.1,60.9z"/>
<path class="st17" d="M267.5,56.6l-1.4-0.8l-1.4-0.8l1.1,14.2L267.5,56.6z"/>
<path class="st19" d="M267.5,56.6l165,97.7l1.9,41.7v-43.1L267.5,56.6z"/>
<path class="st7" d="M434.3,166.5l-10.1-3l10.1,8.3V166.5z"/>
<path class="st7" d="M445.1,189.7l-10.7,6.2v-43.1l10.7-6.4V189.7z"/>
<path class="st17" d="M434.3,152.9l10.7-6.4L260,39.7L249.1,46L434.3,152.9z"/>
<path class="st7" d="M434.3,166.5l2.9,1l-2.9,4.2V166.5z"/>
<path class="st17" d="M437.2,167.5l-2.9,1.7l-10.1-5.7l10.1,8.3L437.2,167.5z"/>
<path class="st7" d="M264.6,54.9l1.4,0.8l-0.4,13.4L264.6,54.9z"/>
<path class="st6" d="M252.8,138.8L438,245.7v43.1l-166.9-96.3l-1.8-14.6l-1.1,13l-15.5-9V138.8z"/>
<path class="st18" d="M438,252.9c-9.7-5.6-50.5-29.6-55.2-32.8c-13.7-9.2-25.4-17.7-43.7-28.4c0,0,8.5,3.7,26.8,15.4
	c8.6,5.5,35.7,21.9,39.8,24.6c4.1,2.7,32.4,19.1,32.4,19.1V252.9z"/>
<path class="st16" d="M252.8,172.7l14.7,8.5c14.2,8.2,23.8,13.3,30,14.8c6.2,1.5,18.2,8.1,23.5,11.4c-5.7-4.3-11.8-8.1-18.1-11.4
	c-11.9-6.3-14-5-30.8-14.7l-19.3-11.1L252.8,172.7z"/>
<path class="st16" d="M438,258c-10.2-5.9-25-14.4-30.4-17.5c-5.4-3.1-37.3-26.4-44.3-30.4c4.4,2.1,8.5,4.7,12.2,7.7
	c7.1,5.4,55.8,34.2,62.5,38V258z"/>
<path class="st18" d="M252.8,151.8l51.7,29.8c10.8,6.2,28.7,14.4,43.8,23.6c15.1,9.2,26.2,17.4,26.2,17.4S360,210,348,203.1
	c-12-6.9-33.6-18.4-46.7-25.9l-48.5-28L252.8,151.8z"/>
<path class="st18" d="M438,273.4l-31.8-18.3c-7.9-4.6-39.2-21.1-52.6-28.8c-11.4-6.7-22.4-14-32.9-22.1c-5.7-4.3-11.6-8.2-17.7-11.9
	c0,0,8.9,4,22.2,13.3c13.3,9.3,29.2,19.4,43.4,25.7c14.1,6.3,69.4,39.4,69.4,39.4V273.4z"/>
<path class="st18" d="M252.8,178.5c0,0,58.8,34.6,73.7,43.2c15,8.6,34.6,19.2,34.6,19.2s-31.7-19.7-63.4-38l-45-25.9L252.8,178.5z"
	/>
<path class="st16" d="M438,281.5l-88.8-51.1c-19.5-11.2-41.2-25.9-41.2-25.9s16.2,8,40.2,21.8c7.1,4.1,89.8,51.8,89.8,51.8V281.5"/>
<path class="st16" d="M252.8,145.6l52.5,30.2c11,6.3,39.5,21.9,46.3,25.4c0,0-28.1-17.7-65.4-39.2l-33.4-19.2L252.8,145.6z"/>
<path class="st16" d="M252.8,158.4l49.4,28.5c10.1,5.8,26.8,20.3,43.1,29.7c16.3,9.4,84.4,43.7,92.8,48.6v-3
	c-13.5-7.8-84.6-51.1-95.4-57.3s-35.3-18-45.8-24.1l-44-25.4L252.8,158.4z M345.4,209c8.8,5.1,25.1,15.2,25.1,16.6
	c0,1.4-16.7-6.6-25.1-11.5c-9.5-5.5-23.4-15.2-23.4-16.7C321.9,195.9,336.6,204,345.4,209z"/>
<path class="st18" d="M252.8,167c6.6,3.8,25.9,15.2,31.6,17.4c5.7,2.2,11.6,2,22.6,8.3c0,0-11.4-8.4-17.9-9.7
	c-6.5-1.4-36.3-19.1-36.3-19.1L252.8,167z"/>
<path class="st17" d="M271.2,192.5l-1.9-4.5l-0.9,2.8l1.1-13L271.2,192.5z"/>
<path class="st19" d="M271.2,149.4l165,97.7l1.9,41.7v-43.1L271.2,149.4z"/>
<path class="st7" d="M438,275.2l-10.1-8.7l10.1,3.4V275.2z"/>
<path class="st7" d="M448.8,239.5l-10.7,6.2v43.1l10.7-6.2V239.5z"/>
<path class="st7" d="M438,275.2l7.9-7.8l-7.9,2.6V275.2z"/>
<path class="st17" d="M445.9,267.4l-7.9,5.1l-10.1-6l10.1,3.4L445.9,267.4z"/>
<path class="st7" d="M268.3,190.8l0.9-2.8l0.1-10.2L268.3,190.8z"/>
<path class="st17" d="M340,118.8c2.8,1.6,5.4,3.7,7.4,6.2c2.1,2.5,3.8,5.3,5.2,8.2c1.4,3,2.4,6.2,3,9.5c0.7,3.3,1.1,6.6,1.2,9.9
	c0.1,2.6,0.1,5.3,0.1,8c0,2.7,0,5.3-0.1,7.8c-0.1,2.9-0.5,5.7-1.2,8.5c-0.5,2.2-1.5,4.2-3,5.9c-1.4,1.4-3.2,2.2-5.2,2.3
	c-2.1,0.1-4.6-0.7-7.4-2.3c-2.8-1.6-5.4-3.7-7.4-6.2c-2.1-2.5-3.8-5.3-5.2-8.2c-1.4-3-2.4-6.2-3-9.4c-0.7-3.3-1.1-6.6-1.2-9.9
	c-0.1-2.5-0.1-5.1-0.1-7.9c0-2.8,0-5.4,0.1-7.9c0.1-2.9,0.5-5.7,1.2-8.5c0.5-2.2,1.5-4.2,3-5.9c1.4-1.4,3.2-2.2,5.2-2.3
	C334.6,116.3,337.1,117.1,340,118.8z M346.2,161.8c0.1-4.9,0.1-9.9,0-14.9c-0.1-1.4-0.2-2.9-0.4-4.3c-0.2-1.3-0.5-2.6-1-3.8
	c-0.4-1.2-1.1-2.3-1.8-3.2c-0.8-1-1.8-1.9-2.9-2.5c-0.8-0.6-1.9-0.9-2.9-0.9c-0.4,0-0.7,0.1-1,0.2c-0.3,0.2-0.6,0.4-0.8,0.7
	c-0.5,0.9-0.9,1.8-1.1,2.8c-0.2,1.3-0.4,2.6-0.4,3.9c-0.2,4.8-0.2,9.8,0,14.9c0,1.4,0.2,2.9,0.4,4.3c0.2,1.3,0.5,2.6,1,3.8
	c0.5,1.2,1.1,2.3,1.9,3.3c0.8,1,1.8,1.8,2.9,2.5c0.8,0.6,1.9,0.9,2.9,0.9c0.4,0,0.7-0.2,1.1-0.3c0.3-0.2,0.6-0.4,0.8-0.8
	c0.5-0.8,0.9-1.7,1-2.6C346,164.4,346.1,163.1,346.2,161.8L346.2,161.8z"/>
<path class="st7" d="M352.6,182.8c-1.4,1.4-3.2,2.2-5.2,2.3c-2.1,0.1-4.5-0.7-7.4-2.3c-2.8-1.6-5.3-3.7-7.4-6.2
	c-1-1.2-1.9-2.4-2.7-3.7l3.5-2c0.7,1.1,1.5,2.1,2.3,3.1c2.1,2.5,4.6,4.6,7.4,6.2c2.9,1.7,5.4,2.4,7.5,2.3c1,0,2-0.2,2.9-0.6
	C353.2,182.2,352.9,182.5,352.6,182.8L352.6,182.8z"/>
<path class="st7" d="M346.8,134l-3.5,2.1c-0.1-0.2-0.3-0.4-0.4-0.6c-0.8-1-1.8-1.8-2.9-2.5c-0.8-0.6-1.9-0.9-2.9-0.9
	c-0.4,0-0.7,0.1-1,0.2c-0.3,0.2-0.6,0.4-0.8,0.7c-0.3,0.4-0.3,0.5,0,0c0.2-0.3,0.4-0.5,0.6-0.6l3.1-2.4c0.4-0.3,0.8-0.5,1.3-0.5
	c1,0,2,0.3,2.9,0.9c1.1,0.6,2.1,1.4,2.9,2.4C346.3,133.2,346.6,133.6,346.8,134L346.8,134z"/>
<path class="st3" d="M355.6,142.5c-0.6-3.3-1.6-6.4-3-9.4c-1.4-3-3.1-5.7-5.2-8.2c-2.1-2.5-4.6-4.6-7.4-6.2
	c-2.9-1.7-5.4-2.4-7.4-2.3c-0.9,0-1.8,0.2-2.7,0.6c-1.1,1.5-1.9,3.3-2.4,5.1c-0.7,2.8-1.1,5.6-1.2,8.5c-0.1,2.5-0.1,5.1-0.1,7.9
	s0,5.4,0.1,7.9c0.1,3.3,0.5,6.6,1.2,9.9c0.6,3.3,1.6,6.4,3,9.4c1.4,3,3.1,5.7,5.2,8.2c2.1,2.5,4.6,4.6,7.4,6.2
	c2.9,1.7,5.4,2.4,7.4,2.3c1,0,2-0.2,2.9-0.6c1.1-1.6,1.9-3.3,2.3-5.2c0.7-2.8,1.1-5.6,1.1-8.4c0.1-2.4,0.1-5,0.1-7.7
	c0-2.8,0-5.5-0.1-8.1C356.7,149.1,356.3,145.8,355.6,142.5L355.6,142.5z M349.3,159.1c0,1.3-0.1,2.6-0.4,3.9c-0.1,0.9-0.5,1.8-1,2.6
	c-0.2,0.3-0.4,0.5-0.7,0.7c0,0-2.9,2.3-3.1,2.5c-0.4,0.2-0.8,0.4-1.2,0.4c-1,0-2-0.3-2.9-0.9c-1.1-0.6-2.1-1.5-2.9-2.5
	c-0.8-1-1.4-2.1-1.9-3.3c-0.5-1.2-0.8-2.5-1-3.8c-0.2-1.4-0.3-2.9-0.4-4.3c-0.2-5.1-0.2-10.1,0-14.9c0-1.3,0.2-2.6,0.4-3.9
	c0.2-0.9,0.5-1.8,1-2.6c0.2-0.2,0.4-0.5,0.6-0.6c0.4-0.3,2.8-2.3,3.1-2.4c0.4-0.3,0.8-0.5,1.3-0.5c1,0,2,0.3,2.9,0.9
	c1.1,0.6,2.1,1.5,2.9,2.5c0.8,1,1.4,2.1,1.8,3.2c0.5,1.2,0.8,2.5,1,3.8c0.2,1.4,0.4,2.9,0.4,4.3
	C349.4,149.2,349.5,154.2,349.3,159.1L349.3,159.1z"/>
<path class="st17" d="M302.7,160.3c-0.5-0.3-0.9-0.8-1.1-1.3c-0.3-0.6-0.5-1.3-0.5-2v-9.1L283,137.4c-0.5-0.3-0.9-0.8-1.1-1.3
	c-0.3-0.6-0.5-1.3-0.5-2v-9.4c-0.1-1.2,0.2-2.4,0.8-3.4l17.2-23.5c0.2-0.4,0.6-0.6,1-0.7c0.4,0,0.8,0.1,1.2,0.4l8.7,5
	c0.5,0.3,0.9,0.8,1.1,1.3c0.3,0.6,0.5,1.3,0.5,2v34.1l5,2.9c0.5,0.3,0.9,0.8,1.1,1.3c0.3,0.6,0.5,1.3,0.5,2v9.4c0,0.3,0,0.5-0.1,0.8
	c-0.1,0.2-0.2,0.5-0.4,0.7c-0.1,0.1-0.3,0.2-0.5,0.2s-0.4,0-0.6-0.2l-5-2.9v9.1c0,0.3,0,0.5-0.1,0.8c-0.1,0.2-0.2,0.5-0.4,0.7
	c-0.1,0.1-0.3,0.2-0.5,0.2s-0.4,0-0.6-0.2L302.7,160.3z M301.4,133.9v-16.3L293,129L301.4,133.9z"/>
<path class="st7" d="M317.9,156.9c0.2-0.2,0.3-0.4,0.4-0.7s0.1-0.5,0.1-0.8v-2.1l-3.4-2l-3.1,2.7l5,2.9c0.2,0.1,0.4,0.2,0.6,0.2
	C317.5,157.1,317.7,157,317.9,156.9L317.9,156.9z"/>
<path class="st7" d="M311.8,161.1v2.1c0,0.3,0,0.5-0.1,0.8c-0.1,0.2-0.2,0.5-0.4,0.7c-0.1,0.1-0.3,0.2-0.5,0.2s-0.4,0-0.6-0.2
	l-7.5-4.4c-0.5-0.3-0.9-0.8-1.1-1.3l-0.1-0.2l3.1-2.7c0,0.1,0,0.1,0.1,0.2c0.2,0.5,0.6,1,1.1,1.3L311.8,161.1z"/>
<path class="st7" d="M304.3,145.3l-3.1,2.7L283,137.4c-0.5-0.3-0.9-0.8-1.1-1.3c-0.1-0.1-0.1-0.2-0.1-0.3l3.2-2.4
	c0.2,0.6,0.6,1,1.1,1.3L304.3,145.3z"/>
<path class="st3" d="M316.8,142.6l-5-2.9v-34.1c0-0.7-0.2-1.4-0.5-2c-0.2-0.5-0.6-1-1.1-1.3l-8.7-5c-0.1-0.1-0.3-0.1-0.4-0.2
	l-15.8,21.6c-0.6,1-0.8,2.2-0.8,3.4v9.4c0,0.7,0.2,1.4,0.5,2c0.2,0.5,0.6,1,1.1,1.3l18.2,10.5v9c0,0.7,0.2,1.3,0.5,2
	c0.2,0.5,0.6,1,1.1,1.3l6,3.4v-7l3.1-2.7l3.4,2v-7.5c0-0.7-0.2-1.4-0.5-2C317.7,143.4,317.3,142.9,316.8,142.6L316.8,142.6z
	 M304.5,131.2l-3.1,2.5l-8.4-4.9l8.4-11.5l3.1-2.5L304.5,131.2z"/>
<path class="st17" d="M382.9,206.6c-0.5-0.3-0.9-0.8-1.1-1.3c-0.3-0.6-0.5-1.3-0.5-1.9v-9.1l-18.2-10.5c-0.5-0.3-0.9-0.8-1.1-1.3
	c-0.3-0.6-0.5-1.3-0.5-1.9v-9.4c-0.1-1.2,0.2-2.4,0.8-3.4l17.2-23.5c0.2-0.4,0.6-0.6,1-0.7c0.4,0,0.8,0.1,1.2,0.4l8.7,5
	c0.5,0.3,0.9,0.8,1.1,1.3c0.3,0.6,0.5,1.3,0.5,2v34.1l5,2.9c0.5,0.3,0.9,0.8,1.1,1.3c0.3,0.6,0.5,1.3,0.5,2v9.4c0,0.3,0,0.5-0.1,0.8
	c-0.1,0.2-0.2,0.5-0.4,0.7c-0.1,0.1-0.3,0.2-0.5,0.2c-0.2,0-0.4,0-0.6-0.2l-5-2.9v9c0,0.3,0,0.5-0.1,0.8s-0.2,0.5-0.4,0.7
	c-0.1,0.1-0.3,0.2-0.5,0.2c-0.2,0-0.4,0-0.6-0.2L382.9,206.6z M381.6,180.2v-16.3l-8.4,11.5L381.6,180.2z"/>
<path class="st7" d="M398.1,203.2c0.2-0.2,0.3-0.4,0.4-0.7c0.1-0.2,0.1-0.5,0.1-0.8v-2.1l-3.4-2l-3.1,2.7l5,2.9
	c0.2,0.1,0.3,0.2,0.5,0.2C397.7,203.4,397.9,203.3,398.1,203.2L398.1,203.2z"/>
<path class="st7" d="M392,207.4v2.1c0,0.3,0,0.5-0.1,0.8c-0.1,0.2-0.2,0.5-0.4,0.7c-0.1,0.1-0.3,0.2-0.5,0.2c-0.2,0-0.4,0-0.6-0.2
	l-7.5-4.3c-0.5-0.3-0.9-0.8-1.1-1.4l-0.1-0.2l3.1-2.7c0,0.1,0,0.1,0.1,0.2c0.2,0.5,0.6,1,1.1,1.3L392,207.4z"/>
<path class="st7" d="M384.5,191.6l-3.1,2.7l-18.2-10.5c-0.5-0.3-0.9-0.8-1.1-1.3c0-0.1-0.1-0.2-0.1-0.3l3.2-2.4
	c0.2,0.5,0.6,1,1.1,1.3L384.5,191.6z"/>
<path class="st3" d="M397,188.9l-5-2.9v-34.1c0-0.7-0.2-1.3-0.5-1.9c-0.2-0.5-0.6-1-1.1-1.3l-8.7-5c-0.1-0.1-0.3-0.1-0.4-0.2
	L365.5,165c-0.6,1-0.8,2.2-0.8,3.4v9.4c0,0.7,0.2,1.3,0.5,1.9c0.2,0.5,0.6,1,1.1,1.3l18.2,10.5v9c0,0.7,0.2,1.4,0.5,2
	c0.2,0.5,0.6,1,1.1,1.3l6,3.4v-7l3.1-2.7l3.4,2v-7.5c0-0.7-0.2-1.3-0.5-1.9C397.9,189.7,397.5,189.2,397,188.9L397,188.9z
	 M384.8,177.5l-3.2,2.5l-8.4-4.9l8.4-11.5l3.1-2.5L384.8,177.5z"/>
<path class="st14" d="M177.2,296.4c-0.2,1.6-1.7-0.9-4.7,0.6c-3.5,2-1,4.5-2.8,4.4c-1.3-1.9-0.7-4.6,1.4-6
	C173.2,294,175.9,294.5,177.2,296.4z"/>
<path class="st14" d="M214.9,282.8c-0.5,1.5-1.5-1.3-4.7-0.4c-3.8,1.2-1.9,4.2-3.7,3.7c-0.9-2.2,0.3-4.7,2.6-5.6
	C211.5,279.6,214,280.6,214.9,282.8z"/>
<path class="st5" d="M274.2,173.6l-3.6-2.1l-0.7,1.5l-1.4-0.8l3.3-6.5l1.3,0.8l3.3,10.3l-1.4-0.8L274.2,173.6z M273.7,172.1
	l-1.4-4.5l-1.4,2.9L273.7,172.1z M278.3,172.5c0.4-0.5,1-0.4,2,0.1v1.4c-0.1-0.1-0.2-0.2-0.3-0.2c-0.5-0.3-0.9-0.3-1.2-0.2
	c-0.3,0.2-0.4,0.6-0.4,1.2v3.1l-1.3-0.8v-6.4l1.2,0.7V172.5z M286.6,179.5c0,0.1,0,0.2,0,0.4l-4.4-2.5c0.1,0.5,0.3,1,0.6,1.5
	c0.3,0.5,0.7,0.8,1.2,1.1c0.6,0.4,1.1,0.4,1.5,0.2l0.7,1.3c-0.2,0.2-0.6,0.3-0.9,0.2c-0.4,0-0.8-0.2-1.3-0.5
	c-0.6-0.4-1.1-0.8-1.6-1.3c-0.5-0.5-0.8-1.1-1.1-1.8c-0.2-0.6-0.4-1.3-0.4-1.9c0-0.6,0.1-1.1,0.4-1.5c0.2-0.4,0.6-0.6,1-0.6
	c0.4,0,0.9,0.1,1.5,0.4c0.5,0.3,1,0.7,1.4,1.3c0.4,0.5,0.8,1.1,1,1.7C286.5,178.2,286.6,178.9,286.6,179.5z M283.8,175.8
	c-0.4-0.2-0.8-0.3-1.1-0.2c-0.3,0.1-0.5,0.4-0.5,0.8l3.1,1.8c-0.1-0.5-0.2-1-0.5-1.4C284.5,176.4,284.2,176,283.8,175.8z
	 M295.9,181.7l-2.6,5.4c-0.2,0.6-0.5,0.9-0.9,1c-0.3,0.1-0.8,0-1.3-0.3c-0.3-0.2-0.6-0.4-0.8-0.6c-0.3-0.3-0.5-0.5-0.7-0.8l0.5-0.8
	c0.1,0.2,0.3,0.4,0.4,0.6c0.2,0.2,0.3,0.3,0.5,0.4c0.2,0.1,0.4,0.2,0.6,0.1c0.2,0,0.3-0.2,0.4-0.4l0.1-0.2l-2.4-7.8l1.4,0.8l1.7,5.7
	l1.8-3.7L295.9,181.7z M299,190c-0.6-0.3-1.1-0.8-1.5-1.3c-0.4-0.5-0.8-1.1-1.1-1.8c-0.2-0.6-0.4-1.3-0.4-1.9s0.1-1.1,0.4-1.5
	c0.3-0.3,0.6-0.5,1.1-0.6c0.5,0,1,0.1,1.5,0.5c0.6,0.3,1.1,0.8,1.5,1.3c0.5,0.5,0.8,1.1,1,1.8c0.3,0.6,0.4,1.3,0.4,1.9
	s-0.1,1.1-0.4,1.5c-0.2,0.4-0.6,0.5-1,0.6C300.1,190.5,299.6,190.3,299,190z M299,188.7c0.5,0.3,0.9,0.3,1.2,0.1
	c0.3-0.2,0.5-0.6,0.5-1.2c0-0.6-0.2-1.2-0.5-1.7c-0.3-0.5-0.7-1-1.2-1.2s-0.9-0.3-1.2-0.1c-0.3,0.2-0.5,0.6-0.5,1.2
	c0,0.6,0.2,1.2,0.5,1.7C298.2,188,298.6,188.4,299,188.7z M308.6,189v6.4l-1.2-0.7v-0.8c-0.2,0.2-0.5,0.2-0.8,0.2
	c-0.3,0-0.6-0.1-1-0.4c-0.7-0.4-1.3-1-1.8-1.7c-0.4-0.7-0.6-1.6-0.6-2.5v-3.7l1.3,0.8v3.5c0,0.6,0.1,1.1,0.3,1.5
	c0.2,0.4,0.6,0.7,1,1c0.5,0.3,0.8,0.3,1.1,0.1c0.3-0.2,0.4-0.6,0.4-1.2v-3.2L308.6,189z M313.2,189.2l1.3,0.8v8.9l-1.3-0.8V189.2z
	 M318.7,201.3c-0.6-0.3-1.1-0.8-1.5-1.3c-0.5-0.5-0.8-1.1-1.1-1.8c-0.2-0.6-0.4-1.3-0.4-1.9s0.1-1.1,0.4-1.5
	c0.3-0.3,0.6-0.5,1.1-0.6c0.5,0,1,0.1,1.5,0.5c0.6,0.3,1.1,0.8,1.5,1.3c0.5,0.5,0.8,1.1,1.1,1.8c0.3,0.6,0.4,1.3,0.4,1.9
	s-0.1,1.1-0.4,1.5c-0.2,0.4-0.6,0.5-1.1,0.6C319.8,201.8,319.3,201.6,318.7,201.3z M318.7,200c0.5,0.3,0.9,0.3,1.2,0.1
	c0.3-0.2,0.5-0.6,0.5-1.2c0-0.6-0.2-1.2-0.5-1.7c-0.3-0.5-0.7-1-1.2-1.2s-0.9-0.3-1.2-0.1c-0.3,0.2-0.5,0.6-0.5,1.2s0.2,1.2,0.5,1.7
	C317.8,199.4,318.2,199.8,318.7,200z M325.4,205.2c-0.6-0.3-1.1-0.8-1.5-1.3c-0.5-0.5-0.8-1.1-1.1-1.8c-0.2-0.6-0.4-1.3-0.4-1.9
	c0-0.6,0.1-1.1,0.4-1.5c0.3-0.3,0.6-0.5,1.1-0.6c0.4,0,1,0.1,1.5,0.5c0.6,0.3,1.1,0.8,1.5,1.3c0.5,0.5,0.8,1.1,1,1.8
	c0.3,0.6,0.4,1.3,0.4,1.9c0,0.6-0.1,1.1-0.4,1.5c-0.2,0.4-0.6,0.5-1,0.6C326.5,205.7,326,205.5,325.4,205.2z M325.4,203.9
	c0.5,0.3,0.9,0.3,1.2,0.1c0.3-0.2,0.5-0.6,0.5-1.2c0-0.6-0.2-1.2-0.5-1.7c-0.3-0.5-0.7-1-1.2-1.2s-0.9-0.3-1.2-0.1
	c-0.3,0.2-0.5,0.6-0.5,1.2c0,0.6,0.2,1.2,0.5,1.7C324.5,203.2,324.9,203.6,325.4,203.9z M331.9,206.1l-1,0.5v1.7l-1.3-0.8v-8.9
	l1.3,0.8v5.4l2.7-1.3l1.6,0.9l-2.3,1.4l2.5,5.2l-1.6-0.9L331.9,206.1z M336.2,204.9l1.3,0.8v6.4l-1.3-0.8V204.9z M336.8,204.2
	c-0.2-0.1-0.4-0.3-0.6-0.6c-0.2-0.3-0.2-0.5-0.2-0.8c0-0.3,0.1-0.4,0.2-0.5c0.2-0.1,0.4-0.1,0.6,0.1c0.2,0.1,0.4,0.3,0.6,0.6
	c0.2,0.3,0.2,0.5,0.2,0.8c0,0.3-0.1,0.4-0.2,0.5C337.2,204.4,337,204.4,336.8,204.2z M342.3,208.4c0.7,0.4,1.3,1,1.7,1.7
	c0.4,0.7,0.6,1.5,0.6,2.5v3.7l-1.3-0.8V212c0-0.6-0.1-1-0.3-1.5c-0.2-0.4-0.6-0.8-1-1c-0.5-0.3-0.9-0.3-1.1-0.2
	c-0.3,0.2-0.4,0.6-0.4,1.2v3.2l-1.3-0.8v-6.4l1.2,0.7v0.8c0.2-0.2,0.5-0.2,0.8-0.2C341.5,208,341.9,208.2,342.3,208.4z M351.8,214
	v5.4c0,2.3-1,2.8-3,1.7c-0.5-0.3-1-0.7-1.5-1.1c-0.5-0.4-0.9-0.9-1.2-1.4l0.6-0.8c0.2,0.4,0.5,0.7,0.9,1.1c0.4,0.4,0.8,0.6,1.1,0.9
	c0.6,0.4,1.1,0.4,1.3,0.3c0.3-0.2,0.4-0.6,0.4-1.2v-0.3c-0.2,0.2-0.5,0.2-0.8,0.2c-0.3,0-0.7-0.2-1-0.4c-0.5-0.3-1-0.7-1.4-1.2
	c-0.4-0.5-0.8-1.1-1-1.7c-0.2-0.6-0.4-1.2-0.4-1.8c0-0.6,0.1-1.1,0.4-1.4c0.2-0.3,0.6-0.5,1-0.5c0.4,0,0.9,0.1,1.4,0.4
	c0.4,0.2,0.8,0.5,1.1,0.9c0.3,0.3,0.6,0.7,0.8,1.2v-0.9L351.8,214z M348.9,217.1c0.5,0.3,0.9,0.3,1.2,0.2c0.3-0.2,0.5-0.5,0.5-1.1
	c0-0.5-0.2-1.1-0.5-1.6c-0.3-0.5-0.7-0.9-1.2-1.2c-0.5-0.3-0.9-0.4-1.2-0.2c-0.3,0.2-0.5,0.5-0.5,1c0,0.5,0.2,1.1,0.5,1.6
	C348,216.4,348.4,216.8,348.9,217.1z M358.7,216.5c-0.5-0.3-0.8-0.1-0.8,0.6v0.4l1.5,0.9v1.2l-1.5-0.9v5.2l-1.3-0.8V218l-0.9-0.5
	v-1.2l0.9,0.5v-0.4c0-0.7,0.2-1.1,0.5-1.3c0.3-0.2,0.8-0.1,1.5,0.2c0.5,0.3,0.9,0.6,1.2,1l-0.4,0.9
	C359.2,216.9,358.9,216.7,358.7,216.5z M362.7,226.7c-0.6-0.3-1.1-0.8-1.5-1.3c-0.5-0.5-0.8-1.1-1.1-1.8c-0.2-0.6-0.4-1.3-0.4-1.9
	s0.1-1.1,0.4-1.5c0.3-0.3,0.6-0.5,1.1-0.6c0.5,0,1,0.1,1.5,0.5c0.6,0.3,1.1,0.8,1.5,1.3c0.4,0.5,0.8,1.1,1,1.8
	c0.3,0.6,0.4,1.3,0.4,1.9s-0.1,1.1-0.4,1.5c-0.2,0.4-0.6,0.5-1,0.6C363.7,227.2,363.2,227,362.7,226.7z M362.7,225.4
	c0.5,0.3,0.9,0.3,1.2,0.1c0.3-0.2,0.5-0.6,0.5-1.2c0-0.6-0.2-1.2-0.5-1.7c-0.3-0.5-0.7-1-1.2-1.2s-0.9-0.3-1.2-0.1
	c-0.3,0.2-0.5,0.6-0.5,1.2c0,0.6,0.2,1.2,0.5,1.7C361.8,224.7,362.2,225.1,362.7,225.4z M368.1,224.3c0.4-0.5,1-0.4,2,0.1v1.4
	c-0.1-0.1-0.2-0.2-0.3-0.2c-0.5-0.3-0.9-0.3-1.2-0.2c-0.3,0.2-0.4,0.6-0.4,1.2v3.1l-1.3-0.8v-6.4l1.2,0.7V224.3z M381.1,230.8
	c0.7,0.4,1.3,1,1.7,1.7c0.4,0.7,0.6,1.5,0.6,2.5v3.7l-1.3-0.8v-3.5c0-0.6-0.1-1-0.3-1.4c-0.2-0.4-0.5-0.7-0.9-1
	c-0.4-0.3-0.8-0.3-1-0.1c-0.3,0.2-0.4,0.6-0.4,1.2v3.3l-1.3-0.8v-3.5c0-0.6-0.1-1-0.3-1.4c-0.2-0.4-0.5-0.7-0.9-1
	c-0.4-0.3-0.8-0.3-1.1-0.1c-0.3,0.2-0.4,0.6-0.4,1.2v3.3l-1.3-0.8v-6.4l1.2,0.7v0.8c0.2-0.2,0.5-0.2,0.8-0.2c0.3,0,0.7,0.2,1,0.4
	c0.4,0.2,0.8,0.5,1.1,0.9c0.3,0.4,0.6,0.8,0.8,1.2c0.2-0.2,0.5-0.3,0.9-0.3C380.3,230.4,380.7,230.5,381.1,230.8z M390.3,239.4
	c0,0.1,0,0.2,0,0.4l-4.4-2.5c0.1,0.5,0.3,1,0.6,1.5c0.3,0.5,0.7,0.8,1.2,1.1c0.6,0.4,1.1,0.4,1.5,0.2l0.7,1.3
	c-0.2,0.2-0.6,0.3-0.9,0.2c-0.4,0-0.8-0.2-1.3-0.5c-0.6-0.4-1.1-0.8-1.6-1.4c-0.5-0.5-0.8-1.1-1.1-1.8c-0.2-0.6-0.4-1.3-0.4-1.9
	c0-0.6,0.1-1.1,0.4-1.5c0.2-0.4,0.6-0.6,1-0.6c0.4,0,0.9,0.1,1.5,0.4c0.5,0.3,1,0.7,1.4,1.3c0.4,0.5,0.8,1.1,1,1.7
	C390.2,238.1,390.3,238.8,390.3,239.4z M387.5,235.7c-0.4-0.2-0.8-0.3-1.1-0.2c-0.3,0.1-0.5,0.4-0.5,0.8l3.1,1.8
	c-0.1-0.5-0.2-1-0.5-1.4S387.9,235.9,387.5,235.7z M392.5,241.1c0-0.4,0.1-0.7,0.2-0.9c0.2-0.2,0.4-0.4,0.7-0.5
	c0.2-0.1,0.4-0.2,0.6-0.3c0.1-0.1,0.2-0.3,0.2-0.5c0-0.3-0.1-0.7-0.4-1c-0.2-0.3-0.6-0.6-0.9-0.9c-0.7-0.4-1.3-0.4-1.7-0.1l-1-1.3
	c0.3-0.3,0.7-0.4,1.2-0.4c0.5,0,1,0.2,1.7,0.6c0.8,0.4,1.4,1,1.9,1.7c0.5,0.7,0.7,1.3,0.7,2c0,0.3,0,0.6-0.1,0.8
	c-0.1,0.2-0.2,0.3-0.3,0.4c-0.1,0.1-0.3,0.2-0.5,0.3c-0.3,0.1-0.5,0.2-0.6,0.4c-0.1,0.1-0.2,0.3-0.2,0.6L392.5,241.1z M393.2,244.3
	c-0.2-0.1-0.4-0.3-0.6-0.6c-0.2-0.3-0.2-0.5-0.2-0.8c0-0.3,0.1-0.4,0.2-0.5c0.2-0.1,0.4-0.1,0.6,0.1c0.2,0.1,0.4,0.3,0.6,0.6
	c0.2,0.3,0.2,0.5,0.2,0.8c0,0.3-0.1,0.4-0.2,0.5C393.6,244.5,393.4,244.5,393.2,244.3z"/>
<path class="st20" d="M399.1,248.5l10.4,6v-12l-10.4-6V248.5z"/>
</svg>
