<svg width="45" height="36" viewBox="0 0 45 36" fill="none" xmlns="http://www.w3.org/2000/svg">
<path d="M0 0V36H45V0H0ZM3.21429 3.27273H41.7857V26.0284L32.1429 16.1591L24.8605 23.5739L14.4643 12.8864L3.21429 24.3409V3.27273ZM35.3571 6.54545C34.4531 6.54545 33.683 6.86932 33.0469 7.51705C32.4442 8.13068 32.1429 8.89773 32.1429 9.81818C32.1429 10.7386 32.4442 11.5227 33.0469 12.1705C33.683 12.7841 34.4531 13.0909 35.3571 13.0909C36.2612 13.0909 37.0145 12.7841 37.6172 12.1705C38.2533 11.5227 38.5714 10.7386 38.5714 9.81818C38.5714 8.89773 38.2533 8.13068 37.6172 7.51705C37.0145 6.86932 36.2612 6.54545 35.3571 6.54545ZM14.4643 17.5398L29.2299 32.7273H3.21429V28.9943L14.4643 17.5398ZM32.1429 20.8125L41.7857 30.6307V32.7273H33.8002L27.1205 25.875L32.1429 20.8125Z" fill="#A654BE"/>
</svg>
