<svg width="650" height="531" viewBox="0 0 650 531" fill="none" xmlns="http://www.w3.org/2000/svg">
<path opacity="0.0528274" fill-rule="evenodd" clip-rule="evenodd" d="M650 173.93C650 77.8709 571.829 0 475.402 0C378.974 0 300.804 77.8709 300.804 173.93C300.804 269.988 378.974 347.859 475.402 347.859C571.829 347.859 650 269.988 650 173.93ZM366.074 173.93C366.074 113.781 415.022 65.0204 475.402 65.0204C535.782 65.0204 584.729 113.781 584.729 173.93C584.729 234.078 535.782 282.839 475.402 282.839C415.022 282.839 366.074 234.078 366.074 173.93Z" fill="#6D1E84"/>
<g opacity="0.14102" filter="url(#filter0_f)">
<path fill-rule="evenodd" clip-rule="evenodd" d="M104.993 275.795C104.993 248.563 82.8328 226.488 55.4966 226.488C28.1604 226.488 6 248.563 6 275.795C6 303.027 28.1604 325.102 55.4966 325.102C82.8328 325.102 104.993 303.027 104.993 275.795ZM38.6351 275.795C38.6351 266.518 46.1843 258.998 55.4966 258.998C64.809 258.998 72.3581 266.518 72.3581 275.795C72.3581 285.072 64.809 292.592 55.4966 292.592C46.1843 292.592 38.6351 285.072 38.6351 275.795Z" fill="#DCCCF0"/>
</g>
<ellipse cx="208.338" cy="433.469" rx="97.9054" ry="97.5306" fill="#7367F0" fill-opacity="0.0612161"/>
<ellipse opacity="0.14102" cx="175.702" cy="92.1122" rx="34.8108" ry="34.6776" fill="#8948D7"/>
<g filter="url(#filter1_f)">
<ellipse cx="585.818" cy="433.469" rx="34.8108" ry="34.6776" fill="#6D1E84" fill-opacity="0.06"/>
</g>
<g clip-path="url(#clip0)">
<path d="M327.6 507.9C457.718 507.9 563.2 447.011 563.2 371.9C563.2 296.789 457.718 235.9 327.6 235.9C197.482 235.9 92 296.789 92 371.9C92 447.011 197.482 507.9 327.6 507.9Z" fill="#0E0D2F"/>
<path d="M278.8 475C323.645 475 360 454.002 360 428.1C360 402.198 323.645 381.2 278.8 381.2C233.954 381.2 197.6 402.198 197.6 428.1C197.6 454.002 233.954 475 278.8 475Z" fill="#191747"/>
<path d="M509.9 369.4L500.4 363.9C500.4 363.9 498.1 343.5 499.6 327.7C501.8 305.5 516.1 278.8 533.2 285.1C550.3 291.4 525.4 314 519.8 332.8C514.2 351.6 509.9 369.4 509.9 369.4Z" fill="#D083C9"/>
<path opacity="0.15" d="M509.9 369.4L500.4 363.9C500.4 363.9 498.1 343.5 499.6 327.7C501.8 305.5 516.1 278.8 533.2 285.1C550.3 291.4 525.4 314 519.8 332.8C514.2 351.6 509.9 369.4 509.9 369.4Z" fill="black"/>
<path d="M504.9 367.1C505.2 367.1 505.5 366.8 505.5 366.5C503.8 317.2 528.4 292.4 528.6 292.1C528.8 291.9 528.8 291.5 528.6 291.3C528.4 291.1 528 291.1 527.8 291.3C527.5 291.5 502.6 316.7 504.3 366.6C504.3 366.8 504.5 367.1 504.9 367.1Z" fill="white"/>
<path d="M515.899 372.8L509.099 368.9C509.099 368.9 507.899 354.9 514.799 337.9C520.799 323.1 535.599 310.8 543.099 313.4C550.599 316 550.399 321.3 546.699 326.8C542.999 332.3 520.899 345.6 515.899 372.8Z" fill="#D083C9"/>
<path d="M512.3 371.3C512.6 371.3 512.9 371 512.9 370.7C512.8 339.5 542.1 318.4 542.4 318.2C542.7 318 542.7 317.7 542.5 317.4C542.3 317.1 542 317.1 541.7 317.3C541.4 317.5 511.6 338.9 511.8 370.7C511.7 371.1 512 371.3 512.3 371.3Z" fill="white"/>
<path d="M157.3 357.1L166.1 351.2C166.1 351.2 170 328.2 166.4 307.9C161.3 279.4 141.7 270 134.7 272.9C127.7 275.9 126.2 284.4 139.3 300.6C146.9 310.2 157 330.6 157.3 357.1Z" fill="#9135AB"/>
<g opacity="0.15">
<path opacity="0.15" d="M157.3 357.1L166.1 351.2C166.1 351.2 170 328.2 166.4 307.9C161.3 279.4 141.7 270 134.7 272.9C127.7 275.9 126.2 284.4 139.3 300.6C146.9 310.2 157 330.6 157.3 357.1Z" fill="black"/>
</g>
<path d="M160.3 345.7C160.2 345.7 160.2 345.7 160.3 345.7C159.9 345.7 159.6 345.3 159.7 345C162.9 318.2 151.6 289.1 139.3 277.6C139 277.4 139 277 139.3 276.7C139.5 276.4 139.9 276.4 140.2 276.7C152.7 288.5 164.3 318 161 345.2C160.9 345.5 160.6 345.7 160.3 345.7Z" fill="white"/>
<path d="M134.2 372.7C132.8 373.5 128.7 370.5 127.6 369.8C125.7 368.6 124.1 366.8 123 364.7C121.8 362.3 121.4 359.8 121.7 357.1C121.9 355.7 122.2 354.4 122.6 353C122.9 351.7 123.3 350.4 123.6 349.1C123.9 347.8 124.3 346.5 124.1 345.1C123.7 342.4 121.3 340.6 119.1 339C116.7 337.3 114.1 334.9 114.1 331.7C114.1 329.2 115.3 326.9 116.8 324.9C118.3 322.9 120.1 321.2 121.5 319.1C122.5 317.6 123.2 315.8 123 314.1C122.9 313 122.4 312 121.8 311C120.6 308.9 119.1 307 118.3 304.8C117.5 302.6 117.5 299.8 119.3 298.1C120.7 296.7 122.9 296.5 124.8 296.6C126.6 296.7 128.4 297.5 130 298.3C135.2 301 138.2 307.1 143.7 309.1C145.8 309.9 148.1 310 150.3 310.6C152.5 311.1 154.7 312.2 155.8 314.2C157.9 318.1 154.3 323.1 155.7 327.3C157 331 160.7 332.4 162.8 335.7C163.7 337.2 164 338.9 163.8 340.6C163.6 343.5 163.2 345.7 161.9 348.9C160.8 351.6 157.5 356.8 157.5 356.8C157.5 356.8 134.4 372.5 134.2 372.7Z" fill="#9135AB"/>
<path d="M147.7 364.4C147.3 364.4 147 364.1 147.1 363.7C147.7 338.4 135.2 310.7 126.4 302.7C126.1 302.5 126.1 302.1 126.4 301.8C126.6 301.5 127 301.5 127.3 301.8C136.3 309.9 149 338.1 148.4 363.7C148.3 364.1 148.1 364.4 147.7 364.4Z" fill="white"/>
<path d="M143.099 333.5C142.999 333.5 142.999 333.5 142.899 333.5C134.699 331.1 124.599 330.9 124.499 330.9C124.099 330.9 123.899 330.6 123.899 330.2C123.899 329.8 124.199 329.6 124.599 329.6C124.699 329.6 134.999 329.9 143.299 332.3C143.599 332.4 143.799 332.8 143.699 333.1C143.599 333.3 143.299 333.5 143.099 333.5Z" fill="white"/>
<path d="M378.699 339.7L374.899 337.5C373.699 336.8 372.699 335.1 372.699 333.7V176.2C372.699 174.8 373.699 173.1 374.899 172.4L480.199 111.6C481.399 110.9 483.299 110.9 484.499 111.6L488.299 113.8C489.499 114.5 490.499 116.2 490.499 117.5V275C490.499 276.4 489.499 278.1 488.299 278.8L382.999 339.6C381.899 340.4 379.899 340.4 378.699 339.7Z" fill="#455A64"/>
<path d="M490.6 117.3C490.4 116.2 489.5 115.8 488.4 116.4L383.1 177.2C382.5 177.5 382 178.1 381.6 178.8L373.5 174.1C373.9 173.4 374.4 172.8 375 172.5L480.4 111.7C481.6 111 483.5 111 484.7 111.7L488.5 113.9C489.5 114.5 490.4 116 490.6 117.3Z" fill="#455A64"/>
<path d="M382.699 339.9C381.499 340.4 379.799 340.4 378.699 339.7L374.899 337.5C373.699 336.8 372.699 335.1 372.699 333.7V176.3C372.699 175.6 372.899 174.8 373.299 174.2L381.399 178.9C380.999 179.6 380.799 180.3 380.799 181V338.5C380.899 339.7 381.699 340.3 382.699 339.9Z" fill="#263238"/>
<path d="M380.899 181V338.5C380.899 339.9 381.899 340.4 383.099 339.7L488.399 278.9C489.599 278.2 490.599 276.5 490.599 275.1V117.6C490.599 116.2 489.599 115.7 488.399 116.4L383.099 177.2C381.899 177.9 380.899 179.6 380.899 181Z" fill="#37474F"/>
<path d="M356.3 241C354.9 240.2 348.6 236.6 348.3 236.4C347.3 235.8 346.9 234.3 347.9 233.3L372.8 206.6L380.9 211.3L356 238C355.1 239 355.4 240.3 356.3 241Z" fill="#455A64"/>
<path d="M380.899 211.3L355.999 238C354.799 239.3 355.799 241.5 357.599 241.4L380.899 239.5V211.3Z" fill="#37474F"/>
<path d="M435.799 163.2C447.999 156.1 457.999 161.8 457.999 176C457.999 190.2 447.999 207.4 435.799 214.5C423.499 221.6 413.599 215.8 413.599 201.7C413.499 187.5 423.499 170.3 435.799 163.2Z" fill="#6D1E84"/>
<path d="M435.599 174.3C439.599 172 442.799 173.9 442.799 178.5C442.799 183.1 439.599 188.7 435.599 191C431.599 193.3 428.399 191.4 428.399 186.8C428.399 182.2 431.599 176.6 435.599 174.3Z" fill="white"/>
<path d="M449.8 198.9C449.8 191.3 444.5 188.3 438 192.1L433.9 194.5C427.4 198.3 422.1 207.5 422.1 215V217.1C423.3 217.5 424.6 217.7 425.9 217.7C428.9 217.7 432.2 216.7 435.8 214.7C441.1 211.6 446 206.6 449.9 200.8V198.9H449.8Z" fill="white"/>
<path d="M421.7 284.7L449.9 268.4C451.1 267.7 452.1 268.3 452.1 269.6V278.7C452.1 280.1 451.1 281.8 449.9 282.5L421.7 298.8C420.5 299.5 419.5 298.9 419.5 297.6V288.5C419.5 287.1 420.5 285.4 421.7 284.7Z" fill="#6D1E84"/>
<path d="M407.9 264.4L463.6 232.2C465 231.4 466.2 232 466.2 233.7V237.1C466.2 238.8 465 240.8 463.6 241.6L407.9 273.8C406.5 274.6 405.3 274 405.3 272.3V268.9C405.3 267.3 406.4 265.3 407.9 264.4Z" fill="#FAFAFA"/>
<path d="M414.4 241.2C415.2 240.8 415.7 240.7 416.2 241C416.6 241.3 416.8 242 416.8 243.1C416.8 244.2 416.6 245.1 416.2 245.9C415.8 246.7 415.2 247.3 414.4 247.8L412.9 248.7V251.9C412.9 252 412.9 252.1 412.8 252.2C412.7 252.3 412.7 252.4 412.6 252.4L411.8 252.8C411.7 252.8 411.7 252.8 411.6 252.8C411.6 252.8 411.5 252.7 411.5 252.6V243.2C411.5 243.1 411.5 243 411.6 242.9C411.7 242.8 411.7 242.7 411.8 242.7L414.4 241.2ZM412.9 246.7L414.4 245.9C414.8 245.7 415 245.4 415.3 245.1C415.5 244.8 415.6 244.3 415.6 243.8C415.6 243.3 415.5 242.9 415.3 242.9C415.1 242.8 414.8 242.9 414.4 243.1L412.9 243.9V246.7Z" fill="#FAFAFA"/>
<path d="M421 237.4C421.1 237.3 421.2 237.3 421.2 237.4C421.3 237.5 421.3 237.6 421.3 237.7L423.6 245.5V245.6C423.6 245.7 423.6 245.8 423.5 245.9C423.5 246 423.4 246.1 423.3 246.1L422.6 246.5C422.5 246.6 422.4 246.6 422.3 246.5C422.2 246.4 422.2 246.4 422.2 246.3L422 245L419 246.7L418.6 248.5C418.6 248.6 418.5 248.7 418.5 248.8C418.4 248.9 418.4 249 418.2 249.1L417.5 249.5C417.4 249.5 417.4 249.5 417.3 249.5C417.2 249.5 417.2 249.4 417.2 249.3V249.2L419.5 238.7C419.5 238.5 419.6 238.4 419.6 238.3C419.6 238.2 419.7 238.1 419.8 238L421 237.4ZM421.5 243.4L420.5 239.9L419.5 244.6L421.5 243.4Z" fill="#FAFAFA"/>
<path d="M427.2 233.6C427.6 233.4 428 233.2 428.3 233.2C428.6 233.2 428.9 233.3 429.1 233.4C429.3 233.5 429.5 233.7 429.6 234C429.7 234.2 429.8 234.5 429.8 234.8C429.8 234.9 429.8 235 429.7 235.1C429.6 235.2 429.6 235.3 429.5 235.3L428.8 235.7C428.7 235.8 428.6 235.8 428.6 235.7C428.5 235.7 428.5 235.6 428.5 235.5C428.4 235.3 428.3 235.2 428.1 235.1C427.9 235 427.6 235.1 427.2 235.3C427 235.4 426.9 235.5 426.7 235.6C426.6 235.7 426.4 235.9 426.3 236.1C426.2 236.3 426.1 236.4 426 236.6C425.9 236.8 425.9 237 425.9 237.1C425.9 237.3 425.9 237.5 426 237.6C426.1 237.7 426.2 237.8 426.3 237.8C426.4 237.8 426.6 237.8 426.9 237.8C427.1 237.8 427.4 237.7 427.8 237.6C428.2 237.5 428.5 237.5 428.8 237.5C429.1 237.5 429.3 237.6 429.5 237.7C429.7 237.8 429.8 238 429.9 238.3C430 238.6 430 238.9 430 239.3C430 239.7 429.9 240.2 429.8 240.6C429.7 241 429.5 241.5 429.3 241.9C429.1 242.3 428.8 242.7 428.4 243C428.1 243.3 427.7 243.6 427.3 243.9C426.9 244.1 426.6 244.2 426.3 244.3C426 244.4 425.7 244.3 425.4 244.2C425.2 244.1 425 243.9 424.8 243.7C424.7 243.4 424.6 243.1 424.5 242.7C424.5 242.6 424.5 242.5 424.6 242.4C424.7 242.3 424.7 242.2 424.8 242.2L425.5 241.8C425.6 241.7 425.7 241.7 425.7 241.7C425.8 241.7 425.8 241.8 425.8 241.9C425.8 242 425.9 242.1 426 242.2C426.1 242.3 426.1 242.4 426.3 242.4C426.4 242.4 426.5 242.4 426.7 242.4C426.9 242.4 427.1 242.3 427.3 242.1C427.5 242 427.7 241.9 427.8 241.7C428 241.6 428.1 241.4 428.3 241.2C428.4 241 428.5 240.8 428.6 240.6C428.7 240.4 428.7 240.2 428.7 240C428.7 239.8 428.7 239.6 428.6 239.6C428.5 239.5 428.4 239.5 428.2 239.5C428 239.5 427.8 239.5 427.5 239.6C427.2 239.7 426.9 239.7 426.6 239.8C426.3 239.9 426 239.9 425.8 239.9C425.6 239.9 425.4 239.8 425.2 239.7C425 239.6 424.9 239.4 424.9 239.1C424.8 238.8 424.8 238.5 424.8 238C424.8 237.6 424.9 237.1 425 236.7C425.1 236.3 425.3 235.8 425.5 235.5C425.7 235.1 426 234.8 426.3 234.4C426.5 234.1 426.8 233.8 427.2 233.6Z" fill="#FAFAFA"/>
<path d="M433.7 229.9C434.1 229.7 434.5 229.5 434.8 229.5C435.1 229.5 435.4 229.6 435.6 229.7C435.8 229.8 436 230 436.1 230.3C436.2 230.6 436.3 230.8 436.3 231.1C436.3 231.2 436.3 231.3 436.2 231.4C436.1 231.5 436.1 231.6 436 231.6L435.3 232C435.2 232.1 435.1 232.1 435.1 232C435 232 435 231.9 435 231.8C434.9 231.6 434.8 231.5 434.6 231.4C434.4 231.3 434.1 231.4 433.7 231.6C433.5 231.7 433.4 231.8 433.2 231.9C433.1 232 432.9 232.2 432.8 232.4C432.7 232.6 432.6 232.7 432.5 232.9C432.4 233.1 432.4 233.3 432.4 233.4C432.4 233.6 432.4 233.8 432.5 233.9C432.6 234 432.7 234.1 432.8 234.1C432.9 234.1 433.1 234.1 433.4 234.1C433.6 234.1 433.9 234 434.3 233.9C434.7 233.8 435 233.8 435.3 233.8C435.6 233.8 435.8 233.9 436 234C436.2 234.1 436.3 234.3 436.4 234.6C436.5 234.9 436.5 235.2 436.5 235.6C436.5 236 436.4 236.5 436.3 236.9C436.2 237.3 436 237.8 435.8 238.2C435.6 238.6 435.3 239 434.9 239.3C434.6 239.6 434.2 239.9 433.8 240.2C433.4 240.4 433.1 240.5 432.8 240.6C432.5 240.7 432.2 240.6 431.9 240.5C431.7 240.4 431.5 240.2 431.3 240C431.1 239.7 431.1 239.4 431 239C431 238.9 431 238.8 431.1 238.7C431.2 238.6 431.2 238.5 431.3 238.5L432 238.1C432.1 238 432.2 238 432.2 238C432.3 238 432.3 238.1 432.3 238.2C432.3 238.3 432.4 238.4 432.5 238.5C432.6 238.6 432.6 238.7 432.8 238.7C432.9 238.7 433 238.7 433.2 238.7C433.4 238.7 433.6 238.6 433.8 238.4C434 238.3 434.2 238.2 434.3 238C434.5 237.9 434.6 237.7 434.8 237.5C434.9 237.3 435 237.1 435.1 236.9C435.2 236.7 435.2 236.5 435.2 236.3C435.2 236.1 435.2 235.9 435.1 235.9C435 235.8 434.9 235.8 434.7 235.8C434.5 235.8 434.3 235.8 434 235.9C433.7 236 433.4 236 433.1 236.1C432.8 236.2 432.5 236.2 432.3 236.2C432.1 236.2 431.9 236.1 431.7 236C431.5 235.9 431.4 235.7 431.4 235.4C431.3 235.1 431.3 234.8 431.3 234.3C431.3 233.9 431.4 233.4 431.5 233C431.6 232.6 431.8 232.1 432 231.8C432.2 231.4 432.5 231.1 432.8 230.7C433 230.3 433.4 230.1 433.7 229.9Z" fill="#FAFAFA"/>
<path d="M441 231.1L440.2 235.9C440.2 236.1 440.1 236.2 440.1 236.3C440.1 236.4 440 236.5 439.9 236.6L439.1 237C439 237.1 438.9 237.1 438.9 237C438.8 236.9 438.8 236.8 438.8 236.7L437.6 228.3V228.2C437.6 228.1 437.6 228 437.7 227.9C437.7 227.8 437.8 227.7 437.9 227.7L438.6 227.3C438.7 227.3 438.7 227.3 438.8 227.3C438.9 227.3 438.9 227.4 438.9 227.5L439.7 233.2L440.4 228.9C440.4 228.8 440.4 228.7 440.5 228.6C440.5 228.5 440.6 228.4 440.7 228.3L441.5 227.9C441.6 227.8 441.7 227.8 441.7 227.9C441.7 228 441.8 228 441.8 228.1L442.5 231.6L443.3 225C443.3 224.8 443.4 224.7 443.4 224.6C443.5 224.5 443.5 224.4 443.6 224.4L444.3 224C444.4 224 444.4 224 444.5 224C444.5 224 444.6 224.1 444.6 224.2V224.3L443.4 234.1C443.4 234.3 443.3 234.4 443.3 234.5C443.2 234.6 443.2 234.7 443.1 234.8L442.3 235.2C442.2 235.3 442.1 235.2 442.1 235.2C442.1 235.1 442 235 442 234.9L441 231.1Z" fill="#FAFAFA"/>
<path d="M445.7 226.9C445.7 226.3 445.8 225.8 445.9 225.3C446 224.8 446.2 224.2 446.4 223.8C446.6 223.3 446.9 222.9 447.2 222.5C447.5 222.1 447.9 221.8 448.4 221.5C448.9 221.2 449.3 221.1 449.6 221.1C449.9 221.1 450.2 221.2 450.4 221.5C450.6 221.7 450.8 222 450.9 222.4C451 222.8 451.1 223.3 451.1 223.8C451.1 224 451.1 224.2 451.1 224.4C451.1 224.6 451.1 224.8 451.1 225.1C451.1 225.3 451.1 225.6 451.1 225.8C451.1 226 451.1 226.2 451.1 226.4C451.1 227 451 227.5 450.9 228C450.8 228.5 450.6 229.1 450.4 229.5C450.2 230 449.9 230.4 449.5 230.8C449.2 231.2 448.8 231.5 448.3 231.8C447.8 232.1 447.4 232.2 447.1 232.2C446.8 232.2 446.5 232.1 446.3 231.9C446.1 231.7 445.9 231.4 445.8 231C445.7 230.6 445.6 230.1 445.6 229.6C445.6 229.4 445.6 229.2 445.6 229C445.6 228.8 445.6 228.6 445.6 228.3C445.6 228.1 445.6 227.8 445.6 227.6C445.7 227.3 445.7 227.1 445.7 226.9ZM450 224.5C450 223.8 449.8 223.4 449.6 223.1C449.3 222.9 449 222.9 448.5 223.1C448.1 223.4 447.7 223.7 447.4 224.3C447.1 224.8 447 225.5 447 226.2C447 226.6 447 227 447 227.4C447 227.8 447 228.3 447 228.6C447 229.3 447.2 229.7 447.4 230C447.7 230.2 448 230.2 448.5 230C448.9 229.7 449.3 229.4 449.6 228.8C449.9 228.3 450 227.6 450 226.9C450 226.5 450 226.1 450 225.7C450 225.2 450 224.8 450 224.5Z" fill="#FAFAFA"/>
<path d="M455.6 217.4C456.4 216.9 457 216.9 457.4 217.2C457.8 217.5 458 218.2 458 219.2C458 219.9 457.9 220.6 457.7 221.2C457.5 221.8 457.2 222.4 456.8 222.8L458.1 225.6V225.7C458.1 225.8 458.1 225.9 458 226C458 226.1 457.9 226.1 457.9 226.2L457.1 226.7C457 226.8 456.9 226.8 456.8 226.7C456.7 226.6 456.7 226.6 456.7 226.5L455.5 223.8L454.2 224.5V227.9C454.2 228 454.2 228.1 454.1 228.2C454 228.3 454 228.4 453.9 228.4L453.1 228.8C453 228.8 453 228.8 452.9 228.8C452.8 228.8 452.8 228.7 452.8 228.6V219.2C452.8 219.1 452.8 219 452.9 218.9C453 218.8 453 218.7 453.1 218.7L455.6 217.4ZM454.2 222.7L455.6 221.9C456 221.7 456.2 221.4 456.5 221.1C456.7 220.8 456.8 220.4 456.8 219.8C456.8 219.3 456.7 219 456.5 218.9C456.3 218.8 456 218.9 455.6 219.1L454.2 219.9V222.7Z" fill="#FAFAFA"/>
<path d="M462.3 213.5C462.8 213.2 463.2 213.1 463.5 213.1C463.8 213.1 464.1 213.2 464.4 213.4C464.6 213.6 464.8 213.9 464.9 214.4C465 214.8 465.1 215.3 465.1 215.9C465.1 216.6 465.1 217.3 465.1 218C465.1 218.6 465 219.2 464.9 219.8C464.8 220.4 464.6 220.9 464.4 221.4C464.2 221.9 463.9 222.3 463.6 222.7C463.3 223.1 462.9 223.4 462.4 223.7L460 225C459.9 225 459.9 225 459.8 225C459.8 225 459.7 224.9 459.7 224.8V215.4C459.7 215.3 459.7 215.2 459.8 215.1C459.9 215 459.9 214.9 460 214.9L462.3 213.5ZM463.8 216.6C463.8 216.3 463.7 216 463.7 215.8C463.6 215.6 463.5 215.4 463.4 215.3C463.3 215.2 463.1 215.1 462.9 215.1C462.7 215.1 462.5 215.2 462.2 215.3L460.9 216V222.5L462.2 221.7C462.5 221.6 462.7 221.4 462.9 221.1C463.1 220.9 463.2 220.6 463.4 220.4C463.5 220.1 463.6 219.8 463.7 219.5C463.8 219.2 463.8 218.9 463.8 218.6C463.9 218 463.9 217.3 463.8 216.6Z" fill="#FAFAFA"/>
<path d="M325 68.4C326.7 68.8 328.4 69.4 329.9 70.3C331.4 71.1 332.8 72.2 333.8 73.4C334.9 74.6 335.6 76 336.1 77.6C336.6 79.2 336.6 80.9 336.2 82.7C335.9 84.2 335.4 85.4 334.6 86.4C333.9 87.4 333.1 88.2 332.2 89C331.3 89.8 330.3 90.3 329.3 90.9C328.3 91.4 327.3 91.9 326.4 92.4C325.5 92.9 324.7 93.4 323.9 94C323.2 94.6 322.7 95.3 322.4 96.1C322.2 96.5 322 96.8 321.7 97C321.4 97.2 321 97.3 320.6 97.2L316.4 96.3C316 96.2 315.7 96 315.4 95.6C315.2 95.2 315.1 94.8 315.2 94.4C315.6 93 316.2 91.8 317 90.8C317.8 89.8 318.7 89 319.6 88.3C320.6 87.6 321.5 87 322.6 86.5C323.6 86 324.6 85.5 325.5 85C326.4 84.5 327.1 84 327.8 83.5C328.4 83 328.8 82.3 329 81.5C329.3 80.1 329 78.8 328 77.6C327 76.4 325.5 75.6 323.6 75.2C320.4 74.5 317.8 75.6 315.6 78.4C315.3 78.8 315.1 79 314.8 79.2C314.5 79.4 314.2 79.4 313.7 79.3L309.2 78.3C308.9 78.2 308.6 78.1 308.4 77.8C308.2 77.5 308.2 77.2 308.2 76.8C308.5 75.5 309.2 74.3 310.3 73.1C311.4 71.9 312.7 70.9 314.2 70.1C315.7 69.3 317.4 68.7 319.3 68.4C321.1 67.9 323 67.9 325 68.4ZM320.2 100.5C320.6 100.6 320.9 100.8 321.2 101.2C321.4 101.6 321.5 101.9 321.4 102.4L320.3 107.3C320.2 107.7 320 108 319.6 108.3C319.2 108.5 318.9 108.6 318.4 108.5L313.6 107.4C313.2 107.3 312.9 107.1 312.6 106.7C312.4 106.3 312.3 106 312.4 105.5L313.5 100.6C313.6 100.2 313.8 99.9 314.2 99.6C314.6 99.4 314.9 99.3 315.4 99.4L320.2 100.5Z" fill="#6D1E84"/>
<path d="M330.301 115.3C331.501 115.1 332.701 115.1 333.901 115.2C335.101 115.3 336.201 115.7 337.201 116.2C338.201 116.7 339.101 117.4 339.801 118.3C340.501 119.2 341.001 120.3 341.201 121.5C341.401 122.5 341.401 123.5 341.201 124.3C341.001 125.1 340.701 125.9 340.301 126.6C339.901 127.3 339.401 127.9 338.901 128.5C338.401 129.1 337.901 129.7 337.401 130.2C336.901 130.7 336.601 131.3 336.201 131.9C335.901 132.5 335.701 133 335.701 133.6C335.701 133.9 335.601 134.2 335.501 134.4C335.401 134.6 335.101 134.8 334.901 134.8L331.901 135.3C331.601 135.3 331.301 135.3 331.101 135.1C330.801 134.9 330.701 134.7 330.701 134.4C330.601 133.4 330.701 132.5 330.901 131.6C331.101 130.8 331.501 130 331.901 129.3C332.301 128.6 332.801 128 333.301 127.4C333.801 126.8 334.301 126.2 334.801 125.7C335.201 125.2 335.601 124.6 335.901 124.1C336.201 123.6 336.301 123.1 336.201 122.5C336.001 121.5 335.501 120.8 334.601 120.3C333.701 119.8 332.501 119.7 331.101 119.9C328.901 120.3 327.501 121.6 326.801 124C326.701 124.3 326.601 124.5 326.501 124.7C326.401 124.9 326.201 125 325.801 125L322.601 125.5C322.401 125.5 322.201 125.5 322.001 125.4C321.801 125.3 321.701 125.1 321.601 124.8C321.501 123.9 321.601 122.9 322.001 121.9C322.401 120.9 323.001 119.9 323.701 119C324.501 118.1 325.401 117.3 326.501 116.6C327.701 116 328.901 115.5 330.301 115.3ZM335.501 137.1C335.801 137.1 336.001 137.1 336.301 137.3C336.501 137.5 336.701 137.7 336.701 138L337.301 141.4C337.301 141.7 337.301 141.9 337.101 142.2C336.901 142.4 336.701 142.6 336.401 142.6L333.101 143.1C332.801 143.1 332.601 143.1 332.301 142.9C332.101 142.7 331.901 142.5 331.901 142.2L331.301 138.8C331.301 138.5 331.301 138.3 331.501 138C331.701 137.8 331.901 137.6 332.201 137.6L335.501 137.1Z" fill="#AA39CA"/>
<g opacity="0.2">
<path opacity="0.2" d="M330.301 115.3C331.501 115.1 332.701 115.1 333.901 115.2C335.101 115.3 336.201 115.7 337.201 116.2C338.201 116.7 339.101 117.4 339.801 118.3C340.501 119.2 341.001 120.3 341.201 121.5C341.401 122.5 341.401 123.5 341.201 124.3C341.001 125.1 340.701 125.9 340.301 126.6C339.901 127.3 339.401 127.9 338.901 128.5C338.401 129.1 337.901 129.7 337.401 130.2C336.901 130.7 336.601 131.3 336.201 131.9C335.901 132.5 335.701 133 335.701 133.6C335.701 133.9 335.601 134.2 335.501 134.4C335.401 134.6 335.101 134.8 334.901 134.8L331.901 135.3C331.601 135.3 331.301 135.3 331.101 135.1C330.801 134.9 330.701 134.7 330.701 134.4C330.601 133.4 330.701 132.5 330.901 131.6C331.101 130.8 331.501 130 331.901 129.3C332.301 128.6 332.801 128 333.301 127.4C333.801 126.8 334.301 126.2 334.801 125.7C335.201 125.2 335.601 124.6 335.901 124.1C336.201 123.6 336.301 123.1 336.201 122.5C336.001 121.5 335.501 120.8 334.601 120.3C333.701 119.8 332.501 119.7 331.101 119.9C328.901 120.3 327.501 121.6 326.801 124C326.701 124.3 326.601 124.5 326.501 124.7C326.401 124.9 326.201 125 325.801 125L322.601 125.5C322.401 125.5 322.201 125.5 322.001 125.4C321.801 125.3 321.701 125.1 321.601 124.8C321.501 123.9 321.601 122.9 322.001 121.9C322.401 120.9 323.001 119.9 323.701 119C324.501 118.1 325.401 117.3 326.501 116.6C327.701 116 328.901 115.5 330.301 115.3ZM335.501 137.1C335.801 137.1 336.001 137.1 336.301 137.3C336.501 137.5 336.701 137.7 336.701 138L337.301 141.4C337.301 141.7 337.301 141.9 337.101 142.2C336.901 142.4 336.701 142.6 336.401 142.6L333.101 143.1C332.801 143.1 332.601 143.1 332.301 142.9C332.101 142.7 331.901 142.5 331.901 142.2L331.301 138.8C331.301 138.5 331.301 138.3 331.501 138C331.701 137.8 331.901 137.6 332.201 137.6L335.501 137.1Z" fill="black"/>
</g>
<path d="M358.6 120.7C358.9 120.9 359 121.2 359.1 121.5C359.2 121.8 359.1 122.2 358.9 122.4L356.5 125.8C356.3 126.1 356 126.2 355.7 126.3C355.4 126.4 355 126.3 354.8 126.1L351.5 123.8C351.2 123.6 351.1 123.3 351 123C350.9 122.7 351 122.3 351.2 122.1L353.6 118.7C353.8 118.4 354.1 118.3 354.4 118.2C354.7 118.1 355.1 118.2 355.3 118.4L358.6 120.7ZM372.4 98C373.6 98.8 374.6 99.8 375.5 101C376.4 102.1 377.1 103.3 377.5 104.6C377.9 105.9 378.1 107.2 377.9 108.5C377.8 109.8 377.2 111.1 376.4 112.4C375.7 113.4 374.9 114.2 374 114.7C373.2 115.2 372.3 115.6 371.3 115.9C370.4 116.1 369.5 116.3 368.5 116.4C367.6 116.5 366.7 116.6 365.8 116.6C365 116.7 364.2 116.8 363.4 117C362.7 117.2 362.1 117.6 361.6 118.1C361.4 118.3 361.1 118.5 360.7 118.6C360.4 118.7 360.1 118.6 359.8 118.4L356.9 116.3C356.6 116.1 356.4 115.8 356.4 115.5C356.3 115.1 356.4 114.8 356.6 114.6C357.4 113.6 358.2 112.9 359.1 112.4C360 111.9 360.9 111.6 361.9 111.3C362.8 111.1 363.8 110.9 364.7 110.9C365.6 110.8 366.5 110.8 367.3 110.7C368.1 110.6 368.9 110.5 369.5 110.3C370.1 110.1 370.7 109.7 371 109.2C371.7 108.2 371.8 107.2 371.5 106C371.1 104.8 370.3 103.7 368.9 102.8C366.7 101.3 364.4 101.2 361.8 102.7C361.5 102.9 361.2 103 361 103C360.8 103 360.5 102.9 360.1 102.7L357 100.5C356.8 100.3 356.6 100.1 356.6 99.9C356.5 99.6 356.6 99.4 356.8 99.1C357.5 98.2 358.4 97.5 359.6 97C360.8 96.4 362.1 96.1 363.5 96C364.9 95.9 366.4 96 367.9 96.3C369.7 96.3 371.1 97 372.4 98Z" fill="#AA39CA"/>
<g opacity="0.6">
<path d="M358.6 120.7C358.9 120.9 359 121.2 359.1 121.5C359.2 121.8 359.1 122.2 358.9 122.4L356.5 125.8C356.3 126.1 356 126.2 355.7 126.3C355.4 126.4 355 126.3 354.8 126.1L351.5 123.8C351.2 123.6 351.1 123.3 351 123C350.9 122.7 351 122.3 351.2 122.1L353.6 118.7C353.8 118.4 354.1 118.3 354.4 118.2C354.7 118.1 355.1 118.2 355.3 118.4L358.6 120.7ZM372.4 98C373.6 98.8 374.6 99.8 375.5 101C376.4 102.1 377.1 103.3 377.5 104.6C377.9 105.9 378.1 107.2 377.9 108.5C377.8 109.8 377.2 111.1 376.4 112.4C375.7 113.4 374.9 114.2 374 114.7C373.2 115.2 372.3 115.6 371.3 115.9C370.4 116.1 369.5 116.3 368.5 116.4C367.6 116.5 366.7 116.6 365.8 116.6C365 116.7 364.2 116.8 363.4 117C362.7 117.2 362.1 117.6 361.6 118.1C361.4 118.3 361.1 118.5 360.7 118.6C360.4 118.7 360.1 118.6 359.8 118.4L356.9 116.3C356.6 116.1 356.4 115.8 356.4 115.5C356.3 115.1 356.4 114.8 356.6 114.6C357.4 113.6 358.2 112.9 359.1 112.4C360 111.9 360.9 111.6 361.9 111.3C362.8 111.1 363.8 110.9 364.7 110.9C365.6 110.8 366.5 110.8 367.3 110.7C368.1 110.6 368.9 110.5 369.5 110.3C370.1 110.1 370.7 109.7 371 109.2C371.7 108.2 371.8 107.2 371.5 106C371.1 104.8 370.3 103.7 368.9 102.8C366.7 101.3 364.4 101.2 361.8 102.7C361.5 102.9 361.2 103 361 103C360.8 103 360.5 102.9 360.1 102.7L357 100.5C356.8 100.3 356.6 100.1 356.6 99.9C356.5 99.6 356.6 99.4 356.8 99.1C357.5 98.2 358.4 97.5 359.6 97C360.8 96.4 362.1 96.1 363.5 96C364.9 95.9 366.4 96 367.9 96.3C369.7 96.3 371.1 97 372.4 98Z" fill="#EFB5EA"/>
</g>
<path d="M284.1 209.2H248.6V123.1C248.6 107.5 261.2 94.9 276.8 94.9H280.1C295.7 94.9 308.3 107.5 308.3 123.1V185.1C308.2 198.4 297.4 209.2 284.1 209.2Z" fill="#263238"/>
<path d="M245.099 416.4C244.799 418.6 244.199 421.1 244.099 427.2C243.999 433.8 242.799 436.1 242.599 441.5C242.399 447.6 243.499 450 245.999 453.4C248.499 456.9 254.999 460 257.799 454.2C260.599 448.3 260.199 444.5 259.299 438.5C258.399 432.3 258.299 428.8 257.699 424.1C257.199 419.9 256.699 416.7 256.699 416.7L245.099 416.4Z" fill="#263238"/>
<path d="M263.799 372.9L242.199 372.5C242.499 386.9 244.799 402.9 245.199 416.5C245.299 419 245.099 436.3 246.099 441.5C247.499 449.4 256.899 448.3 257.399 443.6C257.899 438.9 256.799 418.8 256.799 416.7C256.699 408 260.799 393.4 262.899 377.8C262.999 377 263.699 373.6 263.799 372.9Z" fill="#FFA8A7"/>
<path d="M291.5 405.2C291.5 405.2 290.6 404.7 290.5 405.7C290.3 406.8 290 409 289.5 410.8C288.9 413.3 288.4 417.3 288.7 419.4C289.1 421.4 293.8 424 296.8 424.9C301.3 426.3 304.4 428.5 306.8 430.9C309.8 433.7 316.3 436.4 320.8 436.4C326 436.4 329.7 434.7 331.4 431.8C333.2 428.9 329.8 428.6 323.8 424.8C322.4 423.9 320.9 422.9 319.1 421.8C309.6 415.6 306.1 412.3 303.4 406.1L291.5 405.2Z" fill="#263238"/>
<path d="M303.7 401.4C303.5 396.9 306.6 359.1 306.6 359.1L286.1 368.5C290.5 394.7 291.4 400.9 291.5 405.2C291.5 405.3 291.4 405.7 291.4 406.3C291.4 411.4 297.2 414.1 301.7 417.5C303.5 418.8 308.6 422.8 313.8 425.4C317.1 427 323.7 427.2 324.5 425.1C319 420.9 311.1 414.7 306.8 409.9C304.6 407.6 303.8 405.8 303.7 401.4Z" fill="#FFA8A7"/>
<path d="M250.999 232.1C243.099 249.4 243.099 262.8 244.399 284.8C245.599 305 247.499 322.9 247.499 322.9C247.199 326.5 242.199 333.5 241.599 349.4C240.999 364.2 242.599 383.1 242.599 383.1C242.599 383.1 253.799 389.3 262.099 383C262.099 383 270.099 344.8 272.399 326.2C274.399 310 277.999 289.3 277.999 289.3L285.499 326.1C285.499 326.1 282.599 335.2 281.999 342.1C280.899 353 287.099 374.5 287.099 374.5C287.099 374.5 298.699 378 305.799 371.7C305.799 371.7 308.399 336.8 309.399 323.6C310.699 306 307.899 258.2 305.799 233L250.999 232.1Z" fill="#D083C9"/>
<path d="M277.999 289.4L281.099 261.7C281.099 261.7 294.999 259.8 301.399 253.9C301.399 253.9 296.699 262.6 284.999 264.3L280.499 290.1L285.599 326.3L277.999 289.4Z" fill="#263238"/>
<path d="M334.499 225.3C335.399 216.8 335.299 211.1 335.299 210C334.999 205.6 334.199 204.9 328.099 197.1C319.799 186.6 312.699 177.1 305.199 167.7C299.799 161 294.199 159.9 288.699 160.2C284.899 160.4 292.399 178.9 296.099 189.8L317.699 213C318.399 213.9 318.699 215 318.599 216.2L317.299 235.9L323.799 244.5C323.599 244.6 333.399 236.2 334.499 225.3Z" fill="#FFA8A7"/>
<path d="M267.899 160.9C263.699 161.2 256.199 161.9 256.199 161.9C251.799 164.3 250.699 166.3 249.899 172.2C249.599 174.7 251.599 181.3 253.299 190.6L256.599 208L256.199 216.6C254.499 221.9 250.599 228.4 247.199 238C263.899 247.3 277.899 247.7 290.599 246C300.299 244.8 305.399 242.4 307.099 240.1C306.699 230.6 306.099 224.7 305.899 214.8C305.799 210.6 306.099 206.4 306.199 201.6C312.699 196.3 312.799 187.4 309.199 181.7C300.999 168.4 292.999 160 287.699 160.4L267.899 160.9Z" fill="#27DEBF"/>
<path d="M267.899 160.9C263.699 161.2 256.199 161.9 256.199 161.9C251.799 164.3 250.699 166.3 249.899 172.2C249.599 174.7 251.599 181.3 253.299 190.6L256.599 208L256.199 216.6C254.499 221.9 250.599 228.4 247.199 238C263.899 247.3 277.899 247.7 290.599 246C300.299 244.8 305.399 242.4 307.099 240.1C306.699 230.6 306.099 224.7 305.899 214.8C305.799 210.6 306.099 206.4 306.199 201.6C312.699 196.3 312.799 187.4 309.199 181.7C300.999 168.4 292.999 160 287.699 160.4L267.899 160.9Z" fill="#9135AB"/>
<path opacity="0.1" d="M293.299 201.7C293.299 201.7 285.699 207.6 276.999 204.5C268.299 201.4 266.999 193.8 266.999 193.8C266.999 193.8 266.099 203.7 277.099 207.1C287.699 210.5 293.299 201.7 293.299 201.7Z" fill="black"/>
<path d="M303.699 133.6C303.399 148 298.699 151.6 296.299 152.6C293.999 153.6 289.399 153 284.999 152.3V161C284.999 161 290.099 166.3 289.699 170.3C289.299 174.3 281.699 174.7 275.999 170.8C271.799 168 268.899 164.7 267.599 163.2C267.099 162.6 266.899 161.9 266.899 161.2V140.8C266.899 140.8 264.499 143.4 260.199 140.4C255.899 137.5 255.599 132.1 258.199 129C260.099 126.8 264.799 126.7 266.999 130.1C268.299 132.6 268.399 135.1 269.899 134.1C273.699 131.4 271.699 125.1 276.299 122.1C277.699 121.4 279.199 120.7 280.999 120.1C289.199 117.3 296.299 114.9 297.999 109.3C301.199 111 304.099 116.6 303.699 133.6Z" fill="#FFA8A7"/>
<path d="M287.499 146.5C288.548 146.5 289.399 145.649 289.399 144.6C289.399 143.551 288.548 142.7 287.499 142.7C286.449 142.7 285.599 143.551 285.599 144.6C285.599 145.649 286.449 146.5 287.499 146.5Z" fill="#B16668"/>
<path d="M286.299 131.4C286.399 132.5 285.499 133.5 284.399 133.6C283.299 133.7 282.399 132.8 282.299 131.6C282.199 130.5 283.099 129.5 284.199 129.4C285.299 129.4 286.199 130.3 286.299 131.4Z" fill="#263238"/>
<path d="M301.399 131.6C301.499 132.6 300.699 133.5 299.699 133.6C298.599 133.7 297.799 132.9 297.799 131.8C297.699 130.8 298.499 129.9 299.499 129.8C300.499 129.8 301.399 130.6 301.399 131.6Z" fill="#263238"/>
<path d="M283.699 136.5C280.099 136.5 277.199 133.6 277.199 130C277.199 125.6 281.799 125.6 283.699 125.6C285.599 125.6 290.199 125.6 290.199 130C290.199 133.6 287.299 136.5 283.699 136.5ZM283.699 126.6C279.799 126.6 278.199 127.6 278.199 130C278.199 133 280.699 135.5 283.699 135.5C286.699 135.5 289.199 133 289.199 130C289.199 127.6 287.599 126.6 283.699 126.6Z" fill="#455A64"/>
<path d="M300.199 136.5C296.599 136.5 293.699 133.6 293.699 130C293.699 125.6 298.299 125.6 300.199 125.6C302.099 125.6 306.699 125.6 306.699 130C306.699 133.6 303.799 136.5 300.199 136.5ZM300.199 126.6C296.299 126.6 294.699 127.6 294.699 130C294.699 133 297.199 135.5 300.199 135.5C303.199 135.5 305.699 133 305.699 130C305.699 127.6 304.199 126.6 300.199 126.6Z" fill="#455A64"/>
<path d="M291.199 127.9L291.499 140.1L297.899 138.1L291.199 127.9Z" fill="#F28F8F"/>
<path d="M284.999 152.3C280.399 151.7 270.799 148.9 269.299 145.2C269.299 145.2 269.799 147.6 272.599 150C275.499 152.4 284.899 155.2 284.899 155.2V152.3H284.999Z" fill="#F28F8F"/>
<path d="M285.299 122L281.099 124.6C280.399 123.4 280.799 121.8 281.999 121.1C283.099 120.4 284.599 120.8 285.299 122Z" fill="#263238"/>
<path d="M302.499 124.9L297.799 123.3C298.199 122 299.599 121.3 300.899 121.7C302.199 122.1 302.899 123.6 302.499 124.9Z" fill="#263238"/>
<path d="M289.699 130.6C289.399 130.6 289.199 130.4 289.199 130.1C289.199 129.3 290.799 128.7 292.299 128.7C293.799 128.7 294.699 129.2 294.699 130.1C294.699 130.4 294.499 130.6 294.199 130.6C293.899 130.6 293.699 130.4 293.699 130.1C293.699 130 293.199 129.8 292.299 129.8C291.399 129.8 290.199 130.1 290.199 130.2C290.199 130.3 289.999 130.6 289.699 130.6Z" fill="#455A64"/>
<path d="M277.699 130.1L266.199 129.1C265.999 128.9 265.499 128.4 264.299 127.9L277.699 129.1C277.999 129.1 278.199 129.4 278.199 129.7C278.199 129.9 277.999 130.1 277.699 130.1Z" fill="#455A64"/>
<path d="M230.8 142C234.5 137 237.1 133.2 240.5 129C242.4 126.6 243.7 124.8 245.5 122.3C246.8 120.6 247.5 119.1 249 118.6C250.6 118 252.1 116.8 253.2 115.7C253.9 114.9 254.5 114 255.2 113.2C257.3 110.3 259.9 107.8 262.8 105.6C265.8 103.3 269.2 101.6 272.2 99.4C274 98.1 276 96 273.8 94C273.1 93.4 272.3 93 271.4 92.9C266 91.7 261.2 93.6 255.9 94.9C253.6 95.5 251.3 96.2 249.1 97.2C248 97.7 247 98.2 246.1 98.9C244.7 100.1 243.9 101.7 243 103.3C240.6 107.5 235.7 111.2 232.2 114.5C228.1 118.3 224.4 121.9 219.8 126.1C215.6 129.9 211.5 133.4 207.6 137.6C204.4 141.1 205.6 143.8 206 144.7C208.6 150 211.5 152 215 155.3C221 161 241.8 177.5 248.6 183C250.1 184.2 251.2 185.7 252 187.4L253.3 190.4C261.1 191.8 266.4 180.1 259.9 165.9C258.8 163.6 257.2 161.6 255.1 160.2C246.9 154.3 230.8 142 230.8 142Z" fill="#FFA8A7"/>
<path d="M230.799 142C230.799 142 227.299 146.7 221.199 148.6C221.199 148.6 226.199 149.9 232.999 143.7L230.799 142Z" fill="#F28F8F"/>
<path d="M332.5 214.9L331.2 213.8C330.9 213.6 330.5 213.5 329.9 213.7L316 217.5C314.7 217.9 313.3 219.2 312.9 220.4L302.9 249.2C302.7 249.9 302.8 250.4 303.1 250.7L304.4 251.8C304.7 252 305.1 252.1 305.7 252L319.6 248.2C320.9 247.9 322.3 246.5 322.7 245.3C324.7 239.6 330.7 222.1 332.7 216.5C332.9 215.7 332.8 215.2 332.5 214.9Z" fill="#455A64"/>
<path d="M304.2 250.3L314.2 221.5C314.6 220.2 316 218.9 317.3 218.6L331.2 214.8C332.5 214.4 333.2 215.2 332.7 216.4C330.7 222.1 324.7 239.6 322.7 245.2C322.3 246.5 320.9 247.8 319.6 248.1L305.7 251.9C304.4 252.3 303.7 251.5 304.2 250.3Z" fill="#27DEBF"/>
<path d="M315.8 219.3C315.1 219.9 314.5 220.7 314.2 221.4L304.2 250.2C304 250.8 304 251.4 304.3 251.6L303.1 250.5C302.8 250.2 302.7 249.7 302.9 249L312.9 220.2C313.1 219.5 313.7 218.8 314.4 218.2L315.8 219.3Z" fill="#37474F"/>
<path d="M328.6 228C327.6 230.9 324.1 232.9 318.4 234.3C312.7 235.7 309.5 241.7 310.4 243.6C311.3 245.5 320.6 247.2 324.3 246.6C328 246.1 331.7 240.7 332.9 239.1C334 237.4 335.3 225.9 334.1 224.3C332.9 222.7 330.4 223 330.4 223L328.6 228Z" fill="#F28F8F"/>
</g>
<defs>
<filter id="filter0_f" x="0.563437" y="221.051" width="109.866" height="109.487" filterUnits="userSpaceOnUse" color-interpolation-filters="sRGB">
<feFlood flood-opacity="0" result="BackgroundImageFix"/>
<feBlend mode="normal" in="SourceGraphic" in2="BackgroundImageFix" result="shape"/>
<feGaussianBlur stdDeviation="2.71828" result="effect1_foregroundBlur"/>
</filter>
<filter id="filter1_f" x="542.852" y="390.637" width="85.9313" height="85.6648" filterUnits="userSpaceOnUse" color-interpolation-filters="sRGB">
<feFlood flood-opacity="0" result="BackgroundImageFix"/>
<feBlend mode="normal" in="SourceGraphic" in2="BackgroundImageFix" result="shape"/>
<feGaussianBlur stdDeviation="4.07742" result="effect1_foregroundBlur"/>
</filter>
<clipPath id="clip0">
<rect width="471.2" height="439.9" fill="white" transform="translate(92 68)"/>
</clipPath>
</defs>
</svg>
