<svg width="297" height="297" viewBox="0 0 297 297" fill="none" xmlns="http://www.w3.org/2000/svg">
<path d="M247.068 149.141C192.278 117.505 103.724 117.505 49.2661 149.141C-5.19185 180.778 -4.87109 232.07 49.9254 263.736C104.722 295.402 193.275 295.378 247.727 263.736C302.179 232.093 301.871 180.778 247.068 149.141Z" fill="#F5F5F5"/>
<path d="M23.053 202.763C26.9318 200.523 33.2104 200.523 37.0714 202.763C40.9324 205.002 40.9086 208.643 37.0239 210.888C33.1391 213.134 26.8665 213.128 23.0055 210.888C19.1445 208.649 19.1682 205.008 23.053 202.763Z" fill="#E0E0E0"/>
<path d="M224.264 235.896C213.412 229.635 195.883 229.635 185.102 235.896C174.321 242.157 174.38 252.32 185.227 258.581C196.073 264.841 213.614 264.847 224.389 258.581C235.164 252.314 235.111 242.162 224.264 235.896Z" fill="#E0E0E0"/>
<path d="M256.365 188.382C260.44 186.006 267.021 186.006 271.072 188.382C275.123 190.758 275.094 194.547 271.025 196.9C266.956 199.252 260.362 199.276 256.317 196.9C252.272 194.524 252.29 190.734 256.365 188.382Z" fill="#E0E0E0"/>
<path d="M180.665 146.974L172.616 142.335C171.38 141.621 169.978 141.245 168.55 141.245C167.123 141.245 165.72 141.621 164.484 142.335L119.833 168.215L115.895 165.946L83.5755 184.859L87.3059 187.003L34.4517 217.523C34.0383 217.76 33.6948 218.103 33.456 218.515C33.2171 218.927 33.0913 219.396 33.0913 219.872C33.0913 220.349 33.2171 220.817 33.456 221.23C33.6948 221.642 34.0383 221.984 34.4517 222.222L42.5836 226.908C43.8216 227.623 45.2259 227.999 46.6555 227.999C48.085 227.999 49.4893 227.623 50.7273 226.908L103.546 196.359L109.723 199.923C112.195 201.349 114.999 202.099 117.852 202.099C120.706 202.099 123.509 201.349 125.981 199.923L144.989 188.958C145.539 188.64 145.996 188.184 146.314 187.633C146.632 187.083 146.799 186.459 146.799 185.824C146.799 185.189 146.632 184.565 146.314 184.015C145.996 183.465 145.539 183.008 144.989 182.691L136.079 177.571L143.581 173.217L146.177 171.708L180.689 151.684C181.102 151.444 181.445 151.1 181.683 150.685C181.92 150.27 182.044 149.8 182.042 149.322C182.039 148.844 181.911 148.375 181.669 147.963C181.427 147.55 181.081 147.209 180.665 146.974Z" fill="#E0E0E0"/>
<path d="M225.862 66.3197L227.638 65.2861L246.391 76.0732V78.1225L225.862 66.3197Z" fill="#F5F5F5"/>
<path d="M225.862 66.3203L246.391 78.1231V80.4694L225.862 68.6726V66.3203Z" fill="#E0E0E0"/>
<path d="M248.333 79.2338L250.109 78.2002L268.862 88.9872V91.0365L248.333 79.2338Z" fill="#F5F5F5"/>
<path d="M248.333 79.2344L268.862 91.0371V93.3835L248.333 81.5866V79.2344Z" fill="#E0E0E0"/>
<path d="M171.065 34.7611L172.842 33.7275L191.594 44.5146V46.5639L171.065 34.7611Z" fill="#F5F5F5"/>
<path d="M171.065 34.7607L191.594 46.5635V48.9098L171.065 37.113V34.7607Z" fill="#E0E0E0"/>
<path d="M193.537 47.6741L195.313 46.6465L214.066 57.4276V59.4828L193.537 47.6741Z" fill="#F5F5F5"/>
<path d="M193.537 47.6748L214.066 59.4835V61.8239L193.537 50.027V47.6748Z" fill="#E0E0E0"/>
<path d="M225.963 46.6117L227.739 45.5781L227.632 108.857L225.862 109.891L225.963 46.6117Z" fill="#F0F0F0"/>
<path d="M225.862 109.89L227.632 108.856L248.06 120.582L246.284 121.616L225.862 109.89Z" fill="#F5F5F5"/>
<path d="M223.937 43.0889L248.44 57.1667L248.327 125.138L223.812 111.078L223.937 43.0889ZM246.289 121.61L246.396 58.3368L225.963 46.6113L225.862 109.89L246.284 121.61" fill="#E0E0E0"/>
<path d="M223.932 43.0892L225.702 42.0557L250.21 56.1394L248.434 57.167L223.932 43.0892Z" fill="#F5F5F5"/>
<path d="M248.434 57.1663L250.21 56.1387L250.091 124.104L248.321 125.138L248.434 57.1663Z" fill="#F0F0F0"/>
<path d="M248.434 59.5247L250.21 58.4971L250.109 121.77L248.333 122.804L248.434 59.5247Z" fill="#F0F0F0"/>
<path d="M248.333 122.804L250.109 121.771L270.531 133.496L268.755 134.53L248.333 122.804Z" fill="#F5F5F5"/>
<path d="M246.403 56.002L270.911 70.0916L270.793 138.057L246.284 123.967L246.403 56.002ZM268.755 134.529L268.862 71.2796L248.434 59.5541L248.333 122.833L268.755 134.558" fill="#E0E0E0"/>
<path d="M246.402 56.0023L248.178 54.9688L272.681 69.0525L270.911 70.0801L246.402 56.0023Z" fill="#F5F5F5"/>
<path d="M270.912 70.0804L272.682 69.0527L272.569 137.018L270.793 138.052L270.912 70.0804Z" fill="#F0F0F0"/>
<path d="M171.166 15.052L172.942 14.0244L172.836 77.2973L171.065 78.3308L171.166 15.052Z" fill="#F0F0F0"/>
<path d="M171.065 78.3304L172.836 77.2969L193.263 89.0224L191.487 90.05L171.065 78.3304Z" fill="#F5F5F5"/>
<path d="M169.135 11.5293L193.644 25.613L193.531 93.5785L169.022 79.4948L169.135 11.5293ZM191.488 90.0561L191.594 26.7773L171.167 15.0517L171.072 78.3305L191.493 90.0561" fill="#E0E0E0"/>
<path d="M169.135 11.5297L170.905 10.4961L195.413 24.5798L193.637 25.6134L169.135 11.5297Z" fill="#F5F5F5"/>
<path d="M193.638 25.6136L195.414 24.5801L195.296 92.5455L193.525 93.5791L193.638 25.6136Z" fill="#F0F0F0"/>
<path d="M193.638 27.9661L195.414 26.9385L195.313 90.2113L193.537 91.2449L193.638 27.9661Z" fill="#F0F0F0"/>
<path d="M193.537 91.2445L195.313 90.2109L215.735 101.937L213.959 102.97L193.537 91.2445Z" fill="#F5F5F5"/>
<path d="M191.606 24.4434L216.115 38.5271L215.996 106.493L191.487 92.4088L191.606 24.4434ZM213.958 102.97L214.065 39.6913L193.644 27.9658L193.543 91.2446L213.964 102.97" fill="#E0E0E0"/>
<path d="M191.606 24.4427L193.382 23.4092L217.885 37.4929L216.115 38.5265L191.606 24.4427Z" fill="#F5F5F5"/>
<path d="M216.115 38.5267L217.885 37.4932L217.772 105.459L215.996 106.492L216.115 38.5267Z" fill="#F0F0F0"/>
<path d="M20.6356 189.86L30.0386 190.134L39.4417 189.86C39.8456 196.21 38.6101 202.685 36.8993 205.845C36.4968 206.656 35.8482 207.319 35.0461 207.74C32.2721 209.344 27.7874 209.344 25.0312 207.74C24.2134 207.314 23.5581 206.632 23.1661 205.797C21.4553 202.619 20.2317 196.181 20.6356 189.86Z" fill="white"/>
<path d="M23.4096 186.005C19.7268 188.138 19.703 191.583 23.368 193.727C27.033 195.872 32.9789 195.86 36.6676 193.727C40.3564 191.595 40.3683 188.155 36.7092 186.005C33.0502 183.855 27.0924 183.879 23.4096 186.005Z" fill="#EBEBEB"/>
<path d="M24.8648 186.855C21.9898 188.513 21.9779 191.203 24.8648 192.867C27.7516 194.53 32.367 194.524 35.236 192.867C38.105 191.209 38.1288 188.513 35.2717 186.855C32.4145 185.198 27.7397 185.198 24.8648 186.855Z" fill="#E0E0E0"/>
<g opacity="0.15">
<path opacity="0.15" d="M24.8648 186.855C21.9898 188.513 21.9779 191.203 24.8648 192.867C27.7516 194.53 32.367 194.524 35.236 192.867C38.105 191.209 38.1288 188.513 35.2717 186.855C32.4145 185.198 27.7397 185.198 24.8648 186.855Z" fill="black"/>
</g>
<path d="M14.5767 149.729C35.7706 156.667 35.9607 170.846 31.2087 180.944C30.0207 182.988 26.3557 184.086 23.1837 171.529L28.7495 172.242L22.263 168.951L20.5523 163.944L25.9577 164.348L19.097 161.461C17.8348 157.461 16.3251 153.543 14.5767 149.729Z" fill="#9135AB"/>
<path opacity="0.2" d="M14.5767 149.729C35.7706 156.667 35.9607 170.846 31.2087 180.944C30.0207 182.988 26.3557 184.086 23.1837 171.529L28.7495 172.242L22.263 168.951L20.5523 163.944L25.9577 164.348L19.097 161.461C17.8348 157.461 16.3251 153.543 14.5767 149.729Z" fill="black"/>
<path opacity="0.2" d="M14.5767 149.729C35.7706 156.667 35.9607 170.846 31.2087 180.944C30.0207 182.988 26.3557 184.086 23.1837 171.529L28.7495 172.242L22.263 168.951L20.5523 163.944L25.9577 164.348L19.097 161.461C17.8348 157.461 16.3251 153.543 14.5767 149.729Z" fill="white"/>
<path d="M20.5703 153.252C31.7435 161.734 32.7533 171.458 29.5991 181.61C30.7158 172.694 31.9217 163.653 20.5703 153.252Z" fill="white"/>
<path d="M50.4898 164.128C29.5988 167.098 27.0625 180.243 29.8364 190.442C30.6205 192.545 33.8341 194.172 38.8771 183.005L33.5727 182.744L40.1602 180.76L42.5362 176.352L37.4218 175.824L44.2944 174.279C46.1498 170.772 48.2188 167.382 50.4898 164.128Z" fill="#9135AB"/>
<path opacity="0.2" d="M50.4898 164.128C29.5988 167.098 27.0625 180.243 29.8364 190.442C30.6205 192.545 33.8341 194.172 38.8771 183.005L33.5727 182.744L40.1602 180.76L42.5362 176.352L37.4218 175.824L44.2944 174.279C46.1498 170.772 48.2188 167.382 50.4898 164.128Z" fill="white"/>
<path opacity="0.1" d="M50.4898 164.128C29.5988 167.098 27.0625 180.243 29.8364 190.442C30.6205 192.545 33.8341 194.172 38.8771 183.005L33.5727 182.744L40.1602 180.76L42.5362 176.352L37.4218 175.824L44.2944 174.279C46.1498 170.772 48.2188 167.382 50.4898 164.128Z" fill="black"/>
<path d="M44.3007 166.439C32.4801 172.48 29.9259 181.373 31.1792 191.352C31.6247 182.84 32.0049 174.221 44.3007 166.439Z" fill="white"/>
<path d="M8.4585 169.064C27.6209 169.379 31.381 180.944 30.0207 190.448C29.5514 192.432 26.8369 194.256 21.0394 184.758L25.7914 183.926L19.6316 182.875L16.9705 179.168L21.5087 178.129L15.141 177.499C13.0903 174.552 10.8585 171.735 8.4585 169.064Z" fill="#9135AB"/>
<path d="M14.2559 170.479C25.5834 174.601 28.8861 182.359 28.8742 191.465C27.5436 183.82 26.2368 176.092 14.2559 170.479Z" fill="white"/>
<path opacity="0.2" d="M8.4585 169.064C27.6209 169.379 31.381 180.944 30.0207 190.448C29.5514 192.432 26.8369 194.256 21.0394 184.758L25.7914 183.926L19.6316 182.875L16.9705 179.168L21.5087 178.129L15.141 177.499C13.0903 174.552 10.8585 171.735 8.4585 169.064Z" fill="white"/>
<path d="M253.828 174.844L263.695 175.135L273.555 174.844C273.983 181.508 272.682 188.292 270.888 191.612C270.464 192.466 269.78 193.163 268.934 193.602C266.023 195.283 261.319 195.283 258.432 193.602C257.574 193.157 256.887 192.441 256.478 191.565C254.696 188.227 253.407 181.473 253.828 174.844Z" fill="white"/>
<path d="M256.745 170.805C252.878 173.038 252.86 176.656 256.697 178.883C260.535 181.111 266.795 181.117 270.644 178.883C274.494 176.65 274.529 173.038 270.692 170.805C266.855 168.571 260.606 168.577 256.745 170.805Z" fill="#EBEBEB"/>
<path d="M258.271 171.696C255.254 173.436 255.242 176.258 258.235 177.998C261.229 179.739 266.1 179.739 269.118 177.998C272.135 176.258 272.147 173.436 269.153 171.696C266.159 169.956 261.283 169.956 258.271 171.696Z" fill="#E0E0E0"/>
<g opacity="0.15">
<path opacity="0.15" d="M258.271 171.696C255.254 173.436 255.242 176.258 258.235 177.998C261.229 179.739 266.1 179.739 269.118 177.998C272.135 176.258 272.147 173.436 269.153 171.696C266.159 169.956 261.283 169.956 258.271 171.696Z" fill="black"/>
</g>
<path d="M268.726 154.66C270.33 152.67 272.189 150.882 273.662 148.785C274.666 147.36 275.503 145.607 275.082 143.915C274.846 143.137 274.399 142.44 273.789 141.903C273.179 141.365 272.432 141.009 271.63 140.873C270.011 140.633 268.359 141.003 266.997 141.913C265.648 142.816 264.463 143.943 263.493 145.245C257.941 152.277 255.316 161.179 256.163 170.098C256.18 171.12 256.499 172.113 257.077 172.955C257.434 173.375 257.903 173.683 258.43 173.842C258.957 174.001 259.519 174.005 260.047 173.852C262.738 173.056 262.382 169.427 262.821 167.318C263.769 162.695 265.806 158.363 268.761 154.684L268.726 154.66Z" fill="#9135AB"/>
<path opacity="0.2" d="M268.726 154.66C270.33 152.67 272.189 150.882 273.662 148.785C274.666 147.36 275.503 145.607 275.082 143.915C274.846 143.137 274.399 142.44 273.789 141.903C273.179 141.365 272.432 141.009 271.63 140.873C270.011 140.633 268.359 141.003 266.997 141.913C265.648 142.816 264.463 143.943 263.493 145.245C257.941 152.277 255.316 161.179 256.163 170.098C256.18 171.12 256.499 172.113 257.077 172.955C257.434 173.375 257.903 173.683 258.43 173.842C258.957 174.001 259.519 174.005 260.047 173.852C262.738 173.056 262.382 169.427 262.821 167.318C263.769 162.695 265.806 158.363 268.761 154.684L268.726 154.66Z" fill="white"/>
<path d="M259.857 171.15C259.909 171.14 259.957 171.113 259.991 171.073C260.026 171.033 260.046 170.983 260.047 170.93C260.238 166.617 261.639 151.922 271.785 143.54C271.809 143.521 271.829 143.498 271.844 143.471C271.858 143.444 271.867 143.414 271.87 143.383C271.873 143.353 271.869 143.322 271.86 143.293C271.85 143.264 271.835 143.237 271.815 143.214C271.797 143.184 271.773 143.159 271.745 143.14C271.716 143.12 271.684 143.108 271.65 143.102C271.616 143.096 271.582 143.098 271.548 143.107C271.515 143.116 271.484 143.132 271.458 143.154C261.164 151.631 259.745 166.522 259.578 170.888C259.577 170.95 259.599 171.01 259.641 171.056C259.684 171.101 259.742 171.129 259.804 171.132L259.857 171.15Z" fill="#F0F0F0"/>
<path d="M258.39 171.619C258.603 172.562 259.005 173.453 259.57 174.238C260.136 175.023 260.853 175.686 261.681 176.187C263.233 176.921 264.958 177.209 266.664 177.019C268.393 176.828 270.092 176.429 271.725 175.831C272.539 175.557 273.442 175.189 273.507 174.179C273.521 173.913 273.474 173.648 273.371 173.402C273.269 173.156 273.112 172.937 272.913 172.76C272.747 172.6 272.573 172.449 272.39 172.308C272.305 172.245 272.24 172.157 272.206 172.056C272.172 171.955 272.171 171.846 272.201 171.743C272.232 171.641 272.293 171.551 272.377 171.485C272.461 171.419 272.563 171.381 272.67 171.376C273.152 171.343 273.632 171.283 274.107 171.197C275.221 171.019 276.268 170.545 277.136 169.825C277.791 169.269 278.29 168.553 278.586 167.746C278.745 167.422 278.812 167.059 278.777 166.7C278.742 166.34 278.608 165.997 278.39 165.709C278.067 165.447 277.679 165.279 277.267 165.222C276.903 165.146 276.541 165.081 276.18 165.026C276.076 165.009 275.981 164.959 275.908 164.884C275.835 164.808 275.789 164.71 275.777 164.606C275.765 164.502 275.787 164.396 275.841 164.306C275.894 164.215 275.976 164.145 276.073 164.105L277.6 163.463C278.05 163.327 278.458 163.08 278.788 162.745C278.987 162.436 279.116 162.087 279.166 161.723C279.217 161.358 279.187 160.987 279.079 160.636C278.895 159.68 278.562 158.753 278.336 157.809C278.069 156.865 278.034 155.87 278.235 154.91C275.366 154.598 272.463 154.799 269.664 155.504C268.82 155.679 268.023 156.029 267.324 156.531C266.373 157.292 266.136 158.438 266.225 159.68C266.23 159.731 266.217 159.782 266.188 159.825C266.159 159.867 266.116 159.898 266.066 159.912C266.017 159.927 265.964 159.923 265.917 159.902C265.87 159.881 265.832 159.845 265.809 159.798L264.829 158.016C264.681 157.761 264.444 157.569 264.163 157.479C263.881 157.389 263.577 157.407 263.308 157.529C262.45 157.965 261.69 158.571 261.075 159.311C260.733 159.701 260.472 160.155 260.308 160.647C260.144 161.138 260.079 161.658 260.118 162.174C260.215 163.572 260.432 164.96 260.766 166.321C260.783 166.396 260.777 166.476 260.749 166.548C260.721 166.62 260.672 166.683 260.608 166.727C260.544 166.772 260.469 166.797 260.391 166.798C260.314 166.8 260.237 166.778 260.172 166.736L260.13 166.701C259.866 166.497 259.535 166.402 259.204 166.433C258.342 166.54 258.123 167.414 258.063 168.162C258.031 169.323 258.14 170.484 258.39 171.619Z" fill="#9135AB"/>
<path opacity="0.2" d="M258.39 171.619C258.603 172.562 259.005 173.453 259.57 174.238C260.136 175.023 260.853 175.686 261.681 176.187C263.233 176.921 264.958 177.209 266.664 177.019C268.393 176.828 270.092 176.429 271.725 175.831C272.539 175.557 273.442 175.189 273.507 174.179C273.521 173.913 273.474 173.648 273.371 173.402C273.269 173.156 273.112 172.937 272.913 172.76C272.747 172.6 272.573 172.449 272.39 172.308C272.305 172.245 272.24 172.157 272.206 172.056C272.172 171.955 272.171 171.846 272.201 171.743C272.232 171.641 272.293 171.551 272.377 171.485C272.461 171.419 272.563 171.381 272.67 171.376C273.152 171.343 273.632 171.283 274.107 171.197C275.221 171.019 276.268 170.545 277.136 169.825C277.791 169.269 278.29 168.553 278.586 167.746C278.745 167.422 278.812 167.059 278.777 166.7C278.742 166.34 278.608 165.997 278.39 165.709C278.067 165.447 277.679 165.279 277.267 165.222C276.903 165.146 276.541 165.081 276.18 165.026C276.076 165.009 275.981 164.959 275.908 164.884C275.835 164.808 275.789 164.71 275.777 164.606C275.765 164.502 275.787 164.396 275.841 164.306C275.894 164.215 275.976 164.145 276.073 164.105L277.6 163.463C278.05 163.327 278.458 163.08 278.788 162.745C278.987 162.436 279.116 162.087 279.166 161.723C279.217 161.358 279.187 160.987 279.079 160.636C278.895 159.68 278.562 158.753 278.336 157.809C278.069 156.865 278.034 155.87 278.235 154.91C275.366 154.598 272.463 154.799 269.664 155.504C268.82 155.679 268.023 156.029 267.324 156.531C266.373 157.292 266.136 158.438 266.225 159.68C266.23 159.731 266.217 159.782 266.188 159.825C266.159 159.867 266.116 159.898 266.066 159.912C266.017 159.927 265.964 159.923 265.917 159.902C265.87 159.881 265.832 159.845 265.809 159.798L264.829 158.016C264.681 157.761 264.444 157.569 264.163 157.479C263.881 157.389 263.577 157.407 263.308 157.529C262.45 157.965 261.69 158.571 261.075 159.311C260.733 159.701 260.472 160.155 260.308 160.647C260.144 161.138 260.079 161.658 260.118 162.174C260.215 163.572 260.432 164.96 260.766 166.321C260.783 166.396 260.777 166.476 260.749 166.548C260.721 166.62 260.672 166.683 260.608 166.727C260.544 166.772 260.469 166.797 260.391 166.798C260.314 166.8 260.237 166.778 260.172 166.736L260.13 166.701C259.866 166.497 259.535 166.402 259.204 166.433C258.342 166.54 258.123 167.414 258.063 168.162C258.031 169.323 258.14 170.484 258.39 171.619Z" fill="black"/>
<path opacity="0.2" d="M258.39 171.619C258.603 172.562 259.005 173.453 259.57 174.238C260.136 175.023 260.853 175.686 261.681 176.187C263.233 176.921 264.958 177.209 266.664 177.019C268.393 176.828 270.092 176.429 271.725 175.831C272.539 175.557 273.442 175.189 273.507 174.179C273.521 173.913 273.474 173.648 273.371 173.402C273.269 173.156 273.112 172.937 272.913 172.76C272.747 172.6 272.573 172.449 272.39 172.308C272.305 172.245 272.24 172.157 272.206 172.056C272.172 171.955 272.171 171.846 272.201 171.743C272.232 171.641 272.293 171.551 272.377 171.485C272.461 171.419 272.563 171.381 272.67 171.376C273.152 171.343 273.632 171.283 274.107 171.197C275.221 171.019 276.268 170.545 277.136 169.825C277.791 169.269 278.29 168.553 278.586 167.746C278.745 167.422 278.812 167.059 278.777 166.7C278.742 166.34 278.608 165.997 278.39 165.709C278.067 165.447 277.679 165.279 277.267 165.222C276.903 165.146 276.541 165.081 276.18 165.026C276.076 165.009 275.981 164.959 275.908 164.884C275.835 164.808 275.789 164.71 275.777 164.606C275.765 164.502 275.787 164.396 275.841 164.306C275.894 164.215 275.976 164.145 276.073 164.105L277.6 163.463C278.05 163.327 278.458 163.08 278.788 162.745C278.987 162.436 279.116 162.087 279.166 161.723C279.217 161.358 279.187 160.987 279.079 160.636C278.895 159.68 278.562 158.753 278.336 157.809C278.069 156.865 278.034 155.87 278.235 154.91C275.366 154.598 272.463 154.799 269.664 155.504C268.82 155.679 268.023 156.029 267.324 156.531C266.373 157.292 266.136 158.438 266.225 159.68C266.23 159.731 266.217 159.782 266.188 159.825C266.159 159.867 266.116 159.898 266.066 159.912C266.017 159.927 265.964 159.923 265.917 159.902C265.87 159.881 265.832 159.845 265.809 159.798L264.829 158.016C264.681 157.761 264.444 157.569 264.163 157.479C263.881 157.389 263.577 157.407 263.308 157.529C262.45 157.965 261.69 158.571 261.075 159.311C260.733 159.701 260.472 160.155 260.308 160.647C260.144 161.138 260.079 161.658 260.118 162.174C260.215 163.572 260.432 164.96 260.766 166.321C260.783 166.396 260.777 166.476 260.749 166.548C260.721 166.62 260.672 166.683 260.608 166.727C260.544 166.772 260.469 166.797 260.391 166.798C260.314 166.8 260.237 166.778 260.172 166.736L260.13 166.701C259.866 166.497 259.535 166.402 259.204 166.433C258.342 166.54 258.123 167.414 258.063 168.162C258.031 169.323 258.14 170.484 258.39 171.619Z" fill="white"/>
<path d="M262.922 175.949C263.461 173.657 264.233 171.425 265.227 169.29C265.227 169.257 265.235 169.224 265.249 169.195C265.263 169.165 265.284 169.139 265.31 169.118C265.364 168.999 265.411 168.886 265.471 168.768C265.187 166.098 264.412 163.504 263.184 161.117C263.154 161.062 263.146 160.998 263.163 160.938C263.179 160.878 263.219 160.827 263.273 160.796C263.327 160.766 263.391 160.758 263.451 160.775C263.511 160.792 263.562 160.831 263.594 160.885C264.746 163.115 265.508 165.526 265.845 168.013C267.793 164.099 270.906 159.525 275.711 156.181C275.736 156.162 275.764 156.149 275.794 156.142C275.824 156.135 275.855 156.134 275.886 156.139C275.916 156.144 275.945 156.155 275.971 156.171C275.998 156.188 276.02 156.209 276.038 156.234C276.074 156.286 276.088 156.349 276.078 156.411C276.068 156.473 276.035 156.529 275.984 156.567C271.025 160.012 267.9 164.794 265.999 168.762C268.556 167.605 271.395 167.221 274.167 167.657C274.197 167.662 274.226 167.674 274.251 167.691C274.277 167.708 274.299 167.73 274.316 167.755C274.333 167.78 274.345 167.809 274.351 167.839C274.357 167.869 274.357 167.9 274.351 167.93C274.346 167.961 274.335 167.99 274.318 168.016C274.302 168.043 274.28 168.065 274.255 168.083C274.229 168.101 274.2 168.113 274.17 168.12C274.14 168.126 274.108 168.126 274.078 168.12C274.036 168.12 269.546 167.294 265.673 169.463C264.684 171.584 263.916 173.801 263.38 176.08C263.372 176.126 263.35 176.17 263.318 176.204C263.285 176.238 263.242 176.261 263.196 176.27H263.107C263.072 176.264 263.038 176.251 263.009 176.231C262.98 176.211 262.955 176.184 262.938 176.153C262.92 176.123 262.91 176.088 262.907 176.053C262.904 176.018 262.91 175.982 262.922 175.949Z" fill="#F0F0F0"/>
<path d="M138.402 184.022L122.922 192.878C120.698 194.156 118.178 194.829 115.613 194.829C113.048 194.829 110.528 194.156 108.304 192.878L96.8219 186.237C96.1529 185.852 95.5971 185.297 95.2102 184.628C94.8234 183.96 94.6192 183.202 94.6182 182.43V174.589L92.2422 175.979V182.786C92.242 183.688 92.4797 184.575 92.9312 185.356C93.3828 186.137 94.0323 186.785 94.8142 187.235L108.476 195.1C110.666 196.357 113.147 197.018 115.673 197.018C118.198 197.018 120.679 196.357 122.869 195.1L138.461 186.19C139.522 185.584 140.367 184.662 140.878 183.552C141.388 182.442 141.538 181.2 141.307 180C141.15 180.844 140.808 181.642 140.306 182.337C139.804 183.033 139.153 183.608 138.402 184.022Z" fill="#9135AB"/>
<path opacity="0.1" d="M138.402 184.022L122.922 192.878C120.698 194.156 118.178 194.829 115.613 194.829C113.048 194.829 110.528 194.156 108.304 192.878L96.8219 186.237C96.1529 185.852 95.5971 185.297 95.2102 184.628C94.8234 183.96 94.6192 183.202 94.6182 182.43V174.589L92.2422 175.979V182.786C92.242 183.688 92.4797 184.575 92.9312 185.356C93.3828 186.137 94.0323 186.785 94.8142 187.235L108.476 195.1C110.666 196.357 113.147 197.018 115.673 197.018C118.198 197.018 120.679 196.357 122.869 195.1L138.461 186.19C139.522 185.584 140.367 184.662 140.878 183.552C141.388 182.442 141.538 181.2 141.307 180C141.15 180.844 140.808 181.642 140.306 182.337C139.804 183.033 139.153 183.608 138.402 184.022Z" fill="black"/>
<path d="M96.8221 186.237L108.31 192.854C110.534 194.132 113.054 194.805 115.619 194.805C118.184 194.805 120.705 194.132 122.928 192.854L138.402 184.021C139.141 183.602 139.779 183.026 140.271 182.333C140.763 181.64 141.096 180.848 141.247 180.012C141.1 179.196 140.778 178.421 140.305 177.741C139.831 177.06 139.217 176.49 138.503 176.067L125.803 168.452C125.043 167.995 124.414 167.349 123.977 166.576C123.54 165.804 123.31 164.932 123.309 164.045V158.004L94.6006 174.6V182.441C94.6055 183.213 94.8134 183.97 95.2033 184.636C95.5933 185.302 96.1515 185.854 96.8221 186.237Z" fill="#9135AB"/>
<path opacity="0.4" d="M96.8219 186.237C96.1529 185.852 95.5971 185.297 95.2103 184.628C94.8234 183.96 94.6192 183.202 94.6182 182.43V174.589L92.2422 175.979V182.786C92.242 183.688 92.4797 184.575 92.9312 185.356C93.3828 186.137 94.0323 186.785 94.8142 187.235L99.6494 190.027V187.847L96.8219 186.237Z" fill="black"/>
<path opacity="0.3" d="M96.8221 186.237L99.6198 187.846L129.593 170.721L125.809 168.452C125.049 167.995 124.42 167.349 123.983 166.576C123.546 165.804 123.315 164.932 123.314 164.045V158.004L94.6064 174.6V182.441C94.6108 183.212 94.8177 183.969 95.2066 184.635C95.5955 185.301 96.1526 185.854 96.8221 186.237Z" fill="black"/>
<path d="M44.6984 202.881L44.4786 104.699C44.56 103.178 44.9988 101.698 45.7595 100.379C46.5201 99.0603 47.5811 97.9393 48.8564 97.1073L170.906 26.8252C172.094 26.1302 173.204 26.0589 174 26.5044L169.403 23.8433C168.601 23.3325 167.466 23.374 166.213 24.0987L44.1697 94.3867C42.895 95.2174 41.8347 96.3375 41.0749 97.6556C40.3152 98.9738 39.8776 100.453 39.7979 101.972L40.0058 200.178C40.0058 201.491 40.4572 202.429 41.1938 202.916L41.4373 203.053L45.9695 205.696C45.1854 205.221 44.7043 204.253 44.6984 202.881Z" fill="#9135AB"/>
<path opacity="0.3" d="M169.403 23.8433C168.601 23.3325 167.466 23.374 166.213 24.0987L44.1696 94.3867C42.7244 95.2975 41.5621 96.5935 40.8135 98.1289L45.5061 100.844C46.2563 99.3126 47.4159 98.0194 48.8562 97.1073L170.905 26.8252C172.093 26.1302 173.204 26.0589 174 26.5044L169.403 23.8433Z" fill="white"/>
<path opacity="0.2" d="M39.7979 101.972L40.0058 200.178C40.0058 201.491 40.4572 202.429 41.1938 202.916L41.4373 203.053L45.9695 205.696C45.1973 205.233 44.7162 204.265 44.7102 202.893L44.4905 104.71C44.5272 103.363 44.8792 102.042 45.5181 100.855L40.8255 98.1406C40.1917 99.3213 39.84 100.633 39.7979 101.972Z" fill="black"/>
<path d="M175.313 29.3375C175.313 27.9654 174.826 27.0031 174.054 26.5398H174.024C173.228 26.0943 172.135 26.1655 170.929 26.8605L48.8563 97.107C47.5811 97.939 46.5201 99.06 45.7594 100.379C44.9988 101.698 44.5599 103.178 44.4785 104.698L44.6983 202.881C44.6983 204.253 45.1854 205.221 45.9576 205.684L46.0289 205.72H46.0586C46.8545 206.136 47.9237 206.058 49.1058 205.375L171.155 135.111C172.43 134.28 173.491 133.16 174.252 131.842C175.012 130.524 175.451 129.045 175.533 127.526L175.313 29.3375ZM168.987 131.357L49.0286 200.433L48.8147 104.686C48.8962 103.931 49.1349 103.201 49.5155 102.543C49.896 101.885 50.41 101.314 51.0244 100.867L171.012 31.7907L171.226 127.538C171.14 128.295 170.896 129.026 170.51 129.684C170.125 130.342 169.606 130.912 168.987 131.357Z" fill="#9135AB"/>
<path d="M170.983 31.791L167.876 33.573L168.102 126.023C168.019 126.778 167.78 127.508 167.399 128.166C167.019 128.823 166.506 129.394 165.892 129.843L49.0229 197.125V200.434L169.011 131.357C169.624 130.909 170.138 130.338 170.518 129.68C170.898 129.023 171.138 128.293 171.221 127.538L170.983 31.791Z" fill="#9135AB"/>
<path opacity="0.3" d="M170.983 31.791L167.876 33.573L168.102 126.023C168.019 126.778 167.78 127.508 167.399 128.166C167.019 128.823 166.506 129.394 165.892 129.843L49.0229 197.125V200.434L169.011 131.357C169.624 130.909 170.138 130.338 170.518 129.68C170.898 129.023 171.138 128.293 171.221 127.538L170.983 31.791Z" fill="black"/>
<path d="M168.102 126.023L167.894 33.5791L51.0241 100.867C50.4098 101.315 49.8958 101.886 49.5152 102.543C49.1347 103.201 48.896 103.931 48.8145 104.687L49.0224 197.125L165.874 129.843C166.491 129.396 167.007 128.826 167.391 128.168C167.774 127.51 168.016 126.78 168.102 126.023Z" fill="#263238"/>
<path d="M63.1897 207.841L62.964 115.04C63.0428 113.602 63.4605 112.203 64.1831 110.957C64.9058 109.711 65.9128 108.654 67.122 107.871L182.477 41.4438C183.617 40.7845 184.651 40.7192 185.405 41.1409L181.063 38.6105C180.303 38.1293 179.234 38.1709 178.046 38.854L62.6907 105.299C61.4805 106.08 60.4728 107.138 59.75 108.384C59.0273 109.63 58.6101 111.03 58.5327 112.468L58.7406 205.269C58.7406 206.516 59.1624 207.402 59.8455 207.859C59.9185 207.909 59.9961 207.953 60.0771 207.99L64.3599 210.484C63.653 210.051 63.1956 209.142 63.1897 207.841Z" fill="#455A64"/>
<path opacity="0.2" d="M181.063 38.6105C180.303 38.1293 179.233 38.1709 178.045 38.854L62.6905 105.299C61.3258 106.16 60.2275 107.384 59.5186 108.833L63.9557 111.399C64.666 109.954 65.7616 108.733 67.1218 107.871L182.477 41.4438C183.617 40.7845 184.651 40.7192 185.405 41.1409L181.063 38.6105Z" fill="white"/>
<path opacity="0.1" d="M58.5503 112.468L58.7582 205.269C58.7582 206.516 59.1799 207.401 59.863 207.859C59.9361 207.909 60.0137 207.953 60.0947 207.989L64.3774 210.484C63.6468 210.045 63.1894 209.136 63.1894 207.835L62.9637 115.04C62.9996 113.767 63.3333 112.52 63.9379 111.399L59.5007 108.833C58.904 109.954 58.5785 111.199 58.5503 112.468Z" fill="white"/>
<path d="M62.9932 120.422L63.1892 207.841C63.1892 209.142 63.6525 210.05 64.3772 210.49L64.4425 210.532C65.191 210.924 66.2245 210.852 67.3234 210.205L182.714 143.79C183.923 143.007 184.93 141.95 185.653 140.704C186.375 139.458 186.793 138.058 186.872 136.62L186.676 49.0527L62.9932 120.422Z" fill="#455A64"/>
<path d="M68.9453 123.849L180.742 59.3232L180.914 136.62C180.756 137.406 180.337 138.116 179.726 138.634L69.1176 202.352L68.9453 123.849Z" fill="#455A64"/>
<path opacity="0.2" d="M62.9932 120.422L63.1892 207.841C63.1892 209.142 63.6525 210.05 64.3772 210.49L64.4425 210.532C65.191 210.924 66.2245 210.852 67.3234 210.205L182.714 143.79C183.923 143.007 184.93 141.95 185.653 140.704C186.375 139.458 186.793 138.058 186.872 136.62L186.676 49.0527L62.9932 120.422Z" fill="white"/>
<path d="M181.87 54.8681C182.939 54.2741 183.813 54.7433 183.813 55.9788C183.778 56.6492 183.585 57.3017 183.249 57.883C182.914 58.4643 182.445 58.9578 181.882 59.3231L82.999 116.484C81.9358 117.078 81.0626 116.608 81.0566 115.379C81.0908 114.708 81.2836 114.054 81.6192 113.472C81.9547 112.889 82.4235 112.395 82.9871 112.029L181.87 54.8681Z" fill="#455A64"/>
<g opacity="0.8">
<path opacity="0.8" d="M181.87 54.8681C182.939 54.2741 183.813 54.7433 183.813 55.9788C183.778 56.6492 183.585 57.3017 183.249 57.883C182.914 58.4643 182.445 58.9578 181.882 59.3231L82.999 116.484C81.9358 117.078 81.0626 116.608 81.0566 115.379C81.0908 114.708 81.2836 114.054 81.6192 113.472C81.9547 112.889 82.4235 112.395 82.9871 112.029L181.87 54.8681Z" fill="white"/>
</g>
<path d="M68.4638 121.42C68.4842 121.41 68.5065 121.405 68.5291 121.405C68.5517 121.405 68.574 121.41 68.5944 121.42C68.6776 121.461 68.6835 121.598 68.5944 121.729L68.0004 122.881L70.1091 121.663C70.2161 121.598 70.3052 121.663 70.3052 121.776C70.3009 121.843 70.2809 121.908 70.2468 121.966C70.2128 122.024 70.1656 122.073 70.1091 122.109L68.0004 123.327L68.6301 123.754C68.7073 123.802 68.7014 123.944 68.6301 124.075C68.5976 124.13 68.5529 124.177 68.4994 124.212C68.4785 124.226 68.4536 124.234 68.4281 124.234C68.4026 124.234 68.3778 124.226 68.3568 124.212L67.4005 123.552C67.3836 123.539 67.3695 123.523 67.3589 123.505C67.3556 123.479 67.3556 123.453 67.3589 123.427C67.3561 123.402 67.3561 123.376 67.3589 123.35C67.3661 123.317 67.3781 123.285 67.3946 123.255L68.3212 121.55C68.356 121.495 68.4053 121.45 68.4638 121.42Z" fill="#455A64"/>
<path d="M73.7861 118.349C73.8076 118.333 73.8337 118.324 73.8604 118.324C73.8871 118.324 73.9132 118.333 73.9346 118.349L74.8613 118.972L74.9029 119.02C74.9057 119.046 74.9057 119.072 74.9029 119.097C74.9054 119.125 74.9054 119.153 74.9029 119.18L74.8672 119.269L73.9406 120.974C73.9075 121.037 73.8583 121.091 73.798 121.129C73.7771 121.14 73.7536 121.146 73.7297 121.146C73.7058 121.146 73.6824 121.14 73.6614 121.129C73.5842 121.093 73.5782 120.95 73.6614 120.82L74.291 119.667L72.1823 120.885C72.0754 120.95 71.9863 120.885 71.9863 120.778C71.9887 120.71 72.0078 120.643 72.042 120.584C72.0762 120.525 72.1244 120.476 72.1823 120.44L74.291 119.222L73.6555 118.8C73.5842 118.747 73.5901 118.604 73.6555 118.473C73.6872 118.421 73.7323 118.378 73.7861 118.349Z" fill="#455A64"/>
<path d="M77.6829 116.098C77.8745 115.973 78.1032 115.919 78.3303 115.943C78.3389 115.882 78.3603 115.822 78.393 115.769C78.4257 115.716 78.4691 115.67 78.5204 115.635C78.6273 115.575 78.7105 115.635 78.7045 115.759V116.258C78.6979 116.322 78.6775 116.384 78.6447 116.439C78.6119 116.495 78.5674 116.542 78.5145 116.579L78.0927 116.846C77.9917 116.906 77.9026 116.846 77.9026 116.745C77.9021 116.686 77.9146 116.628 77.9393 116.575C77.9639 116.521 78.0001 116.474 78.0452 116.436C77.9211 116.441 77.8004 116.478 77.6948 116.543C77.4564 116.697 77.2582 116.906 77.1166 117.152C76.9751 117.398 76.8943 117.674 76.881 117.957C76.881 118.474 77.2493 118.682 77.7007 118.42C78.0338 118.207 78.2866 117.89 78.4194 117.517C78.4497 117.428 78.5107 117.352 78.5917 117.304C78.6205 117.294 78.6519 117.294 78.6808 117.304C78.7758 117.304 78.8115 117.422 78.7639 117.565C78.5656 118.115 78.192 118.585 77.7007 118.902C77.0354 119.282 76.5127 118.973 76.5127 118.207C76.5265 117.787 76.6398 117.378 76.8433 117.011C77.0468 116.644 77.3345 116.331 77.6829 116.098Z" fill="#455A64"/>
<g opacity="0.7">
<path opacity="0.7" d="M68.4638 121.42C68.4842 121.41 68.5065 121.405 68.5291 121.405C68.5517 121.405 68.574 121.41 68.5944 121.42C68.6776 121.461 68.6835 121.598 68.5944 121.729L68.0004 122.881L70.1091 121.663C70.2161 121.598 70.3052 121.663 70.3052 121.776C70.3009 121.843 70.2809 121.908 70.2468 121.966C70.2128 122.024 70.1656 122.073 70.1091 122.109L68.0004 123.327L68.6301 123.754C68.7073 123.802 68.7014 123.944 68.6301 124.075C68.5976 124.13 68.5529 124.177 68.4994 124.212C68.4785 124.226 68.4536 124.234 68.4281 124.234C68.4026 124.234 68.3778 124.226 68.3568 124.212L67.4005 123.552C67.3836 123.539 67.3695 123.523 67.3589 123.505C67.3556 123.479 67.3556 123.453 67.3589 123.427C67.3561 123.402 67.3561 123.376 67.3589 123.35C67.3661 123.317 67.3781 123.285 67.3946 123.255L68.3212 121.55C68.356 121.495 68.4053 121.45 68.4638 121.42Z" fill="white"/>
<path opacity="0.7" d="M73.7861 118.35C73.8076 118.334 73.8337 118.325 73.8604 118.325C73.8871 118.325 73.9132 118.334 73.9346 118.35L74.8613 118.973L74.9029 119.021C74.9057 119.047 74.9057 119.072 74.9029 119.098C74.9054 119.126 74.9054 119.154 74.9029 119.181L74.8672 119.27L73.9406 120.975C73.9075 121.038 73.8583 121.092 73.798 121.13C73.7771 121.141 73.7536 121.147 73.7297 121.147C73.7058 121.147 73.6824 121.141 73.6614 121.13C73.5842 121.094 73.5782 120.951 73.6614 120.821L74.291 119.668L72.1823 120.886C72.0754 120.951 71.9863 120.886 71.9863 120.779C71.9887 120.711 72.0078 120.644 72.042 120.585C72.0762 120.526 72.1244 120.477 72.1823 120.441L74.291 119.223L73.6555 118.801C73.5842 118.748 73.5901 118.605 73.6555 118.474C73.6872 118.422 73.7323 118.379 73.7861 118.35Z" fill="white"/>
<path opacity="0.7" d="M77.6829 116.098C77.8745 115.973 78.1032 115.919 78.3303 115.943C78.3389 115.882 78.3603 115.822 78.393 115.769C78.4257 115.716 78.4691 115.67 78.5204 115.635C78.6273 115.575 78.7105 115.635 78.7045 115.759V116.258C78.6979 116.322 78.6775 116.384 78.6447 116.439C78.6119 116.495 78.5674 116.542 78.5145 116.579L78.0927 116.846C77.9917 116.906 77.9026 116.846 77.9026 116.745C77.9021 116.686 77.9146 116.628 77.9393 116.575C77.9639 116.521 78.0001 116.474 78.0452 116.436C77.9211 116.441 77.8004 116.478 77.6948 116.543C77.4564 116.697 77.2582 116.906 77.1166 117.152C76.9751 117.398 76.8943 117.674 76.881 117.957C76.881 118.474 77.2493 118.682 77.7007 118.42C78.0338 118.207 78.2866 117.89 78.4194 117.517C78.4497 117.428 78.5107 117.352 78.5917 117.304C78.6205 117.294 78.6519 117.294 78.6808 117.304C78.7758 117.304 78.8115 117.422 78.7639 117.565C78.5656 118.115 78.192 118.585 77.7007 118.902C77.0354 119.282 76.5127 118.973 76.5127 118.207C76.5265 117.787 76.6398 117.378 76.8433 117.011C77.0468 116.644 77.3345 116.331 77.6829 116.098Z" fill="white"/>
</g>
<path d="M186.647 43.8134C186.647 42.5184 186.183 41.6037 185.459 41.1701H185.429C184.674 40.7483 183.647 40.8137 182.5 41.473L67.1219 107.87C65.9127 108.653 64.9057 109.71 64.1831 110.956C63.4604 112.202 63.0427 113.602 62.9639 115.04V120.422L186.658 49.0524L186.647 43.8134Z" fill="#455A64"/>
<path opacity="0.3" d="M186.647 43.8134C186.647 42.5184 186.183 41.6037 185.459 41.1701H185.429C184.674 40.7483 183.647 40.8137 182.5 41.473L67.1219 107.87C65.9127 108.653 64.9057 109.71 64.1831 110.956C63.4604 112.202 63.0427 113.602 62.9639 115.04V120.422L186.658 49.0524L186.647 43.8134Z" fill="black"/>
<g opacity="0.5">
<path opacity="0.5" d="M68.4763 111.631C69.0703 111.268 69.6108 111.559 69.6108 112.278C69.5914 112.67 69.4789 113.052 69.2826 113.391C69.0864 113.731 68.812 114.019 68.4822 114.232C67.8585 114.595 67.3477 114.303 67.3477 113.585C67.368 113.193 67.4809 112.812 67.6771 112.472C67.8733 112.132 68.1471 111.844 68.4763 111.631Z" fill="white"/>
<path opacity="0.5" d="M71.571 109.842C72.1947 109.485 72.7055 109.77 72.7055 110.489C72.6842 110.882 72.5709 111.263 72.3749 111.604C72.1788 111.944 71.9055 112.234 71.5769 112.449C70.9829 112.806 70.4424 112.521 70.4424 111.802C70.4614 111.409 70.5736 111.026 70.7699 110.686C70.9661 110.345 71.2407 110.055 71.571 109.842Z" fill="white"/>
<path opacity="0.5" d="M74.6658 108.06C75.2598 107.698 75.7944 107.989 75.8003 108.708C75.7785 109.099 75.665 109.48 75.469 109.819C75.273 110.159 74.9999 110.447 74.6717 110.662C74.0421 111.024 73.5372 110.733 73.5312 110.014C73.5528 109.622 73.6668 109.241 73.8639 108.901C74.0611 108.561 74.3359 108.273 74.6658 108.06Z" fill="white"/>
</g>
<path d="M68.4763 111.631C69.0703 111.268 69.6108 111.559 69.6108 112.278C69.5914 112.67 69.4789 113.052 69.2826 113.391C69.0864 113.731 68.812 114.019 68.4822 114.232C67.8585 114.595 67.3477 114.303 67.3477 113.585C67.368 113.193 67.4809 112.812 67.6771 112.472C67.8733 112.132 68.1471 111.844 68.4763 111.631Z" fill="#455A64"/>
<path d="M71.571 109.843C72.1947 109.486 72.7055 109.771 72.7055 110.49C72.6842 110.883 72.5709 111.264 72.3749 111.605C72.1788 111.945 71.9055 112.235 71.5769 112.45C70.9829 112.807 70.4424 112.522 70.4424 111.803C70.4614 111.41 70.5736 111.027 70.7699 110.687C70.9661 110.346 71.2407 110.056 71.571 109.843Z" fill="#455A64"/>
<path d="M74.6658 108.06C75.2598 107.698 75.7944 107.989 75.8003 108.708C75.7785 109.099 75.665 109.48 75.469 109.819C75.273 110.159 74.9999 110.447 74.6717 110.662C74.0421 111.024 73.5372 110.733 73.5312 110.014C73.5528 109.622 73.6668 109.241 73.8639 108.901C74.0611 108.561 74.3359 108.273 74.6658 108.06Z" fill="#455A64"/>
<path d="M180.825 97.7548L180.754 66.1243C180.754 65.9158 180.699 65.7111 180.594 65.5307C180.49 65.3503 180.34 65.2005 180.159 65.0964C179.979 64.9922 179.774 64.9374 179.566 64.9375C179.357 64.9376 179.152 64.9924 178.972 65.0967L130.733 92.878C130.282 93.1387 129.907 93.5136 129.646 93.9651C129.385 94.4166 129.248 94.9287 129.248 95.4501V127.116C129.248 127.325 129.303 127.529 129.408 127.71C129.512 127.89 129.662 128.04 129.843 128.144C130.023 128.248 130.228 128.303 130.436 128.303C130.645 128.303 130.85 128.248 131.03 128.144L179.34 100.321C179.791 100.061 180.165 99.6867 180.426 99.2364C180.686 98.786 180.824 98.2751 180.825 97.7548Z" fill="#37474F"/>
<path d="M124.175 96.6553L70.4421 127.597C69.9888 127.858 69.6128 128.235 69.352 128.689C69.0912 129.143 68.955 129.657 68.9571 130.181L69.0283 161.805C69.0285 162.014 69.0836 162.218 69.188 162.399C69.2923 162.579 69.4423 162.729 69.6229 162.833C69.8034 162.937 70.0082 162.992 70.2166 162.992C70.4251 162.992 70.6298 162.937 70.8103 162.833L124.466 131.945C124.919 131.685 125.295 131.31 125.557 130.859C125.819 130.407 125.957 129.895 125.957 129.373V97.6829C125.957 97.4744 125.902 97.2697 125.798 97.0893C125.693 96.9089 125.543 96.7591 125.363 96.6549C125.182 96.5508 124.977 96.496 124.769 96.4961C124.561 96.4961 124.356 96.551 124.175 96.6553Z" fill="#37474F"/>
<path opacity="0.1" d="M124.175 96.6553L70.4421 127.597C69.9888 127.858 69.6128 128.235 69.352 128.689C69.0912 129.143 68.955 129.657 68.9571 130.181L69.0283 161.805C69.0285 162.014 69.0836 162.218 69.188 162.399C69.2923 162.579 69.4423 162.729 69.6229 162.833C69.8034 162.937 70.0082 162.992 70.2166 162.992C70.4251 162.992 70.6298 162.937 70.8103 162.833L124.466 131.945C124.919 131.685 125.295 131.31 125.557 130.859C125.819 130.407 125.957 129.895 125.957 129.373V97.6829C125.957 97.4744 125.902 97.2697 125.798 97.0893C125.693 96.9089 125.543 96.7591 125.363 96.6549C125.182 96.5508 124.977 96.496 124.769 96.4961C124.561 96.4961 124.356 96.551 124.175 96.6553Z" fill="white"/>
<path d="M129.248 133.103V165.666C129.247 165.875 129.302 166.081 129.405 166.262C129.509 166.443 129.659 166.594 129.84 166.699C130.021 166.804 130.226 166.859 130.435 166.859C130.644 166.859 130.849 166.804 131.03 166.7L179.738 138.645C180.349 138.127 180.768 137.417 180.926 136.632L180.855 105.441C180.855 105.232 180.8 105.028 180.695 104.847C180.591 104.667 180.441 104.517 180.26 104.413C180.08 104.309 179.875 104.254 179.666 104.254C179.458 104.254 179.253 104.309 179.073 104.413L129.248 133.103Z" fill="#37474F"/>
<path opacity="0.1" d="M129.248 133.103V165.666C129.247 165.875 129.302 166.081 129.405 166.262C129.509 166.443 129.659 166.594 129.84 166.699C130.021 166.804 130.226 166.859 130.435 166.859C130.644 166.859 130.849 166.804 131.03 166.7L179.738 138.645C180.349 138.127 180.768 137.417 180.926 136.632L180.855 105.441C180.855 105.232 180.8 105.028 180.695 104.847C180.591 104.667 180.441 104.517 180.26 104.413C180.08 104.309 179.875 104.254 179.666 104.254C179.458 104.254 179.253 104.309 179.073 104.413L129.248 133.103Z" fill="white"/>
<path d="M69.0469 169.492L69.1122 200.303C69.1135 200.511 69.1693 200.715 69.2741 200.895C69.3789 201.074 69.5289 201.223 69.7093 201.327C69.8897 201.43 70.0941 201.484 70.302 201.484C70.51 201.484 70.7142 201.429 70.8942 201.325L124.467 170.478C124.921 170.218 125.297 169.842 125.559 169.39C125.821 168.937 125.958 168.423 125.958 167.9V137.054C125.959 136.845 125.905 136.64 125.801 136.458C125.697 136.277 125.547 136.126 125.366 136.022C125.185 135.917 124.98 135.862 124.771 135.861C124.562 135.861 124.357 135.916 124.176 136.02L70.5319 166.908C70.0787 167.17 69.7026 167.547 69.4418 168.001C69.1811 168.454 69.0448 168.969 69.0469 169.492Z" fill="#37474F"/>
<path d="M92.9723 135.129L87.2283 139.454C85.6058 140.675 84.263 142.229 83.2898 144.012C82.3166 145.794 81.7354 147.764 81.5853 149.789L81.0566 156.917L112.669 138.711L110.953 136.169C110.082 134.879 108.843 133.881 107.396 133.308C105.949 132.734 104.362 132.612 102.845 132.955L99.6132 133.692L92.9723 135.129Z" fill="white"/>
<path d="M89.5038 126.712C89.6801 126.286 90.0082 125.941 90.4245 125.744C90.5126 125.698 90.6065 125.664 90.7037 125.643C90.9823 125.596 91.2681 125.618 91.5363 125.708C91.8044 125.797 92.0467 125.95 92.2421 126.154C92.6268 126.57 92.8862 127.087 92.9906 127.645C93.0907 128.2 93.1522 128.762 93.1747 129.326C93.2572 130.326 93.412 131.318 93.638 132.296C93.7568 132.826 93.9893 133.324 94.3195 133.756C94.6498 134.188 95.0699 134.543 95.5507 134.796L95.616 134.832C97.0119 135.525 98.5332 135.929 100.089 136.02V137.719C101.318 139.394 101.663 142.602 98.4138 141.645C95.1646 140.689 93.0678 138.527 93.0678 136.4C93.0678 135.503 93.0203 134.351 93.0025 133.323C92.9728 131.933 92.943 130.775 92.943 130.775C92.6362 131.116 92.2118 131.328 91.755 131.369C91.5493 131.411 91.3371 131.411 91.1313 131.369C90.8327 131.274 90.5563 131.12 90.3185 130.916C90.0807 130.712 89.8865 130.462 89.7473 130.181C89.4724 129.626 89.3204 129.018 89.3018 128.399C89.2354 127.829 89.3046 127.251 89.5038 126.712Z" fill="#8C5C5B"/>
<path d="M90.5548 120.844C91.2108 120.09 92.1232 119.608 93.115 119.489L106.456 120.725C107.995 123.992 106.771 126.142 106.771 126.142C106.979 131.12 107.151 134.28 104.959 135.325C103.415 135.944 101.743 136.176 100.089 136.002C98.5329 135.911 97.0116 135.507 95.6157 134.814L95.5445 134.779C95.0637 134.522 94.644 134.165 94.3139 133.731C93.9839 133.298 93.7512 132.798 93.6318 132.266C93.4081 131.298 93.2553 130.316 93.1744 129.326C93.1519 128.762 93.0904 128.2 92.9903 127.645C92.8858 127.087 92.6264 126.571 92.2418 126.154C92.0464 125.95 91.8041 125.797 91.5359 125.708C91.2678 125.619 90.982 125.597 90.7033 125.643C90.6062 125.664 90.5123 125.698 90.4242 125.744C90.044 123.552 89.9371 121.622 90.5548 120.844Z" fill="#263238"/>
<path d="M95.4437 121.224C95.6746 122.152 95.6145 123.129 95.2715 124.022C94.9214 124.904 94.6375 125.812 94.4221 126.736C94.2464 127.665 94.3756 128.625 94.7903 129.475C94.9982 129.897 95.2965 130.268 95.6641 130.561C96.0316 130.855 96.4594 131.064 96.9169 131.173C98.3484 131.476 99.7502 130.645 101.188 130.366C102.568 130.12 103.99 130.37 105.203 131.072C105.305 131.134 105.422 131.168 105.541 131.171C105.66 131.175 105.779 131.147 105.884 131.092C105.99 131.036 106.079 130.955 106.144 130.854C106.209 130.754 106.247 130.639 106.255 130.52C106.427 127.657 106.421 123.172 105.999 121.063L95.4437 121.224Z" fill="#8C5C5B"/>
<path d="M105.773 118.634L107.43 117.482C107.604 118.037 107.636 118.625 107.525 119.196C107.414 119.766 107.163 120.3 106.795 120.749C106.037 121.63 105.01 122.235 103.872 122.472C102.741 122.701 101.581 122.753 100.433 122.626C98.7517 122.49 97.088 122.186 95.4673 121.717C94.7349 121.566 94.0597 121.212 93.519 120.696C93.1817 120.265 92.9896 119.739 92.9703 119.192C92.9511 118.646 93.1058 118.107 93.4121 117.654C93.7315 117.21 94.1411 116.839 94.614 116.565C95.087 116.291 95.6126 116.119 96.1564 116.062C97.2642 115.974 98.3789 116.062 99.459 116.324C100.539 116.586 101.655 116.666 102.762 116.561C103.317 116.503 103.849 116.311 104.313 116C104.777 115.69 105.158 115.271 105.423 114.779C106.361 116.318 105.773 118.634 105.773 118.634Z" fill="#263238"/>
<path d="M101.586 126.303L104.021 129.249L101.788 130.039L101.586 126.303Z" fill="#F28F8F"/>
<path d="M101.586 126.303L104.021 129.249L101.788 130.039L101.586 126.303Z" fill="#7D4B4A"/>
<path d="M99.7444 131.5L101.621 132.094C101.5 132.314 101.313 132.49 101.085 132.597C100.858 132.703 100.603 132.735 100.356 132.688C100.132 132.593 99.9475 132.421 99.8357 132.205C99.724 131.988 99.6917 131.738 99.7444 131.5Z" fill="#F28F8F"/>
<path d="M99.7444 131.5L101.621 132.094C101.5 132.314 101.313 132.49 101.085 132.597C100.858 132.703 100.603 132.735 100.356 132.688C100.132 132.593 99.9475 132.421 99.8357 132.205C99.724 131.988 99.6917 131.738 99.7444 131.5Z" fill="#7D4B4A"/>
<path d="M100.98 132.628C100.789 132.694 100.584 132.707 100.386 132.664C100.215 132.595 100.068 132.478 99.963 132.327C99.8576 132.177 99.7982 131.998 99.792 131.815C100.062 131.768 100.34 131.826 100.568 131.977C100.797 132.129 100.959 132.361 101.022 132.628H100.98Z" fill="#F28F8F"/>
<path d="M98.2777 126.95C98.2861 127.081 98.333 127.206 98.4126 127.311C98.4921 127.415 98.6008 127.494 98.7249 127.536C98.8489 127.579 98.9829 127.584 99.1099 127.551C99.2368 127.518 99.3511 127.448 99.4384 127.35C99.5257 127.252 99.5821 127.13 99.6004 127C99.6187 126.87 99.5982 126.738 99.5415 126.62C99.4847 126.501 99.3942 126.402 99.2814 126.335C99.1686 126.268 99.0384 126.236 98.9074 126.243C98.8194 126.248 98.7333 126.27 98.6539 126.308C98.5745 126.346 98.5034 126.399 98.4449 126.465C98.3863 126.531 98.3414 126.607 98.3127 126.691C98.284 126.774 98.2721 126.862 98.2777 126.95Z" fill="#263238"/>
<path d="M103.867 126.432C103.879 126.609 103.96 126.774 104.092 126.891C104.224 127.009 104.397 127.07 104.574 127.062C104.741 127.04 104.894 126.956 105.002 126.826C105.11 126.696 105.165 126.53 105.156 126.361C105.147 126.192 105.075 126.033 104.954 125.915C104.833 125.797 104.671 125.73 104.502 125.726C104.325 125.736 104.159 125.816 104.04 125.949C103.921 126.081 103.859 126.255 103.867 126.432Z" fill="#263238"/>
<path d="M104.378 123.736L105.91 124.681C105.965 124.495 105.962 124.296 105.9 124.113C105.839 123.929 105.722 123.768 105.566 123.653C105.38 123.555 105.17 123.512 104.96 123.526C104.75 123.541 104.549 123.614 104.378 123.736Z" fill="#263238"/>
<path d="M98.6511 123.968L97.2314 125.067C97.1565 124.887 97.1386 124.689 97.18 124.499C97.2214 124.309 97.3202 124.136 97.4631 124.004C97.6379 123.887 97.8419 123.822 98.052 123.816C98.262 123.81 98.4695 123.862 98.6511 123.968Z" fill="#263238"/>
<path d="M94.7186 134.725C94.3472 134.248 94.0819 133.697 93.9404 133.109C94.2864 133.822 94.8501 134.407 95.5502 134.779L95.6155 134.814C97.0114 135.507 98.5327 135.911 100.088 136.002V137.149C99.179 137.083 98.2812 136.905 97.4153 136.62C96.3557 136.255 95.4208 135.598 94.7186 134.725Z" fill="#7D4B4A"/>
<path d="M153.377 138.871L147.437 143.362C146.39 144.144 145.528 145.147 144.912 146.3C144.296 147.453 143.941 148.727 143.873 150.032L143.392 159.578L172.397 142.875L168.144 138.687C167.362 137.919 166.401 137.361 165.348 137.062C164.294 136.763 163.182 136.733 162.114 136.976L160.018 137.451L153.377 138.871Z" fill="#9135AB"/>
<path opacity="0.2" d="M153.377 138.871L147.437 143.362C146.39 144.144 145.528 145.147 144.912 146.3C144.296 147.453 143.941 148.727 143.873 150.032L143.392 159.578L172.397 142.875L168.144 138.687C167.362 137.919 166.401 137.361 165.348 137.062C164.294 136.763 163.182 136.733 162.114 136.976L160.018 137.451L153.377 138.871Z" fill="black"/>
<path d="M165.726 131.577C166.737 130.85 167.44 129.771 167.697 128.553C167.955 127.334 167.747 126.063 167.116 124.99C167.684 124.738 168.149 124.3 168.435 123.748C168.555 123.482 168.592 123.186 168.541 122.899C168.491 122.611 168.354 122.346 168.15 122.137C167.946 121.929 167.684 121.787 167.397 121.73C167.111 121.673 166.814 121.703 166.546 121.818C166.695 121.388 166.696 120.92 166.549 120.489C166.401 120.059 166.114 119.69 165.732 119.442C165.345 119.234 164.899 119.164 164.467 119.244C164.035 119.324 163.643 119.549 163.356 119.881C163.366 119.601 163.286 119.326 163.126 119.095C162.967 118.865 162.737 118.693 162.471 118.604C161.922 118.459 161.341 118.495 160.814 118.705C160.279 118.889 159.774 119.157 159.24 119.299C158.315 119.533 157.366 119.655 156.412 119.662C155.454 119.672 154.515 119.923 153.68 120.392C152.884 120.909 152.177 122.115 152.611 123.16C152.473 122.988 152.301 122.846 152.106 122.744C151.911 122.641 151.696 122.581 151.476 122.566C151.254 122.558 151.032 122.598 150.827 122.684C150.622 122.77 150.438 122.9 150.288 123.065C150.882 123.433 151.476 123.825 152.07 124.194C151.729 124.099 151.367 124.119 151.039 124.25C150.711 124.381 150.434 124.615 150.252 124.918C149.975 125.517 149.866 126.181 149.938 126.837C150.014 129.331 150.456 131.801 151.25 134.167C151.654 135.391 152.242 136.686 153.401 137.25L165.726 131.577Z" fill="#263238"/>
<path d="M159.43 137.463L159.169 140.386C159.155 140.612 159.213 140.836 159.335 141.027C159.497 141.334 159.558 141.683 159.512 142.026C159.465 142.369 159.312 142.689 159.074 142.94C158.697 143.22 158.242 143.374 157.773 143.38C156.881 143.427 155.99 143.287 155.157 142.966C154.324 142.646 153.567 142.153 152.938 141.52C152.811 141.387 152.712 141.229 152.647 141.057C152.581 140.884 152.551 140.701 152.557 140.517L152.748 133.104L159.43 137.463Z" fill="#FFA8A7"/>
<path d="M153.335 133.49L159.43 137.464L159.198 140.054C157.77 139.809 156.416 139.244 155.236 138.403C154.528 137.812 153.983 137.052 153.65 136.192C153.317 135.333 153.209 134.403 153.335 133.49Z" fill="#F28F8F"/>
<path d="M166.071 125.554C166.517 128.944 166.295 132.389 165.417 135.694C165.245 136.421 164.973 137.12 164.609 137.773C164.241 138.429 163.664 138.943 162.97 139.234C162.079 139.475 161.14 139.475 160.249 139.234C158.592 138.943 156.899 138.64 155.462 137.767C154.024 136.894 152.884 135.325 153.02 133.65C152.612 133.903 152.147 134.05 151.668 134.077C151.189 134.104 150.71 134.01 150.276 133.805C149.853 133.571 149.494 133.236 149.231 132.83C148.969 132.424 148.812 131.959 148.773 131.476C148.717 131.009 148.825 130.536 149.08 130.141C149.335 129.745 149.72 129.45 150.169 129.308C150.454 129.267 150.744 129.288 151.019 129.369C151.295 129.45 151.55 129.589 151.767 129.778C152.201 130.154 152.577 130.592 152.884 131.078C153.027 131.313 153.217 131.515 153.442 131.672C153.555 131.751 153.688 131.792 153.825 131.792C153.962 131.792 154.096 131.751 154.208 131.672C154.304 131.557 154.373 131.423 154.411 131.278C154.449 131.133 154.455 130.982 154.428 130.835L154.333 128.714C154.326 128.551 154.366 128.389 154.45 128.249C154.533 128.109 154.656 127.996 154.803 127.924C155.24 127.686 155.577 127.298 155.753 126.831C155.904 126.421 155.994 125.991 156.02 125.554C156.027 125.473 156.052 125.394 156.094 125.324C156.137 125.254 156.195 125.195 156.264 125.152C156.334 125.108 156.412 125.082 156.494 125.074C156.575 125.067 156.657 125.079 156.733 125.109C159.728 126.204 162.985 126.359 166.071 125.554Z" fill="#FFA8A7"/>
<path d="M161.401 130.698L163.314 133.912L161.039 134.339L161.401 130.698Z" fill="#F28F8F"/>
<path d="M158.841 135.432L160.57 136.275C160.422 136.47 160.214 136.611 159.978 136.678C159.742 136.744 159.491 136.732 159.263 136.643C159.064 136.521 158.914 136.333 158.837 136.113C158.76 135.892 158.762 135.651 158.841 135.432Z" fill="#F28F8F"/>
<path opacity="0.3" d="M158.841 135.432L160.57 136.275C160.422 136.47 160.214 136.611 159.978 136.678C159.742 136.744 159.491 136.732 159.263 136.643C159.064 136.521 158.914 136.333 158.837 136.113C158.76 135.892 158.762 135.651 158.841 135.432Z" fill="black"/>
<path d="M159.863 136.715C159.664 136.755 159.457 136.734 159.269 136.656C159.111 136.567 158.983 136.433 158.9 136.272C158.818 136.11 158.785 135.927 158.806 135.747C159.054 135.747 159.295 135.831 159.489 135.985C159.705 136.17 159.839 136.432 159.863 136.715Z" fill="#F28F8F"/>
<path d="M158.111 130.828C158.1 130.957 158.127 131.086 158.189 131.199C158.251 131.312 158.345 131.404 158.459 131.464C158.574 131.524 158.703 131.548 158.831 131.535C158.96 131.521 159.081 131.469 159.18 131.387C159.279 131.304 159.352 131.194 159.388 131.07C159.425 130.947 159.424 130.815 159.386 130.692C159.348 130.569 159.274 130.459 159.174 130.378C159.074 130.297 158.952 130.247 158.824 130.234C158.738 130.226 158.651 130.235 158.569 130.261C158.486 130.286 158.41 130.328 158.344 130.383C158.277 130.438 158.223 130.506 158.183 130.582C158.143 130.659 158.118 130.742 158.111 130.828Z" fill="#263238"/>
<path d="M163.587 131.168C163.576 131.296 163.603 131.425 163.665 131.538C163.727 131.651 163.821 131.743 163.935 131.802C164.049 131.862 164.178 131.887 164.306 131.874C164.434 131.86 164.555 131.809 164.655 131.727C164.754 131.645 164.827 131.536 164.864 131.413C164.901 131.289 164.901 131.158 164.864 131.035C164.827 130.912 164.754 130.802 164.655 130.72C164.555 130.638 164.434 130.587 164.306 130.574C164.22 130.565 164.132 130.573 164.049 130.598C163.966 130.623 163.889 130.665 163.822 130.72C163.755 130.775 163.7 130.843 163.66 130.92C163.619 130.997 163.595 131.081 163.587 131.168Z" fill="#263238"/>
<path d="M164.479 128.642L165.821 129.783C165.902 129.611 165.928 129.419 165.896 129.232C165.864 129.045 165.776 128.872 165.643 128.737C165.478 128.613 165.28 128.538 165.074 128.521C164.868 128.504 164.662 128.546 164.479 128.642Z" fill="#263238"/>
<path d="M158.925 128.001L157.38 128.856C157.336 128.671 157.349 128.477 157.418 128.3C157.487 128.123 157.609 127.971 157.766 127.864C157.953 127.776 158.16 127.742 158.365 127.766C158.57 127.791 158.764 127.872 158.925 128.001Z" fill="#263238"/>
<path d="M110.098 162.435C109.842 163.029 109.141 163.314 108.803 163.866C108.671 164.08 108.6 164.326 108.597 164.577C108.594 164.828 108.66 165.075 108.787 165.292C108.914 165.509 109.097 165.687 109.318 165.807C109.538 165.927 109.787 165.986 110.038 165.975C110.287 165.962 110.528 165.883 110.737 165.746C110.946 165.609 111.114 165.42 111.226 165.197C111.333 165.72 111.333 166.26 111.226 166.783C111.179 167.05 111.062 167.301 110.888 167.509C110.714 167.717 110.489 167.877 110.234 167.971C110.603 168.353 110.857 168.832 110.965 169.352C111.073 169.872 111.031 170.413 110.845 170.91C110.658 171.408 110.334 171.842 109.911 172.163C109.487 172.484 108.982 172.678 108.452 172.723C108.654 174.166 107.716 175.729 106.522 176.572C105.293 177.375 103.821 177.72 102.364 177.546C100.91 177.366 99.4961 176.95 98.1759 176.317C96.1487 177.088 93.9785 177.413 91.8142 177.267C90.4421 177.136 89.0105 176.768 88.0601 175.77C87.1097 174.772 86.8721 172.996 87.8997 172.064C87.5742 172.26 87.2015 172.363 86.8216 172.363C86.4417 172.363 86.069 172.26 85.7435 172.064C85.4235 171.893 85.1611 171.632 84.9895 171.313C84.8178 170.994 84.7444 170.631 84.7787 170.27C84.8131 169.909 84.9535 169.566 85.1822 169.285C85.411 169.004 85.7179 168.797 86.0643 168.69C85.8235 168.536 85.6282 168.32 85.4987 168.065C85.3692 167.811 85.3102 167.526 85.3277 167.24C85.3729 166.968 85.4921 166.713 85.6722 166.503C85.8524 166.294 86.0866 166.138 86.3494 166.052C86.2773 166.287 86.2725 166.537 86.3355 166.775C86.3985 167.012 86.5268 167.227 86.7058 167.395C86.8968 167.538 87.1265 167.62 87.3649 167.631C87.6033 167.641 87.8393 167.58 88.0423 167.454C88.2309 167.321 88.3896 167.149 88.5083 166.951C88.6269 166.752 88.7029 166.531 88.7313 166.302C88.7877 165.842 88.7877 165.377 88.7313 164.918C88.5116 163.332 88.6683 161.716 89.1887 160.202C89.4546 159.446 89.9071 158.77 90.5043 158.236C91.1014 157.702 91.8237 157.328 92.6042 157.148C93.2066 155.29 94.48 153.723 96.1759 152.753C97.8718 151.783 99.8683 151.48 101.776 151.903C103.362 152.254 104.9 153.198 105.536 154.689C106.219 154.547 106.917 154.487 107.615 154.511C108.303 154.501 108.97 154.749 109.486 155.206C109.736 155.44 109.909 155.744 109.982 156.078C110.055 156.412 110.025 156.76 109.896 157.077C109.688 157.505 109.248 157.891 109.349 158.354C109.45 158.817 109.896 158.948 110.115 159.293C110.206 159.464 110.253 159.654 110.253 159.848C110.253 160.042 110.206 160.232 110.115 160.403C109.94 160.747 109.716 161.063 109.45 161.342C109.218 161.609 108.969 161.936 109.1 162.286C109.23 162.637 109.89 162.756 110.098 162.435Z" fill="#263238"/>
<path d="M103.95 178.61C103.405 178.987 102.746 179.164 102.085 179.109C100.467 179.107 98.8706 178.73 97.4218 178.009C95.973 177.288 94.7107 176.241 93.7334 174.951L95.5867 174.791V168.839L102.038 171.328V174.773H103.689C104.03 175.192 104.297 175.666 104.479 176.175C104.64 176.588 104.675 177.039 104.581 177.472C104.487 177.905 104.268 178.301 103.95 178.61Z" fill="#F28F8F"/>
<path d="M96.0615 169.011C97.992 172.765 99.1919 172.842 102.055 173.169V171.315L96.0615 169.011Z" fill="#D96E6E"/>
<path d="M107.751 160.345C108.31 163.173 108.345 166.081 107.852 168.922C107.662 169.985 107.353 171.12 106.51 171.797C105.47 172.635 103.979 172.51 102.655 172.343C101.201 172.227 99.7711 171.905 98.4076 171.387C97.7297 171.122 97.115 170.718 96.6034 170.2C96.0918 169.682 95.6946 169.063 95.4376 168.382C95.0727 168.579 94.6527 168.65 94.2433 168.583C93.8338 168.516 93.458 168.316 93.1745 168.013C92.6217 167.386 92.3249 166.574 92.3429 165.738C92.2979 165.365 92.3497 164.986 92.4932 164.639C92.6368 164.292 92.8673 163.987 93.1626 163.754C93.3887 163.633 93.6392 163.565 93.8953 163.555C94.1515 163.545 94.4066 163.593 94.6417 163.695C95.1129 163.899 95.5344 164.203 95.8772 164.586C96.0465 164.784 96.2472 164.952 96.4712 165.085C96.5823 165.152 96.7097 165.187 96.8395 165.187C96.9693 165.187 97.0966 165.152 97.2077 165.085C97.3234 164.974 97.412 164.838 97.4666 164.688C97.5212 164.538 97.5404 164.377 97.5226 164.218C97.5001 162.906 97.7977 161.61 98.3898 160.44C99.0551 159.317 100.398 158.503 101.657 158.842C102.2 159.09 102.77 159.275 103.356 159.394C103.834 159.369 104.297 159.217 104.698 158.955C104.977 158.766 105.3 158.652 105.635 158.624C105.971 158.596 106.308 158.654 106.614 158.794C106.921 158.933 107.186 159.149 107.385 159.421C107.584 159.692 107.71 160.01 107.751 160.345Z" fill="#F28F8F"/>
<path d="M103.682 163.861L105.399 166.748L103.355 167.128L103.682 163.861Z" fill="#F28F8F"/>
<path d="M103.682 163.861L105.399 166.748L103.355 167.128L103.682 163.861Z" fill="#D96E6E"/>
<path d="M101.383 168.102L102.94 168.856C102.805 169.033 102.616 169.162 102.402 169.222C102.187 169.282 101.959 169.27 101.752 169.189C101.575 169.077 101.441 168.909 101.374 168.711C101.307 168.513 101.31 168.297 101.383 168.102Z" fill="#F28F8F"/>
<path d="M101.383 168.102L102.94 168.856C102.805 169.033 102.616 169.162 102.402 169.222C102.187 169.282 101.959 169.27 101.752 169.189C101.575 169.077 101.441 168.909 101.374 168.711C101.307 168.513 101.31 168.297 101.383 168.102Z" fill="#D96E6E"/>
<path d="M102.299 169.29C102.117 169.33 101.928 169.311 101.758 169.237C101.616 169.157 101.501 169.038 101.427 168.893C101.353 168.748 101.324 168.585 101.342 168.423C101.583 168.417 101.817 168.503 101.995 168.665C102.173 168.826 102.282 169.05 102.299 169.29Z" fill="#F28F8F"/>
<path d="M102.299 169.29C102.117 169.33 101.928 169.311 101.758 169.237C101.616 169.157 101.501 169.038 101.427 168.893C101.353 168.748 101.324 168.585 101.342 168.423C101.583 168.417 101.817 168.503 101.995 168.665C102.173 168.826 102.282 169.05 102.299 169.29Z" fill="#C75555"/>
<path d="M100.724 163.974C100.712 164.092 100.734 164.21 100.789 164.314C100.844 164.419 100.929 164.504 101.033 164.56C101.137 164.616 101.255 164.64 101.373 164.629C101.49 164.617 101.601 164.571 101.692 164.496C101.784 164.421 101.85 164.32 101.884 164.207C101.918 164.094 101.917 163.974 101.882 163.861C101.847 163.748 101.779 163.648 101.687 163.575C101.595 163.501 101.483 163.456 101.366 163.446C101.211 163.432 101.057 163.48 100.937 163.579C100.817 163.678 100.741 163.82 100.724 163.974Z" fill="#263238"/>
<path d="M105.649 164.277C105.634 164.432 105.68 164.586 105.778 164.707C105.875 164.828 106.017 164.906 106.171 164.924C106.327 164.939 106.483 164.892 106.604 164.793C106.725 164.694 106.802 164.551 106.819 164.396C106.835 164.238 106.787 164.081 106.687 163.958C106.587 163.836 106.442 163.758 106.284 163.742C106.127 163.726 105.969 163.774 105.847 163.874C105.724 163.974 105.647 164.119 105.631 164.277H105.649Z" fill="#263238"/>
<path d="M106.45 162.008L107.638 163.036C107.711 162.881 107.735 162.707 107.706 162.538C107.678 162.369 107.598 162.213 107.478 162.091C107.33 161.987 107.156 161.924 106.975 161.91C106.795 161.895 106.613 161.929 106.45 162.008Z" fill="#263238"/>
<path d="M101.455 161.437L100.065 162.198C100.026 162.031 100.039 161.857 100.102 161.698C100.164 161.539 100.274 161.402 100.415 161.307C100.583 161.228 100.77 161.198 100.954 161.222C101.138 161.245 101.312 161.32 101.455 161.437Z" fill="#263238"/>
<path d="M105.311 174.772L105.827 181.211L110.193 178.693C109.296 176.358 107.841 174.772 105.311 174.772Z" fill="#F28F8F"/>
<path d="M105.31 174.772H103.706C104.047 175.191 104.314 175.665 104.496 176.174C104.657 176.587 104.692 177.038 104.598 177.472C104.504 177.905 104.285 178.3 103.967 178.61C103.422 178.987 102.763 179.163 102.102 179.109C100.484 179.106 98.8878 178.73 97.439 178.009C95.9902 177.287 94.7279 176.241 93.7506 174.951L88.2383 175.426C88.2383 175.426 88.363 187.044 88.3333 188.72C88.3052 189.538 88.367 190.356 88.5175 191.161L108.921 179.412C107.998 177.666 106.776 176.095 105.31 174.772Z" fill="#9135AB"/>
<path opacity="0.6" d="M105.31 174.772H103.706C104.047 175.191 104.314 175.665 104.496 176.174C104.657 176.587 104.692 177.038 104.598 177.472C104.504 177.905 104.285 178.3 103.967 178.61C103.422 178.987 102.763 179.163 102.102 179.109C100.484 179.106 98.8878 178.73 97.439 178.009C95.9902 177.287 94.7279 176.241 93.7506 174.951L88.2383 175.426C88.2383 175.426 88.363 187.044 88.3333 188.72C88.3052 189.538 88.367 190.356 88.5175 191.161L108.921 179.412C107.998 177.666 106.776 176.095 105.31 174.772Z" fill="white"/>
<path d="M88.2385 175.444C82.9519 177.226 84.1874 181.735 86.8842 186.558C87.5554 187.746 88.3632 189.243 89.2007 190.787L94.8913 187.509C92.8479 182.501 90.0442 176.359 88.2385 175.444Z" fill="#F28F8F"/>
<path d="M163.855 104.687C164.527 105.826 165.107 107.018 165.589 108.251L167.704 107.063L165.773 103.297C165.416 102.6 164.839 102.04 164.131 101.704C163.423 101.368 162.625 101.274 161.859 101.438L161.188 101.58C162.244 102.459 163.146 103.509 163.855 104.687Z" fill="#455A64"/>
<path d="M149.355 110.835C149.216 110.472 149.004 110.142 148.731 109.865C148.458 109.588 148.13 109.37 147.769 109.225C147.376 109.113 146.963 109.09 146.56 109.159C146.157 109.228 145.774 109.387 145.441 109.623C145.181 109.795 144.94 109.994 144.722 110.217C143.853 111.624 143.392 113.245 143.392 114.898V121.028L150.359 117.019L149.86 113.092C149.795 112.321 149.625 111.561 149.355 110.835Z" fill="#455A64"/>
<path d="M163.855 104.687C163.148 103.501 162.246 102.443 161.188 101.557L156.554 102.555L151.802 104.521L147.353 107.491C146.281 108.2 145.377 109.134 144.704 110.229C144.922 110.006 145.163 109.807 145.423 109.635C145.756 109.398 146.139 109.24 146.542 109.171C146.945 109.102 147.358 109.125 147.751 109.237C148.112 109.382 148.44 109.599 148.713 109.876C148.985 110.153 149.198 110.484 149.337 110.847C149.607 111.575 149.777 112.336 149.842 113.11L150.341 117.036L165.571 108.263C165.096 107.027 164.522 105.831 163.855 104.687Z" fill="#455A64"/>
<path opacity="0.3" d="M163.855 104.687C164.527 105.826 165.107 107.018 165.589 108.251L167.704 107.063L165.773 103.297C165.416 102.6 164.839 102.04 164.131 101.704C163.423 101.368 162.625 101.274 161.859 101.438L161.188 101.58C162.244 102.459 163.146 103.509 163.855 104.687Z" fill="white"/>
<path opacity="0.3" d="M149.355 110.835C149.216 110.472 149.004 110.142 148.731 109.865C148.458 109.588 148.13 109.37 147.769 109.225C147.376 109.113 146.963 109.09 146.56 109.159C146.157 109.228 145.774 109.387 145.441 109.623C145.181 109.795 144.94 109.994 144.722 110.217C143.853 111.624 143.392 113.245 143.392 114.898V121.028L150.359 117.019L149.86 113.092C149.795 112.321 149.625 111.561 149.355 110.835Z" fill="white"/>
<path opacity="0.4" d="M163.855 104.687C163.148 103.501 162.246 102.443 161.188 101.557L156.554 102.555L151.802 104.521L147.353 107.491C146.281 108.2 145.377 109.134 144.704 110.229C144.922 110.006 145.163 109.807 145.423 109.635C145.756 109.398 146.139 109.24 146.542 109.171C146.945 109.102 147.358 109.125 147.751 109.237C148.112 109.382 148.44 109.599 148.713 109.876C148.985 110.153 149.198 110.484 149.337 110.847C149.607 111.575 149.777 112.336 149.842 113.11L150.341 117.036L165.571 108.263C165.096 107.027 164.522 105.831 163.855 104.687Z" fill="white"/>
<path d="M163.629 94.2914C164.58 93.3292 165.169 92.0687 165.298 90.7225C165.427 89.3763 165.087 88.0269 164.336 86.902C164.735 86.7367 165.072 86.4496 165.298 86.0815C165.524 85.7135 165.628 85.2834 165.596 84.8527C165.552 84.422 165.372 84.0166 165.081 83.6959C164.79 83.3752 164.404 83.1561 163.98 83.0707C163.254 83.0335 162.528 83.1364 161.841 83.3736C160.622 83.5934 159.372 83.5934 158.153 83.3736C156.929 83.2014 155.717 82.9341 154.488 82.845C153.254 82.7132 152.006 82.8908 150.858 83.3618C150.287 83.6015 149.778 83.9693 149.371 84.4369C148.964 84.9045 148.67 85.4593 148.512 86.0585C147.562 85.8031 146.433 86.409 145.821 87.1812C145.246 87.9872 144.936 88.9528 144.936 89.9433C144.901 90.9234 145.037 91.9035 145.085 92.9133C145.176 93.8968 145.05 94.8883 144.716 95.8179C144.271 96.8753 143.392 97.7425 143.113 98.8592C142.984 99.3744 142.992 99.9142 143.135 100.426C143.278 100.937 143.552 101.402 143.93 101.776C144.307 102.149 144.775 102.418 145.288 102.555C145.801 102.693 146.341 102.694 146.855 102.56C146.646 101.786 146.55 100.985 146.57 100.184C146.665 101.265 147.758 102.108 148.767 102.471C149.812 102.771 150.905 102.868 151.987 102.756L155.8 102.607L160.25 102.429C161.042 102.451 161.832 102.316 162.572 102.031C163.188 101.695 163.704 101.202 164.068 100.602C164.432 100.003 164.631 99.3172 164.645 98.6157C164.621 97.118 164.275 95.6431 163.629 94.2914Z" fill="#263238"/>
<path d="M158.182 100.487V104.544C158.182 104.544 161.503 106.665 160.101 107.787C157.469 109.902 151.82 104.52 151.82 104.52V97.7666L158.182 100.487Z" fill="#FFA8A7"/>
<path d="M151.82 97.7666C152.8 100.677 156.358 102.881 158.182 103.321V100.487L151.82 97.7666Z" fill="#F28F8F"/>
<path d="M152.581 93.1572C152.67 93.6609 152.694 94.1739 152.652 94.6837C152.6 95.0704 152.423 95.4293 152.147 95.7054C152.014 95.8362 151.85 95.9322 151.671 95.9851C151.492 96.0379 151.302 96.0459 151.119 96.0084C151.215 95.5058 151.114 94.9858 150.837 94.5557C150.56 94.1256 150.128 93.8182 149.632 93.697C149.135 93.5758 148.61 93.6501 148.166 93.9044C147.722 94.1588 147.393 94.5738 147.247 95.0639C147.16 95.4188 147.153 95.7884 147.225 96.1465C147.296 96.5047 147.446 96.8428 147.662 97.137C148.104 97.7229 148.675 98.1987 149.332 98.5269C149.706 98.6505 150.111 98.6392 150.478 98.4949C150.845 98.3505 151.15 98.0824 151.339 97.7369C153.282 100.196 156.685 102.037 159.828 101.776C160.696 101.725 161.533 101.429 162.239 100.921C163.427 99.9941 163.522 98.5982 163.677 97.2142C163.9 95.4641 163.886 93.6918 163.635 91.9454C163.314 89.5049 162.134 87.2584 160.309 85.6074C159.222 90.8406 154.44 92.7711 152.581 93.1572Z" fill="#FFA8A7"/>
<path d="M159.18 92.5576L161.348 95.2306L159.328 95.9256L159.18 92.5576Z" fill="#F28F8F"/>
<path d="M157.481 97.2266L159.168 97.7612C159.059 97.9607 158.889 98.1192 158.682 98.2126C158.474 98.3059 158.243 98.3288 158.021 98.2779C157.824 98.1921 157.662 98.0405 157.563 97.8488C157.465 97.6572 157.435 97.4373 157.481 97.2266Z" fill="#F28F8F"/>
<path opacity="0.3" d="M157.481 97.2266L159.168 97.7612C159.059 97.9607 158.889 98.1192 158.682 98.2126C158.474 98.3059 158.243 98.3288 158.021 98.2779C157.824 98.1921 157.662 98.0405 157.563 97.8488C157.465 97.6572 157.435 97.4373 157.481 97.2266Z" fill="black"/>
<path d="M158.598 98.2477C158.418 98.3035 158.225 98.3035 158.045 98.2477C157.889 98.1892 157.753 98.0848 157.657 97.9481C157.56 97.8114 157.507 97.6488 157.505 97.4815C157.729 97.4445 157.958 97.4887 158.152 97.6062C158.267 97.6766 158.366 97.77 158.442 97.8804C158.519 97.9908 158.572 98.1159 158.598 98.2477Z" fill="#F28F8F"/>
<path d="M156.222 93.115C156.229 93.2307 156.269 93.3419 156.339 93.4347C156.408 93.5276 156.503 93.5982 156.612 93.6377C156.721 93.6773 156.839 93.6841 156.952 93.6573C157.065 93.6305 157.167 93.5713 157.247 93.487C157.326 93.4026 157.379 93.2969 157.4 93.1828C157.42 93.0686 157.406 92.951 157.36 92.8446C157.315 92.7381 157.239 92.6473 157.142 92.5835C157.045 92.5197 156.932 92.4856 156.816 92.4854C156.735 92.4852 156.654 92.5017 156.58 92.5337C156.505 92.5658 156.438 92.6127 156.383 92.6717C156.327 92.7307 156.284 92.8005 156.256 92.8767C156.229 92.953 156.217 93.034 156.222 93.115Z" fill="#263238"/>
<path d="M161.235 92.6941C161.242 92.8098 161.283 92.9209 161.352 93.0138C161.422 93.1067 161.517 93.1773 161.626 93.2168C161.735 93.2564 161.853 93.2632 161.966 93.2364C162.078 93.2096 162.181 93.1504 162.26 93.0661C162.34 92.9817 162.393 92.876 162.413 92.7618C162.433 92.6477 162.42 92.5301 162.374 92.4237C162.328 92.3172 162.252 92.2264 162.155 92.1626C162.059 92.0988 161.945 92.0647 161.829 92.0645C161.748 92.0643 161.668 92.0808 161.594 92.1128C161.519 92.1449 161.452 92.1918 161.396 92.2508C161.341 92.3098 161.298 92.3796 161.27 92.4558C161.242 92.532 161.231 92.6131 161.235 92.6941Z" fill="#263238"/>
<path d="M161.71 90.2876L163.082 91.1489C163.134 90.9821 163.132 90.8034 163.078 90.6374C163.024 90.4714 162.919 90.3264 162.779 90.2223C162.613 90.1318 162.424 90.0899 162.235 90.1015C162.046 90.113 161.864 90.1775 161.71 90.2876Z" fill="#263238"/>
<path d="M156.555 90.4305L155.266 91.4166C155.198 91.2546 155.182 91.0757 155.221 90.9045C155.259 90.7332 155.349 90.578 155.479 90.4602C155.638 90.3551 155.823 90.2967 156.013 90.2914C156.203 90.2862 156.39 90.3344 156.555 90.4305Z" fill="#263238"/>
<path d="M199.536 94.2977C199.772 93.874 200.119 93.5228 200.54 93.282L222.417 80.8733C223.605 80.1843 226.474 81.1168 226.474 83.0592V98.7883C226.475 99.2624 226.35 99.7281 226.112 100.138C225.874 100.548 225.532 100.888 225.12 101.123L214.933 106.92L216.341 106.118L215.455 108.613C215.45 108.631 215.441 108.648 215.429 108.662C215.417 108.676 215.402 108.688 215.386 108.696C215.369 108.705 215.351 108.709 215.332 108.71C215.313 108.711 215.295 108.709 215.277 108.702C215.123 108.619 214.434 108.251 214.036 107.989L214 107.954L213.786 107.603L203.273 113.484C202.876 113.731 202.421 113.869 201.954 113.883C201.487 113.898 201.024 113.79 200.613 113.569C200.201 113.347 199.855 113.022 199.61 112.624C199.365 112.226 199.229 111.771 199.216 111.304V95.6342C199.205 95.1684 199.315 94.7079 199.536 94.2977Z" fill="#9135AB"/>
<path opacity="0.2" d="M213.97 107.966L214.006 108.001C214.404 108.263 215.093 108.631 215.247 108.714C215.229 108.711 215.212 108.704 215.196 108.694C215.181 108.684 215.168 108.67 215.158 108.655L214.309 107.271L214.475 107.176L213.727 107.603L213.97 107.966Z" fill="white"/>
<path opacity="0.4" d="M202.209 95.8124C202.383 95.4645 202.628 95.1569 202.928 94.9095C203.031 94.8275 203.14 94.754 203.255 94.6897L225.126 82.2811C225.262 82.203 225.416 82.1622 225.574 82.1626C225.731 82.1631 225.885 82.2048 226.021 82.2836C226.157 82.3624 226.27 82.4755 226.348 82.6116C226.427 82.7477 226.468 82.9021 226.468 83.0592C226.468 81.1168 223.617 80.1843 222.411 80.8733L200.54 93.2582C200.119 93.499 199.772 93.8502 199.536 94.2739L202.209 95.8124Z" fill="white"/>
<path opacity="0.2" d="M201.906 112.718V97.0184C201.9 96.9115 201.9 96.8044 201.906 96.6976C201.951 96.3886 202.047 96.0893 202.191 95.8126L199.518 94.2979C199.291 94.6982 199.171 95.1502 199.168 95.6106V111.316C199.181 111.783 199.317 112.238 199.562 112.636C199.808 113.034 200.154 113.359 200.565 113.581C200.977 113.802 201.44 113.91 201.907 113.895C202.374 113.881 202.828 113.743 203.225 113.496C203.09 113.57 202.937 113.608 202.783 113.605C202.629 113.603 202.477 113.56 202.345 113.482C202.212 113.403 202.101 113.292 202.024 113.158C201.948 113.024 201.907 112.872 201.906 112.718Z" fill="white"/>
<path d="M214.589 94.4404L214.612 101.717L212.818 102.75L212.812 99.9112L210.365 101.325L210.377 104.164L208.589 105.192L208.571 97.9153L210.353 96.8877L210.365 99.6142L212.807 98.2064L212.801 95.474L214.589 94.4404Z" fill="white"/>
<path d="M216.643 94.2796C216.014 94.6419 215.592 94.4281 215.586 93.8341C215.612 93.492 215.721 93.1614 215.904 92.8715C216.088 92.5815 216.339 92.3409 216.637 92.1709C217.267 91.8085 217.689 91.9927 217.689 92.5867C217.67 92.9339 217.565 93.2709 217.382 93.5667C217.2 93.8626 216.946 94.1077 216.643 94.2796Z" fill="white"/>
<path d="M215.8 101.033L215.782 95.4022L217.505 94.4043L217.523 100.035L215.8 101.033Z" fill="white"/>
<path d="M220.118 95.8779L218.752 96.6738L218.401 92.2367L220.445 91.0605L220.118 95.8779Z" fill="white"/>
<path d="M219.435 96.8639C220.029 96.5075 220.462 96.7214 220.462 97.3391C220.444 97.6818 220.34 98.0145 220.162 98.3077C219.984 98.6009 219.736 98.8457 219.441 99.0201C218.847 99.3706 218.419 99.1211 218.413 98.5212C218.433 98.182 218.537 97.8531 218.715 97.5639C218.894 97.2747 219.141 97.0342 219.435 96.8639Z" fill="white"/>
<path d="M219.988 160.737L223.938 168.412L220.374 174.453L224.366 180.767L230.395 171.411C230.797 170.776 231.057 170.061 231.16 169.316C231.262 168.572 231.204 167.813 230.989 167.093C229.961 163.444 228.65 159.882 227.069 156.437L219.988 160.737Z" fill="#FFA8A7"/>
<path opacity="0.2" d="M223.208 158.782L219.988 160.736L223.006 166.564L223.184 159.703C223.196 159.4 223.202 159.091 223.208 158.782Z" fill="black"/>
<path d="M216.811 145.904C221.384 145.055 223.998 146.581 227.865 156.923C226.285 160.487 219.59 161.77 219.59 161.77L216.811 145.904Z" fill="#9135AB"/>
<path opacity="0.2" d="M222.697 154.161C221.782 151.346 219.466 149.296 217.102 147.455L219.608 161.77C220.826 161.507 222.018 161.139 223.172 160.672C223.172 160.351 223.172 160.024 223.172 159.703C223.238 157.844 223.279 155.937 222.697 154.161Z" fill="black"/>
<path d="M209.783 254.291C209.409 255.076 208.221 255.8 206.926 256.014C205.614 256.127 204.293 256.042 203.006 255.765C201.068 255.492 199.105 255.443 197.155 255.616C195.948 255.775 194.731 255.861 193.514 255.872C192.287 255.886 191.088 255.507 190.092 254.79C189.405 254.249 188.946 253.469 188.809 252.604C188.75 253.168 188.837 253.737 189.061 254.258C189.286 254.778 189.641 255.231 190.092 255.575C191.089 256.29 192.287 256.671 193.514 256.662C194.731 256.646 195.947 256.558 197.155 256.4C199.105 256.23 201.067 256.279 203.006 256.549C204.307 256.733 205.72 257.101 207.015 256.887C208.31 256.673 209.498 255.949 209.872 255.165L209.783 254.291Z" fill="#263238"/>
<path d="M195.58 251.975C196.673 251.975 196.269 250.359 197.309 249.278C196.887 249.278 196.46 249.278 196.038 249.278C195.105 250.668 194.832 251.975 195.58 251.975Z" fill="white"/>
<path d="M197.85 251.892C198.949 251.892 198.658 249.967 199.739 248.845C199.49 248.928 199.24 248.999 198.991 249.059C198.777 249.106 198.557 249.142 198.343 249.171C197.381 250.538 197.102 251.892 197.85 251.892Z" fill="white"/>
<path d="M208.655 248.198C208.573 247.839 208.361 247.524 208.061 247.313L202.162 247.164C201.53 247.953 200.679 248.538 199.715 248.845C198.634 249.968 198.925 251.892 197.826 251.892C197.078 251.892 197.357 250.538 198.319 249.172C197.975 249.225 197.63 249.255 197.286 249.279C196.246 250.36 196.65 251.975 195.557 251.975C194.821 251.975 195.082 250.651 196.014 249.308H195.189C194.939 249.308 194.684 249.308 194.434 249.267C192.266 250.978 192.058 252.831 192.361 255.765C192.734 255.829 193.112 255.867 193.49 255.878C194.708 255.867 195.924 255.782 197.131 255.623C199.081 255.449 201.044 255.499 202.982 255.771C204.269 256.049 205.591 256.133 206.903 256.021C208.197 255.807 209.385 255.082 209.76 254.298L208.655 248.198Z" fill="#455A64"/>
<path d="M194.458 249.26C193.475 249.098 192.472 249.098 191.488 249.26C190.883 249.378 190.318 249.653 189.852 250.058C189.387 250.462 189.035 250.982 188.833 251.565C188.748 251.905 188.734 252.259 188.791 252.605C188.929 253.469 189.387 254.249 190.074 254.791C190.746 255.299 191.534 255.632 192.367 255.759C192.1 252.836 192.29 250.971 194.458 249.26Z" fill="white"/>
<path d="M202.02 245.482V248.322C202.02 248.637 202.145 248.939 202.367 249.162C202.59 249.385 202.892 249.51 203.208 249.51H206.178C206.675 249.51 207.152 249.317 207.509 248.971C207.866 248.625 208.075 248.153 208.09 247.656L208.161 245.5L202.02 245.482Z" fill="#FFA8A7"/>
<path d="M221.675 244.218C221.514 244.564 221.265 244.863 220.952 245.083C220.639 245.303 220.274 245.437 219.893 245.471C219.099 245.527 218.307 245.332 217.63 244.913C216.602 244.265 216.204 243.243 215.509 242.323C214.779 241.428 213.95 240.619 213.038 239.911C212.052 239.19 211.24 238.256 210.662 237.179C210.519 236.86 210.425 236.522 210.383 236.175C210.293 236.83 210.39 237.497 210.662 238.099C211.24 239.177 212.052 240.111 213.038 240.832C213.949 241.542 214.778 242.35 215.509 243.243C216.204 244.164 216.602 245.186 217.63 245.833C218.306 246.255 219.098 246.451 219.893 246.392C220.274 246.357 220.639 246.224 220.952 246.004C221.265 245.784 221.514 245.485 221.675 245.138C221.799 244.619 221.837 244.084 221.788 243.552C221.789 243.779 221.751 244.004 221.675 244.218Z" fill="#263238"/>
<path d="M214.975 237.981C214.872 238.121 214.821 238.294 214.833 238.468C214.851 238.551 214.889 238.628 214.946 238.691C215.002 238.755 215.073 238.803 215.153 238.831C215.27 238.86 215.392 238.86 215.508 238.83C215.625 238.8 215.731 238.741 215.819 238.658C215.988 238.491 216.142 238.308 216.276 238.112C216.672 237.611 217.198 237.229 217.797 237.007C218.089 236.898 218.395 236.83 218.706 236.805L217.963 236.134C217.499 236.158 217.044 236.269 216.621 236.46C215.928 236.785 215.354 237.317 214.975 237.981Z" fill="white"/>
<path d="M215.129 235.634C214.44 235.959 213.868 236.487 213.49 237.148C213.383 237.287 213.33 237.46 213.341 237.636C213.361 237.719 213.402 237.796 213.459 237.861C213.516 237.925 213.588 237.974 213.668 238.004C213.784 238.034 213.905 238.033 214.02 238.003C214.136 237.973 214.241 237.914 214.327 237.832C214.499 237.665 214.654 237.482 214.791 237.285C215.184 236.783 215.708 236.398 216.305 236.174C216.783 236.004 217.291 235.937 217.796 235.978L217.066 235.313C216.403 235.246 215.735 235.357 215.129 235.634Z" fill="white"/>
<path d="M216.602 234.898C215.932 234.243 215.146 233.718 214.285 233.348C213.766 233.12 213.193 233.04 212.631 233.118C212.069 233.195 211.54 233.427 211.102 233.787C210.808 234.102 210.592 234.48 210.471 234.892C210.349 235.305 210.325 235.74 210.401 236.163C210.443 236.51 210.537 236.849 210.68 237.167C210.869 237.585 211.115 237.975 211.411 238.325C211.69 235.819 213.899 234.631 216.602 234.898Z" fill="white"/>
<path d="M221.735 241.723C221.742 240.86 221.538 240.007 221.141 239.24L219.709 237.738L218.688 236.805C218.377 236.83 218.071 236.898 217.779 237.007C217.18 237.229 216.654 237.611 216.258 238.112C216.123 238.308 215.97 238.491 215.801 238.658C215.713 238.741 215.606 238.8 215.49 238.83C215.374 238.86 215.252 238.86 215.135 238.831C215.055 238.803 214.984 238.755 214.928 238.691C214.871 238.628 214.832 238.551 214.815 238.468C214.803 238.294 214.854 238.121 214.957 237.981C215.336 237.317 215.91 236.785 216.603 236.46C217.026 236.269 217.481 236.158 217.945 236.134L217.779 235.979C217.273 235.938 216.765 236.005 216.288 236.175C215.69 236.4 215.166 236.784 214.773 237.286C214.637 237.483 214.482 237.666 214.31 237.833C214.224 237.915 214.118 237.974 214.002 238.004C213.887 238.034 213.766 238.035 213.65 238.005C213.57 237.975 213.498 237.926 213.441 237.862C213.384 237.797 213.344 237.72 213.324 237.637C213.312 237.462 213.365 237.288 213.472 237.149C213.85 236.488 214.423 235.96 215.112 235.635C215.717 235.358 216.386 235.247 217.048 235.314L216.609 234.922C213.906 234.631 211.696 235.819 211.417 238.361C211.908 238.935 212.451 239.461 213.039 239.935C213.949 240.646 214.776 241.457 215.504 242.353C216.199 243.274 216.597 244.295 217.624 244.943C218.301 245.362 219.093 245.557 219.887 245.501C220.268 245.467 220.633 245.333 220.946 245.113C221.259 244.893 221.508 244.595 221.669 244.248C221.745 244.034 221.784 243.809 221.782 243.583C221.801 242.962 221.785 242.342 221.735 241.723Z" fill="#455A64"/>
<path d="M216.561 237.232L216.727 240.286C218.651 241.39 220.677 240.791 221.354 240.084L221.479 237.232H216.561Z" fill="#FFA8A7"/>
<path d="M220.374 171.298C220.209 170.97 220.11 170.613 220.083 170.246L219.923 167.627L201.265 168.815C201.021 170.122 200.772 171.726 200.522 173.567C207.192 175.302 214.268 174.493 220.374 171.298Z" fill="#FFA8A7"/>
<path d="M208.269 147.122L203.273 148.102C202.174 150.122 201.046 152.017 199.941 154.042C199.115 155.563 198.26 157.178 198.319 158.913C198.358 159.637 198.554 160.345 198.893 160.986C199.233 161.627 199.708 162.186 200.285 162.625C200.589 162.843 200.832 163.135 200.991 163.473C201.15 163.81 201.22 164.183 201.194 164.556L200.737 170.033C208.572 172.409 218.153 170.324 220.262 168.506C220.856 165.649 221.45 162.614 222.044 159.756C222.703 156.709 223.368 153.632 222.418 150.448C222.247 149.875 221.995 149.329 221.669 148.827C221.02 147.793 220.08 146.973 218.968 146.47C217.856 145.966 216.62 145.8 215.415 145.993L208.269 147.122Z" fill="#9135AB"/>
<path opacity="0.2" d="M200.072 153.805L199.947 154.036C199.115 155.557 198.26 157.173 198.319 158.907C198.358 159.632 198.554 160.339 198.893 160.98C199.233 161.621 199.708 162.181 200.285 162.62C200.589 162.837 200.832 163.129 200.991 163.467C201.15 163.805 201.22 164.178 201.194 164.55L201.04 166.38C202.608 163.303 204.717 158.83 205.608 155.533L200.072 153.805Z" fill="black"/>
<path d="M220.642 171.773C220.53 171.624 220.432 171.465 220.35 171.298C214.243 174.489 207.167 175.294 200.499 173.555C199.097 184.021 197.885 201.74 198.628 213.43C199.222 227.045 201.752 246.314 201.752 246.314C205.019 247.294 207.467 246.694 208.393 245.987C209.48 232.486 211.874 223.231 210.027 214.303C211.256 208.061 212.058 200.22 212.058 200.22L213.003 214.012L216.216 238.259C217.114 238.719 218.117 238.934 219.124 238.883C220.132 238.832 221.108 238.516 221.954 237.968C224.277 224.104 225.15 214.707 223.113 207.829C226.19 185.079 226.35 179.257 220.642 171.773Z" fill="#455A64"/>
<path opacity="0.3" d="M213.431 197.494L215.141 190.312C217.137 189.986 220.262 188.679 221.901 185.94C219.538 187.804 216.63 188.841 213.621 188.893L212.059 200.22L212.391 205.079L212.522 203.297C212.674 201.342 212.977 199.402 213.431 197.494Z" fill="black"/>
<path d="M202.186 133.704C201.444 132.29 201.105 130.7 201.206 129.106C201.268 128.313 201.52 127.547 201.939 126.871C202.359 126.195 202.935 125.629 203.618 125.222C204.317 124.84 205.124 124.706 205.909 124.843C206.693 124.981 207.408 125.38 207.936 125.976C209.205 125.279 210.638 124.939 212.085 124.991C213.531 125.044 214.936 125.487 216.151 126.274C217.366 127.061 218.345 128.163 218.984 129.462C219.623 130.76 219.898 132.208 219.78 133.65C219.674 135.302 219.068 136.929 219.258 138.575C219.365 139.543 219.745 140.523 219.495 141.462C219.37 141.851 219.165 142.21 218.894 142.517C218.624 142.824 218.292 143.071 217.921 143.244C217.202 143.624 215.516 143.523 214.72 143.689C212.284 145.899 209.231 145.073 207.283 143.095C205.334 141.117 202.186 133.704 202.186 133.704Z" fill="#37474F"/>
<path d="M201.681 135.901L200.16 138.545L201.823 139.156L201.681 135.901Z" fill="#FF9192"/>
<path d="M201.509 134.726C201.753 132.403 202.43 130.223 203.939 129.112C203.53 132.002 204.146 134.944 205.679 137.428C205.83 136.664 206.224 135.968 206.802 135.444C207.082 135.173 207.432 134.986 207.813 134.904C208.195 134.822 208.591 134.849 208.958 134.981C209.463 135.218 209.854 135.645 210.045 136.169C210.246 136.669 210.3 137.216 210.2 137.745C210.099 138.275 209.849 138.764 209.479 139.156C209.109 139.547 208.634 139.824 208.111 139.954C207.588 140.084 207.039 140.061 206.528 139.887C206.738 140.917 207.243 141.863 207.981 142.611C208.72 143.359 209.66 143.876 210.686 144.099C212.037 144.372 213.439 144.238 214.714 143.713L215.343 146.837C212.801 149.546 208.453 147.728 208.453 147.728L207.859 144.651C202.857 144.948 202.388 144.865 201.842 142.109C201.392 139.675 201.28 137.19 201.509 134.726Z" fill="#FFA8A7"/>
<path opacity="0.3" d="M212.581 131.357C213.288 129.344 214.702 127.655 216.561 126.605C217.625 127.434 218.473 128.507 219.033 129.734C219.594 130.96 219.85 132.304 219.78 133.65C219.674 135.302 219.068 136.929 219.258 138.575C219.365 139.543 219.745 140.523 219.495 141.461C219.37 141.851 219.165 142.21 218.894 142.517C218.624 142.823 218.292 143.071 217.921 143.243C217.202 143.624 215.516 143.523 214.72 143.689C214.613 143.784 214.506 143.867 214.399 143.95C213.55 142.337 212.886 140.634 212.421 138.872C211.735 136.406 211.791 133.792 212.581 131.357Z" fill="black"/>
<path d="M213.971 129.623C214.362 128.325 215.156 127.187 216.239 126.372C217.321 125.557 218.636 125.109 219.99 125.092C221.345 125.076 222.67 125.492 223.772 126.28C224.874 127.068 225.696 128.187 226.119 129.474C227.627 134.036 223.743 138.895 224.61 143.629C224.913 145.334 225.798 146.884 226.124 148.589C226.304 149.575 226.281 150.587 226.055 151.563C225.829 152.539 225.406 153.459 224.812 154.265C224.218 155.072 223.465 155.749 222.6 156.254C221.735 156.759 220.775 157.082 219.781 157.202C220.868 156.014 220.885 154.155 220.268 152.664C219.65 151.173 218.545 149.943 217.595 148.637C213.757 143.368 212.059 135.86 213.971 129.623Z" fill="#37474F"/>
<path d="M203.273 148.102C197.927 149.183 192.539 162.827 192.539 162.827L187.449 148.571L188.542 143.225C188.602 142.918 188.577 142.6 188.471 142.305L187.283 138.984C187.225 138.824 187.11 138.69 186.96 138.608C186.81 138.526 186.635 138.501 186.469 138.539C186.375 138.56 186.286 138.6 186.209 138.657C186.131 138.714 186.066 138.786 186.017 138.869C185.968 138.951 185.936 139.043 185.924 139.139C185.912 139.234 185.919 139.331 185.946 139.424L186.855 142.471L185.411 139.733C185.353 139.621 185.273 139.523 185.175 139.443C185.078 139.363 184.966 139.303 184.845 139.267C184.725 139.231 184.598 139.22 184.473 139.233C184.348 139.247 184.227 139.285 184.117 139.347L182.952 139.976C182.736 140.095 182.575 140.295 182.505 140.532C182.435 140.769 182.461 141.024 182.578 141.241L183.837 143.617C182.412 147.704 183.689 148.898 183.689 148.898L186.1 164.051C186.329 165.487 187.003 166.816 188.028 167.848C189.052 168.881 190.374 169.566 191.809 169.807C193.148 170.031 194.524 169.857 195.765 169.307C197.007 168.757 198.06 167.855 198.794 166.712C206.665 154.529 211.031 146.718 203.273 148.102Z" fill="#FFA8A7"/>
<path opacity="0.2" d="M191.732 165.727C191.905 164.746 192.175 163.785 192.539 162.858L191.945 161.123C191.543 161.817 191.313 162.597 191.276 163.399C191.239 164.2 191.395 164.998 191.732 165.727Z" fill="black"/>
<path d="M203.273 148.103C200.897 148.756 198.319 149.997 194.648 157.203C195.058 162.4 202.727 161.093 202.727 161.093C204.752 157.232 206.932 153.205 207.36 151.316C208.079 148.162 206.641 147.431 203.273 148.103Z" fill="#9135AB"/>
</svg>
