<svg width="727" height="586" viewBox="0 0 727 586" fill="none" xmlns="http://www.w3.org/2000/svg">
<g id="Group">
<g id="Shape">
<path id="Rectangle" opacity="0.150019" fill-rule="evenodd" clip-rule="evenodd" d="M524.182 244.584C520.265 240.677 520.265 234.332 524.182 230.425L614.674 140.155C618.578 136.261 624.896 136.261 628.799 140.155L719.291 230.425C723.208 234.332 723.208 240.677 719.291 244.584L628.799 334.854C624.896 338.748 618.578 338.748 614.674 334.854L524.182 244.584Z" fill="#A233F1"/>
<g id="Rectangle_2" opacity="0.0375744" filter="url(#filter0_f)">
<path fill-rule="evenodd" clip-rule="evenodd" d="M215.202 80.6601C211.285 76.7529 211.285 70.4079 215.202 66.5006L265.623 16.2036C269.526 12.3099 275.844 12.3099 279.747 16.2036L330.168 66.5007C334.085 70.4079 334.085 76.7529 330.168 80.6601L279.747 130.957C275.844 134.851 269.526 134.851 265.623 130.957L215.202 80.6601Z" fill="#6038FB"/>
</g>
<path id="Rectangle_3" opacity="0.0659412" fill-rule="evenodd" clip-rule="evenodd" d="M267.675 249.654C263.758 245.747 263.758 239.402 267.675 235.494L455.714 47.9174C459.617 44.0238 465.935 44.0237 469.839 47.9174L657.877 235.494C661.794 239.402 661.794 245.747 657.877 249.654L469.839 437.231C465.935 441.125 459.617 441.125 455.714 437.231L267.675 249.654Z" fill="#6D1E84"/>
<path id="Rectangle_4" opacity="0.0895647" fill-rule="evenodd" clip-rule="evenodd" d="M142.981 245.474C138.745 241.238 131.869 241.246 127.623 245.492L7.68814 365.427C3.4421 369.673 3.43365 376.549 7.66927 380.785L127.31 500.425C131.546 504.661 138.421 504.653 142.667 500.407L262.602 380.472C266.848 376.226 266.857 369.35 262.621 365.114L142.981 245.474ZM61.4294 373.04L135.236 299.234L208.861 372.859L135.054 446.665L61.4294 373.04Z" fill="#EC1383"/>
</g>
<g id="Office Desk">
<g id="Group 11">
<path id="Path" fill-rule="evenodd" clip-rule="evenodd" d="M200.529 351.504L200.529 495.272L200.675 495.13L200.641 502.261L283.309 584.456H272.29L200.529 513.071L200.529 584.416H191.825L191.824 515.793L122.844 584.456H110.736L191.824 503.812L191.825 351.504H200.529Z" fill="url(#paint0_linear)"/>
<path id="Rectangle_5" fill-rule="evenodd" clip-rule="evenodd" d="M216.85 496.904C216.85 494.143 214.611 491.904 211.85 491.904H181.592C178.83 491.904 176.592 494.143 176.592 496.904V504.318C176.592 507.08 178.83 509.318 181.592 509.318H211.85C214.611 509.318 216.85 507.08 216.85 504.318V496.904Z" fill="#C8DAFF"/>
</g>
<g id="Mini Board">
<path id="Rectangle_6" fill-rule="evenodd" clip-rule="evenodd" d="M128.486 148.504H281.038C283.891 148.504 286.204 150.809 286.204 153.651V408.105C286.204 410.868 284.018 413.123 281.274 413.246L281.018 413.251L128.466 412.66C125.621 412.649 123.32 410.348 123.32 407.514V153.651C123.32 150.809 125.633 148.504 128.486 148.504Z" fill="#6D1E84"/>
<path id="Rectangle_7" fill-rule="evenodd" clip-rule="evenodd" d="M121.015 148.504H273.566C276.419 148.504 278.732 150.809 278.732 153.651V408.105C278.732 410.868 276.546 413.123 273.802 413.246L273.546 413.251L120.995 412.66C118.149 412.649 115.849 410.348 115.849 407.514V153.651C115.849 150.809 118.162 148.504 121.015 148.504Z" fill="#FFC7FA"/>
<path id="Rectangle_8" fill-rule="evenodd" clip-rule="evenodd" d="M128.378 153.821H265.992C269.256 153.821 271.902 156.457 271.902 159.709V399.94C271.902 403.192 269.256 405.828 265.992 405.828H128.378C125.114 405.828 122.468 403.192 122.468 399.94V159.709C122.468 156.457 125.114 153.821 128.378 153.821Z" fill="white"/>
<path id="Rectangle_9" fill-rule="evenodd" clip-rule="evenodd" d="M171.567 398.385H213.196C215.554 398.385 217.465 400.289 217.465 402.638V416.461H171.567C169.209 416.461 167.298 414.557 167.298 412.208V402.638C167.298 400.289 169.209 398.385 171.567 398.385Z" fill="#A7C3FF"/>
<path id="Rectangle_10" fill-rule="evenodd" clip-rule="evenodd" d="M216.397 412.208H220.667V416.461H216.397V412.208Z" fill="#A7C3FF"/>
<path id="Rectangle_11" fill-rule="evenodd" clip-rule="evenodd" d="M169.433 398.385H211.061C213.419 398.385 215.33 400.289 215.33 402.638V412.208C215.33 414.557 213.419 416.461 211.061 416.461H169.433C167.075 416.461 165.163 414.557 165.163 412.208V402.638C165.163 400.289 167.075 398.385 169.433 398.385Z" fill="#C8DAFF"/>
</g>
<g id="Group 61">
<rect id="Rectangle_12" x="349.008" y="179.504" width="67.6534" height="77.7504" rx="6" fill="#91D6FF"/>
<rect id="Rectangle_13" x="343.736" y="179.504" width="67.6534" height="77.7504" rx="6" fill="#E3F4FF"/>
<path id="Rectangle_14" fill-rule="evenodd" clip-rule="evenodd" d="M351.644 192.677C351.644 190.468 353.434 188.677 355.644 188.677H399.482C401.691 188.677 403.482 190.468 403.482 192.677V244.519C403.482 246.728 401.691 248.519 399.482 248.519H355.644C353.434 248.519 351.644 246.728 351.644 244.519V192.677Z" fill="white"/>
<path id="Rectangle_15" d="M351.644 192.677C351.644 190.468 353.434 188.677 355.644 188.677H356.915V248.519H355.644C353.434 248.519 351.644 246.728 351.644 244.519V192.677Z" fill="#91D6FF"/>
<path id="Path 127" fill-rule="evenodd" clip-rule="evenodd" d="M394 232.383C394.31 232.383 394.504 232.048 394.35 231.78L377.042 201.622C376.885 201.349 376.49 201.353 376.339 201.628L359.738 231.786C359.59 232.055 359.785 232.383 360.091 232.383H394Z" fill="#83F2D5"/>
<path id="Path 127_2" opacity="0.44687" fill-rule="evenodd" clip-rule="evenodd" d="M396.177 220.639C396.487 220.639 396.681 220.303 396.526 220.034L387.141 203.784C386.984 203.512 386.591 203.516 386.439 203.79L377.438 220.04C377.289 220.309 377.484 220.639 377.791 220.639H396.177Z" fill="#63CBE8"/>
</g>
<g id="Group 61_2">
<rect id="Rectangle_16" x="446.008" y="179.504" width="67.6534" height="77.7504" rx="6" fill="#91D6FF"/>
<rect id="Rectangle_17" x="440.736" y="179.504" width="67.6534" height="77.7504" rx="6" fill="#E3F4FF"/>
<path id="Rectangle_18" fill-rule="evenodd" clip-rule="evenodd" d="M448.644 192.677C448.644 190.468 450.434 188.677 452.644 188.677H496.482C498.691 188.677 500.482 190.468 500.482 192.677V244.519C500.482 246.728 498.691 248.519 496.482 248.519H452.644C450.434 248.519 448.644 246.728 448.644 244.519V192.677Z" fill="white"/>
<rect id="Rectangle_19" x="460.944" y="208.333" width="25.9191" height="25.7712" rx="0.4032" fill="#83F2D5"/>
<rect id="Rectangle_20" opacity="0.44687" x="475.002" y="198.287" width="19.7688" height="19.656" rx="0.4032" fill="#63CBE8"/>
<path id="Rectangle_21" d="M448.644 192.677C448.644 190.468 450.434 188.677 452.644 188.677H453.915V248.519H452.644C450.434 248.519 448.644 246.728 448.644 244.519V192.677Z" fill="#91D6FF"/>
</g>
<g id="Group 61_3">
<rect id="Rectangle_22" x="542.008" y="179.504" width="67.6534" height="77.7504" rx="6" fill="#91D6FF"/>
<rect id="Rectangle_23" x="536.736" y="179.504" width="67.6534" height="77.7504" rx="6" fill="#E3F4FF"/>
<path id="Rectangle_24" fill-rule="evenodd" clip-rule="evenodd" d="M544.644 192.677C544.644 190.468 546.434 188.677 548.644 188.677H592.482C594.691 188.677 596.482 190.468 596.482 192.677V244.519C596.482 246.728 594.691 248.519 592.482 248.519H548.644C546.434 248.519 544.644 246.728 544.644 244.519V192.677Z" fill="white"/>
<ellipse id="Oval" cx="571.221" cy="221.219" rx="18.2313" ry="18.1272" fill="#83F2D5"/>
<ellipse id="Oval_2" opacity="0.44687" cx="580.009" cy="206.804" rx="9.44511" ry="9.3912" fill="#63CBE8"/>
<path id="Rectangle_25" d="M544.644 192.677C544.644 190.468 546.434 188.677 548.644 188.677H549.915V248.519H548.644C546.434 248.519 544.644 246.728 544.644 244.519V192.677Z" fill="#91D6FF"/>
</g>
<g id="ElementCard25">
<g id="Rectangle_26" filter="url(#filter1_dd)">
<path fill-rule="evenodd" clip-rule="evenodd" d="M102.736 323.893C102.736 320.917 105.149 318.504 108.125 318.504H254.217C257.193 318.504 259.606 320.917 259.606 323.893V371.404C259.606 374.38 257.193 376.793 254.217 376.793H108.125C105.149 376.793 102.736 374.38 102.736 371.404V323.893Z" fill="white"/>
</g>
<path id="Rectangle_27" opacity="0.465472" d="M153.851 352.653C153.851 351.678 154.641 350.887 155.617 350.887H184.986C185.961 350.887 186.752 351.678 186.752 352.653C186.752 353.629 185.961 354.42 184.986 354.42H155.617C154.641 354.42 153.851 353.629 153.851 352.653Z" fill="#FFBF29"/>
<path id="Rectangle_28" d="M153.851 342.644C153.851 341.669 154.641 340.878 155.617 340.878H173.235C174.211 340.878 175.002 341.669 175.002 342.644C175.002 343.62 174.211 344.41 173.235 344.41H155.617C154.641 344.41 153.851 343.62 153.851 342.644Z" fill="#FFBF29"/>
<ellipse id="Oval_3" cx="131.819" cy="348.237" rx="12.0443" ry="12.0698" fill="#FFBF29"/>
</g>
<g id="ElementCard3">
<g id="Rectangle_29" filter="url(#filter2_dd)">
<path fill-rule="evenodd" clip-rule="evenodd" d="M102.736 175.504C102.736 171.086 106.318 167.504 110.736 167.504H251.213C255.631 167.504 259.213 171.086 259.213 175.504V291.719C259.213 296.138 255.631 299.719 251.213 299.719H110.736C106.318 299.719 102.736 296.138 102.736 291.719V175.504Z" fill="white"/>
</g>
<mask id="mask0" mask-type="alpha" maskUnits="userSpaceOnUse" x="102" y="167" width="158" height="133">
<path id="Rectangle_30" fill-rule="evenodd" clip-rule="evenodd" d="M102.736 175.504C102.736 171.086 106.318 167.504 110.736 167.504H251.213C255.631 167.504 259.213 171.086 259.213 175.504V291.719C259.213 296.138 255.631 299.719 251.213 299.719H110.736C106.318 299.719 102.736 296.138 102.736 291.719V175.504Z" fill="white"/>
</mask>
<g mask="url(#mask0)">
<ellipse id="Oval_4" cx="228.773" cy="183.639" rx="3.05278" ry="3.05246" fill="white"/>
<ellipse id="Oval_5" cx="237.494" cy="183.639" rx="3.05278" ry="3.05246" fill="white"/>
<ellipse id="Oval_6" cx="246.217" cy="183.639" rx="3.05278" ry="3.05246" fill="white"/>
<g id="Group 98">
<g id="Group 97" opacity="0.5">
<rect id="Rectangle 38" opacity="0.5" x="116.236" y="233.504" width="127.74" height="3.42466" fill="#3E7BE5"/>
<rect id="Rectangle 39" opacity="0.5" x="116.236" y="239.326" width="127.74" height="3.42466" fill="#3B4ACF"/>
<rect id="Rectangle 40" opacity="0.5" x="116.236" y="245.148" width="34.2466" height="3.42466" fill="#B19FF0"/>
<rect id="Rectangle 41" opacity="0.5" x="116.236" y="250.97" width="51.3699" height="3.42466" fill="#3E7BE5"/>
<rect id="Rectangle 42" opacity="0.5" x="116.236" y="256.792" width="95.8904" height="3.42466" fill="#A233F1"/>
<rect id="Rectangle 43" opacity="0.5" x="116.236" y="262.614" width="85.6164" height="3.42466" fill="#3B4ACF"/>
<rect id="Rectangle 44" opacity="0.5" x="116.236" y="268.436" width="61.6438" height="3.42466" fill="#3E7BE5"/>
<rect id="Rectangle 45" opacity="0.5" x="116.236" y="274.258" width="68.4931" height="3.42466" fill="#B19FF0"/>
<rect id="Rectangle 46" opacity="0.5" x="116.236" y="280.08" width="127.74" height="3.42466" fill="#8336F6"/>
</g>
<g id="Group 96" opacity="0.5">
<rect id="Rectangle 38_2" opacity="0.5" x="116.236" y="181.504" width="127.74" height="3.42466" fill="#3E7BE5"/>
<rect id="Rectangle 39_2" opacity="0.5" x="116.236" y="187.326" width="127.74" height="3.42466" fill="#3B4ACF"/>
<rect id="Rectangle 40_2" opacity="0.5" x="116.236" y="193.148" width="34.2466" height="3.42466" fill="#B19FF0"/>
<rect id="Rectangle 41_2" opacity="0.5" x="116.236" y="198.97" width="51.3699" height="3.42466" fill="#3E7BE5"/>
<rect id="Rectangle 42_2" opacity="0.5" x="116.236" y="204.792" width="95.8904" height="3.42466" fill="#A233F1"/>
<rect id="Rectangle 43_2" opacity="0.5" x="116.236" y="210.614" width="85.6164" height="3.42466" fill="#3B4ACF"/>
<rect id="Rectangle 44_2" opacity="0.5" x="116.236" y="216.436" width="61.6438" height="3.42466" fill="#3E7BE5"/>
<rect id="Rectangle 45_2" opacity="0.5" x="116.236" y="222.258" width="68.4931" height="3.42466" fill="#B19FF0"/>
<rect id="Rectangle 46_2" opacity="0.5" x="116.236" y="228.08" width="127.74" height="3.42466" fill="#8336F6"/>
</g>
</g>
</g>
</g>
<g id="Chair1">
<path id="Rectangle_31" fill-rule="evenodd" clip-rule="evenodd" d="M469.304 571.488C469.304 570.596 468.607 569.86 467.716 569.811L427.69 567.612H415.416L375.229 569.811C374.338 569.86 373.641 570.596 373.641 571.489V574.469H469.304V571.488Z" fill="#EFB5EA"/>
<path id="Rectangle_32" fill-rule="evenodd" clip-rule="evenodd" d="M426.028 499.501H416.918V568.07H426.028V499.501Z" fill="#EFB5EA"/>
<rect id="Rectangle_33" width="13.6662" height="15.9994" rx="0.84" transform="matrix(-1 0 0 1 428.306 558.47)" fill="#A46AE9"/>
<path id="Rectangle_34" fill-rule="evenodd" clip-rule="evenodd" d="M432.861 495.312C432.861 494.848 432.485 494.472 432.021 494.472H410.924C410.46 494.472 410.084 494.848 410.084 495.312V502.59C410.084 502.933 410.293 503.241 410.611 503.369L415.628 505.383C415.728 505.423 415.834 505.443 415.941 505.443H427.005C427.112 505.443 427.218 505.423 427.318 505.383L432.334 503.369C432.653 503.241 432.861 502.933 432.861 502.59V495.312Z" fill="#A46AE9"/>
<rect id="Rectangle_35" width="9.11077" height="9.14254" rx="2.1" transform="matrix(-1 0 0 1 471.582 574.469)" fill="#A46AE9"/>
<rect id="Rectangle_36" width="9.11077" height="9.14254" rx="2.1" transform="matrix(-1 0 0 1 380.474 574.469)" fill="#A46AE9"/>
<rect id="Rectangle_37" width="9.11077" height="9.14254" rx="2.1" transform="matrix(-1 0 0 1 426.028 574.469)" fill="#A46AE9"/>
<path id="Rectangle_38" fill-rule="evenodd" clip-rule="evenodd" d="M432.405 488.987C432.405 484.947 429.131 481.673 425.091 481.673L367.744 481.673C363.705 481.673 360.43 484.947 360.43 488.987C360.43 493.026 363.705 496.301 367.744 496.301H425.091C429.131 496.301 432.405 493.026 432.405 488.987Z" fill="#EFB5EA"/>
<path id="Rectangle_39" fill-rule="evenodd" clip-rule="evenodd" d="M467.938 414.018H455.182C455.182 414.018 455.182 432.303 455.182 450.588C455.182 468.873 434.683 487.158 434.683 487.158H451.538C451.538 487.158 467.938 471.587 467.938 450.588C467.938 432.303 467.938 414.018 467.938 414.018Z" fill="#A46AE9"/>
<path id="Rectangle_40" fill-rule="evenodd" clip-rule="evenodd" d="M462.471 414.018H449.716C449.716 414.018 449.716 432.303 449.716 450.588C449.716 468.873 429.216 487.158 429.216 487.158H444.249C444.249 487.158 462.471 472.014 462.471 450.588C462.471 432.303 462.471 414.018 462.471 414.018Z" fill="#EFB5EA"/>
<g id="Group 4">
<path id="Rectangle_41" fill-rule="evenodd" clip-rule="evenodd" d="M499.825 395.904C499.825 391.265 496.064 387.504 491.425 387.504H425.741C421.102 387.504 417.341 391.265 417.341 395.904V432.92C417.341 437.559 421.102 441.32 425.741 441.32H491.425C496.064 441.32 499.825 437.559 499.825 432.92V395.904Z" fill="#EFB5EA"/>
<path id="Rectangle_42" fill-rule="evenodd" clip-rule="evenodd" d="M500.219 393.411C500.219 390.149 497.574 387.504 494.312 387.504C491.05 387.504 488.405 390.149 488.405 393.411V435.413C488.405 438.675 491.05 441.32 494.312 441.32C497.574 441.32 500.219 438.675 500.219 435.413L500.219 393.411Z" fill="#A46AE9"/>
</g>
<path id="Rectangle_43" fill-rule="evenodd" clip-rule="evenodd" d="M477.048 488.987C477.048 484.947 473.773 481.673 469.734 481.673L414.209 481.673C410.17 481.673 406.895 484.947 406.895 488.987C406.895 493.026 410.17 496.301 414.209 496.301H469.734C473.773 496.301 477.048 493.026 477.048 488.987Z" fill="#A46AE9"/>
</g>
<g id="Wom2.4">
<g id="LLeg">
<path id="Path_2" fill-rule="evenodd" clip-rule="evenodd" d="M376.846 538.919C376.846 538.919 382.092 549.515 377.792 552.853C373.485 556.193 362.108 562.451 362.108 562.451L392.248 560.557L385.548 537.449L376.846 538.919Z" fill="url(#paint1_linear)"/>
<path id="Path_3" fill-rule="evenodd" clip-rule="evenodd" d="M389.262 548.507C388.314 548.96 389.873 553.217 386.536 552.918C383.2 552.619 381.105 548.219 378.645 548.505C376.184 548.79 374.622 553.221 369.938 556.307C365.254 559.395 358.309 563.076 358.774 566.18C359.24 569.283 370.169 570.114 375.705 569.087C381.242 568.06 383.826 565.835 387.419 566.012C391.011 566.189 393.268 565.75 394.394 563.443C395.52 561.136 390.357 547.985 389.262 548.507Z" fill="#EEDFE8"/>
<path id="Path_4" fill-rule="evenodd" clip-rule="evenodd" d="M388.996 562.672L388.688 562.654C384.237 562.278 381.183 565.078 376.946 565.868C372.708 566.658 361.532 566.931 359.747 564.28C359.663 564.154 359.584 564.026 359.511 563.895C358.912 564.633 358.629 565.421 358.774 566.34C359.24 569.294 370.169 570.085 375.706 569.107C381.243 568.13 383.828 566.012 387.421 566.181L388.059 566.205C391.282 566.292 393.339 565.798 394.397 563.736C394.654 563.234 394.597 562.153 394.338 560.788C392.836 561.816 390.939 562.731 388.996 562.672Z" fill="#EC7AA5"/>
<path id="Path_5" fill-rule="evenodd" clip-rule="evenodd" d="M422.249 445.536C413.124 445.943 362.339 457.176 353.112 459.084C343.885 460.993 336.084 471.319 343.12 483.276C351.023 496.698 371.412 534.818 376.363 543.411C378.813 547.664 391.174 545.28 388.271 538.141C382.858 524.833 380.344 491.403 366.544 479.213C366.544 479.213 412.954 487.29 433.001 478.038C447.571 471.313 444.275 444.551 422.249 445.536Z" fill="#413C75"/>
</g>
<g id="LArm">
<path id="Path_6" fill-rule="evenodd" clip-rule="evenodd" d="M358.596 388.579C358.596 388.579 358.699 383.154 356.102 379.274C353.505 375.394 353.402 371.273 351.436 371.408C349.471 371.543 351.417 381.122 351.417 381.122C351.417 381.122 348.923 380.17 347.131 378.964C345.34 377.759 339.907 371.818 338.638 372.871C336.485 374.665 339.952 384.783 341.841 386.806C343.735 388.83 353.085 394.484 353.085 394.484L380.619 422.224L384.736 407.498L358.596 388.579Z" fill="url(#paint2_linear)"/>
<path id="Path_7" fill-rule="evenodd" clip-rule="evenodd" d="M413.67 386.13C409.426 395.975 401.654 414.06 398.45 419.456C394.434 426.213 388.103 429.19 380.689 424.176C379.139 423.127 374.684 419.458 374.684 419.458C375.343 413.036 377.743 407.669 381.879 403.353L384.687 405.677C384.687 405.677 392.653 385.257 399.061 373.428C404.611 363.194 420.131 371.163 413.67 386.13Z" fill="#B580F4"/>
<path id="Path_8" fill-rule="evenodd" clip-rule="evenodd" d="M384.604 405.687C384.604 405.687 382.465 412.944 381.965 412.524C381.465 412.104 382.347 403.791 382.347 403.791L384.604 405.687Z" fill="black" fill-opacity="0.159856"/>
</g>
<g id="Head">
<path id="Path_9" fill-rule="evenodd" clip-rule="evenodd" d="M432.015 347.916V356.627L438.412 351.476C438.412 351.476 440.378 343.13 441.977 336.931C442.98 333.044 445.423 319.888 435.587 320.504C427.53 306.301 404.064 315.092 403.877 332.444C403.652 353.315 403.835 361.441 403.835 361.441C417.105 362.203 424.574 360.284 432.015 347.916Z" fill="#422851"/>
<path id="Path_10" fill-rule="evenodd" clip-rule="evenodd" d="M438.55 364.502C438.55 364.502 432.599 363.105 432.392 353.354C432.186 343.603 432.331 340.275 432.331 340.275L419.223 340.038C419.223 340.038 419.08 350.905 419.078 354.836C419.073 364.393 412.044 365.177 412.044 365.177C412.044 365.177 413.246 373.062 425.123 373.73C434.397 374.252 438.55 364.502 438.55 364.502Z" fill="url(#paint3_linear)"/>
<path id="Path_11" fill-rule="evenodd" clip-rule="evenodd" d="M435.387 335.406C441.234 335.179 440.28 343.74 434.206 343.728C434.206 343.728 430.678 355.888 418.429 355.888C408.481 355.888 407.834 341.715 407.743 338.888C407.646 335.873 407.634 325.969 407.634 325.969L435.614 325.956L435.387 335.406Z" fill="url(#paint4_linear)"/>
<path id="Path_12" fill-rule="evenodd" clip-rule="evenodd" d="M435.839 335.349C433.416 335.749 433.71 337.353 433.051 337.213C429.705 336.502 416.161 337.44 414.417 329.992C412.247 334.645 411.717 335.789 406.938 337.038V323.403L437.16 320.504C437.16 320.504 436.691 335.208 435.839 335.349Z" fill="#422851"/>
<path id="Path_13" d="M420.79 347.719C420.79 347.719 417.872 350.19 414.493 347.876" stroke="#F77B7B" stroke-width="1.5" stroke-linecap="round"/>
<path id="Path_14" d="M418.864 350.58C417.956 350.999 417.082 351.029 416.302 350.612" stroke="#F49494" stroke-linecap="round"/>
<path id="Path 8" d="M434.791 340.009C434.73 338.636 435.149 337.546 436.55 337.327" stroke="#F77B7B" stroke-linecap="round"/>
</g>
<g id="Body">
<path id="Path_15" fill-rule="evenodd" clip-rule="evenodd" d="M437.22 363.504C429.752 368.078 421.119 369.755 413.082 364.788C399.966 390.65 396.697 421.506 399.852 455.611C418.978 463.182 435.052 461.693 448.736 453.039L437.22 363.504Z" fill="#FFE4F4"/>
<g id="RLeg">
<path id="Path_16" fill-rule="evenodd" clip-rule="evenodd" d="M344.152 539.345C344.152 539.345 344.31 551.815 334.035 556.478C323.765 561.14 316.449 560.859 317.38 564.464C318.311 568.068 345.041 567.922 347.537 565.103C349.665 562.705 354.291 540.376 355.565 542.083L344.152 539.345Z" fill="url(#paint5_linear)"/>
<path id="Path_17" fill-rule="evenodd" clip-rule="evenodd" d="M351.616 556.956C350.041 555.823 348.717 562.358 344.439 560.54C340.162 558.724 343.535 552.718 340.843 551.61C338.151 550.502 332.953 556.458 326.049 557.905C319.145 559.352 313.539 560.619 311.946 563.306C310.574 565.615 311.946 566.354 311.946 566.354C311.946 566.354 318.593 569.673 322.722 570.403C328.722 571.464 346.062 572.171 347.961 570.236C349.128 569.049 352.403 557.524 351.616 556.956Z" fill="#EEDFE8"/>
<path id="Path_18" fill-rule="evenodd" clip-rule="evenodd" d="M311.571 563.577C310.269 565.7 312.323 566.804 312.569 566.927L313.56 567.349C315.441 568.13 319.682 569.806 322.817 570.406C328.565 571.504 346.364 572.155 348.279 570.266C348.616 569.935 349.031 568.721 349.434 567.145L348.212 567.279C342.334 567.901 329.213 569.028 322.738 567.502C316.991 566.148 313.844 563.921 312.41 562.621C312.061 562.92 311.779 563.238 311.571 563.577Z" fill="#EC7AA5"/>
<path id="Path_19" fill-rule="evenodd" clip-rule="evenodd" d="M450.838 441.681C450.838 441.681 464.104 469.696 445.462 479.316C427.433 488.62 373.461 477.616 373.461 477.616C373.461 477.616 374.425 485.381 373.461 492.306C370.942 510.393 358.962 540.527 356.428 544.314C352.923 549.55 342.246 545.601 342.045 541.241C341.844 536.881 350.094 481.198 351.348 470.579C352.596 459.96 356.537 458.417 368.045 455.515C370.689 454.848 401.956 447.078 404.821 447.304C429.432 449.25 450.838 441.681 450.838 441.681Z" fill="#524D87"/>
<path id="Path_20" fill-rule="evenodd" clip-rule="evenodd" d="M436.296 476.425C418.447 478.425 371.193 474.302 369.295 476.176C367.483 477.964 367.785 509.08 363.721 527.089L364.339 525.389C368.161 514.772 372.13 501.859 373.461 492.306C374.425 485.381 373.461 477.616 373.461 477.616L375.637 478.038C385.896 479.965 429.596 487.503 445.462 479.316C454.058 474.88 457.566 467.511 455.985 457.208C453.264 468.853 446.701 475.259 436.296 476.425Z" fill="white" fill-opacity="0.056108"/>
</g>
<path id="Path_21" fill-rule="evenodd" clip-rule="evenodd" d="M436.894 363.525C424.526 404.042 417.108 461.484 455.737 451.49C435.217 413.71 463.112 396.706 456.789 377.18C454.628 370.504 437.056 363.001 436.894 363.525Z" fill="#B580F4"/>
<path id="Path_22" fill-rule="evenodd" clip-rule="evenodd" d="M450.845 380.35C436.865 382.459 448.389 406.867 443.775 410.544C439.16 414.221 431.129 414.617 430.263 416.864C428.522 421.379 436.936 432.776 455.504 451.055L455.737 451.49C437.862 418.58 456.725 401.435 457.706 384.656C455.635 381.407 453.348 379.972 450.845 380.35Z" fill="black" fill-opacity="0.159856"/>
<path id="Path_23" fill-rule="evenodd" clip-rule="evenodd" d="M413.736 364.504C409.016 376.343 406.748 385.631 404.631 403.008C402.866 417.48 403.749 447.344 403.749 447.344L397.916 448.491C397.916 448.491 393.747 402.352 395.14 396.411C397.48 386.442 399.065 380.618 402.154 371.504C403.856 366.502 413.736 364.504 413.736 364.504Z" fill="#B580F4"/>
</g>
<g id="RArm">
<path id="Path_24" fill-rule="evenodd" clip-rule="evenodd" d="M434.297 409.522C434.297 409.522 426.681 401.897 424.044 401.012C421.406 400.127 406.96 399.064 407.057 401.063C407.168 403.205 416.464 403.082 417.324 404.136C418.184 405.19 419.379 413.393 422.629 414.202C425.872 415.01 432.594 417.404 432.594 417.404L462.519 432.866L459.33 417.406L434.297 409.522Z" fill="url(#paint6_linear)"/>
<path id="Path_25" fill-rule="evenodd" clip-rule="evenodd" d="M457.217 377.236C466.294 390.047 474.044 409.56 477.019 417.168C479.994 424.776 476.993 436.251 463.912 433.999C462.355 433.731 459.822 432.745 459.822 432.745C455.012 426.152 454.168 420.491 455.963 415.451L457.655 416.165C457.655 416.165 444.654 393.121 441.48 386.944C436.177 376.627 449.222 365.948 457.217 377.236Z" fill="#B580F4"/>
<path id="Path_26" fill-rule="evenodd" clip-rule="evenodd" d="M457.655 416.166C457.655 416.166 464.258 419.391 463.428 417.972C462.597 416.553 455.139 411.686 455.139 411.686L457.655 416.166Z" fill="black" fill-opacity="0.159856"/>
</g>
</g>
<g id="Table1">
<g id="Group 25">
<path id="Rectangle_44" fill-rule="evenodd" clip-rule="evenodd" d="M287.874 437.059H299.874V584.639H287.874V437.059Z" fill="#DBDBDB"/>
<path id="Rectangle_45" fill-rule="evenodd" clip-rule="evenodd" d="M285.874 437.059H293.874V584.639H285.874V437.059Z" fill="#EFEFEF"/>
<path id="Rectangle_46" fill-rule="evenodd" clip-rule="evenodd" d="M210.711 437.059H222.711V584.639H210.711V437.059Z" fill="#DBDBDB"/>
<path id="Rectangle_47" fill-rule="evenodd" clip-rule="evenodd" d="M208.711 437.059H216.711V584.639H208.711L208.711 437.059Z" fill="#EFEFEF"/>
</g>
<g id="Group 25_2">
<path id="Rectangle_48" fill-rule="evenodd" clip-rule="evenodd" d="M492.369 437.059H504.369V584.639H492.369V437.059Z" fill="#DBDBDB"/>
<path id="Rectangle_49" fill-rule="evenodd" clip-rule="evenodd" d="M490.369 437.059H498.369V584.639H490.369L490.369 437.059Z" fill="#EFEFEF"/>
<path id="Rectangle_50" fill-rule="evenodd" clip-rule="evenodd" d="M410.206 437.059L422.206 437.059V584.639H410.206V437.059Z" fill="#DBDBDB"/>
<path id="Rectangle_51" fill-rule="evenodd" clip-rule="evenodd" d="M408.206 437.059H416.206V584.639H408.206V437.059Z" fill="#EFEFEF"/>
<path id="Rectangle_52" fill-rule="evenodd" clip-rule="evenodd" d="M291.505 434.184C291.505 433.257 292.257 432.504 293.185 432.504H506.188C507.116 432.504 507.868 433.257 507.868 434.184V449.824C507.868 450.752 507.116 451.504 506.188 451.504H293.185C292.257 451.504 291.505 450.752 291.505 449.824V434.184Z" fill="#DBDBDB"/>
<path id="Rectangle_53" fill-rule="evenodd" clip-rule="evenodd" d="M200.212 434.184C200.212 433.257 200.964 432.504 201.892 432.504H413.982C414.91 432.504 415.662 433.257 415.662 434.184V449.824C415.662 450.752 414.91 451.504 413.982 451.504H201.892C200.964 451.504 200.212 450.752 200.212 449.824V434.184Z" fill="#DBDBDB"/>
<rect id="Rectangle_54" x="181.736" y="432.504" width="338" height="9.76056" rx="4.88028" fill="#EFEFEF"/>
</g>
</g>
<g id="Pot5">
<g id="Group 32">
<g id="Group 33">
<path id="Path_27" fill-rule="evenodd" clip-rule="evenodd" d="M258.091 400.974V396.785L263.374 396.785L263.374 394.564C263.374 393.337 264.36 392.343 265.576 392.343C266.792 392.343 267.777 393.337 267.777 394.564V399.197C267.777 400.178 266.989 400.974 266.016 400.974H258.091Z" fill="#02B596"/>
<path id="Path_28" fill-rule="evenodd" clip-rule="evenodd" d="M243.436 403.385V399.387C243.436 398.16 244.421 397.166 245.637 397.166C246.853 397.166 247.838 398.16 247.838 399.387L247.838 401.608H250.479L250.48 391.391C250.48 388.692 252.649 386.504 255.323 386.504C257.998 386.504 260.167 388.692 260.167 391.391V416.712H250.48L250.479 406.05L246.077 406.051C244.618 406.051 243.436 404.857 243.436 403.385Z" fill="#02D3AF"/>
</g>
</g>
<g id="Group 34">
<path id="Rectangle_55" fill-rule="evenodd" clip-rule="evenodd" d="M243.854 409.774H266.219L264.619 431.294C264.575 431.883 264.089 432.338 263.504 432.338H246.569C245.984 432.338 245.498 431.883 245.454 431.294L243.854 409.774Z" fill="url(#paint7_linear)"/>
<path id="Rectangle_56" fill-rule="evenodd" clip-rule="evenodd" d="M243.855 409.774H266.219C266.836 409.774 267.337 410.279 267.337 410.902V415.415C267.337 416.038 266.836 416.543 266.219 416.543H243.855C243.237 416.543 242.736 416.038 242.736 415.415V410.902C242.736 410.279 243.237 409.774 243.855 409.774Z" fill="#FFB3A4"/>
</g>
</g>
<g id="FacingBack Laptop3">
<path id="Rectangle_57" fill-rule="evenodd" clip-rule="evenodd" d="M316.41 431.532C316.41 430.699 317.085 430.024 317.918 430.024H423.174C424.006 430.024 424.681 430.699 424.681 431.532C424.681 432.364 424.006 433.039 423.174 433.039H317.918C317.085 433.039 316.41 432.364 316.41 431.532Z" fill="#C5C5C5"/>
<path id="Rectangle_58" fill-rule="evenodd" clip-rule="evenodd" d="M387.732 431.532C387.732 430.699 388.407 430.024 389.24 430.024H423.174C424.006 430.024 424.681 430.699 424.681 431.532C424.681 432.364 424.006 433.039 423.174 433.039H389.24C388.407 433.039 387.732 432.364 387.732 431.532Z" fill="#ABABAB"/>
<path id="Rectangle_59" fill-rule="evenodd" clip-rule="evenodd" d="M311.255 388.561C310.98 386.409 312.656 384.504 314.826 384.504H381.094C382.906 384.504 384.435 385.851 384.665 387.648L389.58 426.098C389.855 428.25 388.179 430.154 386.009 430.154H319.741C317.929 430.154 316.4 428.808 316.17 427.011L311.255 388.561Z" fill="#BCBCBC"/>
<path id="Rectangle_60" fill-rule="evenodd" clip-rule="evenodd" d="M311.255 388.561C310.98 386.409 312.656 384.504 314.826 384.504H378.76C380.572 384.504 382.101 385.851 382.331 387.648L387.246 426.098C387.521 428.25 385.844 430.154 383.675 430.154H319.741C317.929 430.154 316.4 428.808 316.17 427.011L311.255 388.561Z" fill="#CFCFCF"/>
<ellipse id="Oval_7" cx="348.052" cy="408.056" rx="4.64831" ry="5.07496" transform="rotate(-37 348.052 408.056)" fill="white"/>
</g>
<g id="Group 8">
<path id="Rectangle_61" fill-rule="evenodd" clip-rule="evenodd" d="M437.736 422.504C437.736 421.952 438.184 421.504 438.736 421.504H484.236C487.274 421.504 489.736 423.967 489.736 427.004C489.736 430.042 487.274 432.504 484.236 432.504H438.736C438.184 432.504 437.736 432.057 437.736 431.504V422.504Z" fill="#F16B79"/>
<path id="Rectangle_62" d="M437.736 424.704C437.736 424.152 438.184 423.704 438.736 423.704L464.77 423.704C466.592 423.704 468.07 425.182 468.07 427.004C468.07 428.827 466.592 430.304 464.77 430.304H438.736C438.184 430.304 437.736 429.857 437.736 429.304V424.704Z" fill="#EAEFFF"/>
</g>
<g id="Group 73">
<rect id="Rectangle_63" width="131.195" height="198.348" rx="7.68" transform="matrix(-1 0 0 1 672.736 386.504)" fill="#CFCFCF"/>
<rect id="Rectangle_64" width="95.7932" height="198.348" rx="7.68" transform="matrix(-1 0 0 1 637.335 386.504)" fill="#E6E6E6"/>
<path id="Rectangle_65" fill-rule="evenodd" clip-rule="evenodd" d="M629.005 527.808C629.005 523.566 625.566 520.128 621.325 520.128H557.551C553.31 520.128 549.871 523.566 549.871 527.808V568.82C549.871 573.062 553.31 576.5 557.551 576.5H621.325C625.566 576.5 629.005 573.062 629.005 568.82V527.808Z" fill="#CFCFCF"/>
<path id="Rectangle_66" d="M601.933 520.128H576.943V526.727C576.943 528.848 578.662 530.567 580.783 530.567H598.093C600.213 530.567 601.933 528.848 601.933 526.727V520.128Z" fill="#E5E5E5"/>
<path id="Rectangle_67" fill-rule="evenodd" clip-rule="evenodd" d="M629.005 407.73C629.005 406.626 628.109 405.73 627.005 405.73H557.551C553.31 405.73 549.871 409.169 549.871 413.41V443.548C549.871 447.79 553.31 451.228 557.551 451.228H627.005C628.109 451.228 629.005 450.333 629.005 449.228V407.73Z" fill="#BABABA"/>
<path id="Rectangle_68" fill-rule="evenodd" clip-rule="evenodd" d="M611.65 402.536C611.65 398.294 608.212 394.856 603.97 394.856H540.197C535.955 394.856 532.517 398.294 532.517 402.536V443.548C532.517 447.79 535.955 451.228 540.197 451.228H603.97C608.212 451.228 611.65 447.79 611.65 443.548V402.536Z" fill="#CFCFCF"/>
<path id="Rectangle_69" fill-rule="evenodd" clip-rule="evenodd" d="M629.005 465.172C629.005 460.93 625.566 457.492 621.325 457.492H557.551C553.31 457.492 549.871 460.93 549.871 465.172V506.184C549.871 510.426 553.31 513.864 557.551 513.864H621.325C625.566 513.864 629.005 510.426 629.005 506.184V465.172Z" fill="#CFCFCF"/>
<path id="Rectangle_70" d="M601.933 457.492H576.943V464.091C576.943 466.212 578.662 467.931 580.783 467.931H598.093C600.213 467.931 601.933 466.212 601.933 464.091V457.492Z" fill="#E5E5E5"/>
<path id="Rectangle_71" d="M584.579 394.856H559.59V401.455C559.59 403.576 561.309 405.295 563.43 405.295H580.739C582.86 405.295 584.579 403.576 584.579 401.455V394.856Z" fill="#E5E5E5"/>
</g>
<g id="Table Frame2">
<path id="Rectangle_72" fill-rule="evenodd" clip-rule="evenodd" d="M612.098 365.181H619.138L626.736 385.858H619.696L612.098 365.181Z" fill="#7367F0"/>
<path id="Rectangle_73" fill-rule="evenodd" clip-rule="evenodd" d="M593.161 345.138C593.24 344.768 593.566 344.504 593.944 344.504H625.748C626.257 344.504 626.636 344.973 626.53 345.471L618.071 385.225C617.992 385.594 617.666 385.858 617.288 385.858H585.484C584.975 385.858 584.596 385.389 584.702 384.892L593.161 345.138Z" fill="#A7C3FF"/>
<path id="Rectangle_74" fill-rule="evenodd" clip-rule="evenodd" d="M591.402 345.138C591.48 344.768 591.806 344.504 592.184 344.504H623.988C624.497 344.504 624.877 344.973 624.771 345.471L616.311 385.225C616.233 385.594 615.906 385.858 615.529 385.858H583.724C583.216 385.858 582.836 385.389 582.942 384.892L591.402 345.138Z" fill="url(#paint8_linear)"/>
<g id="Group 93">
<path id="Rectangle_75" d="M593.138 346.798C593.209 346.465 593.502 346.227 593.842 346.227H621.447C621.905 346.227 622.246 346.649 622.151 347.097L614.574 382.703C614.503 383.036 614.21 383.274 613.87 383.274H586.265C585.807 383.274 585.466 382.852 585.561 382.404L593.138 346.798Z" fill="#B3FFEB"/>
<mask id="mask1" mask-type="alpha" maskUnits="userSpaceOnUse" x="585" y="346" width="38" height="38">
<path id="Rectangle_76" d="M593.138 346.798C593.209 346.465 593.502 346.227 593.842 346.227H621.447C621.905 346.227 622.246 346.649 622.151 347.097L614.574 382.703C614.503 383.036 614.21 383.274 613.87 383.274H586.265C585.807 383.274 585.466 382.852 585.561 382.404L593.138 346.798Z" fill="white"/>
</mask>
<g mask="url(#mask1)">
<g id="Group 92">
<ellipse id="Oval_8" cx="601.986" cy="356.889" rx="3.85" ry="3.76923" fill="white"/>
<ellipse id="Oval_9" cx="590.711" cy="385.158" rx="17.875" ry="17.5" fill="#6DE9C9"/>
<ellipse id="Oval_10" cx="618.761" cy="380.043" rx="21.175" ry="20.4615" fill="#83F2D5"/>
</g>
</g>
</g>
</g>
</g>
<g id="Wom1.2">
<g id="Head_2">
<path id="Path_29" fill-rule="evenodd" clip-rule="evenodd" d="M113.353 301.797C101.629 299.084 100.857 283.092 109.77 277.545C100.578 258.396 121.835 239.384 136.395 251.109C145.941 247.048 153.873 262.893 144.991 275.2C148.715 296.33 141.136 301.792 127.473 302.024L113.353 301.797Z" fill="#422851"/>
<path id="Path_30" fill-rule="evenodd" clip-rule="evenodd" d="M113.498 297.978C113.498 297.978 119.201 296.648 119.399 287.361C119.597 278.075 119.458 274.905 119.458 274.905L132.02 274.679C132.02 274.679 132.157 285.029 132.158 288.773C132.164 298.827 139.213 297.978 139.213 297.978C139.213 297.978 137.748 306.131 126.365 306.767C117.478 307.264 113.498 297.978 113.498 297.978Z" fill="url(#paint9_linear)"/>
<path id="Path_31" fill-rule="evenodd" clip-rule="evenodd" d="M116.53 270.267C110.926 270.052 111.84 278.205 117.662 278.194C117.662 278.194 121.043 289.775 132.782 289.775C142.315 289.775 142.935 276.277 143.022 273.584C143.115 270.713 143.126 261.28 143.126 261.28L116.312 261.268L116.53 270.267Z" fill="url(#paint10_linear)"/>
<path id="Path_32" d="M130.519 281.995C130.519 281.995 133.315 284.347 136.553 282.144" stroke="#F77B7B" stroke-width="1.5" stroke-linecap="round"/>
<path id="Path_33" d="M132.364 284.719C133.234 285.118 134.072 285.147 134.819 284.749" stroke="#F49494" stroke-linecap="round"/>
<path id="Path 8_2" d="M117.101 274.652C117.159 273.344 116.757 272.306 115.415 272.097" stroke="#F77B7B" stroke-linecap="round"/>
<path id="Path_34" fill-rule="evenodd" clip-rule="evenodd" d="M115.643 269.26C115.643 269.26 118.714 273.356 119.337 273.378C119.959 273.4 120.177 268.051 120.177 268.051C123.944 267.765 133.48 265.878 135.817 261.482C137.452 265.361 140.577 267.084 142.63 266.753L143.019 274.993L143.978 258.426H114.892L115.643 269.26Z" fill="#422851"/>
</g>
<g id="LArm_2">
<g id="Group 6">
<path id="Path_35" fill-rule="evenodd" clip-rule="evenodd" d="M188.788 302.833C188.788 302.833 187.115 293.492 187.717 291.601C188.231 289.966 193.089 287.609 193.089 287.609C193.089 287.609 201.539 274.241 203.388 275.602C204.893 276.705 198.988 286.561 198.988 286.561C198.988 286.561 204.373 292.219 204.297 294.747C204.222 297.277 195.509 305.194 195.509 305.194L188.788 302.833Z" fill="url(#paint11_linear)"/>
<path id="Path_36" fill-rule="evenodd" clip-rule="evenodd" d="M193.271 287.474C193.271 287.474 197.013 286.965 197.608 288.131C198.116 289.125 195.007 291.944 195.007 292.736C195.007 293.528 195.051 299.526 195.302 299.58C195.552 299.635 199.05 289.794 198.304 287.712C197.69 286.003 193.271 287.474 193.271 287.474Z" fill="#F28585"/>
</g>
<path id="Path_37" fill-rule="evenodd" clip-rule="evenodd" d="M144.286 301.728C138.67 299.393 131.868 306.097 136.012 312.496C142.631 322.727 167.069 349.593 178.334 349.632C188.452 349.667 197.746 309.423 197.533 306.216C197.32 303.008 189.108 298.994 186.124 301.26C183.134 303.526 173.674 330.073 173.674 330.073C173.674 330.073 149.991 304.103 144.286 301.728Z" fill="#6D1E84"/>
<path id="Path_38" fill-rule="evenodd" clip-rule="evenodd" d="M173.674 330.073C173.674 330.073 176.871 335.576 177.166 334.753C177.46 333.93 174.834 326.838 174.834 326.838L173.674 330.073Z" fill="black" fill-opacity="0.302803"/>
</g>
<g id="LLeg_2">
<path id="Path_39" fill-rule="evenodd" clip-rule="evenodd" d="M137.083 558.213C137.083 558.213 135.963 567.419 140.139 570.935C144.316 574.45 128.204 573.181 128.204 573.181L128.086 558.067L137.083 558.213Z" fill="url(#paint12_linear)"/>
<path id="Path_40" fill-rule="evenodd" clip-rule="evenodd" d="M128.05 566.372C129.486 566.449 129.257 570.764 131.181 570.584C133.105 570.403 136.359 566.102 139.15 567.549C142.045 569.053 157.917 579.106 158.852 581.69C159.897 584.57 153.128 584.785 148.29 584.575C143.445 584.365 141.211 582.184 138.86 582.238C136.502 582.293 135.945 583.762 134.182 584.166C132.394 584.578 127.92 584.516 127.506 583.229C127.073 581.892 126.621 566.295 128.05 566.372Z" fill="#222D4E"/>
<path id="Path_41" fill-rule="evenodd" clip-rule="evenodd" d="M111.736 370.504C111.736 370.504 121.367 463.224 122.152 471.696C122.938 480.167 121.367 486.302 120.722 495.052C120.078 503.802 123.179 558.836 123.179 558.836C127.74 561.591 133.166 562.131 140.065 558.919C140.065 558.919 146.401 490.361 146.339 474.745C146.302 465.43 147.267 371.55 147.267 371.55L111.736 370.504Z" fill="#D083C9"/>
<path id="Path_42" fill-rule="evenodd" clip-rule="evenodd" d="M127.124 472.457C127.915 478.322 125.79 489.432 120.749 505.787L120.686 503.098C120.614 499.542 120.612 496.77 120.71 495.231L120.722 495.052C121.345 486.593 122.834 480.579 122.223 472.535L122.091 471.049C121.76 467.62 120.734 457.563 119.448 445.057L120.154 447.101C124.059 458.507 126.382 466.959 127.124 472.457Z" fill="white" fill-opacity="0.0771689"/>
<path id="Path 14" fill-rule="evenodd" clip-rule="evenodd" d="M140.831 568.573L140.184 569.56C139.871 570.038 140.02 570.679 140.512 570.97L150.078 576.62C150.371 576.793 150.732 576.805 151.037 576.652L152.314 576.008C148.593 573.302 144.867 570.881 140.831 568.573Z" fill="white" fill-opacity="0.540975"/>
</g>
<g id="RLeg_2">
<path id="Path_43" fill-rule="evenodd" clip-rule="evenodd" d="M96.1952 559.708L97.0039 573.738L86.6367 574.013L88.5853 559.708H96.1952Z" fill="url(#paint13_linear)"/>
<path id="Path_44" fill-rule="evenodd" clip-rule="evenodd" d="M86.5398 568.872C93.8871 574.413 96.7064 567.48 97.3327 568.167C98.5245 569.474 100.78 582.495 99.5521 584.32C98.4697 585.936 83.7367 585.964 82.9219 584.441C81.8518 582.426 85.7227 568.256 86.5398 568.872Z" fill="#222D4E"/>
<path id="Rectangle_77" fill-rule="evenodd" clip-rule="evenodd" d="M89.814 573.31C89.8931 572.827 90.3109 572.472 90.8008 572.472H92.8752C93.3651 572.472 93.7829 572.827 93.862 573.31L94.4781 577.073C94.5777 577.682 94.108 578.235 93.4912 578.235H90.1848C89.568 578.235 89.0983 577.682 89.198 577.073L89.814 573.31Z" fill="white" fill-opacity="0.540975"/>
<path id="Path_45" fill-rule="evenodd" clip-rule="evenodd" d="M105.828 367.504C105.828 367.504 95.5026 376.809 92.7919 390.177C88.2732 412.462 90.5473 453.62 90.4136 462.645C90.2859 471.67 87.0405 477.115 85.2999 489.876C83.5592 502.637 85.2816 559.666 85.2816 559.666C89.8967 562.451 94.901 562.65 100.404 559.499L132.722 370.481L105.828 367.504Z" fill="#DD8FD6"/>
<path id="Path_46" fill-rule="evenodd" clip-rule="evenodd" d="M98.9493 375.809L102.983 376.364C99.4391 383.143 97.6487 398.601 97.6118 422.739L97.6112 423.504C97.6112 460 91.0229 472.857 88.3723 488.568L88.2932 489.045C86.7055 498.789 85.5163 514.402 84.7254 535.885L84.645 530.559C84.425 514.329 84.4201 496.326 85.2999 489.876C87.0405 477.115 90.2859 471.67 90.4135 462.645L90.4193 461.747C90.417 451.167 88.4088 411.793 92.7919 390.177C93.9367 384.532 96.4396 379.611 98.9493 375.809Z" fill="white" fill-opacity="0.0771689"/>
</g>
<g id="Body_2">
<path id="Path_47" fill-rule="evenodd" clip-rule="evenodd" d="M94.7363 305.208C94.7363 305.208 104.624 338.341 104.917 344.613C105.21 350.886 96.8298 369.32 98.2565 373.98C101.546 384.747 143.546 389.384 148.05 374.899C149.976 368.714 146.275 362.081 148.069 354.121C149.857 346.161 155.112 334.333 151.035 323.212C146.958 312.091 148.05 301.803 145.135 299.858C142.219 297.914 135.403 295.849 135.403 295.849C132.088 300.73 120.898 300.659 115.559 295.504C115.559 295.504 102.294 298.08 94.7363 305.208Z" fill="#6D1E84"/>
<path id="Path_48" fill-rule="evenodd" clip-rule="evenodd" d="M103.597 310.574C110.187 321.041 110.168 339.266 113.707 341.653C117.247 344.04 131.025 341.698 131.025 343.588C131.025 345.478 111.985 362.801 115.111 371.082C116.747 375.418 116.303 379.298 113.779 382.72L112.955 382.54C105.453 380.844 99.4223 377.797 98.2561 373.98C96.8293 369.32 105.209 350.886 104.916 344.613C104.669 339.306 97.5515 314.768 95.3672 307.342C97.2975 303.849 100.041 304.926 103.597 310.574Z" fill="black" fill-opacity="0.0564904"/>
</g>
<g id="RArm_2">
<path id="Path_49" fill-rule="evenodd" clip-rule="evenodd" d="M124.454 364.543C124.454 364.543 130.887 361.691 132.97 361.699C135.052 361.707 136.645 361.775 136.645 361.775L136.651 364.659C136.651 364.659 147.223 365.62 148.338 365.583C149.46 365.546 144.261 373.366 140.759 374.783C136.892 376.347 123.747 371.708 123.747 371.708L124.454 364.543Z" fill="url(#paint14_linear)"/>
<path id="Path_50" fill-rule="evenodd" clip-rule="evenodd" d="M95.3008 304.266C87.1946 310.179 66.5015 360.922 76.3306 368.038C84.7095 374.107 120.307 374.898 122.941 372.962C125.135 371.346 126.368 366.427 124.305 363.739C121.565 360.156 90.6776 354.981 90.6776 354.981C90.6776 354.981 101.783 328.413 104.101 323.756C112.052 307.77 106.785 295.89 95.3008 304.266Z" fill="#6D1E84"/>
<path id="Path_51" fill-rule="evenodd" clip-rule="evenodd" d="M90.7207 354.95C90.7207 354.95 87.1855 360.488 87.9133 360.625C88.6411 360.763 93.3856 355.454 93.3856 355.454L90.7207 354.95Z" fill="black" fill-opacity="0.302803"/>
</g>
</g>
</g>
<defs>
<filter id="filter0_f" x="199.967" y="0.862569" width="145.436" height="145.436" filterUnits="userSpaceOnUse" color-interpolation-filters="sRGB">
<feFlood flood-opacity="0" result="BackgroundImageFix"/>
<feBlend mode="normal" in="SourceGraphic" in2="BackgroundImageFix" result="shape"/>
<feGaussianBlur stdDeviation="4.07742" result="effect1_foregroundBlur"/>
</filter>
<filter id="filter1_dd" x="84.7363" y="301.504" width="206.869" height="108.289" filterUnits="userSpaceOnUse" color-interpolation-filters="sRGB">
<feFlood flood-opacity="0" result="BackgroundImageFix"/>
<feColorMatrix in="SourceAlpha" type="matrix" values="0 0 0 0 0 0 0 0 0 0 0 0 0 0 0 0 0 0 127 0" result="hardAlpha"/>
<feOffset dx="7" dy="8"/>
<feGaussianBlur stdDeviation="12.5"/>
<feColorMatrix type="matrix" values="0 0 0 0 0.427451 0 0 0 0 0.117647 0 0 0 0 0.517647 0 0 0 0.1 0"/>
<feBlend mode="normal" in2="BackgroundImageFix" result="effect1_dropShadow"/>
<feColorMatrix in="SourceAlpha" type="matrix" values="0 0 0 0 0 0 0 0 0 0 0 0 0 0 0 0 0 0 127 0" result="hardAlpha"/>
<feOffset dy="2"/>
<feGaussianBlur stdDeviation="7"/>
<feColorMatrix type="matrix" values="0 0 0 0 0.427451 0 0 0 0 0.117647 0 0 0 0 0.517647 0 0 0 0.1 0"/>
<feBlend mode="normal" in2="effect1_dropShadow" result="effect2_dropShadow"/>
<feBlend mode="normal" in="SourceGraphic" in2="effect2_dropShadow" result="shape"/>
</filter>
<filter id="filter2_dd" x="82.7363" y="148.504" width="212.477" height="188.215" filterUnits="userSpaceOnUse" color-interpolation-filters="sRGB">
<feFlood flood-opacity="0" result="BackgroundImageFix"/>
<feColorMatrix in="SourceAlpha" type="matrix" values="0 0 0 0 0 0 0 0 0 0 0 0 0 0 0 0 0 0 127 0" result="hardAlpha"/>
<feOffset dx="8" dy="9"/>
<feGaussianBlur stdDeviation="14"/>
<feColorMatrix type="matrix" values="0 0 0 0 0.427451 0 0 0 0 0.117647 0 0 0 0 0.517647 0 0 0 0.1 0"/>
<feBlend mode="normal" in2="BackgroundImageFix" result="effect1_dropShadow"/>
<feColorMatrix in="SourceAlpha" type="matrix" values="0 0 0 0 0 0 0 0 0 0 0 0 0 0 0 0 0 0 127 0" result="hardAlpha"/>
<feOffset dy="2"/>
<feGaussianBlur stdDeviation="7.5"/>
<feColorMatrix type="matrix" values="0 0 0 0 0.427451 0 0 0 0 0.117647 0 0 0 0 0.517647 0 0 0 0.1 0"/>
<feBlend mode="normal" in2="effect1_dropShadow" result="effect2_dropShadow"/>
<feBlend mode="normal" in="SourceGraphic" in2="effect2_dropShadow" result="shape"/>
</filter>
<linearGradient id="paint0_linear" x1="72.7268" y1="161.907" x2="72.7268" y2="584.456" gradientUnits="userSpaceOnUse">
<stop stop-color="#A2FFEA"/>
<stop offset="1" stop-color="#8CA5FF"/>
</linearGradient>
<linearGradient id="paint1_linear" x1="397.463" y1="531.363" x2="395.867" y2="561.213" gradientUnits="userSpaceOnUse">
<stop stop-color="#FDC6C6"/>
<stop offset="1" stop-color="#FAB2B2"/>
</linearGradient>
<linearGradient id="paint2_linear" x1="392.831" y1="359.033" x2="388.591" y2="419.583" gradientUnits="userSpaceOnUse">
<stop stop-color="#FDC6C6"/>
<stop offset="1" stop-color="#FAB2B2"/>
</linearGradient>
<linearGradient id="paint3_linear" x1="447.178" y1="335.033" x2="435.954" y2="384.569" gradientUnits="userSpaceOnUse">
<stop stop-color="#FFAFAF"/>
<stop offset="1" stop-color="#F07777"/>
</linearGradient>
<linearGradient id="paint4_linear" x1="446.421" y1="325.617" x2="439.761" y2="358.213" gradientUnits="userSpaceOnUse">
<stop stop-color="#FDC6C6"/>
<stop offset="1" stop-color="#FAB2B2"/>
</linearGradient>
<linearGradient id="paint5_linear" x1="362.187" y1="532.565" x2="360.626" y2="565.838" gradientUnits="userSpaceOnUse">
<stop stop-color="#FDC6C6"/>
<stop offset="1" stop-color="#FAB2B2"/>
</linearGradient>
<linearGradient id="paint6_linear" x1="472.116" y1="391.905" x2="470.608" y2="431.289" gradientUnits="userSpaceOnUse">
<stop stop-color="#FDC6C6"/>
<stop offset="1" stop-color="#FAB2B2"/>
</linearGradient>
<linearGradient id="paint7_linear" x1="267.975" y1="412.877" x2="246.948" y2="412.877" gradientUnits="userSpaceOnUse">
<stop stop-color="#F16B79"/>
<stop offset="1" stop-color="#F69D88"/>
</linearGradient>
<linearGradient id="paint8_linear" x1="585.817" y1="335.095" x2="585.817" y2="385.858" gradientUnits="userSpaceOnUse">
<stop stop-color="#9FF6EC"/>
<stop offset="1" stop-color="#7D9DFF"/>
</linearGradient>
<linearGradient id="paint9_linear" x1="105.127" y1="269.912" x2="115.639" y2="317.174" gradientUnits="userSpaceOnUse">
<stop stop-color="#FFAFAF"/>
<stop offset="1" stop-color="#F07777"/>
</linearGradient>
<linearGradient id="paint10_linear" x1="105.955" y1="260.945" x2="112.262" y2="292.004" gradientUnits="userSpaceOnUse">
<stop stop-color="#FDC6C6"/>
<stop offset="1" stop-color="#FAB2B2"/>
</linearGradient>
<linearGradient id="paint11_linear" x1="183.829" y1="275.168" x2="195.103" y2="304.52" gradientUnits="userSpaceOnUse">
<stop stop-color="#FDC6C6"/>
<stop offset="1" stop-color="#FAB2B2"/>
</linearGradient>
<linearGradient id="paint12_linear" x1="125.881" y1="554.333" x2="127.297" y2="572.587" gradientUnits="userSpaceOnUse">
<stop stop-color="#FDC6C6"/>
<stop offset="1" stop-color="#FAB2B2"/>
</linearGradient>
<linearGradient id="paint13_linear" x1="84.8428" y1="556.226" x2="86.3541" y2="573.219" gradientUnits="userSpaceOnUse">
<stop stop-color="#FDC6C6"/>
<stop offset="1" stop-color="#FAB2B2"/>
</linearGradient>
<linearGradient id="paint14_linear" x1="118.184" y1="361.547" x2="119.941" y2="376.55" gradientUnits="userSpaceOnUse">
<stop stop-color="#FDC6C6"/>
<stop offset="1" stop-color="#FAB2B2"/>
</linearGradient>
</defs>
</svg>
