<svg width="564" height="508" viewBox="0 0 564 508" fill="none" xmlns="http://www.w3.org/2000/svg">
<g opacity="0.1" filter="url(#filter0_f)">
<ellipse cx="108.145" cy="245.413" rx="102.145" ry="102.908" fill="#EC1383"/>
</g>
<path opacity="0.05" fill-rule="evenodd" clip-rule="evenodd" d="M337.331 158.394C337.331 104.682 380.874 61.139 434.586 61.139C488.299 61.139 531.842 104.682 531.842 158.394C531.842 212.107 488.299 255.65 434.586 255.65C380.874 255.65 337.331 212.107 337.331 158.394ZM490.287 157.952C490.287 127.434 465.547 102.694 435.028 102.694C404.51 102.694 379.77 127.434 379.77 157.952C379.77 188.471 404.51 213.211 435.028 213.211C465.547 213.211 490.287 188.471 490.287 157.952Z" fill="#00CFE8"/>
<ellipse opacity="0.1" cx="276.885" cy="48.6332" rx="33.5477" ry="33.6332" stroke="#A233F1" stroke-width="30"/>
<path opacity="0.1" d="M434.954 61.139C488.463 61.139 531.842 104.682 531.842 158.394C531.842 212.107 488.463 255.65 434.954 255.65C402.717 255.65 373.127 239.706 355.167 213.582C348.631 204.075 351.01 191.05 360.481 184.489C369.857 177.993 382.669 180.269 389.267 189.54L389.465 189.823C399.726 204.749 416.561 213.819 434.954 213.819C465.448 213.819 490.169 189.005 490.169 158.394C490.169 128.09 465.94 103.466 435.867 102.977L434.954 102.969C423.446 102.969 414.117 93.6052 414.117 82.0541C414.117 70.5031 423.446 61.139 434.954 61.139Z" fill="#3B4ACF"/>
<path d="M486.16 101.646H83.2002C79.3342 101.646 76.2002 104.78 76.2002 108.646V373.591C76.2002 377.457 79.3342 380.591 83.2002 380.591H486.16C490.026 380.591 493.16 377.457 493.16 373.591V108.646C493.16 104.78 490.026 101.646 486.16 101.646Z" fill="#EBEBEB"/>
<path d="M485.154 105.094H84.2949C81.5335 105.094 79.2949 107.332 79.2949 110.094V372.232C79.2949 374.993 81.5335 377.232 84.2949 377.232H485.154C487.916 377.232 490.154 374.993 490.154 372.232V110.094C490.154 107.332 487.916 105.094 485.154 105.094Z" fill="#263238"/>
<path d="M547 401H22V412H547V401Z" fill="#DBDBDB"/>
<path d="M21.9141 401.457L76.2002 380.591H493.16L547.535 401.457H21.9141Z" fill="#EBEBEB"/>
<path d="M81.0625 394.03L116.163 380.591H453.285L488.297 394.03H81.0625Z" fill="#263238"/>
<path d="M466.903 125.694H102.461V356.454H466.903V125.694Z" fill="white"/>
<path d="M466.99 125.694H102.194V134.536H466.99V125.694Z" fill="#455A64"/>
<path d="M109.267 130.203C109.267 131.441 108.295 132.414 107.057 132.414C105.819 132.414 104.847 131.441 104.847 130.203C104.847 128.965 105.819 127.993 107.057 127.993C108.295 127.993 109.267 128.965 109.267 130.203Z" fill="#C7C7C7"/>
<path d="M118.197 130.203C118.197 131.441 117.225 132.414 115.987 132.414C114.749 132.414 113.776 131.441 113.776 130.203C113.776 128.965 114.749 127.993 115.987 127.993C117.225 127.993 118.197 128.965 118.197 130.203Z" fill="white"/>
<path d="M127.216 130.203C127.216 131.441 126.243 132.414 125.005 132.414C123.767 132.414 122.795 131.441 122.795 130.203C122.795 128.965 123.767 127.993 125.005 127.993C126.243 127.993 127.216 128.965 127.216 130.203Z" fill="#2CE780"/>
<path fill-rule="evenodd" clip-rule="evenodd" d="M126.668 480.941C126.668 480.941 126.532 489.656 131.884 492.751C137.236 495.847 145.527 501.599 145.527 501.599L113.985 502.668L114.885 480.863L126.668 480.941Z" fill="url(#paint0_linear)"/>
<path fill-rule="evenodd" clip-rule="evenodd" d="M113.653 491.494C116.092 491.745 115.559 495.273 119.984 495.101C123.209 494.976 128.238 489.029 132.375 491.232C138.689 494.594 146.094 499.128 147.909 500.207C149.724 501.287 150.442 505.36 145.077 505.859C139.947 506.337 133.022 506.284 131.288 505.968C129.553 505.652 126.335 503.439 123.746 503.793C121.157 504.147 120.863 505.039 119.416 505.434C117.969 505.83 113.602 505.915 113.149 504.697C112.63 503.297 112.108 491.335 113.653 491.494Z" fill="#482B61"/>
<path fill-rule="evenodd" clip-rule="evenodd" d="M111.208 296.058C111.208 296.058 123.24 390.498 124.246 399.429C125.252 408.36 130.776 471.897 130.02 480.372C129.25 489.003 113.103 489.049 110.937 482.538C107.973 473.625 101.119 429.078 99.9857 419.776C98.8522 410.473 99.2502 399.673 94.6948 390.148C91.4331 383.329 80.6406 298.479 80.6406 298.479L111.208 296.058Z" fill="#2F2B57"/>
<path opacity="0.59096" fill-rule="evenodd" clip-rule="evenodd" d="M104.136 405.191L104.179 405.616C104.638 410.55 105.023 426.89 105.334 454.637L104.641 450.493C102.469 437.352 100.541 424.334 99.9855 419.776C98.8756 410.667 99.2341 400.123 94.9729 390.745L94.6946 390.148C93.2591 387.147 90.365 369.032 87.5742 349.688L88.4505 352.034C97.7684 377.092 102.997 394.812 104.136 405.191Z" fill="white" fill-opacity="0.192499"/>
<path d="M134.707 492.748L133.198 495.005" stroke="white" stroke-linecap="round"/>
<path d="M137.342 493.63L135.833 495.888" stroke="white" stroke-linecap="round"/>
<path fill-rule="evenodd" clip-rule="evenodd" d="M53.3775 482.94L50.5547 501.999L64.1982 501.93L63.7516 482.586L53.3775 482.94Z" fill="url(#paint1_linear)"/>
<path fill-rule="evenodd" clip-rule="evenodd" d="M48.0405 505.082C47.9949 503.97 49.0302 496.758 50.5543 493.903C51.6598 491.832 54.1112 491.346 57.6983 491.332C62.3252 491.314 66.1921 492.014 66.1867 493.903C66.1704 499.684 67.6365 504.13 67.735 504.638C68.0243 506.129 63.8861 507.241 58.2338 507.185C53.6075 507.139 48.1114 506.817 48.0405 505.082Z" fill="#482B61"/>
<path fill-rule="evenodd" clip-rule="evenodd" d="M95.7425 299.159C95.7425 299.159 89.4869 341.309 85.7005 367.978C81.9795 394.183 70.96 472.352 69.8213 480.535C68.7759 488.047 49.6949 488.047 49.8957 478.949C50.0965 469.851 48.33 413.159 51.8828 404.765C55.4357 396.371 52.3427 386.602 52.4718 378.448C52.6015 370.294 57.711 299.704 57.711 299.704L95.7425 299.159Z" fill="#3A3669"/>
<path opacity="0.461565" fill-rule="evenodd" clip-rule="evenodd" d="M61.5208 353.817L61.2222 354.901C57.6 367.916 56.3499 369.088 57.3764 389.846L57.387 390.268C57.4227 395.49 54.9391 422.515 49.936 471.342L49.9134 468.306C49.7379 448.387 49.0041 412.372 51.793 404.991L51.8833 404.765C55.4361 396.371 52.3431 386.602 52.4722 378.448C52.6019 370.294 57.7114 299.704 57.7114 299.704L64.2383 299.609L64.305 302.843C64.7746 328.096 63.8465 345.087 61.5208 353.817Z" fill="white" fill-opacity="0.192499"/>
<path d="M56.0459 495.559H61.0402" stroke="white" stroke-linecap="round"/>
<path d="M56.0459 498.207H61.0402" stroke="white" stroke-linecap="round"/>
<path fill-rule="evenodd" clip-rule="evenodd" d="M72.3408 214C72.3408 214 77.567 212.767 77.7483 204.16C77.9296 195.554 77.8024 192.616 77.8024 192.616L90.1924 192.407C90.1924 192.407 90.3178 201.999 90.3196 205.468C90.3244 214.787 96.7848 214 96.7848 214C96.7848 214 95.4418 221.556 85.0107 222.145C76.8664 222.606 72.3408 214 72.3408 214Z" fill="url(#paint2_linear)"/>
<path fill-rule="evenodd" clip-rule="evenodd" d="M76.6647 188.265C71.5293 188.065 72.367 195.621 77.7017 195.611C77.7017 195.611 83.4349 207.197 92.4359 207.227C96.7716 207.242 98.1872 203.36 99.487 200.635C100.787 197.91 101.741 193.834 101.82 191.339C101.905 188.678 101.916 179.936 101.916 179.936L76.4648 179.925L76.6647 188.265Z" fill="url(#paint3_linear)"/>
<path d="M92.0758 201.707C92.8455 202.131 93.7615 202.026 94.4706 201.707" stroke="#F49494" stroke-linecap="round"/>
<path d="M77.4659 192.579C77.5187 191.367 77.1508 190.404 75.9209 190.211" stroke="#DE6767" stroke-linecap="round"/>
<path fill-rule="evenodd" clip-rule="evenodd" d="M76.6645 188.265C76.6645 188.265 79.0257 191.005 79.8992 191.08C80.7733 191.155 79.7774 183.666 81.0639 182.302C83.8897 179.304 91.2738 184.398 99.0389 183.154C101.916 182.693 101.865 187.609 101.865 187.609C109.123 180.956 111.755 175.708 103.081 173.516C103.011 167.885 99.7888 166.472 93.5572 169.084C92.7242 161.478 81.9569 162.626 77.0558 172.303C73.5084 168.833 68.5221 171.634 70.6382 176.854C66.8182 176.854 68.8089 187.117 73.3106 190.643C73.8477 189.103 74.8293 188.265 76.6645 188.265Z" fill="#422851"/>
<path d="M90.334 199.267C90.334 199.267 92.7792 201.579 95.849 199.696" stroke="#DE6767" stroke-linecap="round"/>
<path fill-rule="evenodd" clip-rule="evenodd" d="M162.097 241.635C162.097 241.635 163.567 233.466 165.511 230.604C167.455 227.741 168.022 222.931 169.857 223.108C171.691 223.285 169.854 230.964 169.854 230.964C169.854 230.964 178.409 224.546 182.29 222.334C185.832 220.317 183.889 230.753 183.335 232.083C182.017 235.25 166.766 247.201 166.766 247.201C166.766 247.201 162.43 242.362 162.097 241.635Z" fill="url(#paint4_linear)"/>
<path fill-rule="evenodd" clip-rule="evenodd" d="M169.854 230.964C169.854 230.964 169.222 233.59 169.537 233.59C169.853 233.59 175.659 226.74 175.659 226.74L169.854 230.964Z" fill="#F28585"/>
<path fill-rule="evenodd" clip-rule="evenodd" d="M112.71 223.352C116.893 232.423 132.539 255.863 132.539 255.863C132.539 255.863 158.177 239.147 161.439 239.113C164.702 239.078 169.132 243.407 168.853 246.394C168.574 249.382 140.503 275.584 131.5 275.364C117.501 275.021 99.9468 238.618 98.1443 233.753C93.3163 220.72 108.629 214.503 112.71 223.352Z" fill="#9135AB"/>
<path fill-rule="evenodd" clip-rule="evenodd" d="M132.445 255.846C132.445 255.846 135.406 260.183 135.936 259.898C136.467 259.613 134.772 254.596 134.772 254.596L132.445 255.846Z" fill="black" fill-opacity="0.159856"/>
<path fill-rule="evenodd" clip-rule="evenodd" d="M50.7871 224.803C49.4735 231.102 58.4691 262.846 55.9942 277.697C54.0368 289.442 52.1681 305.615 57.2414 309.205C62.4066 312.861 106.868 315.764 113.205 305.615C118.233 297.563 114.117 279.707 113.205 271.562C111.387 255.312 114.133 227.231 111.048 221.487C109.134 217.924 96.0861 213.329 95.5959 213.472C95.1058 213.614 93.9537 218.663 85.7032 218.663C77.4528 218.663 73.8095 213.472 73.3662 213.329C72.9229 213.187 51.9758 219.105 50.7871 224.803Z" fill="#9135AB"/>
<path fill-rule="evenodd" clip-rule="evenodd" d="M73.3452 213.327L73.366 213.329C73.8093 213.472 77.4526 218.663 85.703 218.663C93.9534 218.663 95.1056 213.614 95.5957 213.472C95.7726 213.42 97.5854 213.986 99.9201 214.898L99.9094 215.005C94.0125 224.907 77.7948 226.128 69.126 214.799L68.9297 214.537L69.897 214.237C71.6676 213.698 72.9346 213.375 73.2792 213.332L73.3452 213.327Z" fill="#FF9B86"/>
<path fill-rule="evenodd" clip-rule="evenodd" d="M50.8154 229.178L51.5424 229.279C59.254 230.382 63.7769 232.127 65.1109 234.514C65.9861 236.081 65.5791 241.379 63.8899 250.408L63.7106 251.356C62.1439 259.541 63.9352 268.007 68.6649 274.838L68.9307 275.216C70.5302 277.454 72.0047 280.4 73.3543 284.055C76.4848 292.534 69.8259 299.678 74.0432 312.292L73.1822 312.228C65.3429 311.628 59.0028 310.451 57.2419 309.205C52.1686 305.615 54.0372 289.442 55.9947 277.697C58.1005 265.061 51.9018 240.194 50.8154 229.178Z" fill="black" fill-opacity="0.0667614"/>
<path fill-rule="evenodd" clip-rule="evenodd" d="M59.8263 292.272C59.8263 292.272 62.7862 295.763 65.3125 296.198C67.8388 296.632 78.4113 298.7 79.0565 299.007C79.6665 299.296 81.7522 300.394 83.5358 302.156C85.0811 303.682 87.7545 307.301 86.8582 307.924C85.9 308.59 83.3131 305.326 82.0152 304.519C80.6542 303.673 78.5626 302.923 78.5626 302.923C78.5626 302.923 83.7364 309.165 83.4074 310.255C83.1672 311.051 78.7678 312.41 77.827 312.308C76.8863 312.206 71.7024 308.411 69.3724 307.969C67.7563 307.663 60.5209 305.703 58.9948 304.231C57.4693 302.759 54.0371 299.772 54.0371 299.772L59.8263 292.272Z" fill="url(#paint5_linear)"/>
<path fill-rule="evenodd" clip-rule="evenodd" d="M82.4099 310.979C82.4099 310.979 76.9956 305.523 76.7696 305.616C76.5437 305.709 81.4874 311.358 81.4874 311.358L82.4099 310.979Z" fill="#F28585"/>
<path fill-rule="evenodd" clip-rule="evenodd" d="M79.9968 311.874C79.9968 311.874 75.9409 308.158 75.6758 308.337C75.4107 308.516 78.9243 312.177 78.9243 312.177L79.9968 311.874Z" fill="#F28585"/>
<path fill-rule="evenodd" clip-rule="evenodd" d="M62.7692 219.541C71.1292 225.423 65.544 236.116 58.6082 245.925C52.1292 255.087 42.3093 268.887 42.3093 268.887C42.3093 268.887 60.7742 289.113 62.5579 292.855C64.3415 296.597 59.7867 303.626 54.1242 301.706C48.4611 299.787 16.2358 275.916 22.789 264.635C32.7983 247.404 52.8947 212.592 62.7692 219.541Z" fill="#AA39CA"/>
<path fill-rule="evenodd" clip-rule="evenodd" d="M42.3092 268.887C42.3092 268.887 38.52 264.879 38.874 264.415C39.228 263.951 43.4986 267.228 43.4986 267.228L42.3092 268.887Z" fill="black" fill-opacity="0.159856"/>
<path fill-rule="evenodd" clip-rule="evenodd" d="M346.354 440.221C346.354 426.905 357.15 416.11 370.466 416.11L439.403 416.11V488.552C439.403 490.761 437.612 492.552 435.403 492.552H350.354C348.145 492.552 346.354 490.761 346.354 488.552L346.354 454.331V440.221Z" fill="#A46AE9"/>
<path fill-rule="evenodd" clip-rule="evenodd" d="M354.762 477.463L422.645 477.463V492.552H354.762V477.463Z" fill="#A46AE9"/>
<path fill-rule="evenodd" clip-rule="evenodd" d="M441.212 492.005L445.495 502.73H424.794L428.381 492.005H441.212Z" fill="#6D1E84"/>
<path fill-rule="evenodd" clip-rule="evenodd" d="M370.684 492.005L374.966 502.73H354.266L357.853 492.005H370.684Z" fill="#6D1E84"/>
<path fill-rule="evenodd" clip-rule="evenodd" d="M510.86 492.005L515.142 502.73H494.441L498.029 492.005H510.86Z" fill="#6D1E84"/>
<path fill-rule="evenodd" clip-rule="evenodd" d="M399.261 361.215C399.261 348.102 409.74 337.394 422.849 337.109L439.931 336.739V423.32H399.261V361.215Z" fill="#A46AE9"/>
<path fill-rule="evenodd" clip-rule="evenodd" d="M407.195 360.85C407.195 347.534 417.99 336.739 431.307 336.739H493.381C505.443 336.739 515.221 346.517 515.221 358.579V423.337C515.221 424.302 514.439 425.084 513.474 425.084H407.195V360.85Z" fill="#EFB5EA"/>
<path fill-rule="evenodd" clip-rule="evenodd" d="M485.031 352.58C485.031 343.831 492.124 336.739 500.873 336.739C508.798 336.739 515.222 343.163 515.222 351.088V414.516C515.222 415.481 514.44 416.264 513.475 416.264H485.031V352.58Z" fill="#A46AE9"/>
<path fill-rule="evenodd" clip-rule="evenodd" d="M354.762 436.845C354.762 429.886 360.403 424.245 367.362 424.245H435.112V482.38H354.762V436.845Z" fill="#EFB5EA"/>
<path fill-rule="evenodd" clip-rule="evenodd" d="M438.153 329.218C448.938 326.705 449.648 311.894 441.448 306.756C449.904 289.02 430.35 271.411 416.955 282.271C408.174 278.51 400.876 293.186 409.047 304.583C405.621 324.154 412.594 329.213 425.163 329.428L438.153 329.218Z" fill="#422851"/>
<path fill-rule="evenodd" clip-rule="evenodd" d="M438.019 325.681C438.019 325.681 432.772 324.448 432.59 315.847C432.408 307.246 432.536 304.31 432.536 304.31L420.98 304.102C420.98 304.102 420.854 313.687 420.852 317.155C420.847 326.467 414.362 325.681 414.362 325.681C414.362 325.681 415.71 333.231 426.181 333.821C434.357 334.281 438.019 325.681 438.019 325.681Z" fill="url(#paint6_linear)"/>
<path fill-rule="evenodd" clip-rule="evenodd" d="M435.229 300.015C440.384 299.816 439.544 307.367 434.188 307.356C434.188 307.356 431.078 318.083 420.279 318.083C411.509 318.083 410.938 305.581 410.859 303.087C410.773 300.428 410.762 291.692 410.762 291.692L435.43 291.68L435.229 300.015Z" fill="url(#paint7_linear)"/>
<path d="M422.361 310.877C422.361 310.877 419.789 313.056 416.81 311.015" stroke="#F77B7B" stroke-width="1.5" stroke-linecap="round"/>
<path d="M420.663 313.4C419.863 313.77 419.093 313.797 418.405 313.428" stroke="#F49494" stroke-linecap="round"/>
<path d="M434.704 304.076C434.651 302.865 435.02 301.903 436.255 301.71" stroke="#F77B7B" stroke-linecap="round"/>
<path fill-rule="evenodd" clip-rule="evenodd" d="M436.045 299.082C436.045 299.082 433.22 302.876 432.647 302.896C432.075 302.916 431.874 297.962 431.874 297.962C428.408 297.697 419.636 295.95 417.486 291.878C415.982 295.471 413.107 297.066 411.219 296.76L410.861 304.392L409.979 289.048H436.736L436.045 299.082Z" fill="#422851"/>
<path fill-rule="evenodd" clip-rule="evenodd" d="M385.218 477.356C385.218 477.356 389.843 486.702 386.052 489.647C382.255 492.593 372.225 498.113 372.225 498.113L398.797 496.442L392.89 476.059L385.218 477.356Z" fill="url(#paint8_linear)"/>
<path fill-rule="evenodd" clip-rule="evenodd" d="M396.226 486.25C394.915 486.404 396.315 490.821 393.476 491.157C390.643 491.492 389.266 487.308 386.05 488.634C382.835 489.961 371.108 496.82 370.646 499.625C370.178 502.428 374.548 503.253 380.54 502.62C386.532 501.987 387.636 499.854 392.134 500.713C396.627 501.572 399.992 500.203 399.844 496.919C399.696 493.635 397.538 486.098 396.226 486.25Z" fill="#222D4E"/>
<path fill-rule="evenodd" clip-rule="evenodd" d="M384.584 489.315L385.098 490.086C385.422 490.572 385.263 491.23 384.754 491.514L376.99 495.849C376.699 496.011 376.347 496.018 376.05 495.867L374.874 495.27C376.807 493.87 378.387 492.818 380.134 491.784C381.474 490.991 382.959 490.173 384.584 489.315Z" fill="white" fill-opacity="0.540975"/>
<path fill-rule="evenodd" clip-rule="evenodd" d="M425.246 394.984C417.201 395.344 372.429 405.252 364.294 406.935C356.16 408.618 349.283 417.727 355.486 428.274C362.452 440.114 380.428 473.739 384.792 481.318C386.953 485.07 397.85 482.967 395.291 476.67C390.519 464.931 388.302 435.442 376.136 424.691C376.136 424.691 417.051 431.815 434.725 423.654C447.57 417.722 444.664 394.116 425.246 394.984Z" fill="#495AEB"/>
<path fill-rule="evenodd" clip-rule="evenodd" d="M368.248 347.389C368.248 347.389 368.338 340.84 366.049 337.418C363.759 333.995 363.668 330.36 361.936 330.479C360.203 330.598 361.919 339.048 361.919 339.048C361.919 339.048 359.72 338.208 358.14 337.144C356.561 336.081 351.772 330.841 350.652 331.77C348.755 333.352 351.811 342.277 353.476 344.062C355.146 345.847 364.271 351.717 364.271 351.717L368.248 347.389Z" fill="url(#paint9_linear)"/>
<path fill-rule="evenodd" clip-rule="evenodd" d="M417.682 343.465C413.94 352.149 407.089 368.102 404.264 372.861C400.724 378.822 395.142 381.448 388.606 377.025C381.739 372.378 362.83 354.254 362.275 350.149C361.726 346.043 366.354 341.117 370.542 343.668C374.73 346.218 392.131 360.707 392.131 360.707C392.131 360.707 399.154 342.695 404.803 332.261C409.696 323.234 423.378 330.263 417.682 343.465Z" fill="#6A5EE3"/>
<path fill-rule="evenodd" clip-rule="evenodd" d="M392.059 360.716C392.059 360.716 390.172 367.117 389.731 366.747C389.291 366.376 390.068 359.043 390.068 359.043L392.059 360.716Z" fill="black" fill-opacity="0.302803"/>
<path d="M344.454 331.195C344.044 329.934 344.734 328.58 345.994 328.171L355.515 325.077C356.776 324.667 358.13 325.357 358.54 326.618L366.215 350.24C366.625 351.501 365.935 352.855 364.674 353.265L355.153 356.358C353.893 356.768 352.539 356.078 352.129 354.817L344.454 331.195Z" fill="#7596FF"/>
<rect x="344.652" y="328.197" width="14.811" height="29.6381" rx="2.4" transform="rotate(-18 344.652 328.197)" fill="#93C2F9"/>
<path d="M347.498 328.386L348.566 328.038C348.784 327.968 349.016 328.066 349.12 328.261L349.153 328.338C349.233 328.583 349.496 328.717 349.741 328.638L354.892 326.964C355.11 326.893 355.24 326.677 355.21 326.458L355.192 326.376C355.112 326.131 355.246 325.868 355.491 325.788L356.554 325.443C357.343 325.187 358.188 325.585 358.503 326.338L358.548 326.461L365.976 349.39C366.298 350.391 365.751 351.464 364.752 351.791L356.3 354.537C355.344 354.849 354.319 354.362 353.948 353.443L353.901 353.315C353.901 353.314 353.901 353.314 353.902 353.313L346.476 330.39C346.205 329.554 346.663 328.657 347.498 328.386Z" fill="#E6F3FF"/>
<path fill-rule="evenodd" clip-rule="evenodd" d="M455.08 333.002C455.08 333.002 446.062 363.213 445.795 368.932C445.528 374.652 453.171 391.461 451.87 395.709C448.869 405.527 410.565 409.755 409.102 396.547C408.42 390.388 409.84 384.86 408.203 377.602C406.573 370.344 400.017 359.559 403.735 349.418C407.453 339.278 406.457 329.897 409.117 328.124C411.776 326.351 417.992 324.468 417.992 324.468C421.015 328.919 431.22 328.854 436.09 324.154C436.09 324.154 448.188 326.502 455.08 333.002Z" fill="#7367F0"/>
<path fill-rule="evenodd" clip-rule="evenodd" d="M446.999 337.895C440.988 347.439 441.006 364.057 437.777 366.233C434.549 368.41 421.984 366.274 421.984 367.998C421.984 369.721 439.348 385.516 436.498 393.067C435.005 397.021 435.41 400.558 437.712 403.679L438.464 403.515C445.305 401.968 450.806 399.19 451.869 395.709C453.17 391.461 444.646 374.652 444.913 368.932C445.14 364.078 452.307 341.574 454.469 334.883C452.709 331.777 450.22 332.781 446.999 337.895Z" fill="black" fill-opacity="0.199355"/>
<path fill-rule="evenodd" clip-rule="evenodd" d="M436.749 363.217C436.749 363.217 429.153 356.491 426.828 355.71C424.503 354.929 410.885 353.992 410.971 355.756C411.069 357.645 418.383 357.536 419.141 358.466C419.899 359.395 420.071 365.749 422.936 366.463C425.795 367.176 434.366 368.406 434.366 368.406L436.749 363.217Z" fill="url(#paint10_linear)"/>
<path fill-rule="evenodd" clip-rule="evenodd" d="M456.956 334.738C464.959 346.038 471.791 363.251 474.413 369.962C477.036 376.672 474.39 386.794 462.858 384.807C451.347 382.825 433.032 372.056 431.005 368.915C428.979 365.773 432.058 360.057 435.934 360.805C439.526 361.497 457.342 369.077 457.342 369.077C457.342 369.077 445.88 348.75 443.082 343.301C438.407 334.2 449.907 324.781 456.956 334.738Z" fill="#6A5EE3"/>
<path fill-rule="evenodd" clip-rule="evenodd" d="M457.16 368.938C457.16 368.938 463.163 371.922 462.431 370.671C461.699 369.419 454.869 365.022 454.869 365.022L457.16 368.938Z" fill="black" fill-opacity="0.302803"/>
<path fill-rule="evenodd" clip-rule="evenodd" d="M357.277 477.732C357.277 477.732 357.416 488.732 348.357 492.845C339.304 496.957 332.853 496.709 333.674 499.889C334.495 503.068 358.061 502.939 360.261 500.453C362.137 498.338 366.216 478.642 367.339 480.147L357.277 477.732Z" fill="url(#paint11_linear)"/>
<path fill-rule="evenodd" clip-rule="evenodd" d="M364.444 490.045C363.432 488.089 363.369 493.591 359.379 492.378C356.14 491.394 355.033 485.763 352.987 486.996C350.941 488.23 332.929 497.793 332.826 497.851C330.608 499.046 331.228 502.667 334.974 503.299C339.136 504 360.701 503.528 361.858 502.418C363.015 501.308 365.255 491.613 364.444 490.045Z" fill="#222D4E"/>
<path fill-rule="evenodd" clip-rule="evenodd" d="M350.323 490.286C350.648 490.286 350.96 490.663 351.196 491.056C351.475 491.519 351.224 492.091 350.724 492.297L341.598 496.056C341.258 496.196 340.858 496.146 340.622 495.864C340.443 495.651 340.293 495.401 340.377 495.225C340.553 494.858 349.644 490.286 350.323 490.286Z" fill="white" fill-opacity="0.540975"/>
<path fill-rule="evenodd" clip-rule="evenodd" d="M451.332 391.584C451.332 391.584 463.027 416.296 446.592 424.781C430.698 432.988 383.116 423.282 383.116 423.282C383.116 423.282 383.966 430.131 383.116 436.24C380.895 452.194 370.334 478.775 368.099 482.115C365.009 486.733 355.596 483.25 355.419 479.404C355.242 475.559 362.515 426.441 363.621 417.074C364.721 407.707 368.195 406.347 378.341 403.786C380.672 403.198 408.237 396.344 410.763 396.544C432.46 398.26 451.332 391.584 451.332 391.584Z" fill="#3B4ACF"/>
<path opacity="0.461565" fill-rule="evenodd" clip-rule="evenodd" d="M438.512 422.231C422.776 423.995 381.116 420.359 379.443 422.011C377.845 423.589 378.112 451.035 374.528 466.921L375.073 465.421C378.443 456.056 381.943 444.666 383.116 436.24C383.966 430.131 383.116 423.282 383.116 423.282L385.034 423.653C394.079 425.353 432.605 432.003 446.592 424.781C454.171 420.869 457.263 414.368 455.87 405.28C453.47 415.552 447.684 421.203 438.512 422.231Z" fill="white" fill-opacity="0.192499"/>
<path fill-rule="evenodd" clip-rule="evenodd" d="M422.173 440.221C422.173 426.905 432.968 416.11 446.284 416.11L515.221 416.11V490.805C515.221 491.77 514.439 492.552 513.474 492.552H422.173L422.173 440.221Z" fill="#A46AE9"/>
<path d="M526.758 450.881H533.831C540.667 450.881 546.209 456.422 546.209 463.259H539.136C532.3 463.259 526.758 457.717 526.758 450.881Z" fill="#2CE780"/>
<path d="M535.6 443.807H540.904C544.323 443.807 547.093 446.578 547.093 449.996H541.789C538.371 449.996 535.6 447.226 535.6 443.807Z" fill="#28C76F"/>
<path d="M563.008 449.996H556.819C550.959 449.996 546.209 454.747 546.209 460.606H552.398C558.258 460.606 563.008 455.856 563.008 449.996Z" fill="#28C76F"/>
<path fill-rule="evenodd" clip-rule="evenodd" d="M555.411 438.69L550.376 440.734C546.446 442.33 544.547 446.804 546.129 450.74L551.164 448.696C555.094 447.1 556.993 442.626 555.411 438.69V438.69Z" fill="#2CE780"/>
<path fill-rule="evenodd" clip-rule="evenodd" d="M542.464 437.619C545.23 439.372 546.984 442.707 547.088 446.369L547.093 446.713V472.984H545.674V446.713C545.674 443.633 544.28 440.792 542.024 439.235L541.788 439.078L542.464 437.619Z" fill="#28C76F"/>
<path fill-rule="evenodd" clip-rule="evenodd" d="M535.651 464.143H557.707C558.737 464.143 559.572 464.961 559.572 465.97V466.022C559.572 467.138 560.114 468.187 561.032 468.848L561.604 469.26C562.522 469.921 563.064 470.97 563.064 472.086V499.395C563.064 501.332 561.461 502.903 559.483 502.903H533.875C531.897 502.903 530.294 501.332 530.294 499.395V472.086C530.294 470.97 530.836 469.921 531.754 469.26L532.326 468.848C533.183 468.231 533.712 467.276 533.779 466.244L533.786 465.97C533.786 464.961 534.621 464.143 535.651 464.143Z" fill="#6D1E84"/>
<mask id="mask0" mask-type="alpha" maskUnits="userSpaceOnUse" x="530" y="464" width="34" height="39">
<path fill-rule="evenodd" clip-rule="evenodd" d="M535.651 464.143H557.707C558.737 464.143 559.572 464.961 559.572 465.97V466.022C559.572 467.138 560.114 468.187 561.032 468.848L561.604 469.26C562.522 469.921 563.064 470.97 563.064 472.086V499.395C563.064 501.332 561.461 502.903 559.483 502.903H533.875C531.897 502.903 530.294 501.332 530.294 499.395V472.086C530.294 470.97 530.836 469.921 531.754 469.26L532.326 468.848C533.183 468.231 533.712 467.276 533.779 466.244L533.786 465.97C533.786 464.961 534.621 464.143 535.651 464.143Z" fill="white"/>
</mask>
<g mask="url(#mask0)">
<path fill-rule="evenodd" clip-rule="evenodd" d="M529.398 462.389H538.352C534.401 477.461 544.024 489.96 538.352 505.358H529.398V462.389Z" fill="#AA39CA"/>
<rect x="530.294" y="487.82" width="32.7702" height="3.50768" fill="#FFDFE2" fill-opacity="0.257949"/>
<rect x="530.294" y="478.173" width="32.7702" height="3.50768" fill="#FFDFE2" fill-opacity="0.257949"/>
</g>
<path fill-rule="evenodd" clip-rule="evenodd" d="M537.695 434.007L541.866 435.209C545.36 436.216 547.38 439.861 546.382 443.357L542.212 442.155C538.718 441.149 536.698 437.504 537.695 434.007V434.007Z" fill="#2CE780"/>
<path d="M444.733 177.24H183.735V216.761H444.733V177.24Z" fill="white"/>
<path d="M445.175 217.203H183.293V176.797H445.175V217.203ZM184.177 216.318H444.291V177.682H184.177V216.318Z" fill="#DBDBDB"/>
<path d="M206.812 187.938C207.342 189.441 207.607 190.944 207.873 192.447C208.049 193.95 208.138 195.453 208.138 196.956C208.138 198.459 208.049 199.962 207.873 201.465C207.696 202.968 207.342 204.471 206.812 205.974C206.281 204.471 206.016 202.968 205.751 201.465C205.574 199.962 205.485 198.459 205.485 196.956C205.485 195.453 205.574 193.95 205.751 192.447C205.927 190.944 206.193 189.441 206.812 187.938Z" fill="#37474F"/>
<path d="M215.829 196.956C214.326 197.486 212.823 197.752 211.32 198.017C209.817 198.194 208.314 198.282 206.811 198.282C205.308 198.282 203.805 198.194 202.302 198.017C200.799 197.84 199.296 197.486 197.793 196.956C199.296 196.425 200.799 196.16 202.302 195.895C203.805 195.718 205.308 195.63 206.811 195.63C208.314 195.63 209.817 195.718 211.32 195.895C212.823 196.16 214.326 196.425 215.829 196.956Z" fill="#37474F"/>
<path d="M213.177 190.59C212.47 192.005 211.674 193.331 210.702 194.569C209.729 195.807 208.757 196.867 207.696 198.017C206.635 199.078 205.485 200.05 204.336 201.023C203.098 201.907 201.86 202.791 200.357 203.499C201.065 202.084 201.86 200.758 202.833 199.52C203.806 198.282 204.778 197.221 205.839 196.16C206.9 195.099 208.049 194.127 209.287 193.154C210.437 192.093 211.763 191.297 213.177 190.59Z" fill="#37474F"/>
<path d="M213.177 203.41C211.762 202.703 210.436 201.907 209.198 200.935C207.961 199.962 206.9 198.989 205.75 197.928C204.689 196.867 203.717 195.718 202.744 194.569C201.86 193.331 200.976 192.093 200.269 190.59C201.683 191.297 203.009 192.093 204.247 193.066C205.485 194.038 206.546 195.011 207.607 196.072C208.668 197.133 209.64 198.282 210.613 199.52C211.674 200.669 212.47 201.907 213.177 203.41Z" fill="#37474F"/>
<path d="M242.089 187.938C242.619 189.441 242.885 190.944 243.15 192.447C243.327 193.95 243.415 195.453 243.415 196.956C243.415 198.459 243.327 199.962 243.15 201.465C242.973 202.968 242.619 204.471 242.089 205.974C241.558 204.471 241.293 202.968 241.028 201.465C240.851 199.962 240.763 198.459 240.763 196.956C240.763 195.453 240.851 193.95 241.028 192.447C241.293 190.944 241.558 189.441 242.089 187.938Z" fill="#37474F"/>
<path d="M251.107 196.956C249.604 197.486 248.101 197.752 246.598 198.017C245.095 198.194 243.592 198.282 242.089 198.282C240.585 198.282 239.082 198.194 237.579 198.017C236.076 197.84 234.573 197.486 233.07 196.956C234.573 196.425 236.076 196.16 237.579 195.895C239.082 195.718 240.585 195.63 242.089 195.63C243.592 195.63 245.095 195.718 246.598 195.895C248.101 196.16 249.604 196.425 251.107 196.956Z" fill="#37474F"/>
<path d="M248.455 190.59C247.747 192.005 246.952 193.331 245.979 194.569C245.007 195.807 244.034 196.867 242.973 198.017C241.912 199.078 240.763 200.05 239.613 201.023C238.376 201.907 237.138 202.791 235.635 203.499C236.342 202.084 237.138 200.758 238.11 199.52C239.083 198.282 240.055 197.221 241.116 196.16C242.177 195.099 243.327 194.127 244.565 193.154C245.802 192.093 247.04 191.297 248.455 190.59Z" fill="#37474F"/>
<path d="M248.454 203.41C247.04 202.703 245.713 201.907 244.476 200.935C243.238 199.962 242.177 198.989 241.028 197.928C239.967 196.867 238.994 195.718 238.021 194.569C237.137 193.331 236.253 192.093 235.546 190.59C236.961 191.297 238.287 192.093 239.525 193.066C240.762 194.038 241.823 195.011 242.884 196.072C243.945 197.133 244.918 198.282 245.89 199.52C246.951 200.669 247.835 201.907 248.454 203.41Z" fill="#37474F"/>
<path d="M277.365 187.938C277.896 189.441 278.161 190.944 278.426 192.447C278.603 193.95 278.691 195.453 278.691 196.956C278.691 198.459 278.603 199.962 278.426 201.465C278.249 202.968 277.896 204.471 277.365 205.974C276.835 204.471 276.57 202.968 276.304 201.465C276.127 199.962 276.039 198.459 276.039 196.956C276.039 195.453 276.127 193.95 276.304 192.447C276.57 190.944 276.835 189.441 277.365 187.938Z" fill="#37474F"/>
<path d="M286.472 196.956C284.969 197.486 283.466 197.752 281.963 198.017C280.46 198.194 278.957 198.282 277.454 198.282C275.951 198.282 274.448 198.194 272.945 198.017C271.442 197.84 269.939 197.486 268.436 196.956C269.939 196.425 271.442 196.16 272.945 195.895C274.448 195.718 275.951 195.63 277.454 195.63C278.957 195.63 280.46 195.718 281.963 195.895C283.466 196.16 284.969 196.425 286.472 196.956Z" fill="#37474F"/>
<path d="M283.82 190.59C283.113 192.005 282.317 193.331 281.344 194.569C280.372 195.807 279.399 196.867 278.338 198.017C277.277 199.078 276.128 200.05 274.979 201.023C273.741 201.907 272.503 202.791 271 203.499C271.707 202.084 272.503 200.758 273.476 199.52C274.448 198.282 275.421 197.221 276.482 196.16C277.543 195.099 278.692 194.127 279.93 193.154C281.079 192.093 282.317 191.297 283.82 190.59Z" fill="#37474F"/>
<path d="M283.82 203.41C282.405 202.703 281.079 201.907 279.841 200.935C278.603 199.962 277.542 198.989 276.393 197.928C275.332 196.867 274.359 195.718 273.387 194.569C272.503 193.331 271.618 192.093 270.911 190.59C272.326 191.297 273.652 192.093 274.89 193.066C276.128 194.038 277.189 195.011 278.25 196.072C279.31 197.133 280.283 198.282 281.256 199.52C282.228 200.669 283.112 201.907 283.82 203.41Z" fill="#37474F"/>
<path d="M312.731 187.938C313.262 189.441 313.527 190.944 313.792 192.447C313.969 193.95 314.058 195.453 314.058 196.956C314.058 198.459 313.969 199.962 313.792 201.465C313.616 202.968 313.262 204.471 312.731 205.974C312.201 204.471 311.936 202.968 311.671 201.465C311.494 199.962 311.405 198.459 311.405 196.956C311.405 195.453 311.494 193.95 311.671 192.447C311.847 190.944 312.201 189.441 312.731 187.938Z" fill="#37474F"/>
<path d="M321.749 196.956C320.246 197.486 318.743 197.752 317.24 198.017C315.737 198.194 314.234 198.282 312.731 198.282C311.228 198.282 309.725 198.194 308.222 198.017C306.719 197.84 305.216 197.486 303.713 196.956C305.216 196.425 306.719 196.16 308.222 195.895C309.725 195.718 311.228 195.63 312.731 195.63C314.234 195.63 315.737 195.718 317.24 195.895C318.743 196.16 320.246 196.425 321.749 196.956Z" fill="#37474F"/>
<path d="M319.096 190.59C318.389 192.005 317.593 193.331 316.621 194.569C315.648 195.807 314.676 196.867 313.615 198.017C312.554 199.078 311.404 200.05 310.255 201.023C309.017 201.907 307.779 202.791 306.276 203.499C306.984 202.084 307.779 200.758 308.752 199.52C309.725 198.282 310.697 197.221 311.758 196.16C312.819 195.099 313.968 194.127 315.206 193.154C316.356 192.093 317.682 191.297 319.096 190.59Z" fill="#37474F"/>
<path d="M319.097 203.41C317.682 202.703 316.356 201.907 315.118 200.935C313.88 199.962 312.82 198.989 311.67 197.928C310.609 196.867 309.637 195.718 308.664 194.569C307.78 193.331 306.896 192.093 306.188 190.59C307.603 191.297 308.929 192.093 310.167 193.066C311.405 194.038 312.466 195.011 313.527 196.072C314.588 197.133 315.56 198.282 316.533 199.52C317.594 200.669 318.39 201.907 319.097 203.41Z" fill="#37474F"/>
<path d="M348.008 187.938C348.538 189.441 348.804 190.944 349.069 192.447C349.246 193.95 349.334 195.453 349.334 196.956C349.334 198.459 349.246 199.962 349.069 201.465C348.892 202.968 348.538 204.471 348.008 205.974C347.477 204.471 347.212 202.968 346.947 201.465C346.77 199.962 346.682 198.459 346.682 196.956C346.682 195.453 346.77 193.95 346.947 192.447C347.212 190.944 347.477 189.441 348.008 187.938Z" fill="#37474F"/>
<path d="M357.115 196.956C355.612 197.486 354.109 197.752 352.605 198.017C351.102 198.194 349.599 198.282 348.096 198.282C346.593 198.282 345.09 198.194 343.587 198.017C342.084 197.84 340.581 197.486 339.078 196.956C340.581 196.425 342.084 196.16 343.587 195.895C345.09 195.718 346.593 195.63 348.096 195.63C349.599 195.63 351.102 195.718 352.605 195.895C354.02 196.16 355.523 196.425 357.115 196.956Z" fill="#37474F"/>
<path d="M354.463 190.59C353.755 192.005 352.96 193.331 351.987 194.569C351.014 195.807 350.042 196.867 348.981 198.017C347.92 199.078 346.771 200.05 345.621 201.023C344.383 201.907 343.146 202.791 341.643 203.499C342.35 202.084 343.146 200.758 344.118 199.52C345.091 198.282 346.063 197.221 347.124 196.16C348.185 195.099 349.335 194.127 350.572 193.154C351.722 192.093 352.96 191.297 354.463 190.59Z" fill="#37474F"/>
<path d="M354.462 203.41C353.047 202.703 351.721 201.907 350.483 200.935C349.246 199.962 348.185 198.989 347.035 197.928C345.974 196.867 345.002 195.718 344.029 194.569C343.145 193.331 342.261 192.093 341.554 190.59C342.968 191.297 344.295 192.093 345.532 193.066C346.77 194.038 347.831 195.011 348.892 196.072C349.953 197.133 350.926 198.282 351.898 199.52C352.871 200.669 353.755 201.907 354.462 203.41Z" fill="#37474F"/>
<path d="M383.285 187.938C383.816 189.441 384.081 190.944 384.346 192.447C384.523 193.95 384.611 195.453 384.611 196.956C384.611 198.459 384.523 199.962 384.346 201.465C384.169 202.968 383.816 204.471 383.285 205.974C382.755 204.471 382.489 202.968 382.224 201.465C382.047 199.962 381.959 198.459 381.959 196.956C381.959 195.453 382.047 193.95 382.224 192.447C382.489 190.944 382.755 189.441 383.285 187.938Z" fill="#37474F"/>
<path d="M392.392 196.956C390.889 197.486 389.386 197.752 387.883 198.017C386.38 198.194 384.877 198.282 383.374 198.282C381.871 198.282 380.368 198.194 378.865 198.017C377.362 197.84 375.859 197.486 374.355 196.956C375.859 196.425 377.362 196.16 378.865 195.895C380.368 195.718 381.871 195.63 383.374 195.63C384.877 195.63 386.38 195.718 387.883 195.895C389.386 196.16 390.889 196.425 392.392 196.956Z" fill="#37474F"/>
<path d="M389.74 190.59C389.033 192.005 388.237 193.331 387.264 194.569C386.292 195.807 385.319 196.867 384.258 198.017C383.197 199.078 382.048 200.05 380.899 201.023C379.661 201.907 378.423 202.791 376.92 203.499C377.627 202.084 378.423 200.758 379.395 199.52C380.368 198.282 381.341 197.221 382.402 196.16C383.463 195.099 384.612 194.127 385.85 193.154C386.999 192.093 388.237 191.297 389.74 190.59Z" fill="#37474F"/>
<path d="M389.739 203.41C388.325 202.703 386.999 201.907 385.761 200.935C384.523 199.962 383.462 198.989 382.313 197.928C381.252 196.867 380.279 195.718 379.307 194.569C378.422 193.331 377.538 192.093 376.831 190.59C378.246 191.297 379.572 192.093 380.81 193.066C382.047 194.038 383.108 195.011 384.169 196.072C385.23 197.133 386.203 198.282 387.175 199.52C388.148 200.669 389.032 201.907 389.739 203.41Z" fill="#37474F"/>
<path d="M358.883 188.999V237.184H345.267V188.999C345.267 170.697 331.386 155.843 314.234 155.843C297.082 155.843 283.201 170.697 283.201 188.999V237.184H269.585V188.999C269.585 162.74 289.566 141.432 314.234 141.432C338.813 141.432 358.883 162.74 358.883 188.999Z" fill="#455A64"/>
<path d="M269.585 201.553L283.201 202.084V237.184H269.585V201.553Z" fill="#263238"/>
<path d="M358.883 205.178V237.184H345.268V204.559L358.883 205.178Z" fill="#263238"/>
<path d="M376.3 209.687H252.167V322.327H376.3V209.687Z" fill="#8948D7"/>
<g style="mix-blend-mode:color-burn" opacity="0.1">
<path d="M376.3 209.687H314.233V322.327H376.3V209.687Z" fill="#757575"/>
</g>
<path d="M319.45 270.162L324.666 294.83H302.651L307.868 270.162C304.773 268.217 302.651 264.769 302.651 260.879C302.651 254.69 307.603 249.827 313.703 249.827C319.804 249.827 324.755 254.69 324.755 260.879C324.666 264.769 322.544 268.217 319.45 270.162Z" fill="#263238"/>
<path d="M278.161 270.074C278.161 270.074 271.707 322.062 261.009 333.732C248.189 347.79 238.905 345.668 233.777 352.918C228.649 345.668 219.277 347.702 206.546 333.732C195.848 322.062 189.394 270.074 189.394 270.074C217.509 256.458 233.777 241.163 233.777 241.163C234.219 241.693 250.488 256.724 278.161 270.074Z" fill="#EBEBEB"/>
<path d="M233.777 241.163V352.918C228.649 345.668 219.277 347.702 206.546 333.732C195.848 322.062 189.394 270.074 189.394 270.074C217.421 256.458 233.777 241.163 233.777 241.163Z" fill="#DBDBDB"/>
<path d="M271.265 274.318C271.265 274.318 265.783 318.171 256.765 328.074C245.979 339.921 238.11 338.153 233.689 344.342C229.357 338.241 221.488 340.01 210.613 328.074C201.595 318.171 196.113 274.318 196.113 274.318C219.808 262.824 233.601 249.916 233.601 249.916C233.601 249.916 247.57 262.736 271.265 274.318Z" fill="#DBDBDB"/>
<path d="M196.202 274.318C196.202 274.318 201.684 318.171 210.702 328.074C221.489 339.921 229.357 338.153 233.778 344.253V249.916C233.336 250.269 219.632 262.913 196.202 274.318Z" fill="#C7C7C7"/>
<path d="M246.051 309.341C252.853 302.54 252.853 291.511 246.051 284.71C239.249 277.908 228.221 277.908 221.419 284.71C214.618 291.511 214.618 302.54 221.419 309.341C228.221 316.143 239.249 316.143 246.051 309.341Z" fill="#2CE780"/>
<path d="M231.743 308.357L223.963 300.312L226.881 297.571L231.124 301.992L240.408 287.845L243.679 290.056L231.743 308.357Z" fill="white"/>
<path d="M302.653 375.729L302.211 377.762C301.768 380.149 299.47 381.652 297.171 381.21L173.745 357.073L175.779 346.464L299.204 370.601C301.592 371.131 303.095 373.43 302.653 375.729Z" fill="#8336F6"/>
<path opacity="0.1" d="M175.728 346.57L173.661 357.157L188.587 360.07L190.654 349.483L175.728 346.57Z" fill="#8336F6"/>
<path d="M128.565 333.113L124.94 351.857C123.614 358.488 125.205 365.031 128.653 370.159C132.102 375.375 137.583 379.177 144.214 380.503C157.476 383.067 170.296 374.403 172.86 361.229L176.485 342.485C177.812 335.854 176.22 329.311 172.772 324.183C169.324 318.967 163.842 315.165 157.211 313.839C144.037 311.187 131.129 319.851 128.565 333.113ZM168.882 337.799C167.821 343.369 162.958 347.436 156.857 348.32C162.074 351.503 165.08 357.073 164.019 362.643C162.604 370.07 154.293 374.756 145.629 373.076C136.964 371.396 131.129 363.97 132.544 356.454C133.605 350.884 138.467 346.817 144.568 345.933C139.351 342.75 136.345 337.18 137.406 331.61C138.821 324.183 147.044 319.497 155.796 321.177C164.461 322.946 170.385 330.284 168.882 337.799Z" fill="#A233F1"/>
<path d="M181.614 342.75L177.723 362.82C177.547 363.881 176.486 364.589 175.336 364.412L174.364 364.235C173.303 364.058 172.595 362.997 172.772 361.848L176.662 341.778C176.839 340.717 177.9 340.01 179.05 340.186L180.022 340.363C181.083 340.628 181.79 341.689 181.614 342.75Z" fill="#AA39CA"/>
<path d="M186.476 343.723L182.586 363.793C182.409 364.854 181.348 365.561 180.198 365.384L179.226 365.207C178.165 365.031 177.458 363.97 177.635 362.82L181.525 342.75C181.702 341.689 182.762 340.982 183.912 341.159L184.884 341.336C185.945 341.513 186.653 342.574 186.476 343.723Z" fill="#6D1E84"/>
<path d="M269.762 360.433L273.387 361.14L275.509 350.442L278.604 351.061L277.543 356.631L281.256 357.339L282.317 351.769L285.058 352.299L283.378 361.14L287.092 361.848L288.771 353.006L292.75 353.802L290.451 365.561L294.076 366.268L296.375 354.509L300.088 355.217L297.171 370.247L264.369 363.881L267.287 348.851L271.796 349.735L269.762 360.433Z" fill="#8336F6"/>
<defs>
<filter id="filter0_f" x="0.563437" y="137.069" width="215.163" height="216.688" filterUnits="userSpaceOnUse" color-interpolation-filters="sRGB">
<feFlood flood-opacity="0" result="BackgroundImageFix"/>
<feBlend mode="normal" in="SourceGraphic" in2="BackgroundImageFix" result="shape"/>
<feGaussianBlur stdDeviation="2.71828" result="effect1_foregroundBlur"/>
</filter>
<linearGradient id="paint0_linear" x1="108.527" y1="475.555" x2="109.688" y2="501.611" gradientUnits="userSpaceOnUse">
<stop stop-color="#FDC6C6"/>
<stop offset="1" stop-color="#FAB2B2"/>
</linearGradient>
<linearGradient id="paint1_linear" x1="48.1938" y1="477.861" x2="50.3078" y2="500.91" gradientUnits="userSpaceOnUse">
<stop stop-color="#FDC6C6"/>
<stop offset="1" stop-color="#FAB2B2"/>
</linearGradient>
<linearGradient id="paint2_linear" x1="64.3838" y1="187.989" x2="73.9052" y2="231.893" gradientUnits="userSpaceOnUse">
<stop stop-color="#FFAFAF"/>
<stop offset="1" stop-color="#F07777"/>
</linearGradient>
<linearGradient id="paint3_linear" x1="66.7765" y1="179.615" x2="72.8901" y2="209.332" gradientUnits="userSpaceOnUse">
<stop stop-color="#FDC6C6"/>
<stop offset="1" stop-color="#FAB2B2"/>
</linearGradient>
<linearGradient id="paint4_linear" x1="160.362" y1="214.089" x2="160.676" y2="245.364" gradientUnits="userSpaceOnUse">
<stop stop-color="#FDC6C6"/>
<stop offset="1" stop-color="#FAB2B2"/>
</linearGradient>
<linearGradient id="paint5_linear" x1="48.3267" y1="287.393" x2="49.2646" y2="311.353" gradientUnits="userSpaceOnUse">
<stop stop-color="#FDC6C6"/>
<stop offset="1" stop-color="#FAB2B2"/>
</linearGradient>
<linearGradient id="paint6_linear" x1="445.719" y1="299.686" x2="435.923" y2="343.431" gradientUnits="userSpaceOnUse">
<stop stop-color="#FFAFAF"/>
<stop offset="1" stop-color="#F07777"/>
</linearGradient>
<linearGradient id="paint7_linear" x1="444.957" y1="291.381" x2="439.079" y2="320.132" gradientUnits="userSpaceOnUse">
<stop stop-color="#FDC6C6"/>
<stop offset="1" stop-color="#FAB2B2"/>
</linearGradient>
<linearGradient id="paint8_linear" x1="403.395" y1="470.691" x2="401.986" y2="497.021" gradientUnits="userSpaceOnUse">
<stop stop-color="#FDC6C6"/>
<stop offset="1" stop-color="#FAB2B2"/>
</linearGradient>
<linearGradient id="paint9_linear" x1="371.397" y1="325.305" x2="369.494" y2="350.594" gradientUnits="userSpaceOnUse">
<stop stop-color="#FDC6C6"/>
<stop offset="1" stop-color="#FAB2B2"/>
</linearGradient>
<linearGradient id="paint10_linear" x1="441.21" y1="351.427" x2="440.652" y2="367.757" gradientUnits="userSpaceOnUse">
<stop stop-color="#FDC6C6"/>
<stop offset="1" stop-color="#FAB2B2"/>
</linearGradient>
<linearGradient id="paint11_linear" x1="373.176" y1="471.751" x2="371.799" y2="501.101" gradientUnits="userSpaceOnUse">
<stop stop-color="#FDC6C6"/>
<stop offset="1" stop-color="#FAB2B2"/>
</linearGradient>
</defs>
</svg>
