<svg width="195" height="156" viewBox="0 0 195 156" fill="none" xmlns="http://www.w3.org/2000/svg">
<g clip-path="url(#clip0)">
<path fill-rule="evenodd" clip-rule="evenodd" d="M135.179 107.621L127.268 169.562L131.415 169.507L139.327 108.201L135.179 107.621Z" fill="#D2D2D2"/>
<path fill-rule="evenodd" clip-rule="evenodd" d="M138.541 107.621L146.452 169.562L142.304 169.507L134.393 108.201L138.541 107.621Z" fill="#D2D2D2"/>
<path fill-rule="evenodd" clip-rule="evenodd" d="M162.659 107.621L170.57 169.562L166.423 169.507L158.511 108.201L162.659 107.621Z" fill="#D2D2D2"/>
<path fill-rule="evenodd" clip-rule="evenodd" d="M109.073 117.358C105.499 117.358 102.602 114.46 102.602 110.887C102.602 107.313 105.499 104.415 109.073 104.415H132.132C137.85 104.415 142.63 100.067 143.171 94.3752L146.746 56.7053C147.286 51.013 152.067 46.665 157.784 46.665H167.36C173.821 46.665 178.914 52.168 178.414 58.6102L174.652 107.127C174.205 112.901 169.389 117.358 163.598 117.358H109.073Z" fill="#D2D2D2"/>
<path fill-rule="evenodd" clip-rule="evenodd" d="M102.603 110.832C102.619 110.832 102.636 110.832 102.652 110.832H157.022C162.813 110.832 167.628 106.377 168.077 100.604L171.834 52.2849C171.969 50.5516 171.699 48.8863 171.106 47.3778C169.889 46.9176 168.568 46.665 167.183 46.665H157.685C151.968 46.665 147.189 51.0114 146.647 56.7024L143.077 94.214C142.535 99.905 137.755 104.251 132.038 104.251H109.056C105.491 104.251 102.602 107.141 102.602 110.706C102.602 110.748 102.602 110.79 102.603 110.832Z" fill="#B2B0B0"/>
<path fill-rule="evenodd" clip-rule="evenodd" d="M108.064 149.632C108.064 149.632 111.507 157.794 108.685 159.958C105.858 162.122 100.359 167.474 100.359 167.474L118.174 163.654L113.776 148.679L108.064 149.632Z" fill="url(#paint0_linear)"/>
<path fill-rule="evenodd" clip-rule="evenodd" d="M109.087 155.007C109.087 155.007 109.525 158.837 108.261 160.144C106.998 161.451 100.158 166.426 99.622 167.37C99.0862 168.315 100.044 169.357 100.044 169.357C100.044 169.357 107.432 169.991 110.755 167.995C113.154 166.554 116.731 163.965 116.731 163.965L117.679 166.511L120.365 166.402C120.365 166.402 120.721 163.266 120.083 161.762C119.446 160.258 116.163 152.603 116.163 152.603C116.163 152.603 114.9 153.725 113.557 154.29C112.215 154.855 110.533 156.402 110.533 156.402L109.087 155.007Z" fill="#323740"/>
<path fill-rule="evenodd" clip-rule="evenodd" d="M137.866 89.1156C131.877 89.3796 98.5415 96.6588 92.4851 97.8955C86.4286 99.1322 81.3083 105.824 85.9266 113.573C91.1137 122.271 104.497 146.974 107.747 152.543C109.355 155.299 117.469 153.754 115.563 149.128C112.01 140.504 110.36 118.839 101.302 110.94C101.302 110.94 131.765 116.174 144.924 110.178C154.487 105.82 152.324 88.4773 137.866 89.1156Z" fill="#42474F"/>
<path fill-rule="evenodd" clip-rule="evenodd" d="M96.085 50.9087C96.085 50.9087 96.1527 46.0973 94.448 43.5829C92.7433 41.0685 92.6757 38.3976 91.3855 38.485C90.0953 38.5724 91.3728 44.7805 91.3728 44.7805C91.3728 44.7805 89.7358 44.1631 88.5598 43.3821C87.3839 42.6011 83.818 38.751 82.9847 39.4333C81.5719 40.5958 83.8476 47.1531 85.087 48.4641C86.3306 49.7755 93.124 54.0878 93.124 54.0878L109.764 70.8859L112.888 62.3523L96.085 50.9087Z" fill="#FFE0D1"/>
<path fill-rule="evenodd" clip-rule="evenodd" d="M132.892 49.3216C130.106 55.7015 125.004 67.4215 122.901 70.9182C120.266 75.2971 116.11 77.2264 111.244 73.9774C109.952 73.1149 106.016 69.8194 106.016 69.8194L110.779 59.4718L113.868 61.9888C113.868 61.9888 119.096 48.7558 123.303 41.0902C126.945 34.4581 137.133 39.6226 132.892 49.3216Z" fill="#7E4FB6"/>
<path fill-rule="evenodd" clip-rule="evenodd" d="M113.813 61.9956C113.813 61.9956 112.409 66.6983 112.081 66.426C111.753 66.1538 112.332 60.7666 112.332 60.7666L113.813 61.9956Z" fill="black" fill-opacity="0.159856"/>
<path fill-rule="evenodd" clip-rule="evenodd" d="M111.962 60.0444L107.979 73.2126L103.749 69.9348L109.637 58.261L111.962 60.0444Z" fill="#5B259B"/>
<path fill-rule="evenodd" clip-rule="evenodd" d="M137.985 4.81002C137.985 4.81002 140.085 1.39241 143.4 1.64099C146.716 1.88957 150.729 6.88077 150.505 12.4216C150.288 17.9618 151.52 18.8304 153.892 22.0288C160.265 30.6341 150.361 40.7484 150.361 40.7484L137.231 40.7824L136.788 16.618L137.985 4.81002Z" fill="#42474F"/>
<path fill-rule="evenodd" clip-rule="evenodd" d="M143.189 6.79497C152.121 12.8177 146.977 19.8429 146.078 21.4917C144.328 33.4777 147.876 34.0848 153.225 36.7498L151.354 40.0483L143.682 38.6366L137.282 7.41368L143.189 6.79497Z" fill="black" fill-opacity="0.199355"/>
<path fill-rule="evenodd" clip-rule="evenodd" d="M147.376 35.9538C147.376 35.9538 142.813 35.0485 142.678 28.7295C142.542 22.4106 143.294 20.2536 143.294 20.2536L134.69 20.1003C134.69 20.1003 134.596 27.1427 134.595 29.6899C134.591 35.8834 129.763 36.6018 129.763 36.6018C129.763 36.6018 130.766 41.5012 138.563 41.934C144.65 42.2724 147.376 35.9538 147.376 35.9538Z" fill="#F9C7B0"/>
<path fill-rule="evenodd" clip-rule="evenodd" d="M142.998 6.5724C143.32 2.92517 137.24 2.05259 136.108 4.8717C136.108 4.8717 135.792 7.38243 137.769 8.35731C140.443 9.67057 142.998 6.5724 142.998 6.5724Z" fill="#FB9934"/>
<path fill-rule="evenodd" clip-rule="evenodd" d="M143.788 15.9632C147.512 15.0217 148.053 20.578 144.151 21.3997C144.151 21.3997 143.525 29.5894 135.66 31.261C129.273 32.6186 126.948 23.7229 126.509 21.943C126.04 20.0453 124.698 13.7691 124.698 13.7691L142.661 9.94233L143.788 15.9632Z" fill="#FFE0D1"/>
<path fill-rule="evenodd" clip-rule="evenodd" d="M142.529 19.7279C141.853 19.6913 140.935 16.2242 140.935 16.2242C138.943 16.2558 138.516 15.901 136.573 13.8669C130.44 16.5825 126.169 17.9215 126.592 22.6824C126.592 22.6824 119.493 12.9909 127.131 7.38657C133.85 2.46185 142.357 3.93875 144.967 9.49057C146.812 13.4087 146.345 16.6737 146.345 16.6737C146.345 16.6737 145.047 15.3502 143.531 16.072C142.014 16.7938 143.205 19.7646 142.529 19.7279Z" fill="#42474F"/>
<path d="M136.075 25.7605C136.075 25.7605 134.535 27.7246 132.054 26.7194" stroke="#F77B7B" stroke-width="1.5" stroke-linecap="round"/>
<path d="M135.225 27.8366C134.698 28.226 134.141 28.3646 133.584 28.2064" stroke="#F49494" stroke-linecap="round"/>
<path d="M144.025 18.9627C143.801 18.1005 143.923 17.3521 144.793 17.0221" stroke="#F77B7B" stroke-linecap="round"/>
<path fill-rule="evenodd" clip-rule="evenodd" d="M131.562 35.7574C131.457 35.7524 127.777 37.3462 127.354 37.9607C124.594 41.9638 119.526 56.0531 119.265 59.1095C118.971 62.6352 124.112 68.2514 124.175 73.3553C124.231 78.4598 121.976 93.829 122.851 95.2647C123.719 96.7004 129.423 103.52 130.613 103.548C131.809 103.576 132.703 99.9952 134.515 100.073C136.321 100.151 140.086 104.898 141.71 104.864C143.327 104.829 160.082 94.3366 158.801 91.347C157.513 88.3574 151.536 80.9279 152.145 76.8545C152.747 72.7817 157.555 57.7468 159.291 52.6298C161.02 47.5127 162.412 43.4365 159.186 41.2346C155.96 39.0327 145.461 35.0051 145.461 35.0051L136.062 40.2028C136.062 40.2028 132.108 35.7834 131.562 35.7574Z" fill="#5B259B"/>
<path fill-rule="evenodd" clip-rule="evenodd" d="M134.904 40.0583C132.085 49.3258 128.216 58.4575 126.667 67.1475L131.174 64.747L135.331 67.8609C135.038 58.8263 136.572 49.3399 137.277 40.0583H134.904Z" fill="#FFF8F9"/>
<path fill-rule="evenodd" clip-rule="evenodd" d="M151.37 47.1743L151.477 47.9238C152.74 57.2304 151.246 68.5235 148.655 70.2464C146.011 72.0052 135.721 70.2793 135.721 71.6721C135.721 73.065 149.942 85.8298 147.607 91.932C146.324 95.2871 146.753 98.2709 148.897 100.884L149.519 100.47C154.376 97.2132 159.533 93.0552 158.801 91.347C157.514 88.3574 151.537 80.9279 152.145 76.8545C152.723 72.9446 157.178 58.9321 159.069 53.2901L159.671 51.5013C160.371 49.4039 160.954 47.504 161.095 45.8646L160.66 45.5861C153.714 41.1846 150.618 41.7141 151.37 47.1743Z" fill="black" fill-opacity="0.159856"/>
<path fill-rule="evenodd" clip-rule="evenodd" d="M147.196 35.6614L145.461 35.0051L135.856 39.9339C135.856 39.9339 137.662 44.4774 140.86 42.2149C143.602 40.2801 142.445 38.5776 144.594 37.6993C146.736 36.821 147.196 35.6614 147.196 35.6614Z" fill="#FFF8F9"/>
<path fill-rule="evenodd" clip-rule="evenodd" d="M135.855 39.9339C135.159 41.4627 133.744 42.3561 133.012 42.0784C131.804 41.6197 132.322 39.792 131.846 38.8688C131.505 38.2138 131.285 38.1149 130.987 37.4999C130.71 36.9357 130.698 36.2586 130.769 36.0718L131.714 35.6472C131.714 35.6472 133.013 36.8579 133.617 37.4999C134.37 38.2999 135.855 39.9339 135.855 39.9339Z" fill="#FFF8F9"/>
<path fill-rule="evenodd" clip-rule="evenodd" d="M146.431 64.4808C146.431 64.4808 140.776 59.5392 139.045 58.9658C137.314 58.3923 127.174 57.7034 127.239 58.9992C127.311 60.3875 132.757 60.3076 133.321 60.9907C133.886 61.6733 134.014 66.3413 136.147 66.8654C138.275 67.3895 144.657 68.293 144.657 68.293L159.923 77.3825L160.575 69.0774L146.431 64.4808Z" fill="#FFE0D1"/>
<path fill-rule="evenodd" clip-rule="evenodd" d="M161.476 43.558C167.434 51.8599 172.521 64.5058 174.474 69.436C176.427 74.3663 174.457 81.8026 165.871 80.3427C164.421 80.0964 161.169 79.1077 161.169 79.1077L159.117 67.689L161.764 68.7861C161.764 68.7861 153.23 53.8524 151.146 49.8491C147.665 43.1633 156.228 36.2432 161.476 43.558Z" fill="#7E4FB6"/>
<path fill-rule="evenodd" clip-rule="evenodd" d="M161.764 68.7862C161.764 68.7862 166.098 70.8765 165.553 69.957C165.008 69.0376 160.129 65.8821 160.129 65.8821L161.764 68.7862Z" fill="black" fill-opacity="0.159856"/>
<path fill-rule="evenodd" clip-rule="evenodd" d="M161.35 68.2585L162.768 80.6058L157.162 78.8467L158.008 66.7463L161.35 68.2585Z" fill="#5B259B"/>
<path fill-rule="evenodd" clip-rule="evenodd" d="M87.2603 149.908C87.2603 149.908 87.3641 157.989 80.6192 161.011C73.8785 164.032 69.0759 163.85 69.6872 166.186C70.2984 168.521 87.8439 168.427 89.4824 166.6C90.8789 165.046 93.9157 150.576 94.752 151.683L87.2603 149.908Z" fill="url(#paint1_linear)"/>
<path fill-rule="evenodd" clip-rule="evenodd" d="M93.5518 156.278C93.5518 156.278 92.1342 159.71 92.0095 161.79C91.8841 163.871 88.6572 169.785 88.6572 169.785L86.1081 170.101L85.8751 167.956C85.8751 167.956 82.1853 169.509 79.8704 169.757C77.5561 170.005 69.6169 169.073 68.0383 167.778C66.4591 166.483 67.2569 164.659 71.814 163.548C76.3706 162.436 83.4505 159.189 84.7977 156.838C86.145 154.487 86.1532 154.548 86.1532 154.548L86.1262 158.466C86.1262 158.466 87.2924 156.403 88.669 156.128C90.0455 155.853 93.5518 156.278 93.5518 156.278Z" fill="#323740"/>
<path fill-rule="evenodd" clip-rule="evenodd" d="M155.976 86.6172C155.976 86.6172 167.309 103.476 153.759 111.007C142.188 117.437 106.498 109.905 106.498 109.905C106.498 109.905 107.131 114.937 106.498 119.425C104.845 131.146 96.9817 150.674 95.318 153.128C93.0173 156.521 86.009 153.962 85.877 151.137C85.745 148.311 91.1602 112.226 91.9837 105.344C92.8029 98.4628 95.3894 97.4633 102.944 95.5821C104.679 95.1499 125.203 90.1144 127.083 90.2612C143.237 91.5223 155.976 86.6172 155.976 86.6172Z" fill="#42474F"/>
<path opacity="0.439941" fill-rule="evenodd" clip-rule="evenodd" d="M147.744 109.133C136.028 110.429 105.01 107.757 103.764 108.971C102.575 110.13 102.773 130.296 100.105 141.966C102.733 134.895 105.578 125.95 106.499 119.425C107.132 114.937 106.499 109.905 106.499 109.905L107.71 110.144C114.034 111.356 143.35 116.563 153.76 111.007C159.865 107.747 162.227 102.702 160.846 95.8687C159.181 103.929 154.814 108.351 147.744 109.133Z" fill="white" fill-opacity="0.192499"/>
<ellipse rx="1.96789" ry="3.56656" transform="matrix(-0.97437 0.224949 0.224953 0.97437 86.9874 106.268)" fill="white" fill-opacity="0.192499"/>
<ellipse rx="2.62301" ry="3.89206" transform="matrix(-0.961262 -0.275636 -0.275638 0.961261 96.1773 104)" fill="white" fill-opacity="0.192499"/>
<path d="M67.4621 42.0644C66.6313 40.5235 67.6274 38.6319 69.368 38.4451L85.8526 36.6762C86.8296 36.5713 87.7754 37.057 88.2596 37.912L99.1667 57.1738C100.007 58.6581 99.1216 60.5268 97.4406 60.8162L81.0058 63.6456C79.9626 63.8251 78.9213 63.3184 78.419 62.3866L67.4621 42.0644Z" fill="#7596FF"/>
<path fill-rule="evenodd" clip-rule="evenodd" d="M68.2337 41.9176C67.4391 40.4233 68.353 38.5912 70.0246 38.327L86.0928 35.7878C87.1312 35.6237 88.1594 36.1365 88.653 37.0648L99.1279 56.7652C99.9224 58.2595 99.0086 60.0916 97.3369 60.3558L81.2687 62.895C80.2303 63.0591 79.2021 62.5463 78.7085 61.618L68.2337 41.9176Z" fill="url(#paint2_linear)"/>
<path d="M68.3389 39.9619L87.3522 36.7221L99.0287 58.6825L80.1066 61.5632L68.3389 39.9619Z" fill="white"/>
<path d="M73.365 37.5438C73.075 37.0513 73.3801 36.4224 73.9464 36.3453L80.5624 35.4442C81.2013 35.3572 81.83 35.6622 82.1571 36.2178L83.0737 37.7747C83.3637 38.2672 83.0586 38.8961 82.4923 38.9733L75.8763 39.8744C75.2374 39.9614 74.6087 39.6564 74.2816 39.1007L73.365 37.5438Z" fill="#7367F0"/>
<path fill-rule="evenodd" clip-rule="evenodd" d="M83.1733 43.1391C83.4266 43.0044 83.7408 43.1001 83.8751 43.3528C83.9999 43.5874 83.9257 43.8749 83.7117 44.0226L83.6599 44.0541L75.198 45.4796C74.9447 45.6142 74.6305 45.5185 74.4962 45.2659C74.3714 45.0312 74.4456 44.7437 74.6596 44.5961L74.7115 44.5646L83.1733 43.1391Z" fill="#A7C3FF"/>
<path fill-rule="evenodd" clip-rule="evenodd" d="M85.6059 47.7143C85.8592 47.5796 86.1734 47.6753 86.3077 47.928C86.4325 48.1626 86.3583 48.4501 86.1443 48.5978L86.0925 48.6293L77.6306 50.0548C77.3774 50.1894 77.0632 50.0937 76.9288 49.8411C76.8041 49.6064 76.8782 49.3189 77.0922 49.1713L77.1441 49.1397L85.6059 47.7143Z" fill="#A7C3FF"/>
<path fill-rule="evenodd" clip-rule="evenodd" d="M88.0386 52.2892C88.2918 52.1546 88.606 52.2502 88.7403 52.5029C88.8651 52.7375 88.7909 53.025 88.5769 53.1727L88.5251 53.2042L80.0632 54.6297C79.81 54.7644 79.4958 54.6687 79.3614 54.416C79.2367 54.1814 79.3109 53.8939 79.5248 53.7462L79.5767 53.7147L88.0386 52.2892Z" fill="#A7C3FF"/>
<path fill-rule="evenodd" clip-rule="evenodd" d="M66.6123 89.8621H79.7142V171.239H66.6123V89.8621Z" fill="#AAAAAA"/>
<path fill-rule="evenodd" clip-rule="evenodd" d="M66.6123 86.665H74.4734V171.239H66.6123V86.665Z" fill="#B3B3B3"/>
<path fill-rule="evenodd" clip-rule="evenodd" d="M7.00391 89.8621H71.8581V114.27H20.1058V171.239H7.00391V89.8621Z" fill="#AAAAAA"/>
<path fill-rule="evenodd" clip-rule="evenodd" d="M7.00391 89.8621H14.865V171.239H7.00391V89.8621Z" fill="#B3B3B3"/>
<path fill-rule="evenodd" clip-rule="evenodd" d="M169.189 89.8621H182.291V171.239H169.189V89.8621Z" fill="#B6B6B6"/>
<path fill-rule="evenodd" clip-rule="evenodd" d="M109.581 89.8621H174.435V120.075H122.683V171.239H109.581V89.8621Z" fill="#ABABAB"/>
<path fill-rule="evenodd" clip-rule="evenodd" d="M17.4805 86.665L117.367 86.665V120.015H17.4805V86.665Z" fill="#C6C6C6"/>
<path fill-rule="evenodd" clip-rule="evenodd" d="M107.616 89.8621H115.477V120.015H107.616V89.8621Z" fill="#ABABAB"/>
<path fill-rule="evenodd" clip-rule="evenodd" d="M109.581 89.8621H117.442V171.239H109.581V89.8621Z" fill="#C6C6C6"/>
<path fill-rule="evenodd" clip-rule="evenodd" d="M112.233 91.4606C112.233 88.8121 114.38 86.665 117.029 86.665L184.708 86.665C187.356 86.665 189.503 88.8121 189.503 91.4606C189.503 94.1091 187.356 96.2561 184.708 96.2561H117.029C114.38 96.2561 112.233 94.1091 112.233 91.4606Z" fill="#B6B6B6"/>
<path fill-rule="evenodd" clip-rule="evenodd" d="M9.69531 88.5833H109.581V98.1743H9.69531V88.5833Z" fill="#ABABAB"/>
<path fill-rule="evenodd" clip-rule="evenodd" d="M0 91.4606C0 88.8121 2.14703 86.665 4.79552 86.665H119.198C121.846 86.665 123.994 88.8121 123.994 91.4606C123.994 94.1091 121.846 96.2561 119.198 96.2561H4.79553C2.14704 96.2561 0 94.1091 0 91.4606Z" fill="#C6C6C6"/>
<path fill-rule="evenodd" clip-rule="evenodd" d="M135.185 76.8574H138.457C139.089 76.8574 139.602 77.3471 139.602 77.9512V79.4493C139.602 80.8808 138.388 82.0412 136.89 82.0412H135.185C134.914 82.0412 134.695 81.8314 134.695 81.5725C134.695 81.3136 134.914 81.1037 135.185 81.1037H136.89C137.846 81.1037 138.621 80.363 138.621 79.4493V77.9512C138.621 77.8649 138.548 77.7949 138.457 77.7949H135.185C134.914 77.7949 134.695 77.5851 134.695 77.3262C134.695 77.0673 134.914 76.8574 135.185 76.8574Z" fill="#EAE8FD"/>
<path fill-rule="evenodd" clip-rule="evenodd" d="M124.319 75.665C123.597 75.665 123.011 76.2247 123.011 76.915V80.04C123.011 82.29 124.788 84.1433 127.074 84.3877L127.074 85.04H132.798L132.799 84.3735C135.027 84.0786 136.742 82.2508 136.742 80.04V76.915C136.742 76.2247 136.157 75.665 135.434 75.665H124.319Z" fill="#EAE8FD"/>
<path fill-rule="evenodd" clip-rule="evenodd" d="M136.986 84.7374C136.986 84.5594 136.842 84.415 136.664 84.415H123.578C123.4 84.415 123.256 84.5594 123.256 84.7375C123.256 84.9076 123.388 85.0484 123.558 85.0592L128.385 85.366H131.818L136.684 85.0591C136.854 85.0484 136.986 84.9075 136.986 84.7374Z" fill="#EAE8FD"/>
<path fill-rule="evenodd" clip-rule="evenodd" d="M47.9854 84.4974C47.9854 84.0047 48.3848 83.6052 48.8775 83.6052H111.676C112.169 83.6052 112.568 84.0047 112.568 84.4974C112.568 84.9902 112.169 85.3896 111.676 85.3896H48.8775C48.3848 85.3896 47.9854 84.9902 47.9854 84.4974Z" fill="#CECECE"/>
<path fill-rule="evenodd" clip-rule="evenodd" d="M90.5293 84.4974C90.5293 84.0047 90.9287 83.6052 91.4215 83.6052H111.677C112.169 83.6052 112.569 84.0047 112.569 84.4974C112.569 84.9902 112.169 85.3896 111.677 85.3896H91.4215C90.9287 85.3896 90.5293 84.9902 90.5293 84.4974Z" fill="#BBBBBB"/>
<path fill-rule="evenodd" clip-rule="evenodd" d="M45.1246 60.7251C44.8472 58.572 46.5243 56.665 48.6951 56.665H85.2938C87.1041 56.665 88.6329 58.0095 88.8642 59.805L91.4174 79.6222C91.6948 81.7753 90.0178 83.6822 87.8469 83.6822H51.2483C49.4379 83.6822 47.9092 82.3378 47.6778 80.5422L45.1246 60.7251Z" fill="#BBBBBB"/>
<path fill-rule="evenodd" clip-rule="evenodd" d="M45.1246 60.7251C44.8472 58.572 46.5243 56.665 48.6951 56.665H83.9014C85.7118 56.665 87.2406 58.0095 87.4719 59.805L90.0251 79.6222C90.3025 81.7753 88.6255 83.6822 86.4546 83.6822H51.2483C49.4379 83.6822 47.9092 82.3378 47.6778 80.5422L45.1246 60.7251Z" fill="url(#paint3_linear)"/>
<ellipse rx="2.76483" ry="3.0121" transform="matrix(0.798637 -0.601813 0.601817 0.798634 66.8597 70.6035)" fill="white"/>
<path fill-rule="evenodd" clip-rule="evenodd" d="M182.588 138.821C186.567 129.978 190.182 120.895 193.491 111.613C185.869 118.671 179.941 127.27 180.785 138.821H182.588Z" fill="#57E295"/>
<path fill-rule="evenodd" clip-rule="evenodd" d="M180.468 139.745C179.526 124.666 179.925 110.662 187.818 102.665C186.729 119.221 184.693 130.884 182.113 139.745H180.468Z" fill="#28C76F"/>
<path fill-rule="evenodd" clip-rule="evenodd" d="M180.106 138.174C175.696 127.637 171.265 124.617 167.602 113.801C179.59 119.908 180.341 124.95 182.694 138.174H180.106Z" fill="#57E295"/>
<path fill-rule="evenodd" clip-rule="evenodd" d="M177.732 138.174L169.821 127.637C173.642 128.707 180.028 130.44 180.028 138.174H177.732Z" fill="#28C76F"/>
<path fill-rule="evenodd" clip-rule="evenodd" d="M185.132 138.174H187.771C189.448 134.734 191.811 132.366 197.529 135.237C193.781 129.628 186.091 127.931 185.132 138.174Z" fill="#57E295"/>
<path fill-rule="evenodd" clip-rule="evenodd" d="M182.704 138.174H184.899C188.927 132.515 190.658 130.05 194.827 125.217C189.336 127.264 183.699 130.05 182.704 138.174Z" fill="#28C76F"/>
<path fill-rule="evenodd" clip-rule="evenodd" d="M177.333 136.934H188.246C188.662 136.934 188.999 137.265 188.999 137.673V139.705C191.759 143.123 193.139 146.541 193.139 149.96C193.139 153.272 191.96 156.585 189.604 159.898C189.463 160.096 189.232 160.214 188.987 160.214H176.593C176.347 160.214 176.116 160.096 175.975 159.898C173.619 156.585 172.44 153.272 172.44 149.96C172.44 146.606 173.769 143.252 176.425 139.899L176.58 139.705V137.673C176.58 137.265 176.917 136.934 177.333 136.934Z" fill="#7367F0"/>
<mask id="mask0" mask-type="alpha" maskUnits="userSpaceOnUse" x="172" y="136" width="22" height="25">
<path fill-rule="evenodd" clip-rule="evenodd" d="M177.333 136.934H188.246C188.662 136.934 188.999 137.265 188.999 137.673V139.705C191.759 143.123 193.139 146.541 193.139 149.96C193.139 153.272 191.96 156.585 189.604 159.898C189.463 160.096 189.232 160.214 188.987 160.214H176.593C176.347 160.214 176.116 160.096 175.975 159.898C173.619 156.585 172.44 153.272 172.44 149.96C172.44 146.606 173.769 143.252 176.425 139.899L176.58 139.705V137.673C176.58 137.265 176.917 136.934 177.333 136.934Z" fill="white"/>
</mask>
<g mask="url(#mask0)">
<path fill-rule="evenodd" clip-rule="evenodd" d="M169.806 136.294H179.59C174.906 147.001 184.146 153.341 179.59 164.008H169.806V136.294Z" fill="#857AF9"/>
</g>
</g>
<defs>
<linearGradient id="paint0_linear" x1="121.256" y1="144.104" x2="119.733" y2="166.503" gradientUnits="userSpaceOnUse">
<stop stop-color="#FDC6C6"/>
<stop offset="1" stop-color="#FAB2B2"/>
</linearGradient>
<linearGradient id="paint1_linear" x1="99.0982" y1="145.514" x2="98.0994" y2="167.078" gradientUnits="userSpaceOnUse">
<stop stop-color="#FDC6C6"/>
<stop offset="1" stop-color="#FAB2B2"/>
</linearGradient>
<linearGradient id="paint2_linear" x1="56.5899" y1="23.4291" x2="81.4062" y2="70.1018" gradientUnits="userSpaceOnUse">
<stop stop-color="#7367F0"/>
<stop offset="1" stop-color="#8CA5FF"/>
</linearGradient>
<linearGradient id="paint3_linear" x1="40.9791" y1="42.317" x2="40.9791" y2="83.6822" gradientUnits="userSpaceOnUse">
<stop stop-color="#DBDBDB"/>
<stop offset="1" stop-color="#CCCCCC"/>
</linearGradient>
<clipPath id="clip0">
<rect width="195" height="156" fill="white"/>
</clipPath>
</defs>
</svg>
